<svg width="24" height="24" viewBox="0 0 24 24" fill="none" xmlns="http://www.w3.org/2000/svg">
<path fill-rule="evenodd" clip-rule="evenodd" d="M10.208 11.4582C10.2234 11.4626 10.2397 11.4612 10.2541 11.4542C10.2557 11.4528 10.2568 11.451 10.2574 11.4489C10.2583 11.4468 10.2585 11.4445 10.258 11.4422C10.2575 11.4402 10.2563 11.4383 10.2548 11.4369C10.2533 11.4355 10.2514 11.4346 10.2495 11.4342C9.87308 11.4006 9.50531 11.3009 9.1626 11.1396C8.63223 10.8946 8.16665 10.5259 7.80396 10.0636C7.44127 9.60125 7.19179 9.05845 7.07594 8.47963C6.96009 7.90081 6.98117 7.30241 7.13745 6.73343C7.29373 6.16445 7.58076 5.64106 7.97506 5.20611C8.33033 4.8061 8.78035 4.49143 9.32379 4.26276C9.42062 4.22099 9.52105 4.18841 9.6238 4.16542C9.64749 4.16075 9.72973 4.14009 9.87118 4.10475C10.5646 3.92742 11.2627 3.97542 11.9647 4.24742C13.2397 4.74076 14.0871 5.80078 14.3214 7.16814C14.3496 7.33415 14.3628 7.63482 14.3615 8.07016C14.3589 9.23552 14.3589 9.92553 14.3621 10.1402C14.3668 10.4262 14.3503 10.6229 14.3141 10.7309C14.0437 11.5376 12.991 11.7422 12.4805 11.0536C12.4725 11.0429 12.4611 11.0354 12.4482 11.0325C12.4353 11.0296 12.4218 11.0314 12.4101 11.0376C11.8705 11.331 11.2649 11.4771 10.6528 11.4616C10.5048 11.4589 10.3567 11.4582 10.208 11.4589V11.4582ZM12.2581 7.73815C12.2624 7.52551 12.2248 7.31413 12.1474 7.11641C12.0701 6.91868 11.9546 6.73858 11.8077 6.58666C11.6608 6.43474 11.4855 6.31404 11.2919 6.23165C11.0984 6.14925 10.8907 6.10681 10.6808 6.10681C10.4709 6.10681 10.2631 6.14925 10.0696 6.23165C9.87606 6.31404 9.70072 6.43474 9.55382 6.58666C9.40693 6.73858 9.29142 6.91868 9.21408 7.11641C9.13673 7.31413 9.0991 7.52551 9.10339 7.73815C9.11182 8.15641 9.28171 8.55466 9.57661 8.84744C9.8715 9.14022 10.2679 9.30421 10.6808 9.30421C11.0936 9.30421 11.49 9.14022 11.7849 8.84744C12.0798 8.55466 12.2497 8.15641 12.2581 7.73815ZM18.4623 4.06208C18.4479 4.05805 18.4327 4.05805 18.4182 4.06208H18.4169V4.06342H18.4182C19.4867 3.88741 20.4525 4.12075 21.3164 4.76343C21.5466 4.9341 21.8236 5.17811 21.9236 5.44344C22.1414 6.02346 21.8815 6.65413 21.296 6.8568C20.9742 6.96814 20.6742 6.93414 20.3946 6.7548C20.2459 6.65947 20.0946 6.48346 19.9328 6.38346C19.4433 6.08479 18.9242 6.05879 18.3741 6.30613C18.3667 6.30975 18.3596 6.31422 18.3531 6.31946L18.0202 6.55747C18.006 6.56798 17.9928 6.57981 17.9807 6.5928C17.6866 6.91614 17.5333 7.27681 17.5221 7.67482C17.5103 8.05949 17.6064 8.3915 17.8103 8.67084C18.0254 8.96618 18.3057 9.16685 18.6518 9.27218C19.0788 9.40219 19.4913 9.35219 19.8887 9.12218C19.9683 9.07685 20.0637 9.00218 20.1749 8.89951C20.319 8.76817 20.413 8.69284 20.4578 8.67151C20.9723 8.43683 21.5605 8.54884 21.8684 9.06351C21.8802 9.08351 21.8881 9.10485 21.8934 9.12818L21.9309 9.29485C22.0039 9.60086 21.994 9.85886 21.8999 10.0695C21.8295 10.2282 21.6789 10.4069 21.4466 10.6049C21.1951 10.8132 20.9196 10.9901 20.6262 11.1316C20.4683 11.2116 20.3519 11.2622 20.2775 11.2869C19.8154 11.4369 19.3292 11.4958 18.8452 11.4602C16.1346 11.2762 14.5503 8.26683 15.9063 5.87745C16.1425 5.46078 16.4103 5.1301 16.709 4.8841C16.9786 4.65596 17.2765 4.46455 17.5952 4.31476C17.8458 4.20142 18.1347 4.12409 18.4603 4.08142C18.4626 4.081 18.4646 4.07987 18.4661 4.07819C18.4677 4.07651 18.4686 4.07437 18.4689 4.07208C18.4689 4.06942 18.4689 4.06742 18.4676 4.06542C18.4663 4.06368 18.4644 4.06249 18.4623 4.06208ZM7.31582 14.7856C7.50823 14.3048 7.80506 13.8742 8.18427 13.5256C8.40384 13.3218 8.64172 13.1392 8.89483 12.9803C8.90951 12.9715 8.9252 12.9645 8.94154 12.9596C9.04089 12.9289 9.14286 12.8823 9.24747 12.8196C9.26407 12.8094 9.28276 12.8033 9.30208 12.8016C9.36261 12.7969 9.40274 12.7843 9.42314 12.7629C9.43467 12.7508 9.44888 12.7417 9.46459 12.7362C9.63433 12.6762 9.75868 12.6382 9.8396 12.6229C10.0717 12.5814 10.3062 12.5554 10.5416 12.5449C12.6226 12.4276 14.3918 14.2003 14.3582 16.2997C14.349 16.8577 13.8944 17.3263 13.3411 17.325L11.8739 17.3337C11.5535 17.335 11.3449 17.319 11.2489 17.2857C10.8923 17.163 10.5844 16.8237 10.5396 16.4363C10.487 15.9763 10.6449 15.661 10.9896 15.3596C11.0083 15.3432 11.0294 15.33 11.0522 15.3203C11.2824 15.219 11.5318 15.1803 11.7982 15.205C11.8045 15.2056 11.8108 15.2042 11.8163 15.201C11.8217 15.1978 11.826 15.1928 11.8285 15.187C11.831 15.181 11.8317 15.1745 11.8304 15.1681C11.8291 15.1618 11.8259 15.156 11.8213 15.1516C11.3482 14.711 10.8212 14.5716 10.2403 14.7336C9.80473 14.8556 9.4034 15.2116 9.24024 15.6136C9.01325 16.1763 9.06523 16.7017 9.39551 17.1903C9.63236 17.539 10.0482 17.8023 10.4403 17.8443C10.6745 17.8697 10.914 17.8663 11.1074 17.9577C11.9805 18.3717 11.9298 19.6584 10.9936 19.9511C10.8127 20.0077 10.564 20.0151 10.2475 19.9737C9.41342 19.8737 8.63833 19.4871 8.05137 18.8784C8.00193 18.8288 7.957 18.7748 7.91716 18.717C7.86255 18.637 7.78557 18.587 7.73294 18.5077C7.51912 18.193 7.36714 17.9197 7.27766 17.689C6.90462 16.7257 6.90725 15.7703 7.28687 14.8223C7.2974 14.797 7.30661 14.785 7.31516 14.7856H7.31582Z" fill="white"/>
</svg>
