<svg width="24" height="24" viewBox="0 0 24 24" fill="none" xmlns="http://www.w3.org/2000/svg">
<path fill-rule="evenodd" clip-rule="evenodd" d="M11.996 4C13.4652 3.99933 14.4631 5.38 14.9937 6.58267C15.243 7.14867 15.4416 7.73467 15.5883 8.34133C15.5909 8.35199 15.5964 8.36173 15.6041 8.36948C15.6119 8.37724 15.6216 8.38272 15.6323 8.38533C16.2222 8.52467 16.7842 8.70933 17.3181 8.93867C18.098 9.27467 18.8086 9.71867 19.3686 10.3587C19.4986 10.508 19.6259 10.7053 19.7512 10.952C20.2712 11.978 19.9312 13.0813 19.1479 13.852C18.2067 14.7787 16.8922 15.2767 15.639 15.5907C15.6315 15.5924 15.6248 15.5963 15.6195 15.6019C15.6143 15.6075 15.6109 15.6145 15.6096 15.622C15.5856 15.7733 15.487 16.1113 15.3143 16.6367C14.841 18.0767 13.7545 19.9993 12.004 20C10.2542 20.0007 9.16561 18.08 8.691 16.64C8.51768 16.1147 8.41902 15.7767 8.39369 15.6253C8.39241 15.6179 8.38903 15.611 8.38395 15.6055C8.37887 15.5999 8.3723 15.5959 8.36503 15.594C7.11182 15.282 5.79662 14.7847 4.85405 13.8593C4.06946 13.0893 3.72883 11.986 4.24811 10.9593C4.37343 10.7127 4.50009 10.5153 4.63007 10.366C5.18935 9.72467 5.89994 9.28067 6.6792 8.944C7.22389 8.71012 7.78798 8.5243 8.36503 8.38867C8.37566 8.38616 8.38537 8.3807 8.39304 8.37291C8.4007 8.36513 8.40601 8.35534 8.40836 8.34467C8.55501 7.738 8.75232 7.15133 9.00163 6.58533C9.53024 5.38133 10.5275 4.00067 11.996 4ZM15.9389 9.996L16.0562 10.856C16.0582 10.8674 16.0644 10.8777 16.0736 10.8847C16.3502 11.0967 16.5315 11.338 16.6169 11.6067C16.6788 11.8029 16.6944 12.0109 16.6624 12.2142C16.6304 12.4175 16.5516 12.6106 16.4324 12.7784C16.3131 12.9461 16.1566 13.0839 15.9751 13.1809C15.7936 13.2779 15.592 13.3314 15.3863 13.3373C15.1911 13.3449 14.9965 13.3094 14.8165 13.2334C14.6364 13.1575 14.4753 13.0429 14.3444 12.8977C14.2135 12.7526 14.1162 12.5805 14.0591 12.3936C14.0021 12.2066 13.9869 12.0095 14.0145 11.816C14.0645 11.4693 14.2538 11.1647 14.5824 10.9033C14.5871 10.8997 14.5908 10.8949 14.5932 10.8894C14.5955 10.8839 14.5964 10.8779 14.5957 10.872C14.5277 10.22 14.3884 9.598 14.2231 8.87667C14.0231 8.00333 13.7385 7.19067 13.2565 6.40667C13.1604 6.24714 13.0473 6.0985 12.9192 5.96333C12.5993 5.634 12.2546 5.36533 11.7887 5.478C11.4714 5.55533 11.0761 5.914 10.8954 6.17333C10.4806 6.77143 10.1657 7.43293 9.96287 8.132C9.96351 8.1353 9.96539 8.13823 9.96811 8.14021C9.97083 8.14219 9.97419 8.14307 9.97753 8.14267L11.0361 8.09333C11.0476 8.09283 11.0585 8.08808 11.0668 8.08C11.492 7.65867 12.1133 7.57333 12.6246 7.87467C12.8366 7.99933 13.0039 8.19333 13.1272 8.45667C13.4312 9.108 13.0452 9.88333 12.4206 10.1113C11.8347 10.3253 11.2207 10.1073 10.8914 9.572C10.8872 9.56515 10.8812 9.55955 10.874 9.5558C10.8669 9.55205 10.8588 9.55028 10.8508 9.55067C10.3128 9.56948 9.77614 9.61598 9.24294 9.69C8.79232 9.75267 8.3077 9.88733 7.90041 10.0233C7.43912 10.1753 7.0025 10.37 6.59054 10.6073C6.0006 10.9473 5.13136 11.652 5.56664 12.424C5.64597 12.5647 5.72196 12.6727 5.79529 12.7487C6.38856 13.362 7.12849 13.692 7.99507 13.9833C7.99739 13.9841 7.99988 13.9843 8.0023 13.9839C8.00472 13.9835 8.00699 13.9825 8.00892 13.9809C8.01084 13.9794 8.01235 13.9774 8.01331 13.9752C8.01427 13.9729 8.01464 13.9704 8.0144 13.968L7.90974 13.2047C7.90886 13.1978 7.90642 13.1912 7.90261 13.1854C7.8988 13.1797 7.89371 13.1748 7.88774 13.1713C7.63669 13.0228 7.43889 12.7988 7.32247 12.5313C7.04583 11.9147 7.30247 11.2093 7.85041 10.8713C8.09924 10.7182 8.39142 10.6508 8.68219 10.6796C8.97295 10.7084 9.24627 10.8317 9.46025 11.0307C9.69023 11.2407 9.87554 11.6007 9.88821 11.9347C9.90554 12.3993 9.71956 12.7607 9.36693 13.07C9.36213 13.074 9.3584 13.0792 9.35608 13.085C9.35375 13.0908 9.3529 13.0971 9.35359 13.1033C9.46358 13.94 9.67689 14.8 9.87821 15.5733C10.0529 16.2427 10.3382 16.972 10.7421 17.6007C10.9521 17.9273 11.2067 18.214 11.4987 18.3933C11.8493 18.6087 12.1986 18.6013 12.5453 18.3713C12.9892 18.0767 13.2419 17.682 13.5252 17.1567C13.7409 16.7563 13.913 16.3339 14.0385 15.8967C14.038 15.8939 14.0365 15.8914 14.0343 15.8897C14.032 15.888 14.0293 15.8871 14.0265 15.8873L13.1359 15.9293C13.1289 15.9298 13.1221 15.932 13.1163 15.9359C13.1104 15.9397 13.1057 15.9451 13.1025 15.9513C13.0223 16.1218 12.9035 16.2713 12.7555 16.3879C12.6075 16.5045 12.4345 16.5851 12.25 16.6233C12.0208 16.6766 11.7811 16.6631 11.5593 16.5846C11.3374 16.506 11.1427 16.3656 10.9981 16.18C10.6261 15.698 10.6268 15.1147 10.9961 14.6333C11.1704 14.4037 11.4222 14.2454 11.7047 14.188C12.1046 14.0993 12.4806 14.1987 12.8332 14.486C12.8428 14.4938 12.8549 14.4978 12.8672 14.4973C13.4205 14.4793 13.9605 14.432 14.4877 14.3553C14.901 14.2953 15.397 14.1633 15.7596 14.0607C16.276 13.9133 16.7756 13.7122 17.2501 13.4607C17.7381 13.2033 18.3394 12.772 18.51 12.2293C18.7766 11.3833 17.5501 10.6253 16.9422 10.3613C16.5175 10.1767 16.1889 10.05 15.9563 9.98133C15.9542 9.98058 15.9519 9.98036 15.9497 9.98071C15.9475 9.98106 15.9454 9.98196 15.9436 9.98333C15.9417 9.98493 15.9404 9.987 15.9396 9.98933C15.9391 9.99153 15.9384 9.99381 15.9389 9.996Z" fill="white"/>
</svg>
