<svg width="24" height="24" viewBox="0 0 24 24" fill="none" xmlns="http://www.w3.org/2000/svg">
<path fill-rule="evenodd" clip-rule="evenodd" d="M16.3555 4.58544C17.3658 5.16488 18.1126 6.12015 18.4368 7.24793C18.5692 7.29583 18.6995 7.3564 18.8235 7.42895C18.8416 7.43952 18.8583 7.45008 18.8743 7.46206C19.0317 7.55856 19.178 7.67407 19.3111 7.8072C19.5354 8.03415 19.712 8.30466 19.8302 8.60242C19.9484 8.90019 20.0058 9.21907 19.999 9.53986C19.9922 9.86066 19.9212 10.1767 19.7904 10.4691C19.6596 10.7614 19.4717 11.024 19.2379 11.241C19.4903 11.4751 19.6891 11.7621 19.8204 12.082C19.9517 12.4019 20.0123 12.7469 19.9979 13.0929C19.9836 13.4389 19.8947 13.7776 19.7374 14.0853C19.5802 14.3929 19.3583 14.6621 19.0875 14.8741L19.0617 14.8945L19.0763 14.917C19.348 15.3411 19.4838 15.8496 19.4483 16.3716L19.442 16.449C19.405 16.8184 19.283 17.1738 19.0858 17.487C18.8886 17.8001 18.6216 18.0622 18.3062 18.2523C17.9909 18.4424 17.6359 18.5552 17.2697 18.5818C16.9035 18.6083 16.5363 18.5478 16.1973 18.4051C16.0582 18.8081 15.8144 19.1659 15.4914 19.4409C15.1685 19.7159 14.7782 19.8979 14.3617 19.9679C13.9452 20.0378 13.5178 19.9931 13.1243 19.8385C12.7307 19.6839 12.3856 19.425 12.1251 19.089C11.769 19.2618 11.381 19.357 10.9862 19.3686C10.9583 19.3722 10.9291 19.3743 10.8991 19.3743H10.2743L10.2269 19.3722C9.44951 19.325 9.46553 18.1219 10.2743 18.1219H10.8343L10.8664 18.1191L10.8991 18.1184C11.324 18.1258 11.7344 17.9622 12.0401 17.6636C12.3457 17.365 12.5215 16.9558 12.5288 16.5262C12.5361 16.0965 12.3743 15.6815 12.079 15.3725C11.7837 15.0634 11.3791 14.8857 10.9541 14.8783C10.9356 14.8805 10.917 14.8817 10.8984 14.8818H5.93455C5.77031 14.8818 5.6128 14.8159 5.49666 14.6984C5.38053 14.581 5.31528 14.4217 5.31528 14.2557C5.31528 14.0896 5.38053 13.9303 5.49666 13.8129C5.6128 13.6954 5.77031 13.6295 5.93455 13.6295H10.8343L10.8664 13.6267L10.8998 13.6259C11.2944 13.6267 11.6754 13.4803 11.9698 13.2146C12.2642 12.9489 12.4513 12.5828 12.4952 12.1863C12.5391 11.7897 12.4368 11.3908 12.2078 11.0658C11.9788 10.7409 11.6393 10.5128 11.2544 10.4253L11.1561 10.4035C11.0875 10.3878 11.0179 10.377 10.9479 10.3711C10.9317 10.3725 10.9154 10.3733 10.8991 10.3732H5.93455C5.85152 10.376 5.76879 10.3619 5.69126 10.3317C5.61374 10.3015 5.54302 10.2559 5.4833 10.1975C5.42358 10.1391 5.37609 10.0692 5.34366 9.99184C5.31123 9.91451 5.29452 9.83137 5.29452 9.74737C5.29452 9.66337 5.31123 9.58023 5.34366 9.5029C5.37609 9.42556 5.42358 9.35562 5.4833 9.29723C5.54302 9.23884 5.61374 9.19319 5.69126 9.16301C5.76879 9.13283 5.85152 9.11872 5.93455 9.12154H10.835L10.8671 9.11872L10.8998 9.11802C11.3247 9.12614 11.7354 8.96326 12.0416 8.66519C12.3477 8.36712 12.5242 7.95828 12.5322 7.52862C12.5403 7.09896 12.3792 6.68367 12.0844 6.37411C11.7896 6.06454 11.3853 5.88607 10.9604 5.87794C10.9403 5.8798 10.92 5.88074 10.8998 5.88076H10.275L10.2269 5.88006C9.44951 5.83286 9.46553 4.62981 10.2743 4.62981H10.8315C10.854 4.62741 10.8765 4.62623 10.8991 4.62629C11.1791 4.62629 11.4494 4.66714 11.7051 4.74321L11.7266 4.72913C12.4112 4.27881 13.205 4.02732 14.0212 4.0021C14.8375 3.97689 15.645 4.17892 16.3555 4.58614V4.58544ZM13.7523 12.6744L13.7049 12.6997L13.6471 12.7356C13.4912 13.3345 13.1482 13.8664 12.6691 14.2521C13.0034 14.5208 13.2732 14.8624 13.4586 15.2514C13.644 15.6403 13.7401 16.0666 13.7398 16.4983C13.7406 17.1606 13.5141 17.8027 13.0989 18.3149C13.254 18.5162 13.4722 18.6584 13.7176 18.7179C13.9631 18.7775 14.2212 18.751 14.4498 18.6428C14.6784 18.5346 14.8639 18.3511 14.9759 18.1223C15.0878 17.8936 15.1196 17.6331 15.0661 17.3837L15.0452 17.2964L15.0361 17.2407L15.0326 17.2013L15.0319 17.1717L15.0326 17.1309L15.0361 17.0935L15.0452 17.0386L15.0577 16.9879L15.073 16.9428L15.0974 16.8872L15.1009 16.8801C15.1295 16.8237 15.1667 16.7721 15.211 16.7273L15.2493 16.6906L15.2778 16.6681L15.3127 16.6434L15.3419 16.6251L15.3802 16.604L15.4311 16.5829L15.4701 16.5688L15.498 16.561L15.5523 16.5498L15.6031 16.5434L15.6345 16.542H15.6679L15.6965 16.5434L15.7369 16.5477L15.7759 16.5547L15.8191 16.5653L15.8407 16.5723L15.8748 16.5843L15.9124 16.6005L15.9431 16.6153L15.98 16.6371L16.0044 16.6533C16.0462 16.6829 16.0838 16.7167 16.1179 16.7568L16.1444 16.7892L16.1681 16.8231C16.2545 16.9584 16.3686 17.0735 16.5028 17.1605C16.6369 17.2475 16.788 17.3044 16.9457 17.3273C17.1034 17.3503 17.2642 17.3388 17.4172 17.2936C17.5701 17.2483 17.7117 17.1705 17.8324 17.0652C17.9531 16.96 18.05 16.8298 18.1167 16.6835C18.1834 16.5371 18.2183 16.378 18.219 16.2169C18.2197 16.0557 18.1862 15.8963 18.1208 15.7494C18.0554 15.6024 17.9596 15.4714 17.8399 15.365C17.7303 15.3747 17.6202 15.3764 17.5104 15.37L17.4707 15.3664L17.4526 15.3629H17.4414C16.9513 15.3193 16.487 15.1213 16.114 14.7968C15.741 14.4723 15.478 14.0377 15.3621 13.5541L15.344 13.4724C15.3118 13.3015 15.2409 13.1404 15.1369 13.0018C15.0328 12.8632 14.8984 12.7508 14.7443 12.6735C14.5901 12.5962 14.4203 12.556 14.2482 12.5562C14.0761 12.5563 13.9064 12.5968 13.7523 12.6744ZM10.6762 15.9109C10.7592 15.9081 10.842 15.9222 10.9195 15.9524C10.997 15.9826 11.0677 16.0282 11.1274 16.0866C11.1872 16.145 11.2347 16.2149 11.2671 16.2923C11.2995 16.3696 11.3162 16.4527 11.3162 16.5367C11.3162 16.6207 11.2995 16.7039 11.2671 16.7812C11.2347 16.8585 11.1872 16.9285 11.1274 16.9869C11.0677 17.0453 10.997 17.0909 10.9195 17.1211C10.842 17.1513 10.7592 17.1654 10.6762 17.1626H8.11555C7.955 17.1571 7.80282 17.0888 7.69115 16.972C7.57948 16.8553 7.51706 16.6992 7.51706 16.5367C7.51706 16.3743 7.57948 16.2182 7.69115 16.1014C7.80282 15.9847 7.955 15.9164 8.11555 15.9109H10.6762ZM17.0904 8.51297C16.9298 8.60683 16.7949 8.73973 16.6979 8.89963C16.601 9.05952 16.5451 9.24136 16.5352 9.42864L16.5338 9.48851C16.5338 9.64739 16.474 9.80032 16.3667 9.91633C16.2593 10.0323 16.1124 10.1027 15.9556 10.1133L15.9145 10.1147C15.7574 10.1147 15.6062 10.0543 15.4914 9.94574C15.3767 9.83718 15.3071 9.6886 15.2966 9.53007L15.2953 9.48851C15.2949 9.28173 15.2384 9.07902 15.1318 8.90258C15.0251 8.72613 14.8726 8.58275 14.6907 8.48813C14.5089 8.3935 14.3048 8.35129 14.1009 8.36611C13.8969 8.38093 13.7009 8.4522 13.5343 8.57214C13.3489 9.03518 13.0477 9.44152 12.6601 9.75124C13.1712 10.16 13.528 10.7339 13.6708 11.3769C13.9755 11.2985 14.2926 11.2826 14.6034 11.3303C14.9142 11.378 15.2124 11.4882 15.4803 11.6545C15.7482 11.8208 15.9804 12.0398 16.1632 12.2984C16.3459 12.5571 16.4755 12.8502 16.5442 13.1604L16.5582 13.2259C16.6068 13.4586 16.727 13.6697 16.9015 13.8291C17.0761 13.9885 17.296 14.088 17.5299 14.1134L17.6163 14.1204L17.6455 14.1218C17.6873 14.1218 17.7291 14.1197 17.7709 14.1148L17.8301 14.107L17.8733 14.0965C18.1378 14.0399 18.3729 13.888 18.5349 13.6692C18.6968 13.4503 18.7746 13.1794 18.7538 12.9069C18.7329 12.6343 18.6148 12.3788 18.4214 12.1878C18.228 11.9967 17.9726 11.8833 17.7026 11.8686L17.6476 11.8672C17.5568 11.8672 17.4671 11.8471 17.3849 11.8081C17.3026 11.7692 17.2299 11.7124 17.1719 11.6418L17.1482 11.6108C17.097 11.5405 17.0611 11.4602 17.0426 11.3751C17.0241 11.2899 17.0235 11.2017 17.0409 11.1163C17.0678 10.9823 17.1373 10.8609 17.2388 10.7706C17.3403 10.6803 17.4682 10.6261 17.603 10.6162L17.6476 10.6155C17.8677 10.6154 18.0829 10.5494 18.2659 10.4258C18.449 10.3022 18.5918 10.1266 18.6763 9.9211C18.7608 9.71558 18.7832 9.48937 18.7407 9.27099C18.6982 9.05261 18.5927 8.85184 18.4375 8.69399C18.2869 8.5434 18.097 8.43931 17.89 8.39393L17.819 8.38055C17.8012 8.3776 17.7835 8.37384 17.766 8.36928C17.5314 8.34325 17.2947 8.39359 17.0904 8.51297ZM10.6825 11.3868C10.8467 11.3868 11.0042 11.4527 11.1204 11.5702C11.2365 11.6876 11.3017 11.8469 11.3017 12.013C11.3017 12.179 11.2365 12.3383 11.1204 12.4557C11.0042 12.5732 10.8467 12.6391 10.6825 12.6391H4.5985C4.43794 12.6337 4.28577 12.5654 4.1741 12.4486C4.06243 12.3318 4 12.1757 4 12.0133C4 11.8509 4.06243 11.6948 4.1741 11.578C4.28577 11.4612 4.43794 11.3929 4.5985 11.3875H10.6832L10.6825 11.3868ZM10.6755 6.85631C10.7585 6.85349 10.8413 6.86759 10.9188 6.89777C10.9963 6.92796 11.067 6.9736 11.1267 7.03199C11.1865 7.09039 11.234 7.16033 11.2664 7.23766C11.2988 7.31499 11.3155 7.39813 11.3155 7.48213C11.3155 7.56613 11.2988 7.64927 11.2664 7.7266C11.234 7.80394 11.1865 7.87388 11.1267 7.93227C11.067 7.99066 10.9963 8.03631 10.9188 8.06649C10.8413 8.09667 10.7585 8.11078 10.6755 8.10796H8.11625C8.03323 8.11078 7.95049 8.09667 7.87297 8.06649C7.79544 8.03631 7.72472 7.99066 7.665 7.93227C7.60529 7.87388 7.5578 7.80394 7.52537 7.7266C7.49293 7.64927 7.47622 7.56613 7.47622 7.48213C7.47622 7.39813 7.49293 7.31499 7.52537 7.23766C7.5578 7.16033 7.60529 7.09039 7.665 7.03199C7.72472 6.9736 7.79544 6.92796 7.87297 6.89777C7.95049 6.86759 8.03323 6.85349 8.11625 6.85631H10.6769H10.6755ZM12.9721 5.47998L12.9352 5.49477C13.3706 5.9464 13.6463 6.53074 13.7196 7.15707C14.1161 7.07657 14.5264 7.10085 14.9109 7.22757C15.2954 7.35429 15.6411 7.57916 15.9145 7.88045C16.2299 7.53197 16.6411 7.28669 17.0952 7.17609C16.7564 6.41078 16.1385 5.80724 15.3703 5.49126C14.6022 5.17528 13.7431 5.17124 12.9721 5.47998Z" fill="white"/>
</svg>
