<svg width="24" height="24" viewBox="0 0 24 24" fill="none" xmlns="http://www.w3.org/2000/svg">
<path fill-rule="evenodd" clip-rule="evenodd" d="M12.1996 9.69733L12.1955 9.70067L13.7666 13.2007C13.9846 13.6291 14.1005 14.13 14.1 14.642C14.1 15.1447 13.99 15.6153 13.7992 16.0167L17 14.6893L11.9933 4L10.7872 6.58133L12.1996 9.69733ZM9.50804 20L12.0228 17.298H12.0161C10.8655 17.298 9.93322 16.1087 9.93322 14.642C9.93322 14.1127 10.0551 13.6193 10.2651 13.2047L11.7506 9.88733L10.516 7.16267L7 14.6893L9.50441 20H9.50804ZM13.0858 16.9213H13.0852L10.2262 20H14.4686L16.6194 15.4873L13.0858 16.9213Z" fill="white"/>
</svg>
