<svg width="24" height="24" viewBox="0 0 24 24" fill="none" xmlns="http://www.w3.org/2000/svg">
<path fill-rule="evenodd" clip-rule="evenodd" d="M4.3382 17.2555C4.28612 17.2555 4.23473 17.2435 4.18805 17.2204C4.14138 17.1973 4.10067 17.1638 4.06911 17.1223C4.03756 17.0809 4.016 17.0327 4.00613 16.9816C3.99626 16.9304 3.99833 16.8777 4.0122 16.8275L6.86016 6.49701C6.8884 6.39432 6.94053 6.29977 7.01229 6.22107C7.08405 6.14237 7.1734 6.08176 7.27306 6.04418C7.37271 6.00661 7.47984 5.99314 7.5857 6.00487C7.69155 6.0166 7.79313 6.0532 7.88214 6.11169L11.6301 8.56965C11.74 8.64166 11.8686 8.68002 12.0001 8.68002C12.1315 8.68002 12.2601 8.64166 12.3701 8.56965L16.1333 6.11035C16.2224 6.05202 16.324 6.01558 16.4299 6.004C16.5357 5.99243 16.6428 6.00605 16.7424 6.04375C16.842 6.08145 16.9313 6.14216 17.0029 6.22094C17.0745 6.29971 17.1265 6.39431 17.1547 6.49701L19.988 16.8282C20.0017 16.8784 20.0037 16.9311 19.9938 16.9821C19.9838 17.0332 19.9621 17.0813 19.9305 17.1226C19.8989 17.1639 19.8581 17.1973 19.8114 17.2203C19.7647 17.2432 19.7133 17.2551 19.6613 17.2548H16.0467C16.7048 16.4924 17.0668 15.5187 17.0667 14.5116V14.3936C17.0666 13.4081 16.7081 12.4563 16.058 11.7156L15.5934 9.38564C15.5839 9.33698 15.5622 9.29153 15.5304 9.25356C15.4985 9.2156 15.4575 9.18637 15.4112 9.16863C15.3649 9.15089 15.3149 9.14523 15.2658 9.15217C15.2167 9.15911 15.1702 9.17843 15.1307 9.20831L13.3801 10.521C13.3185 10.5671 13.2472 10.5984 13.1715 10.6124C13.0959 10.6264 13.018 10.6227 12.9441 10.6016C12.3269 10.4253 11.6726 10.4253 11.0554 10.6016C10.9816 10.6227 10.9038 10.6264 10.8283 10.6124C10.7528 10.5984 10.6815 10.5671 10.6201 10.521L8.86813 9.20697C8.82864 9.17748 8.78229 9.15853 8.73344 9.15192C8.6846 9.14532 8.63488 9.15127 8.58898 9.16922C8.54307 9.18717 8.5025 9.21652 8.47109 9.2545C8.43969 9.29248 8.41848 9.33785 8.40947 9.3863L7.95947 11.8209C7.3018 12.4895 6.9333 13.3898 6.93349 14.3276V14.5496C6.93349 15.5322 7.28482 16.4829 7.92547 17.2295L7.94681 17.2548L4.3382 17.2555Z" fill="#29E154"/>
<path d="M10.1421 15.2289H11.1554V12.8649H10.2954L10.1421 15.2289ZM13.8574 15.2289H12.844V12.8649H13.704L13.8574 15.2289Z" fill="white"/>
</svg>
