<svg width="24" height="24" viewBox="0 0 24 24" fill="none" xmlns="http://www.w3.org/2000/svg">
<path fill-rule="evenodd" clip-rule="evenodd" d="M10.1367 9.82368V8.30353C10.1367 8.17573 10.1847 8.07954 10.2953 8.01564L13.324 6.25602C13.7367 6.01589 14.228 5.90423 14.7353 5.90423C16.638 5.90423 17.8433 7.3921 17.8433 8.97549C17.8433 9.08782 17.8433 9.21562 17.8273 9.34342L14.6873 7.48762C14.6021 7.43285 14.5031 7.40376 14.402 7.40376C14.3009 7.40376 14.2019 7.43285 14.1167 7.48762L10.1367 9.82368ZM17.2093 15.7429V12.112C17.2093 11.888 17.114 11.7286 16.9233 11.6163L12.9433 9.28019L14.2433 8.52819C14.2904 8.49691 14.3456 8.48025 14.402 8.48025C14.4584 8.48025 14.5136 8.49691 14.5607 8.52819L17.5893 10.2885C18.462 10.7997 19.0487 11.888 19.0487 12.944C19.0487 14.1602 18.3353 15.2801 17.2087 15.7442L17.2093 15.7429ZM9.20133 12.5445L7.90133 11.7763C7.79 11.7124 7.742 11.6163 7.742 11.4885V7.96788C7.742 6.25602 9.042 4.95985 10.8027 4.95985C11.4693 4.95985 12.0873 5.18384 12.6107 5.58406L9.48667 7.40825C9.29667 7.51991 9.20133 7.67999 9.20133 7.90398V12.5438V12.5445ZM12 14.1756L10.1367 13.1196V10.8797L12 9.82368L13.8633 10.8797V13.1196L12 14.1756ZM13.1973 19.0388C12.5307 19.0388 11.9127 18.8155 11.3893 18.4153L14.5133 16.5911C14.7033 16.4794 14.7987 16.3193 14.7987 16.0953V11.4555L16.1147 12.2237C16.226 12.2876 16.2733 12.3837 16.2733 12.5115V16.0314C16.2733 17.7433 14.9573 19.0388 13.1973 19.0388ZM9.43933 15.4718L6.41 13.7115C5.538 13.1996 4.95133 12.112 4.95133 11.056C4.94928 10.4559 5.12474 9.8689 5.45526 9.37005C5.78579 8.87121 6.25633 8.48323 6.80667 8.25577V11.9035C6.80667 12.1275 6.902 12.2876 7.092 12.3999L11.0567 14.7198L9.75667 15.4718C9.70959 15.5032 9.65441 15.5199 9.598 15.5199C9.54159 15.5199 9.48641 15.5032 9.43933 15.4718ZM9.26467 18.0951C7.47267 18.0951 6.15667 16.7357 6.15667 15.0555C6.15667 14.9276 6.17267 14.7998 6.188 14.672L9.312 16.4949C9.50267 16.6072 9.69267 16.6072 9.88267 16.4949L13.8627 14.1756V15.6958C13.8627 15.8236 13.816 15.9198 13.7047 15.9837L10.676 17.7433C10.2633 17.9834 9.772 18.0951 9.26467 18.0951ZM13.1973 19.9987C14.111 19.9987 14.9967 19.6804 15.7046 19.0975C16.4124 18.5145 16.899 17.7028 17.082 16.7996C18.858 16.3355 20 14.6546 20 12.9434C20 11.8234 19.5247 10.7358 18.668 9.95149C18.7473 9.61517 18.7947 9.27952 18.7947 8.94388C18.7947 6.65624 16.9553 4.94371 14.8307 4.94371C14.4027 4.94371 13.9907 5.00761 13.5773 5.15223C12.8373 4.41731 11.8417 4.00375 10.8033 4C9.88953 3.99996 9.00377 4.3184 8.2959 4.90146C7.58803 5.48452 7.10152 6.2964 6.91867 7.19973C5.142 7.66385 4 9.34409 4 11.056C4 12.1766 4.47533 13.2642 5.332 14.0478C5.25267 14.3842 5.20533 14.7205 5.20533 15.0561C5.20533 17.3438 7.04467 19.0556 9.16933 19.0556C9.59733 19.0556 10.0093 18.9917 10.4227 18.8478C11.1628 19.583 12.1587 19.9966 13.1973 20V19.9987Z" fill="white"/>
</svg>
