<svg width="32" height="32" viewBox="0 0 24 24" fill="none" xmlns="http://www.w3.org/2000/svg">
<g clip-path="url(#clip0_1002_325032)">
<path d="M13.1591 23.9994C19.1463 23.9994 23.9999 19.1369 23.9999 13.1387C23.9999 7.14056 19.1463 2.27808 13.1591 2.27808C7.17194 2.27808 2.31836 7.14056 2.31836 13.1387C2.31836 19.1369 7.17194 23.9994 13.1591 23.9994Z" fill="#3F3FAA"/>
<path d="M10.8408 21.7213C16.828 21.7213 21.6816 16.8589 21.6816 10.8607C21.6816 4.86249 16.828 0 10.8408 0C4.85358 0 0 4.86249 0 10.8607C0 16.8589 4.85358 21.7213 10.8408 21.7213Z" fill="#8E47F0"/>
<path d="M10.674 18.0887C9.90386 18.0887 9.15988 17.8338 8.5431 17.3518C7.81081 16.7798 7.34412 15.9557 7.23049 15.0323C7.19589 14.7503 7.19449 14.4706 7.22628 14.1956C7.01212 14.2373 6.79047 14.2589 6.56461 14.2589C4.64737 14.2589 3.0874 12.696 3.0874 10.7753C3.0874 8.85455 4.64737 7.29172 6.56461 7.29172C6.83863 7.29172 7.10564 7.32357 7.36143 7.38401C7.34646 7.25283 7.33898 7.11979 7.33898 6.98627C7.33898 5.06552 8.89895 3.50269 10.8162 3.50269C12.7334 3.50269 14.2934 5.06552 14.2934 6.98627C14.2934 7.09777 14.2882 7.2088 14.2775 7.31936C14.559 7.27017 14.848 7.25517 15.1393 7.27719C17.0514 7.41914 18.4917 9.09347 18.35 11.0091C18.2812 11.9371 17.8557 12.7827 17.1524 13.3903C16.4486 13.9979 15.5503 14.295 14.6249 14.2256C14.4566 14.213 14.2911 14.1886 14.1293 14.153C14.1302 14.161 14.1311 14.1689 14.1325 14.1769C14.2466 15.1003 13.995 16.0129 13.4241 16.747C12.8531 17.4811 12.0306 17.9481 11.1089 18.0624C10.9635 18.0802 10.8185 18.0891 10.6745 18.0891L10.674 18.0887ZM8.74417 13.4878C8.50008 13.9113 8.40328 14.3915 8.4636 14.8796C8.53702 15.4732 8.83629 16.0025 9.30718 16.3698C9.77761 16.7376 10.3631 16.8997 10.9555 16.8261C11.548 16.7526 12.0764 16.4528 12.443 15.981C12.8101 15.5092 12.9719 14.9227 12.8985 14.3296C12.8503 13.938 12.7016 13.5702 12.4669 13.2587C12.3135 13.1102 12.1732 12.9472 12.0474 12.7696C11.8487 12.4895 11.9142 12.1006 12.1938 11.9015C12.4734 11.7019 12.8615 11.768 13.0603 12.0477C13.1066 12.1128 13.1557 12.1751 13.208 12.2341C13.2497 12.2636 13.2885 12.2988 13.3236 12.3391C13.3446 12.3639 13.3656 12.3887 13.3857 12.414C13.7505 12.7443 14.2162 12.9462 14.7166 12.9832C15.9483 13.0755 17.0191 12.1475 17.1103 10.9163C17.2015 9.68516 16.2761 8.60954 15.0472 8.51818C14.5763 8.48305 14.1166 8.59455 13.7159 8.8405C13.5256 8.99697 13.252 9.03117 13.0229 8.90515C12.7222 8.73977 12.6118 8.36125 12.7769 8.06002C12.956 7.73302 13.0505 7.36152 13.0505 6.9858C13.0505 5.75137 12.0479 4.74696 10.8157 4.74696C9.58354 4.74696 8.58097 5.75137 8.58097 6.9858C8.58097 7.42757 8.7091 7.85435 8.95133 8.2207C8.96302 8.2385 8.97377 8.25677 8.98359 8.27551C9.63545 8.90889 10.0409 9.79572 10.0409 10.7753C10.0409 11.8701 9.53444 12.8483 8.7437 13.4873L8.74417 13.4878ZM6.56414 8.53692C5.33197 8.53692 4.32939 9.54134 4.32939 10.7758C4.32939 12.0102 5.33197 13.0146 6.56414 13.0146C7.79631 13.0146 8.79888 12.0102 8.79888 10.7758C8.79888 9.54134 7.79631 8.53692 6.56414 8.53692Z" fill="white"/>
</g>
<defs>
<clipPath id="clip0_1002_325032">
<rect width="24" height="24" fill="white"/>
</clipPath>
</defs>
</svg>
