<svg width="32" height="32" viewBox="0 0 128 128" fill="none" xmlns="http://www.w3.org/2000/svg">
<path d="M0 0 C6.66646244 4.83318527 11.81213491 10.01971371 13.453125 18.28125 C13.70708693 20.17928126 13.86356573 22.08992016 14 24 C15.134375 24.061875 16.26875 24.12375 17.4375 24.1875 C24.89327473 25.15081249 31.12824634 29.08965824 35.71484375 34.9921875 C40.10887867 41.85703233 42.23938157 48.86813928 41 57 C38.95141924 64.67642342 35.43606762 71.17704788 28.63671875 75.50390625 C23.0256669 78.4924938 17.57800807 81.03364678 11.1875 79.1875 C9 78 9 78 7 76 C7.24180157 70.92216707 8.09890097 66.48275488 9.5625 61.625 C11.50187941 54.81328808 12.15155959 48.33346197 9.8125 41.5625 C7.69417226 38.56762285 6.143259 36.93621459 3 35 C-1.01828022 34.54307026 -5.02907797 34.95775593 -9.05078125 35.24414062 C-15.38256126 35.50838026 -15.38256126 35.50838026 -18.875 32.6328125 C-19.57625 31.76398437 -20.2775 30.89515625 -21 30 C-26.54419224 25.9755973 -32.66213259 25.24352584 -39.33984375 24.4921875 C-40.21769531 24.32976563 -41.09554687 24.16734375 -42 24 C-43.63098183 20.73803634 -42.14296251 18.02422401 -41.08203125 14.671875 C-38.03433621 7.14615874 -32.69708815 1.84854408 -25.5 -1.75 C-17.56044032 -4.48674216 -7.29086346 -4.4671479 0 0 Z " fill="#FF8400" transform="translate(76,26)"/>
<path d="M0 0 C2.13364524 1.64459471 2.93558689 3.00624152 3.92578125 5.484375 C3.14074219 6.02964844 2.35570312 6.57492188 1.546875 7.13671875 C-7.06612992 13.31905971 -14.68892402 19.59925917 -17.7109375 30.22265625 C-18.6759145 36.2304163 -17.2318953 41.87441598 -15.07421875 47.484375 C-24.10997412 46.12722597 -29.93008916 43.54946239 -35.75 36.32421875 C-40.28587374 30.02216409 -40.8455002 24.0016534 -40.07421875 16.484375 C-38.63615555 9.1774593 -34.14017292 3.31148376 -28.07421875 -0.90625 C-18.89552608 -5.69806749 -8.92819738 -4.73442873 0 0 Z " fill="#4362FF" transform="translate(52.07421875,58.515625)"/>
<path d="M0 0 C3.94232486 0.05631893 5.45121445 0.18975296 8.875 2.3125 C12.73973696 8.62490371 12.01422137 13.76205344 10.37866211 20.58886719 C10.01103351 22.03274872 9.6273012 23.47266024 9.22485352 24.90722656 C7.61459394 30.86372502 7.75 34.75294506 7.75 41.375 C0.16 41.375 -7.43 41.375 -15.25 41.375 C-13.69430738 38.26361477 -12.45490088 36.28781862 -10.3125 33.6875 C-5.1682419 26.89557 -3.37861182 19.82184353 -4.25 11.375 C-4.73239005 8.67591279 -5.28011774 6.01214841 -5.91015625 3.34375 C-6.02230469 2.6940625 -6.13445312 2.044375 -6.25 1.375 C-4.53055699 -0.34444301 -2.34584777 0.08154016 0 0 Z " fill="#4362FF" transform="translate(71.25,64.625)"/>
<path d="M0 0 C1.0209375 0.4021875 1.0209375 0.4021875 2.0625 0.8125 C4.6620796 7.69374012 4.68519448 14.34309581 2.15625 21.30859375 C-0.63189512 26.89430339 -4.37229207 30.91509312 -9.9375 33.8125 C-13.7201353 34.53992986 -15.07460113 34.39553978 -18.25 32.25 C-20.56038611 28.91277562 -20.9375 26.88729628 -20.9375 22.8125 C-18.63578855 14.52936735 -13.01595125 6.97431776 -6.3125 1.6875 C-2.9375 -0.1875 -2.9375 -0.1875 0 0 Z " fill="#4362FF" transform="translate(58.9375,69.1875)"/>
</svg>
