<svg fill="none" viewBox="0 0 32 32" version="1.1" xmlns="http://www.w3.org/2000/svg" width="32" height="32">
<path d="M0 0 C0.99 0.33 1.98 0.66 3 1 C2.49 6.27 0.63 9.85 -2.06 14.38 C-2.8 15.62 -3.53 16.87 -4.29 18.15 C-5.13 19.56 -5.13 19.56 -6 21 C-5.1 19.96 -4.21 18.92 -3.31 17.88 C-2.77 17.24 -2.22 16.61 -1.66 15.96 C-0.16 14.18 1.3 12.38 2.75 10.56 C3.49 9.72 4.23 8.87 5 8 C5.66 8 6.32 8 7 8 C7.75 10.17 7.75 10.17 8 13 C6.35 15.68 6.35 15.68 4.06 18.31 C3.31 19.2 2.56 20.08 1.79 20.99 C1.2 21.65 0.61 22.32 0 23 C0.61 22.57 1.23 22.13 1.86 21.69 C2.67 21.13 3.48 20.57 4.31 20 C5.11 19.44 5.91 18.89 6.74 18.31 C9 17 9 17 12 17 C12.33 17.99 12.66 18.98 13 20 C11.02 21.65 9.04 23.3 7 25 C10.96 24.51 10.96 24.51 15 24 C15.66 25.32 16.32 26.64 17 28 C6.44 28 -4.12 28 -15 28 C-13.54 22.17 -10.47 17.52 -7.5 12.31 C-6.31 10.23 -5.13 8.14 -3.91 5.99 C-1 1 -1 1 0 0 Z " fill="#008C8C" transform="translate(15,2)"/>
<path d="M0 0 C0.99 0.33 1.98 0.66 3 1 C2.56 6.86 -0.02 10.81 -3.06 15.75 C-6.49 20.55 -6.49 20.55 -8 26 C-11 28 -11 28 -15 28 C-13.54 22.17 -10.47 17.52 -7.5 12.31 C-6.31 10.23 -5.13 8.14 -3.91 5.99 C-1 1 -1 1 0 0 Z " fill="#008585" transform="translate(15,2)"/>
<path d="M0 0 C0.99 0.99 1.98 1.98 3 3 C1 5 -1 7 -3 9 C-0.36 8.67 2.28 8.34 5 8 C5.66 9.32 6.32 10.64 7 12 C0.07 12 -6.86 12 -14 12 C-14 11.34 -14 10.68 -14 10 C-11.72 8.22 -9.37 6.53 -7 4.88 C-5.7 3.96 -4.4 3.05 -3.06 2.12 C-2.05 1.42 -1.04 0.72 0 0 Z " fill="#008787" transform="translate(25,18)"/>
<path d="M0 0 C0 0.66 0 1.32 0 2 C-2.64 2 -5.28 2 -8 2 C-7.67 1.01 -7.34 0.02 -7 -1 C-3.63 -2.46 -3.22 -2.15 0 0 Z " fill="#008B8B" transform="translate(32,28)"/>
</svg>
