<svg width="32" height="32" viewBox="0 0 24 24" fill="none" xmlns="http://www.w3.org/2000/svg">
<g clip-path="url(#clip0_1012_212067)">
<path fill-rule="evenodd" clip-rule="evenodd" d="M16.2329 0C16.9459 0 17.5779 0.551 17.8049 1.329C18.0319 2.107 19.3599 6.919 19.3599 6.919V16.481H14.5469L14.6449 0H16.2329Z" fill="url(#paint0_linear_1012_212067)"/>
<path d="M23.298 7.47012C23.298 7.13012 23.023 6.87012 22.698 6.87012H19.863C18.9046 6.87091 17.9857 7.25206 17.3081 7.92986C16.6305 8.60767 16.2496 9.5267 16.249 10.4851V16.4811H19.685C20.6431 16.4801 21.5616 16.0989 22.239 15.4214C22.9164 14.7438 23.2972 13.8252 23.298 12.8671V7.47012Z" fill="url(#paint1_linear_1012_212067)"/>
<path fill-rule="evenodd" clip-rule="evenodd" d="M16.233 2.5131e-05C16.1028 -0.00090588 15.9738 0.0240397 15.8534 0.0734119C15.733 0.122784 15.6236 0.195598 15.5316 0.287621C15.4395 0.379644 15.3667 0.489041 15.3173 0.609452C15.268 0.729864 15.243 0.858888 15.244 0.989025L15.147 19.187C15.1467 20.4634 14.6395 21.6875 13.737 22.59C12.8344 23.4926 11.6104 23.9998 10.334 24H1.59996C1.50434 24.0006 1.40998 23.9782 1.32484 23.9346C1.23969 23.8911 1.16624 23.8278 1.11067 23.75C1.0551 23.6722 1.01904 23.5821 1.00551 23.4875C0.991989 23.3928 1.0014 23.2963 1.03296 23.206L8.03296 3.22502C8.36272 2.2842 8.97615 1.4688 9.78873 0.891207C10.6013 0.313611 11.573 0.00224754 12.57 2.5131e-05H16.249H16.233Z" fill="url(#paint2_linear_1012_212067)"/>
</g>
<defs>
<linearGradient id="paint0_linear_1012_212067" x1="18.2419" y1="16.837" x2="14.1909" y2="0.616" gradientUnits="userSpaceOnUse">
<stop stop-color="#712575"/>
<stop offset="0.09" stop-color="#9A2884"/>
<stop offset="0.18" stop-color="#BF2C92"/>
<stop offset="0.27" stop-color="#DA2E9C"/>
<stop offset="0.34" stop-color="#EB30A2"/>
<stop offset="0.4" stop-color="#F131A5"/>
<stop offset="0.5" stop-color="#EC30A3"/>
<stop offset="0.61" stop-color="#DF2F9E"/>
<stop offset="0.72" stop-color="#C92D96"/>
<stop offset="0.83" stop-color="#AA2A8A"/>
<stop offset="0.95" stop-color="#83267C"/>
<stop offset="1" stop-color="#712575"/>
</linearGradient>
<linearGradient id="paint1_linear_1012_212067" x1="19.782" y1="0.340117" x2="19.782" y2="23.2221" gradientUnits="userSpaceOnUse">
<stop stop-color="#DA7ED0"/>
<stop offset="0.08" stop-color="#B17BD5"/>
<stop offset="0.19" stop-color="#8778DB"/>
<stop offset="0.3" stop-color="#6276E1"/>
<stop offset="0.41" stop-color="#4574E5"/>
<stop offset="0.54" stop-color="#2E72E8"/>
<stop offset="0.67" stop-color="#1D71EB"/>
<stop offset="0.81" stop-color="#1471EC"/>
<stop offset="1" stop-color="#1171ED"/>
</linearGradient>
<linearGradient id="paint2_linear_1012_212067" x1="18.404" y1="0.859025" x2="3.23596" y2="25.183" gradientUnits="userSpaceOnUse">
<stop stop-color="#DA7ED0"/>
<stop offset="0.05" stop-color="#B77BD4"/>
<stop offset="0.11" stop-color="#9079DA"/>
<stop offset="0.18" stop-color="#6E77DF"/>
<stop offset="0.25" stop-color="#5175E3"/>
<stop offset="0.33" stop-color="#3973E7"/>
<stop offset="0.42" stop-color="#2772E9"/>
<stop offset="0.54" stop-color="#1A71EB"/>
<stop offset="0.68" stop-color="#1371EC"/>
<stop offset="1" stop-color="#1171ED"/>
</linearGradient>
<clipPath id="clip0_1012_212067">
<rect width="24" height="24" fill="white"/>
</clipPath>
</defs>
</svg>
