<?xml version="1.0" encoding="UTF-8"?>
<svg version="1.1" xmlns="http://www.w3.org/2000/svg" width="32" height="32" viewBox="0 0 1400 1400">
<path d="M0 0 C1.78939238 -0.00344384 3.57878262 -0.00819752 5.3681685 -0.01412097 C10.24346324 -0.02652066 15.11858087 -0.02053073 19.99387605 -0.01128729 C25.31386359 -0.00453632 30.63382213 -0.01526413 35.95380336 -0.02368313 C45.2641814 -0.03602188 54.57450902 -0.03727455 63.88489246 -0.0311327 C77.73027495 -0.02202373 91.57561098 -0.03008807 105.42098991 -0.04142394 C130.87141244 -0.06164488 156.32180858 -0.06315522 181.77223646 -0.05777332 C185.37404314 -0.05701754 188.97584982 -0.05628992 192.57765651 -0.05559134 C193.29314138 -0.05545225 194.00862626 -0.05531316 194.74579249 -0.05516986 C210.6262521 -0.05221324 226.50670891 -0.05523464 242.38716801 -0.05948763 C244.56281609 -0.06006979 246.73846417 -0.06063864 248.91411226 -0.06120327 C254.74683016 -0.06271832 260.57954807 -0.06424524 266.41226597 -0.06579627 C307.11205108 -0.07654759 347.81183361 -0.08126048 388.51161957 -0.07332611 C389.27824835 -0.0731778 390.04487714 -0.0730295 390.8347371 -0.0728767 C399.38277631 -0.07121781 407.9308155 -0.06946822 416.47885468 -0.06768369 C417.25056459 -0.06752266 418.02227449 -0.06736164 418.81736955 -0.06719574 C425.07831285 -0.06588839 425.07831285 -0.06588839 428.17989113 -0.06523455 C477.53444749 -0.05484468 526.88896819 -0.06260864 576.24351978 -0.086236 C588.67977454 -0.0921798 601.11602931 -0.09807153 613.55228424 -0.10364532 C614.31811739 -0.1039891 615.08395054 -0.10433287 615.87299076 -0.10468705 C639.49053604 -0.11522085 663.10807835 -0.12080865 686.72562599 -0.12120247 C687.83846134 -0.12122164 687.83846134 -0.12122164 688.97377821 -0.1212412 C705.26286562 -0.12146954 721.55195277 -0.12046301 737.84104004 -0.11833215 C743.67002246 -0.11757744 749.49900489 -0.11689922 755.32798732 -0.116252 C756.7779832 -0.11608931 758.22797908 -0.11592164 759.67797495 -0.11574898 C782.74296102 -0.11303238 805.80792537 -0.12156242 828.87290677 -0.13560309 C852.76066218 -0.15003798 876.64836752 -0.14952335 900.53612318 -0.13222837 C914.29496432 -0.12267639 928.05369977 -0.12407777 941.81253382 -0.14146306 C951.01499566 -0.15197559 960.21737724 -0.14781976 969.41983122 -0.13198302 C974.65505627 -0.12337669 979.89007472 -0.12086384 985.12528893 -0.13625234 C1005.87198748 -0.19307542 1026.0066017 -0.1772679 1046.3668108 4.38031673 C1047.05763684 4.53457542 1047.74846288 4.68883411 1048.46022304 4.8477673 C1051.93581065 5.64357504 1055.33936398 6.56502305 1058.7418108 7.63031673 C1059.72037037 7.92768734 1060.69892994 8.22505795 1061.70714283 8.53143978 C1108.68611595 23.21475564 1147.39385218 54.90909063 1173.3668108 96.38031673 C1173.93480396 97.27943783 1173.93480396 97.27943783 1174.51427174 98.19672298 C1184.27172067 113.86957244 1191.07387838 131.38980141 1195.8043108 149.19281673 C1196.02691578 150.02498714 1196.24952076 150.85715755 1196.47887135 151.71454525 C1200.34456974 167.32470277 1201.81683583 182.9793642 1201.74712753 199.01350594 C1201.75057137 200.80289831 1201.75532505 202.59228855 1201.7612485 204.38167444 C1201.77364819 209.25696918 1201.76765827 214.13208681 1201.75841482 219.00738198 C1201.75166385 224.32736952 1201.76239167 229.64732807 1201.77081066 234.9673093 C1201.78314941 244.27768734 1201.78440208 253.58801496 1201.77826023 262.8983984 C1201.76915126 276.74378088 1201.77721561 290.58911692 1201.78855147 304.43449585 C1201.80877241 329.88491837 1201.81028276 355.33531452 1201.80490085 380.7857424 C1201.80414507 384.38754908 1201.80341746 387.98935576 1201.80271888 391.59116244 C1201.80251024 392.66438976 1201.80251024 392.66438976 1201.80229739 393.75929843 C1201.79934077 409.63975803 1201.80236217 425.52021485 1201.80661517 441.40067395 C1201.80719732 443.57632203 1201.80776617 445.75197011 1201.8083308 447.92761819 C1201.80984586 453.7603361 1201.81137277 459.593054 1201.81292381 465.4257719 C1201.82367512 506.12555702 1201.82838801 546.82533954 1201.82045364 587.5251255 C1201.82023118 588.67506868 1201.82023118 588.67506868 1201.82000423 589.84824304 C1201.81834534 598.39628224 1201.81659576 606.94432143 1201.81481122 615.49236061 C1201.8146502 616.26407052 1201.81448917 617.03578043 1201.81432327 617.83087549 C1201.81301592 624.09181879 1201.81301592 624.09181879 1201.81236208 627.19339706 C1201.80197221 676.54795343 1201.80973617 725.90247413 1201.83336353 775.25702572 C1201.83930733 787.69328047 1201.84519906 800.12953525 1201.85077286 812.56579018 C1201.85111663 813.33162333 1201.8514604 814.09745648 1201.85181459 814.88649669 C1201.86234838 838.50404198 1201.86793618 862.12158429 1201.86833 885.73913193 C1201.86834278 886.48102216 1201.86835557 887.22291239 1201.86836874 887.98728415 C1201.86859707 904.27637156 1201.86759055 920.56545871 1201.86545968 936.85454598 C1201.86470497 942.68352839 1201.86402676 948.51251082 1201.86337953 954.34149325 C1201.86321684 955.79148913 1201.86304917 957.24148501 1201.86287652 958.69148089 C1201.86015992 981.75646695 1201.86868995 1004.82143131 1201.88273062 1027.8864127 C1201.89716551 1051.77416812 1201.89665088 1075.66187345 1201.8793559 1099.54962911 C1201.86980393 1113.30847025 1201.8712053 1127.06720571 1201.88859059 1140.82603975 C1201.89910312 1150.02850159 1201.89494729 1159.23088318 1201.87911055 1168.43333715 C1201.87050423 1173.66856221 1201.86799137 1178.90358065 1201.88337987 1184.13879486 C1201.94020295 1204.88549341 1201.92439543 1225.02010764 1197.3668108 1245.38031673 C1197.21255211 1246.07114277 1197.05829342 1246.76196881 1196.89936023 1247.47372898 C1196.10355249 1250.94931659 1195.18210448 1254.35286992 1194.1168108 1257.75531673 C1193.81944019 1258.7338763 1193.52206959 1259.71243587 1193.21568775 1260.72064877 C1178.5323719 1307.69962189 1146.8380369 1346.40735812 1105.3668108 1372.38031673 C1104.4676897 1372.9483099 1104.4676897 1372.9483099 1103.55040455 1373.52777767 C1087.8775551 1383.2852266 1070.35732612 1390.08738431 1052.5543108 1394.81781673 C1051.72214039 1395.04042171 1050.88996998 1395.2630267 1050.03258228 1395.49237728 C1034.42242476 1399.35807568 1018.76776333 1400.83034177 1002.7336216 1400.76063347 C1000.94422922 1400.76407731 999.15483898 1400.76883099 997.36545309 1400.77475443 C992.49015836 1400.78715413 987.61504072 1400.7811642 982.73974555 1400.77192076 C977.41975801 1400.76516979 972.09979946 1400.7758976 966.77981824 1400.7843166 C957.4694402 1400.79665535 948.15911258 1400.79790802 938.84872913 1400.79176617 C925.00334665 1400.7826572 911.15801061 1400.79072154 897.31263169 1400.80205741 C871.86220916 1400.82227835 846.41181302 1400.82378869 820.96138513 1400.81840679 C817.35957846 1400.81765101 813.75777178 1400.81692339 810.15596509 1400.81622481 C809.44048021 1400.81608572 808.72499534 1400.81594663 807.9878291 1400.81580332 C792.1073695 1400.81284671 776.22691269 1400.8158681 760.34645359 1400.8201211 C758.17080551 1400.82070326 755.99515743 1400.82127211 753.81950934 1400.82183673 C747.98679143 1400.82335179 742.15407353 1400.8248787 736.32135563 1400.82642974 C695.62157052 1400.83718105 654.92178799 1400.84189395 614.22200203 1400.83395958 C613.45537324 1400.83381127 612.68874446 1400.83366297 611.8988845 1400.83351017 C603.35084529 1400.83185128 594.8028061 1400.83010169 586.25476692 1400.82831716 C585.48305701 1400.82815613 584.7113471 1400.82799511 583.91625205 1400.8278292 C577.65530874 1400.82652186 577.65530874 1400.82652186 574.55373047 1400.82586801 C525.19917411 1400.81547815 475.84465341 1400.82324211 426.49010181 1400.84686947 C414.05384706 1400.85281327 401.61759228 1400.858705 389.18133736 1400.86427879 C388.03258763 1400.86479445 388.03258763 1400.86479445 386.86063084 1400.86532052 C363.24308555 1400.87585432 339.62554324 1400.88144212 316.00799561 1400.88183594 C314.89516026 1400.88185511 314.89516026 1400.88185511 313.75984338 1400.88187467 C297.47075597 1400.88210301 281.18166882 1400.88109648 264.89258156 1400.87896562 C259.06359914 1400.87821091 253.23461671 1400.87753269 247.40563428 1400.87688547 C245.9556384 1400.87672277 244.50564252 1400.87655511 243.05564664 1400.87638245 C219.99066058 1400.87366585 196.92569623 1400.88219588 173.86071483 1400.89623656 C149.97295942 1400.91067145 126.08525408 1400.91015681 102.19749842 1400.89286184 C88.43865728 1400.88330986 74.67992183 1400.88471123 60.92108778 1400.90209652 C51.71862594 1400.91260905 42.51624436 1400.90845323 33.31379038 1400.89261649 C28.07856532 1400.88401016 22.84354688 1400.88149731 17.60833267 1400.8968858 C-3.13836588 1400.95370888 -23.2729801 1400.93790137 -43.6331892 1396.38031673 C-44.32401524 1396.22605805 -45.01484128 1396.07179936 -45.72660144 1395.91286617 C-49.20218905 1395.11705843 -52.60574238 1394.19561042 -56.0081892 1393.13031673 C-56.98674877 1392.83294613 -57.96530834 1392.53557552 -58.97352123 1392.22919369 C-105.95249435 1377.54587783 -144.66023059 1345.85154284 -170.6331892 1304.38031673 C-171.20118237 1303.48119564 -171.20118237 1303.48119564 -171.78065014 1302.56391048 C-181.53809907 1286.89106103 -188.34025678 1269.37083206 -193.0706892 1251.56781673 C-193.29329418 1250.73564632 -193.51589916 1249.90347591 -193.74524975 1249.04608822 C-197.61094815 1233.4359307 -199.08321424 1217.78126927 -199.01350594 1201.74712753 C-199.01694978 1199.95773516 -199.02170345 1198.16834492 -199.0276269 1196.37895903 C-199.0400266 1191.50366429 -199.03403667 1186.62854666 -199.02479323 1181.75325149 C-199.01804226 1176.43326395 -199.02877007 1171.1133054 -199.03718907 1165.79332417 C-199.04952781 1156.48294613 -199.05078049 1147.17261851 -199.04463863 1137.86223507 C-199.03552966 1124.01685259 -199.04359401 1110.17151655 -199.05492987 1096.32613762 C-199.07515081 1070.8757151 -199.07666116 1045.42531895 -199.07127925 1019.97489107 C-199.07052347 1016.37308439 -199.06979586 1012.77127771 -199.06909728 1009.16947103 C-199.06895819 1008.45398615 -199.0688191 1007.73850127 -199.06867579 1007.00133504 C-199.06571917 991.12087543 -199.06874057 975.24041862 -199.07299357 959.35995952 C-199.07357573 957.18431144 -199.07414457 955.00866336 -199.0747092 952.83301528 C-199.07622426 947.00029737 -199.07775117 941.16757946 -199.07930221 935.33486157 C-199.09005352 894.63507645 -199.09476641 853.93529393 -199.08683205 813.23550797 C-199.08668374 812.46887918 -199.08653543 811.70225039 -199.08638263 810.91239043 C-199.08472375 802.36435123 -199.08297416 793.81631204 -199.08118962 785.26827285 C-199.0810286 784.49656295 -199.08086758 783.72485304 -199.08070167 782.92975798 C-199.07939432 776.66881468 -199.07939432 776.66881468 -199.07874048 773.56723641 C-199.06835062 724.21268004 -199.07611458 674.85815934 -199.09974194 625.50360775 C-199.10568574 613.06735299 -199.11157747 600.63109822 -199.11715126 588.19484329 C-199.11749503 587.42901014 -199.1178388 586.66317699 -199.11819299 585.87413678 C-199.12872678 562.25659149 -199.13431458 538.63904918 -199.1347084 515.02150154 C-199.13472119 514.27961131 -199.13473397 513.53772107 -199.13474714 512.77334932 C-199.13497547 496.48426191 -199.13396895 480.19517476 -199.13183809 463.90608749 C-199.13108338 458.07710507 -199.13040516 452.24812265 -199.12975793 446.41914022 C-199.12959524 444.96914434 -199.12942758 443.51914846 -199.12925492 442.06915258 C-199.12653832 419.00416652 -199.13506835 395.93920216 -199.14910902 372.87422076 C-199.16354391 348.98646535 -199.16302928 325.09876002 -199.1457343 301.21100435 C-199.13618233 287.45216321 -199.1375837 273.69342776 -199.15496899 259.93459371 C-199.16548152 250.73213188 -199.1613257 241.52975029 -199.14548896 232.32729632 C-199.13688263 227.09207126 -199.13436978 221.85705282 -199.14975827 216.62183861 C-199.20658135 195.87514006 -199.19077384 175.74052583 -194.6331892 155.38031673 C-194.40180117 154.34407767 -194.40180117 154.34407767 -194.16573863 153.28690449 C-193.3699309 149.81131688 -192.44848289 146.40776355 -191.3831892 143.00531673 C-191.0858186 142.02675716 -190.78844799 141.04819759 -190.48206615 140.0399847 C-175.7987503 93.06101158 -144.1044153 54.35327535 -102.6331892 28.38031673 C-101.73406811 27.81232357 -101.73406811 27.81232357 -100.81678295 27.2328558 C-85.1439335 17.47540687 -67.62370452 10.67324916 -49.8206892 5.94281673 C-48.98851879 5.72021175 -48.15634838 5.49760677 -47.29896069 5.26825619 C-31.68880316 1.40255779 -16.03414173 -0.0697083 0 0 Z " fill="#000000" transform="translate(198.63318920135498,-0.38031673431396484)"/>
<path d="M0 0 C92.4 0 184.8 0 280 0 C280 23.1 280 46.2 280 70 C210.7 70 141.4 70 70 70 C70 116.2 70 162.4 70 210 C116.2 210 162.4 210 210 210 C210 233.1 210 256.2 210 280 C163.8 280 117.6 280 70 280 C70 326.2 70 372.4 70 420 C139.3 420 208.6 420 280 420 C280 443.1 280 466.2 280 490 C187.6 490 95.2 490 0 490 C0 328.3 0 166.6 0 0 Z " fill="#FFFFFF" transform="translate(568,446)"/>
<path d="M0 0 C69.3 0 138.6 0 210 0 C210 23.1 210 46.2 210 70 C163.8 70 117.6 70 70 70 C70 116.2 70 162.4 70 210 C116.2 210 162.4 210 210 210 C210 233.1 210 256.2 210 280 C163.8 280 117.6 280 70 280 C70 349.3 70 418.6 70 490 C46.9 490 23.8 490 0 490 C0 328.3 0 166.6 0 0 Z " fill="#FFFFFF" transform="translate(918,446)"/>
<path d="M0 0 C23.1 0 46.2 0 70 0 C70 115.5 70 231 70 350 C46.9 350 23.8 350 0 350 C0 234.5 0 119 0 0 Z " fill="#FFFFFF" transform="translate(218,516)"/>
<path d="M0 0 C69.3 0 138.6 0 210 0 C210 23.1 210 46.2 210 70 C140.7 70 71.4 70 0 70 C0 46.9 0 23.8 0 0 Z " fill="#FFFFFF" transform="translate(288,866)"/>
<path d="M0 0 C69.3 0 138.6 0 210 0 C210 23.1 210 46.2 210 70 C140.7 70 71.4 70 0 70 C0 46.9 0 23.8 0 0 Z " fill="#FFFFFF" transform="translate(288,446)"/>
<path d="M0 0 C23.1 0 46.2 0 70 0 C70 46.2 70 92.4 70 140 C46.9 140 23.8 140 0 140 C0 93.8 0 47.6 0 0 Z " fill="#FFFFFF" transform="translate(1128,516)"/>
</svg>
