<svg fill="none" viewBox="0 0 96 96" version="1.1" xmlns="http://www.w3.org/2000/svg" width="32" height="32">
<path d="M0 0 C4.39 4.27 6.67 8.06 7.25 14.19 C8.95 14.03 8.95 14.03 10.69 13.88 C16.09 13.91 20.09 15.8 24.25 19.19 C28.7 24.45 29.8 29.44 29.52 36.22 C29.25 38.19 29.25 38.19 28.25 39.19 C12.4 39.26 -3.46 39.27 -19.31 39.25 C-28.12 39.24 -36.93 39.23 -46 39.22 C-56.27 39.21 -56.27 39.21 -66.75 39.19 C-66.75 29.91 -66.75 29.91 -63.75 26.19 C-60.53 23.14 -58.17 21.69 -53.75 21.19 C-53.65 20.57 -53.55 19.96 -53.45 19.32 C-53.3 18.52 -53.15 17.71 -53 16.88 C-52.86 16.07 -52.72 15.27 -52.58 14.45 C-51.51 11.53 -50.49 10.63 -47.75 9.19 C-45.13 9.18 -45.13 9.18 -42.31 9.5 C-39.41 9.68 -39.41 9.68 -36.75 9.19 C-34.98 7.36 -34.1 5.58 -32.99 3.3 C-30.6 -0.77 -26.2 -3.05 -21.77 -4.43 C-13.69 -5.97 -6.83 -4.5 0 0 Z " fill="#F3811A" transform="translate(66.75,26.8125)"/>
<path d="M0 0 C6.86 -0.62 11.59 0.6 17 5 C21.45 10.26 22.55 15.25 22.27 22.03 C22 24 22 24 21 25 C15.98 25.07 10.96 25.08 5.94 25.06 C3.16 25.05 0.39 25.04 -2.47 25.04 C-4.63 25.02 -6.78 25.01 -9 25 C-9 22.36 -9 19.72 -9 17 C-14.28 14.36 -24.02 15.57 -29.62 15.44 C-34.75 15.31 -34.75 15.31 -39.98 15.18 C-42.62 15.12 -45.27 15.06 -48 15 C-48 14.34 -48 13.68 -48 13 C-45.48 12.96 -42.96 12.93 -40.37 12.89 C-37.09 12.82 -33.81 12.76 -30.44 12.69 C-27.18 12.63 -23.92 12.57 -20.56 12.51 C-12.05 12.49 -12.05 12.49 -5 9 C-3.15 6.82 -3.15 6.82 -2.06 4.31 C-1.66 3.5 -1.26 2.7 -0.85 1.86 C-0.57 1.25 -0.29 0.63 0 0 Z " fill="#FAB03F" transform="translate(74,41)"/>
<path d="M0 0 C0.73 2.6 0.99 4.37 0.88 7.12 C0.92 8.07 0.96 9.02 1 10 C4.04 12.02 5.19 12.32 8.69 12.62 C9.5 12.7 10.3 12.77 11.14 12.85 C11.75 12.9 12.37 12.95 13 13 C13 13.66 13 14.32 13 15 C12.26 15.04 11.53 15.07 10.77 15.11 C3.3 15.42 3.3 15.42 -3 19 C-4.83 22.07 -4.83 22.07 -6 25 C-6.99 24.67 -7.98 24.34 -9 24 C-9 21.69 -9 19.38 -9 17 C-14.28 14.36 -24.02 15.57 -29.62 15.44 C-34.75 15.31 -34.75 15.31 -39.98 15.18 C-42.62 15.12 -45.27 15.06 -48 15 C-48 14.34 -48 13.68 -48 13 C-45.48 12.96 -42.96 12.93 -40.37 12.89 C-37.09 12.82 -33.81 12.76 -30.44 12.69 C-27.18 12.63 -23.92 12.57 -20.56 12.51 C-12.05 12.49 -12.05 12.49 -5 9 C-3.15 6.82 -3.15 6.82 -2.06 4.31 C-1.66 3.5 -1.26 2.7 -0.85 1.86 C-0.57 1.25 -0.29 0.63 0 0 Z " fill="#FEF9F3" transform="translate(74,41)"/>
</svg>
