<svg width="32" height="32" viewBox="0 0 24 24" fill="none" xmlns="http://www.w3.org/2000/svg">
<path d="M11.9473 6.02637L23 12.3937L22.7993 13.7166L11.9576 7.47034L11.9473 6.02637Z" fill="url(#paint0_linear_1003_325075)"/>
<path d="M11.9507 8.45435L22.9999 14.8182L22.7993 16.0823L11.9524 9.90523L11.9507 8.45435Z" fill="url(#paint1_linear_1003_325075)"/>
<path d="M11.9917 10.8616L22.9994 17.1632L22.7988 18.448L12.0125 12.3021L11.9917 10.8616Z" fill="url(#paint2_linear_1003_325075)"/>
<path d="M1 5.95025L1.01211 18.6468L2.25768 18.882L2.21789 5.77905L1 5.95025Z" fill="url(#paint3_linear_1003_325075)"/>
<path d="M3.10889 4.769L3.11062 19.8537L4.37176 19.7949L4.34927 4.58569L3.10889 4.769Z" fill="url(#paint4_linear_1003_325075)"/>
<path d="M5.21729 3.58789V21.0677L6.4767 21.2493L6.48881 3.35962L5.21729 3.58789Z" fill="url(#paint5_linear_1003_325075)"/>
<path d="M1 5.95017L12.0147 12.3019L11.9922 10.8614L2.61924 5.49709C2.37013 5.35529 2.06393 5.35356 1.81481 5.49363L1 5.95017Z" fill="url(#paint6_linear_1003_325075)"/>
<path d="M3.94446 4.30219L3.10889 4.7691L11.9542 9.90514L11.9507 8.45425L4.75062 4.30737C4.5015 4.16384 4.1953 4.16038 3.94446 4.30219Z" fill="url(#paint7_linear_1003_325075)"/>
<path d="M5.21729 3.58798L6.08399 3.10377C6.33484 2.9637 6.64104 2.96543 6.89016 3.10896L11.9468 6.02457L11.9572 7.46854L5.21729 3.58798Z" fill="url(#paint8_linear_1003_325075)"/>
<path d="M12.0204 17.1628L12.017 15.1171L12.0222 14.6951L12.017 14.6986L12.0135 12.3018L1.0127 18.6466L1.84827 19.1291C2.10257 19.276 2.41569 19.2743 2.66827 19.1273L10.8527 14.3493V15.3747L3.11114 19.8536L3.96574 20.3448C4.21658 20.49 4.52624 20.49 4.77882 20.3465L10.8527 16.8758V17.8355L5.2165 21.0693L6.0711 21.5587C6.32194 21.7023 6.6316 21.7023 6.88418 21.5587L10.8544 19.283L12.0239 18.612L12.0204 17.1628Z" fill="url(#paint9_linear_1003_325075)"/>
<path d="M22.9998 17.163L17.5798 20.3311L16.7114 19.8434L22.595 16.4038C22.8458 16.2568 22.9998 15.9888 22.9998 15.6983V14.8163L15.471 19.1448L14.4953 18.5966L22.5812 14.0779C22.8389 13.9344 22.9998 13.6612 22.9998 13.3654V12.3918L12.0215 18.6104L17.1076 21.5243C17.3601 21.6696 17.6698 21.6678 17.9206 21.5226L22.5898 18.8335C22.8424 18.6882 22.9981 18.4185 22.9981 18.1262L22.9998 17.163Z" fill="url(#paint10_linear_1003_325075)"/>
<path d="M21.858 5.56447L17.7701 3.14345C17.5158 2.993 17.2009 2.99127 16.9449 3.13826L11.9453 6.0262L11.9557 7.47017L17.3203 4.35742L18.1628 4.86584L11.9488 8.45414L11.9522 9.90503L19.3945 5.60771L20.2232 6.10748L11.9903 10.8613L12.0128 12.3019L21.8528 6.62108C22.2576 6.38762 22.2611 5.80312 21.858 5.56447Z" fill="url(#paint11_linear_1003_325075)"/>
<defs>
<linearGradient id="paint0_linear_1003_325075" x1="113.894" y1="360.911" x2="1179.98" y2="509.029" gradientUnits="userSpaceOnUse">
<stop stop-color="#148FB4"/>
<stop offset="1" stop-color="#14B4BE"/>
</linearGradient>
<linearGradient id="paint1_linear_1003_325075" x1="71.8713" y1="363.078" x2="1147.45" y2="488.284" gradientUnits="userSpaceOnUse">
<stop stop-color="#148FB4"/>
<stop offset="1" stop-color="#14B4BE"/>
</linearGradient>
<linearGradient id="paint2_linear_1003_325075" x1="83.4027" y1="371.276" x2="1164.81" y2="463.045" gradientUnits="userSpaceOnUse">
<stop stop-color="#148FB4"/>
<stop offset="1" stop-color="#14B4BE"/>
</linearGradient>
<linearGradient id="paint3_linear_1003_325075" x1="63.8806" y1="-12.5896" x2="63.8806" y2="1571.21" gradientUnits="userSpaceOnUse">
<stop stop-color="#3311D4"/>
<stop offset="0.2722" stop-color="#5314E0"/>
<stop offset="0.5453" stop-color="#6C16E9"/>
<stop offset="0.7957" stop-color="#7B18EE"/>
<stop offset="1" stop-color="#8018F0"/>
</linearGradient>
<linearGradient id="paint4_linear_1003_325075" x1="66.2005" y1="111.305" x2="66.2005" y2="1483.1" gradientUnits="userSpaceOnUse">
<stop stop-color="#3311D4"/>
<stop offset="0.2034" stop-color="#4513DB"/>
<stop offset="0.7305" stop-color="#7017EA"/>
<stop offset="1" stop-color="#8018F0"/>
</linearGradient>
<linearGradient id="paint5_linear_1003_325075" x1="68.7154" y1="-253.954" x2="68.7154" y2="2533.3" gradientUnits="userSpaceOnUse">
<stop stop-color="#3311D4"/>
<stop offset="0.6282" stop-color="#8018F0"/>
</linearGradient>
<linearGradient id="paint6_linear_1003_325075" x1="-100.376" y1="178.272" x2="1175.01" y2="951.49" gradientUnits="userSpaceOnUse">
<stop offset="0.1495" stop-color="#645AFF"/>
<stop offset="1" stop-color="#AA64FA"/>
</linearGradient>
<linearGradient id="paint7_linear_1003_325075" x1="-86.4321" y1="141.306" x2="831.625" y2="680.338" gradientUnits="userSpaceOnUse">
<stop offset="0.188" stop-color="#645AFF"/>
<stop offset="1" stop-color="#AA64FA"/>
</linearGradient>
<linearGradient id="paint8_linear_1003_325075" x1="-105.936" y1="97.0607" x2="730.547" y2="568.776" gradientUnits="userSpaceOnUse">
<stop offset="0.2122" stop-color="#645AFF"/>
<stop offset="0.4681" stop-color="#775DFE"/>
<stop offset="0.9857" stop-color="#A964FA"/>
<stop offset="1" stop-color="#AA64FA"/>
</linearGradient>
<linearGradient id="paint9_linear_1003_325075" x1="404.896" y1="791.692" x2="823.67" y2="32.9467" gradientUnits="userSpaceOnUse">
<stop stop-color="#AA64FA"/>
<stop offset="1" stop-color="#645AFF"/>
</linearGradient>
<linearGradient id="paint10_linear_1003_325075" x1="12.1218" y1="474.502" x2="1109.91" y2="474.502" gradientUnits="userSpaceOnUse">
<stop stop-color="#2DF7F7"/>
<stop offset="1" stop-color="#17C8D2"/>
</linearGradient>
<linearGradient id="paint11_linear_1003_325075" x1="12.1027" y1="466.63" x2="1033.29" y2="466.63" gradientUnits="userSpaceOnUse">
<stop stop-color="#17C8D2"/>
<stop offset="1" stop-color="#2DF7F7"/>
</linearGradient>
</defs>
</svg>
