<svg width="32" height="32" viewBox="0 0 36 48" fill="none" xmlns="http://www.w3.org/2000/svg"><path fill-rule="evenodd" clip-rule="evenodd" d="M18.2345 5.44791C18.7396 5.34404 19.2605 5.34404 19.7655 5.44791C20.3493 5.56797 20.8711 5.86022 21.2859 6.09257L21.2859 6.09258L21.399 6.15575L35.4585 13.9666C35.4742 13.9753 35.4902 13.9842 35.5063 13.9931C35.5295 14.0059 35.553 14.0188 35.5769 14.032L35.5784 14.0328C36.0176 14.2747 36.5697 14.5788 36.9937 15.0389C37.3603 15.4368 37.6378 15.9083 37.8075 16.4219C38.0038 17.016 38.0015 17.6464 37.9996 18.1477C37.9995 18.1946 37.9993 18.2403 37.9993 18.2847V33.7067C37.9993 33.7256 37.9993 33.7448 37.9994 33.7642C37.9994 33.7903 37.9995 33.8168 37.9996 33.8437C38.0015 34.3451 38.0038 34.9754 37.8075 35.5695C37.6378 36.0832 37.3603 36.5547 36.9937 36.9525C36.5697 37.4126 36.0176 37.7167 35.5784 37.9586L35.5107 37.9959L35.4585 38.0249L21.399 45.8357L21.2859 45.8989C20.8711 46.1312 20.3493 46.4235 19.7655 46.5435C19.2605 46.6474 18.7396 46.6474 18.2345 46.5435C17.6507 46.4235 17.1289 46.1312 16.7141 45.8989L16.601 45.8357L2.54153 38.0249C2.50298 38.0034 2.46327 37.9816 2.42259 37.9592L2.42157 37.9586C1.98244 37.7167 1.43029 37.4126 1.00627 36.9525C0.639677 36.5547 0.362247 36.0832 0.192536 35.5695C-0.00375985 34.9754 -0.00146325 34.3451 0.000363158 33.8437C0.00053389 33.7969 0.000700421 33.7512 0.000700421 33.7067V18.2848C0.000700421 18.2403 0.00053389 18.1946 0.000363158 18.1477C-0.00146325 17.6464 -0.00375986 17.016 0.192535 16.4219C0.362246 15.9083 0.639675 15.4368 1.00627 15.039C1.43029 14.5788 1.98243 14.2747 2.42157 14.0328C2.46261 14.0102 2.50266 13.9882 2.54153 13.9666L16.601 6.15575L16.7141 6.09259C17.1289 5.86024 17.6507 5.56797 18.2345 5.44791ZM18.9909 9.18377C18.8813 9.23665 18.7343 9.31747 18.4464 9.47743L5.81285 16.4961L18.9999 23.8222L32.1871 16.496L19.5536 9.47742C19.2657 9.31747 19.1187 9.23665 19.0091 9.18377L19 9.17942L18.9909 9.18377ZM17.1 27.1136L3.80056 19.725V33.7067C3.80056 34.0543 3.80135 34.2323 3.80911 34.3611L3.8098 34.372L3.81899 34.3779C3.92785 34.4473 4.08301 34.5344 4.38691 34.7032L17.1001 41.766L17.1 27.1136ZM23.3465 37.3705C22.6028 37.7808 22.3326 38.7162 22.7428 39.4598C23.1531 40.2035 24.0885 40.4737 24.8321 40.0635L33.2205 35.4358C33.9641 35.0255 34.2344 34.0901 33.8241 33.3465C33.4139 32.6028 32.4785 32.3326 31.7348 32.7428L23.3465 37.3705Z" fill="#101828"></path></svg>