<svg fill="none" viewBox="0 0 96 96" version="1.1" xmlns="http://www.w3.org/2000/svg" width="32" height="32">
<path d="M0 0 C3.07 -0.04 3.07 -0.04 6.2 -0.09 C19.23 0.9 29.4 6.86 38.19 16.25 C41.71 20.54 44.18 25.27 46.31 30.38 C46.68 31.22 47.05 32.07 47.43 32.95 C48.73 38.01 48.65 42.85 48.69 48.06 C48.72 50.11 48.74 52.15 48.77 54.26 C47.79 67.29 41.83 77.46 32.44 86.25 C28.15 89.77 23.42 92.24 18.31 94.38 C17.46 94.74 16.61 95.11 15.74 95.49 C10.68 96.8 5.84 96.72 0.62 96.75 C-1.42 96.78 -3.47 96.81 -5.57 96.84 C-18.61 95.85 -28.78 89.89 -37.56 80.5 C-41.08 76.21 -43.55 71.48 -45.69 66.38 C-46.05 65.53 -46.42 64.68 -46.8 63.8 C-48.11 58.74 -48.03 53.9 -48.06 48.69 C-48.09 46.64 -48.12 44.6 -48.15 42.49 C-47.17 29.46 -41.21 19.29 -31.81 10.5 C-27.52 6.98 -22.79 4.51 -17.69 2.38 C-16.41 1.82 -16.41 1.82 -15.11 1.26 C-10.06 -0.05 -5.21 0.03 0 0 Z " fill="#6281F6" transform="translate(47.6875,-0.375)"/>
<path d="M0 0 C1.53 0.16 3.06 0.32 4.63 0.49 C8.29 1.04 11.43 1.82 14.88 3.12 C14.88 3.79 14.88 4.45 14.88 5.12 C13.91 5.41 12.94 5.7 11.94 6 C8.77 6.77 8.77 6.77 7.88 9.12 C8.46 9.38 9.05 9.63 9.66 9.88 C17.39 14.22 21.26 24.11 23.88 32.12 C23.88 33.12 23.88 34.1 23.88 35.12 C24.8 35.31 24.8 35.31 25.75 35.5 C27.88 36.12 27.88 36.12 29.88 38.12 C29.88 39.12 29.88 40.1 29.88 41.12 C29.31 41.03 28.74 40.93 28.15 40.84 C22.75 40.06 19.01 40.27 13.88 42.12 C14.44 38.86 15.37 37.3 17.88 35.12 C15.8 28.72 11.54 26.38 5.88 23.12 C0.61 20.62 -4.73 18.33 -10.12 16.12 C-9.47 18.44 -8.8 20.75 -8.12 23.12 C-12.01 22.9 -13.09 22.16 -15.88 19.31 C-18.12 16.12 -18.12 16.12 -19.12 12.12 C-27.05 12.62 -27.05 12.62 -35.12 13.12 C-35.12 11.12 -35.12 11.12 -33.94 9.88 C-33.34 9.3 -32.74 8.72 -32.12 8.12 C-31.44 7.13 -30.76 6.14 -30.06 5.12 C-23.05 -3.37 -9.59 -1.06 0 0 Z " fill="#F9FAFE" transform="translate(54.125,19.875)"/>
<path d="M0 0 C0.33 0 0.66 0 1 0 C1.27 1.24 1.54 2.48 1.81 3.75 C2.64 7.1 3.63 9.41 6 12 C5.36 12.54 4.72 13.07 4.06 13.62 C1.61 16.44 1.33 18.34 1 22 C0.67 22 0.34 22 0 22 C-0.27 20.74 -0.54 19.48 -0.81 18.19 C-1.6 15.01 -2.25 13 -5 11 C-4.36 10.3 -3.72 9.6 -3.06 8.88 C-0.84 5.77 -0.35 3.75 0 0 Z " fill="#F4F6FE" transform="translate(24,44)"/>
<path d="M0 0 C0.99 0 1.98 0 3 0 C3.2 6.05 3.2 6.05 3 8 C2.34 8.66 1.68 9.32 1 10 C0 9 0 9 -0.1 6.93 C-0.09 6.11 -0.07 5.29 -0.06 4.44 C-0.05 3.61 -0.04 2.78 -0.04 1.93 C-0.02 1.3 -0.01 0.66 0 0 Z " fill="#7A95F7" transform="translate(23,60)"/>
<path d="M0 0 C0.33 0.99 0.66 1.98 1 3 C0.01 3.99 -0.98 4.98 -2 6 C-1.67 6.66 -1.34 7.32 -1 8 C-2.32 8.33 -3.64 8.66 -5 9 C-4.43 5.13 -2.51 2.92 0 0 Z " fill="#E1E7FD" transform="translate(73,53)"/>
</svg>
