<svg width="32" height="32" viewBox="0 0 24 24" fill="none" xmlns="http://www.w3.org/2000/svg">
<path fill-rule="evenodd" clip-rule="evenodd" d="M14.8 5L11.999 11.795L9.195 5H7.397L10.469 12.428C10.5917 12.7301 10.8017 12.9888 11.0722 13.1709C11.3426 13.3531 11.6612 13.4505 11.9873 13.4507C12.3134 13.451 12.6322 13.354 12.9028 13.1721C13.1735 12.9903 13.3839 12.7319 13.507 12.43L16.598 5H14.8ZM15.996 15.352L21.12 10.108L20.421 8.439L14.825 14.178C14.5965 14.4121 14.4422 14.7084 14.3811 15.0298C14.3201 15.3512 14.3552 15.6834 14.482 15.985C14.6065 16.2846 14.8169 16.5406 15.0867 16.7207C15.3565 16.9008 15.6736 16.9969 15.998 16.997L16 17L24 16.98L23.301 15.311L15.998 15.352H15.996ZM2.88 10.104L3.579 8.435L9.175 14.174C9.643 14.653 9.778 15.363 9.518 15.981C9.39342 16.2805 9.18299 16.5364 8.9132 16.7165C8.64342 16.8966 8.32637 16.9928 8.002 16.993L0.002 16.975L0 16.977L0.699 15.308L8.002 15.35L2.88 10.104Z" fill="#5019C5"/>
</svg>
