<svg width="32" height="32" viewBox="0 0 24 24" fill="none" xmlns="http://www.w3.org/2000/svg">
<g clip-path="url(#clip0_968_321239)">
<path fill-rule="evenodd" clip-rule="evenodd" d="M12.3636 23.44L12.3636 19.5994L12.4143 19.599C15.9724 19.5419 18.9482 17.1132 19.7992 13.8401L12.3636 13.84V10L19.7992 10L23.8391 9.99993L23.8391 10H24V11.84L23.9999 11.8631C24 11.882 24 11.901 24 11.92C24 18.2823 18.7902 23.44 12.3636 23.44ZM12.3636 0.4C16.6707 0.4 20.4313 2.71667 22.4433 6.16002L17.4172 6.15987C16.0795 4.99103 14.3314 4.2718 12.4143 4.24103L12.3636 4.2406L12.3636 0.4ZM12.202 2.54C12.202 2.62322 12.175 2.7002 12.1292 2.76279L12.1283 2.76396C12.0576 2.86037 11.9429 2.92308 11.8134 2.92308C11.8087 2.92308 11.804 2.92299 11.7994 2.92283L11.414 3.63591C11.5969 3.75808 11.7172 3.96513 11.7172 4.2C11.7172 4.50662 11.5122 4.76583 11.2305 4.85067C11.1633 4.87271 11.0915 4.88462 11.0168 4.88462C10.7736 4.88462 10.5602 4.75828 10.44 4.56831L9.40913 5.07844C9.41243 5.09848 9.41414 5.11904 9.41414 5.14C9.41414 5.22015 9.38908 5.2945 9.34628 5.3558C9.27782 5.46542 9.15528 5.53846 9.0155 5.53846C8.90256 5.53846 8.80086 5.49077 8.72986 5.41462L7.5849 5.98127C7.61807 6.06102 7.63636 6.1484 7.63636 6.24C7.63636 6.56592 7.40476 6.83828 7.0956 6.90458C7.04454 6.91667 6.99128 6.92308 6.9365 6.92308C6.87347 6.92308 6.81244 6.91459 6.75452 6.89871L5.94796 8.79633C6.04091 8.86568 6.10101 8.97589 6.10101 9.1C6.10101 9.1026 6.10098 9.10519 6.10093 9.10778C6.10099 9.1103 6.10101 9.11284 6.10101 9.11538C6.10101 9.3278 5.92703 9.5 5.71241 9.5C5.69147 9.5 5.67093 9.49836 5.65089 9.49521L4.90732 11.2446C5.01311 11.3055 5.1008 11.3938 5.16044 11.4997C5.219 11.5998 5.25252 11.716 5.25252 11.84C5.25252 12.0643 5.14284 12.2632 4.97367 12.3871L5.65457 13.9338C5.68735 13.9248 5.72189 13.92 5.75758 13.92C5.96956 13.92 6.14141 14.0901 6.14141 14.3C6.14141 14.3259 6.13879 14.3512 6.1338 14.3757C6.11452 14.4827 6.05051 14.5744 5.9616 14.6312L6.80015 16.5361C6.84823 16.5256 6.89821 16.52 6.9495 16.52C7.32884 16.52 7.63636 16.8244 7.63636 17.2C7.63636 17.2627 7.62779 17.3234 7.61173 17.3811L8.84013 18.0709C8.90956 18.0024 9.00534 17.96 9.11111 17.96C9.12435 17.96 9.13743 17.9607 9.15032 17.962C9.35647 17.9714 9.52068 18.1398 9.52068 18.3462C9.52068 18.3805 9.51612 18.4139 9.50757 18.4456L10.5244 19.0165C10.5589 18.9807 10.5974 18.9486 10.6392 18.9209C10.7502 18.8447 10.885 18.8 11.0303 18.8C11.4096 18.8 11.7172 19.1044 11.7172 19.48C11.7172 19.7547 11.5527 19.9913 11.3159 20.0986L11.62 21.0769L11.6302 21.0771C11.8397 21.0829 12.0077 21.2528 12.0077 21.4615C12.0077 21.674 11.8337 21.8462 11.6191 21.8462C11.6077 21.8462 11.5964 21.8457 11.5852 21.8447L11.3198 22.7031C11.5545 22.8113 11.7172 23.0468 11.7172 23.32C11.7172 23.6956 11.4096 24 11.0303 24C11.0283 24 11.0264 24 11.0245 24L11.0168 24C10.6412 24 10.3367 23.6987 10.3367 23.3269C10.3367 23.2664 10.3448 23.2077 10.36 23.1519L8.62589 22.4629C8.55493 22.5555 8.44254 22.6154 8.31603 22.6154C8.17845 22.6154 8.05757 22.5446 7.98852 22.4379C7.94483 22.3762 7.91919 22.3011 7.91919 22.22C7.91919 22.2075 7.9198 22.1951 7.921 22.1828L6.14446 21.477C6.03227 21.696 5.80262 21.8462 5.53754 21.8462C5.32776 21.8462 5.14016 21.7521 5.01541 21.6044C4.91139 21.4852 4.84848 21.3299 4.84848 21.16C4.84848 20.9922 4.90991 20.8385 5.01172 20.7199L3.86515 19.4212C3.81294 19.447 3.75403 19.4615 3.69169 19.4615C3.47708 19.4615 3.30309 19.2893 3.30309 19.0769C3.30309 18.9983 3.32696 18.9251 3.3679 18.8642C3.36869 18.863 3.36944 18.8617 3.37021 18.8605L2.40284 17.7648C2.33279 17.8114 2.25361 17.8456 2.1685 17.8641C2.11501 17.8775 2.05899 17.8846 2.00129 17.8846C1.62571 17.8846 1.32124 17.5833 1.32124 17.2115C1.32124 17.0422 1.38444 16.8874 1.48878 16.7691C1.55705 16.6867 1.64451 16.6204 1.74441 16.577L1.3276 14.8781C1.18835 14.8526 1.07517 14.7535 1.03069 14.6231C1.01734 14.5845 1.0101 14.5431 1.0101 14.5C1.0101 14.4582 1.0169 14.4181 1.02947 14.3805C1.05379 14.3068 1.09994 14.243 1.16035 14.1964L0.748402 12.5173C0.728131 12.5191 0.707607 12.52 0.686869 12.52C0.307522 12.52 0 12.2156 0 11.84C0 11.8378 1.0537e-05 11.8356 3.15636e-05 11.8334C1.03741e-05 11.8313 0 11.8291 0 11.8269C0 11.4552 0.304468 11.1538 0.680049 11.1538C0.690194 11.1538 0.700287 11.1541 0.710324 11.1545L1.13624 9.46827C1.04733 9.40615 0.985936 9.30801 0.97373 9.19531C0.971074 9.17726 0.969697 9.15879 0.969697 9.14C0.969697 8.94314 1.1209 8.78125 1.31461 8.76193L1.7077 7.20571C1.68479 7.1941 1.66262 7.18125 1.64129 7.16726C1.44909 7.04836 1.32124 6.83704 1.32124 6.59615C1.32124 6.26027 1.56981 5.98186 1.89482 5.93128C1.93548 5.92388 1.97738 5.92 2.0202 5.92C2.11911 5.92 2.21314 5.9407 2.29811 5.97796L3.64656 4.34672C3.6256 4.29946 3.61397 4.24723 3.61397 4.19231C3.61397 4.02857 3.71735 3.88872 3.86304 3.83323C3.91101 3.81187 3.96421 3.8 4.0202 3.8C4.04506 3.8 4.06936 3.80234 4.0929 3.80681L4.96979 2.74598C4.89329 2.63633 4.84848 2.50335 4.84848 2.36C4.84848 1.98445 5.15601 1.68 5.53535 1.68C5.78031 1.68 5.99533 1.80695 6.11692 1.99802L8.12124 1.38328L8.12121 1.38C8.12121 1.17375 8.28719 1.00588 8.49412 1.00015L8.50505 1C8.50553 1 8.50601 1 8.5065 1L8.51033 1C8.64286 1 8.7599 1.06567 8.83004 1.16593L10.3374 0.703643C10.337 0.693511 10.3367 0.683321 10.3367 0.673077C10.3367 0.301347 10.6412 0 11.0168 0L11.0248 4e-05L11.0303 0C11.4053 0 11.7101 0.297488 11.7171 0.667078L11.7172 0.68C11.7172 0.908837 11.603 1.11127 11.428 1.23452L11.837 2.15454C12.0406 2.1666 12.202 2.33388 12.202 2.53846V2.54ZM7.90479 20.786L6.21816 21.0856C6.22084 21.11 6.22222 21.1349 6.22222 21.16C6.22222 21.1928 6.21988 21.225 6.21535 21.2566L8.01321 21.9708C8.08358 21.8907 8.18733 21.84 8.30303 21.84C8.36146 21.84 8.41685 21.8529 8.46642 21.876C8.60637 21.9342 8.70463 22.0711 8.70463 22.2308C8.70463 22.2357 8.70453 22.2406 8.70435 22.2454L10.4586 22.9424L10.4671 22.9307C10.4768 22.917 10.4869 22.9037 10.4976 22.8907L8.93411 21.174C8.82764 21.2411 8.70123 21.28 8.56566 21.28C8.25144 21.28 7.98649 21.0711 7.90479 20.786ZM10.4141 19.7929L9.20597 20.3534C9.23603 20.4299 9.25252 20.513 9.25252 20.6C9.25252 20.758 9.19809 20.9034 9.10677 21.0189L10.6733 22.739C10.7773 22.6762 10.8995 22.64 11.0303 22.64C11.052 22.64 11.0734 22.641 11.0945 22.6429L11.3689 21.7558C11.2843 21.6852 11.2305 21.5796 11.2305 21.4615C11.2305 21.3307 11.2965 21.2151 11.3974 21.1456L11.0902 20.1574C11.0705 20.1591 11.0505 20.16 11.0303 20.16C10.9126 20.16 10.8017 20.1307 10.7049 20.079C10.5808 20.0155 10.479 19.9153 10.4141 19.7929ZM5.84007 19.1551C5.78249 19.218 5.7039 19.2617 5.61527 19.2754L5.61526 20.4846C5.8525 20.5118 6.0529 20.6587 6.15325 20.8627L7.88021 20.5559C7.88496 20.4825 7.90144 20.4124 7.92783 20.3472L5.84007 19.1551ZM3.56079 16.2443L2.61861 16.8659C2.67493 16.9646 2.70707 17.0786 2.70707 17.2C2.70707 17.3519 2.65675 17.4922 2.57172 17.6054L3.547 18.7101C3.59307 18.6907 3.64376 18.68 3.69697 18.68C3.90896 18.68 4.08081 18.8501 4.08081 19.06C4.08081 19.0672 4.0806 19.0744 4.0802 19.0816L4.08029 19.0769C4.08029 19.1435 4.0632 19.2061 4.03313 19.2607L5.19059 20.5717C5.24943 20.5379 5.31383 20.5124 5.3821 20.497L5.38209 19.2391C5.2786 19.1871 5.20212 19.09 5.17899 18.974C5.17202 18.9453 5.16837 18.9154 5.16837 18.8846C5.16837 18.7815 5.2094 18.6878 5.27618 18.6187L4.28929 16.4481C4.22353 16.4688 4.15349 16.48 4.08081 16.48C3.873 16.48 3.68674 16.3886 3.56079 16.2443ZM7.51193 17.5904C7.46795 17.6524 7.41379 17.7068 7.35184 17.7512L8.37385 19.9469C8.43473 19.9294 8.49909 19.92 8.56566 19.92C8.77298 19.92 8.95886 20.0109 9.0848 20.1547L10.3428 19.5711C10.3388 19.5415 10.3367 19.5114 10.3367 19.4808C10.3367 19.384 10.3574 19.2921 10.3945 19.2089L9.38222 18.6405C9.31462 18.6968 9.22736 18.7308 9.13208 18.7308C9.06025 18.7308 8.99297 18.7115 8.93524 18.6778C8.81172 18.6147 8.72727 18.4871 8.72727 18.34C8.72727 18.3181 8.72914 18.2967 8.73272 18.2758L7.51193 17.5904ZM6.55182 17.7667L5.83247 18.6134C5.90237 18.6829 5.94557 18.7788 5.94557 18.8846C5.94557 18.9055 5.94388 18.9261 5.94064 18.9461L8.05015 20.1506C8.08415 20.1124 8.12241 20.078 8.16419 20.0482L7.14259 17.8532C7.07758 17.8736 7.00834 17.8846 6.9365 17.8846C6.79372 17.8846 6.66122 17.8411 6.55182 17.7667ZM4.66913 16.1566C4.65183 16.1828 4.63274 16.2077 4.61204 16.2311C4.57798 16.2722 4.53917 16.3092 4.49642 16.3414L5.48119 18.5073C5.5057 18.5025 5.53104 18.5 5.55697 18.5C5.57838 18.5 5.59938 18.5017 5.61985 18.505L6.38458 17.6049C6.30395 17.4942 6.25645 17.3584 6.25645 17.2115C6.25645 17.1211 6.27446 17.0349 6.30713 16.9561L4.66913 16.1566ZM4.76508 12.4909C4.71052 12.5073 4.65308 12.5171 4.59371 12.5194L4.28802 15.1415C4.57201 15.2223 4.77977 15.4814 4.77977 15.7885C4.77977 15.8421 4.77343 15.8943 4.76145 15.9443L6.4278 16.7577C6.47283 16.7057 6.52565 16.6605 6.58448 16.6239L5.73396 14.6919C5.52738 14.683 5.36267 14.5144 5.36267 14.3077C5.36267 14.2127 5.3975 14.1257 5.4552 14.0586L4.76508 12.4909ZM2.65809 13.4193C2.64072 13.4217 2.62297 13.423 2.60494 13.4231L2.19637 16.5426C2.29915 16.5695 2.39247 16.6194 2.4704 16.6864L3.4404 16.0463C3.4104 15.97 3.39394 15.8869 3.39394 15.8C3.39394 15.5711 3.50814 15.3687 3.68319 15.2455L2.65809 13.4193ZM1.23247 12.2531C1.16475 12.3407 1.07603 12.4114 0.973764 12.458L1.38053 14.1158C1.38664 14.1155 1.39278 14.1154 1.39896 14.1154C1.61358 14.1154 1.78756 14.2876 1.78756 14.5C1.78756 14.6553 1.69454 14.7891 1.56063 14.8499L1.96636 16.5034L2.37908 13.3524C2.2798 13.2827 2.21502 13.1681 2.21502 13.0385C2.21502 12.9953 2.22221 12.9538 2.23546 12.915L1.23247 12.2531ZM4.00215 12.2289L2.95687 12.8656C2.97303 12.9015 2.98373 12.9404 2.98792 12.9811C2.99075 12.9998 2.99222 13.019 2.99222 13.0385C2.99222 13.1494 2.94476 13.2494 2.86885 13.3196L3.89373 15.1455C3.90623 15.142 3.91888 15.1389 3.93167 15.1361C3.97185 15.126 4.01348 15.1194 4.05618 15.1167L4.36247 12.4898C4.21493 12.4446 4.08865 12.3515 4.00215 12.2289ZM3.87926 11.8654H1.37327C1.37092 11.9287 1.35983 11.9898 1.34115 12.0476L2.36581 12.7236C2.43158 12.6713 2.51512 12.64 2.60606 12.64C2.67617 12.64 2.74189 12.6586 2.79845 12.6911L3.90271 12.0185C3.88926 11.9695 3.88122 11.9182 3.87926 11.8654ZM2.99452 9.43327L1.18778 11.3747C1.25724 11.448 1.31048 11.5365 1.34185 11.6346H3.91068C3.93025 11.5734 3.95834 11.5159 3.99357 11.4635C4.05432 11.3699 4.1379 11.2922 4.23652 11.238L3.55936 9.54015C3.50638 9.55312 3.45097 9.56 3.39394 9.56C3.24496 9.56 3.10706 9.51305 2.99452 9.43327ZM4.35706 5.58308L2.6589 6.34934C2.68998 6.42691 2.70707 6.51148 2.70707 6.6C2.70707 6.97555 2.39955 7.28 2.0202 7.28C1.98989 7.28 1.96003 7.27806 1.93075 7.27429L1.543 8.80944C1.57945 8.82996 1.61217 8.85622 1.63991 8.88697C1.70727 8.95612 1.7487 9.0502 1.7487 9.15385C1.7487 9.36626 1.57472 9.53846 1.3601 9.53846L1.3588 9.53844L0.938117 11.204C0.959953 11.2129 0.98122 11.2228 1.00185 11.2338L2.83043 9.26892C2.75268 9.15871 2.70707 9.02463 2.70707 8.88C2.70707 8.67329 2.80024 8.48812 2.94727 8.3634C3.06751 8.25698 3.22625 8.19231 3.40024 8.19231C3.43399 8.19231 3.46716 8.19474 3.49959 8.19944L4.40974 5.63771C4.39043 5.62126 4.37278 5.60295 4.35706 5.58308ZM6.42938 6.69846L3.98964 8.52941C4.04467 8.62377 4.07723 8.73258 4.08009 8.84868C4.08057 8.85907 4.08081 8.8695 4.08081 8.88C4.08081 9.11685 3.95849 9.32542 3.77298 9.44718L4.45705 11.1624C4.49254 11.1568 4.52894 11.1538 4.56604 11.1538C4.6078 11.1538 4.64867 11.1576 4.68835 11.1647L5.44201 9.39162C5.36912 9.32171 5.32381 9.22378 5.32381 9.11538C5.32381 9.03335 5.34976 8.95732 5.39398 8.89488C5.46226 8.78969 5.58149 8.72 5.71717 8.72C5.7206 8.72 5.72402 8.72004 5.72742 8.72013L6.54375 6.79954C6.50187 6.77017 6.4635 6.73624 6.42938 6.69846ZM4.97702 5.57303C4.90632 5.66866 4.79209 5.73077 4.66319 5.73077C4.65015 5.73077 4.63725 5.73013 4.62453 5.72889L3.72105 8.27176C3.76365 8.29436 3.80354 8.32132 3.8401 8.35204L6.30562 6.50175C6.27391 6.42399 6.25645 6.33901 6.25645 6.25C6.25645 6.1825 6.26649 6.11732 6.28517 6.05584L4.97702 5.57303ZM6.13358 2.69438C6.01565 2.90073 5.79193 3.04 5.53535 3.04C5.38553 3.04 5.2469 2.99251 5.134 2.9119L4.3004 3.92029C4.36468 3.98823 4.40404 4.07956 4.40404 4.18C4.40404 4.28192 4.36351 4.37447 4.29754 4.44271C4.22626 4.52488 4.12056 4.57692 4.00257 4.57692C3.92951 4.57692 3.86116 4.55697 3.80278 4.52226L2.49295 6.10668C2.508 6.12083 2.52241 6.13565 2.53613 6.15108L4.27513 5.36646C4.27477 5.35974 4.27459 5.35297 4.27459 5.34615C4.27459 5.17768 4.38403 5.03451 4.53638 4.98248L4.54141 4.98069C4.58067 4.96728 4.62281 4.96 4.66667 4.96C4.75559 4.96 4.83745 4.98994 4.90253 5.04019L7.29398 3.6313C7.27629 3.57134 7.26681 3.50792 7.26681 3.44231C7.26681 3.36973 7.27841 3.29983 7.29989 3.23434L6.13358 2.69438ZM8.58805 3.71484C8.48141 3.95348 8.24015 4.12 7.9596 4.12C7.86596 4.12 7.77669 4.10145 7.69535 4.06786C7.57549 4.02061 7.47239 3.94058 7.39738 3.83895L5.03448 5.231C5.03718 5.23993 5.03955 5.24901 5.04159 5.2582C5.04826 5.28645 5.05179 5.3159 5.05179 5.34615L5.05164 5.35432L6.38843 5.84764C6.51283 5.67361 6.71776 5.56 6.9495 5.56C7.15212 5.56 7.33426 5.64686 7.45998 5.78503L8.63042 5.20577C8.6281 5.18879 8.62691 5.17146 8.62691 5.15385C8.62691 5.00811 8.7088 4.88131 8.82953 4.81605C8.88793 4.78051 8.9567 4.76 9.0303 4.76C9.13707 4.76 9.23365 4.80315 9.30323 4.87281L10.352 4.35383C10.342 4.30796 10.3367 4.26036 10.3367 4.21154C10.3367 4.19202 10.3376 4.1727 10.3392 4.15361L8.58805 3.71484ZM9.80954 2.55915L8.59515 3.18163C8.62822 3.26129 8.64646 3.34853 8.64646 3.44C8.64646 3.45712 8.64583 3.47409 8.64457 3.49089L10.3987 3.93045C10.4028 3.92166 10.4071 3.91297 10.4115 3.90439C10.4555 3.81437 10.519 3.73538 10.5964 3.6728L10.131 2.69137C10.1219 2.69199 10.1128 2.69231 10.1036 2.69231C9.9861 2.69231 9.88079 2.64071 9.80954 2.55915ZM10.759 1.30491L10.3701 2.01068C10.4527 2.08038 10.505 2.18414 10.505 2.3C10.505 2.42526 10.4438 2.53637 10.3494 2.60559C10.349 2.60589 10.3487 2.60618 10.3483 2.60648L10.8001 3.55915C10.872 3.5338 10.9495 3.52 11.0303 3.52C11.0892 3.52 11.1463 3.52733 11.2008 3.54113L11.5775 2.84409C11.4847 2.77381 11.4248 2.66305 11.4248 2.53846C11.4248 2.40078 11.4979 2.28 11.6078 2.21205L11.2176 1.3344C11.1581 1.35108 11.0952 1.36 11.0303 1.36C10.934 1.36 10.8422 1.34036 10.759 1.30491ZM10.3879 0.929753L8.89888 1.38636L8.89877 1.39557C8.89291 1.60292 8.72124 1.76923 8.51033 1.76923C8.37792 1.76923 8.26097 1.70369 8.19081 1.60359L6.20597 2.2123C6.21661 2.25985 6.22222 2.30928 6.22222 2.36C6.22222 2.39955 6.21881 2.43831 6.21227 2.47601L7.40917 3.03016C7.43401 2.99846 7.46166 2.96901 7.49173 2.94218C7.61435 2.82914 7.77882 2.76 7.9596 2.76C8.1625 2.76 8.34485 2.8471 8.47059 2.98559L9.71696 2.34676C9.71565 2.33391 9.71498 2.32088 9.71498 2.30769C9.71498 2.1145 9.8589 1.95457 10.0464 1.92721L10.0569 1.92532C10.0778 1.92182 10.0993 1.92 10.1212 1.92C10.1321 1.92 10.143 1.92045 10.1536 1.92134L10.5631 1.17846C10.5273 1.14554 10.495 1.10889 10.4669 1.06912C10.4353 1.02625 10.4087 0.979499 10.3879 0.929753Z" fill="url(#paint0_linear_968_321239)"/>
</g>
<defs>
<linearGradient id="paint0_linear_968_321239" x1="2191.93" y1="2197.88" x2="317.634" y2="360.191" gradientUnits="userSpaceOnUse">
<stop stop-color="#00FFF0"/>
<stop offset="0.500947" stop-color="#4400FF"/>
<stop offset="1" stop-color="#0055FF"/>
</linearGradient>
<clipPath id="clip0_968_321239">
<rect width="24" height="24" fill="white"/>
</clipPath>
</defs>
</svg>
