<svg fill="none" viewBox="0 0 68 68" version="1.1" xmlns="http://www.w3.org/2000/svg" width="32" height="32">
<path d="M0 0 C22.44 0 44.88 0 68 0 C68 22.44 68 44.88 68 68 C45.56 68 23.12 68 0 68 C0 45.56 0 23.12 0 0 Z " fill="#FDFDFD" transform="translate(0,0)"/>
<path d="M0 0 C5.61 0 11.22 0 17 0 C18.87 14.96 18.87 14.96 14.07 22.76 C8.56 28.86 4.17 33.38 -4.07 34.99 C-9 35 -9 35 -17 34 C-17 28.39 -17 22.78 -17 17 C-11.39 17 -5.78 17 0 17 C0 11.39 0 5.78 0 0 Z " fill="#212327" transform="translate(45,27)"/>
<path d="M0 0 C0 5.61 0 11.22 0 17 C-5.61 17 -11.22 17 -17 17 C-17 22.61 -17 28.22 -17 34 C-22.61 34 -28.22 34 -34 34 C-35.87 19.04 -35.87 19.04 -31.07 11.24 C-21.15 0.27 -14.54 -1.82 0 0 Z " fill="#1F2125" transform="translate(42,7)"/>
</svg>
