<?xml version="1.0" encoding="UTF-8"?>
<svg version="1.1" xmlns="http://www.w3.org/2000/svg" width="32" height="32" viewBox="0 0 553 555">
<path d="M0 0 C2.9549027 3.18522543 4.90020196 6.78720821 6.76513672 10.68896484 C9.03958223 15.07000338 12.19789831 18.82501854 15.203125 22.72265625 C18.53355549 27.2404297 21.81109927 31.7956808 25.05078125 36.37890625 C25.51266846 37.03165527 25.97455566 37.6844043 26.45043945 38.35693359 C27.30383992 39.56756778 28.15290825 40.78127183 28.99682617 41.99853516 C31.05497084 45.03795972 31.05497084 45.03795972 34.015625 47.09765625 C34.0580835 46.49719482 34.10054199 45.8967334 34.14428711 45.27807617 C34.84046621 36.58348329 36.19699745 28.01505186 37.578125 19.41015625 C37.81478354 17.91867218 38.05111394 16.42713601 38.28710938 14.93554688 C38.85950626 11.32230917 39.43631701 7.70979315 40.015625 4.09765625 C59.80819949 7.45955287 79.08558648 15.22357403 97.015625 24.09765625 C97.95422363 24.56075195 98.89282227 25.02384766 99.85986328 25.50097656 C132.50554203 41.751413 132.50554203 41.751413 140.015625 51.09765625 C139.94067383 54.41918945 139.94067383 54.41918945 138.97265625 58.1484375 C138.8102092 58.80724411 138.64776215 59.46605072 138.48039246 60.14482117 C137.95677855 62.24128359 137.3933375 64.32456779 136.828125 66.41015625 C136.46542086 67.83200181 136.1053632 69.25452528 135.74804688 70.67773438 C134.86777674 74.15942301 133.95150239 77.63044732 133.015625 81.09765625 C133.93375977 80.78425293 134.85189453 80.47084961 135.79785156 80.14794922 C139.20709987 78.98861497 142.62268452 77.84905181 146.04052734 76.71533203 C147.51856728 76.22200336 148.99483707 75.72333779 150.46923828 75.21923828 C152.5896374 74.49530404 154.7156739 73.79083821 156.84375 73.08984375 C157.50119202 72.86078339 158.15863403 72.63172302 158.83599854 72.39572144 C161.64888294 71.48721247 163.46585696 70.91600996 166.32250977 71.85986328 C174.15460055 77.58570327 180.75209234 84.7404909 187.015625 92.09765625 C187.72477051 92.92233398 187.72477051 92.92233398 188.44824219 93.76367188 C205.01396678 113.13445526 218.81373708 134.73333255 229.015625 158.09765625 C219.87997459 161.99981848 210.44967612 165.01463301 201.015625 168.09765625 C202.50543666 168.84256208 203.99556323 169.58684162 205.48681641 170.32885742 C206.86880461 171.022845 208.24594525 171.72655121 209.61865234 172.4387207 C214.07525214 174.72756962 218.5453901 176.73283141 223.2109375 178.5625 C240.41654742 185.63478466 240.41654742 185.63478466 243.7421875 192.80078125 C245.2334426 197.20799883 246.02315287 201.66533499 246.62841797 206.27050781 C247.02447091 209.16224364 247.57347928 211.98437825 248.17578125 214.83984375 C250.3088045 225.05103151 252.14756929 235.15329691 252.12915039 245.61523438 C252.12929642 246.31865967 252.12944244 247.02208496 252.1295929 247.74682617 C252.12890369 250.04088573 252.12115845 252.33486112 252.11328125 254.62890625 C252.11141354 256.23172969 252.1099913 257.83455371 252.10899353 259.43737793 C252.10519617 263.63274747 252.09538996 267.82808177 252.08428955 272.0234375 C252.07401531 276.31379724 252.06948309 280.60416273 252.06445312 284.89453125 C252.05376491 293.29558899 252.03672232 301.69661822 252.015625 310.09765625 C248.55177884 308.96632511 245.32524278 307.88011228 242.16015625 306.06640625 C241.46615723 305.67348389 240.7721582 305.28056152 240.05712891 304.87573242 C238.95377197 304.24308472 238.95377197 304.24308472 237.828125 303.59765625 C236.20785811 302.68602884 234.58673806 301.77591638 232.96484375 300.8671875 C232.13903809 300.40393066 231.31323242 299.94067383 230.46240234 299.46337891 C208.0101383 286.9311533 184.48261882 276.56047492 161.015625 266.09765625 C164.9020772 275.28655486 168.79680543 284.46862094 172.9453125 293.54296875 C186.91916904 324.12420781 199.15347375 355.46043156 210.55566406 387.08544922 C211.58801631 389.94639512 212.65996879 392.78957256 213.74902344 395.62939453 C214.31475539 397.14083742 214.8801925 398.6523907 215.4453125 400.1640625 C215.71723419 400.85426987 215.98915588 401.54447723 216.26931763 402.25559998 C217.99498018 406.9424618 218.23928035 410.26055558 217.015625 415.09765625 C215.77563477 417.61376953 215.77563477 417.61376953 214.20703125 419.91796875 C213.3413855 421.20574219 213.3413855 421.20574219 212.45825195 422.51953125 C211.83781006 423.4115625 211.21736816 424.30359375 210.578125 425.22265625 C209.94285889 426.15335937 209.30759277 427.0840625 208.65307617 428.04296875 C195.10124479 447.74725974 179.57310091 467.83657409 161.015625 483.09765625 C159.16287681 484.74086744 157.31019979 486.38411638 155.4609375 488.03125 C154.015625 489.09765625 154.015625 489.09765625 152.015625 489.09765625 C151.58032471 487.96078369 151.14502441 486.82391113 150.6965332 485.65258789 C129.34044218 429.99547685 105.40818144 375.65570081 79.05053711 322.20001221 C78.07679828 320.22192574 77.106732 318.24210116 76.13867188 316.26123047 C74.58289343 313.07867221 73.01984155 309.89984039 71.453125 306.72265625 C71.01830811 305.83151123 70.58349121 304.94036621 70.13549805 304.0222168 C69.74402588 303.23500244 69.35255371 302.44778809 68.94921875 301.63671875 C68.61978271 300.96850098 68.29034668 300.3002832 67.95092773 299.61181641 C67.08508018 297.91324456 67.08508018 297.91324456 65.015625 297.09765625 C64.66757812 298.36351562 64.31953125 299.629375 63.9609375 300.93359375 C61.4229111 309.36905983 58.10329917 317.52702595 54.890625 325.72265625 C54.5420343 326.61459686 54.1934436 327.50653748 53.83428955 328.42550659 C46.28052699 347.72393496 38.23814784 366.8016933 30.00262451 385.81762695 C29.05478406 388.00719642 28.10929009 390.19776287 27.16455078 392.38867188 C14.2989642 422.20436078 0.79136345 451.70710571 -13.43505859 480.89746094 C-14.84133156 483.80219243 -16.22610093 486.71547027 -17.59765625 489.63671875 C-23.61685019 502.44358902 -29.97996139 515.06177219 -36.421875 527.66015625 C-36.86492981 528.52920593 -37.30798462 529.39825562 -37.76446533 530.29364014 C-39.04061968 532.79428243 -40.32212739 535.29210235 -41.60546875 537.7890625 C-41.98737869 538.53814377 -42.36928864 539.28722504 -42.76277161 540.05900574 C-43.81021948 542.08776681 -44.88342408 544.09748159 -45.984375 546.09765625 C-46.31458145 546.70195969 -46.6447879 547.30626312 -46.98500061 547.92887878 C-49.35860095 551.91358048 -49.35860095 551.91358048 -52.17797852 552.74291992 C-52.96100342 552.6885376 -53.74402832 552.63415527 -54.55078125 552.578125 C-55.87166748 552.49570557 -55.87166748 552.49570557 -57.21923828 552.41162109 C-61.82088797 551.88913112 -66.36557326 551.24322599 -70.921875 550.41015625 C-71.92621582 550.22864014 -72.93055664 550.04712402 -73.96533203 549.86010742 C-101.57122456 544.71594878 -131.46256502 535.7788629 -154.984375 520.09765625 C-153.58033254 516.34331322 -151.86125099 512.96964685 -149.8515625 509.50390625 C-148.90192627 507.85733032 -148.90192627 507.85733032 -147.93310547 506.17749023 C-147.59583435 505.59554901 -147.25856323 505.01360779 -146.91107178 504.41403198 C-145.09274687 501.27361993 -143.28843984 498.12518204 -141.484375 494.9765625 C-141.11085907 494.32478531 -140.73734314 493.67300812 -140.35250854 493.0014801 C-129.36558279 473.79971948 -118.92177671 454.33690052 -108.82641602 434.65283203 C-107.46419106 432.01156277 -106.07990485 429.38267481 -104.68725586 426.75732422 C-98.67832456 415.4285725 -92.90355651 404.00558816 -87.296875 392.47265625 C-86.86617706 391.58792633 -86.43547913 390.70319641 -85.99172974 389.79165649 C-67.13373818 351.01114774 -49.07100154 311.5098811 -33.984375 271.09765625 C-49.79357251 279.52571969 -65.49378802 288.09440234 -80.984375 297.09765625 C-82.08652344 297.73574219 -83.18867188 298.37382812 -84.32421875 299.03125 C-100.1797618 308.21336841 -115.86264328 317.61893935 -131.34130859 327.42773438 C-133.7324225 328.93846956 -136.13125946 330.43550342 -138.53515625 331.92578125 C-161.49616916 346.20450936 -183.994248 361.36881042 -205.984375 377.09765625 C-206.73106445 377.63116699 -207.47775391 378.16467773 -208.24707031 378.71435547 C-213.51185272 382.48281941 -218.75315507 386.28277869 -223.984375 390.09765625 C-224.7563623 390.65952637 -225.52834961 391.22139648 -226.32373047 391.80029297 C-228.71334682 393.54154476 -231.09977885 395.28703633 -233.484375 397.03515625 C-234.26304932 397.60564697 -235.04172363 398.1761377 -235.84399414 398.76391602 C-239.98106601 401.81523664 -244.05724067 404.9257247 -248.078125 408.12890625 C-248.90119141 408.7825415 -249.72425781 409.43617676 -250.57226562 410.10961914 C-252.1514326 411.37023553 -253.72338769 412.63995257 -255.28710938 413.91967773 C-255.99158203 414.48243408 -256.69605469 415.04519043 -257.421875 415.625 C-258.03933594 416.12765381 -258.65679687 416.63030762 -259.29296875 417.14819336 C-259.85113281 417.46151611 -260.40929687 417.77483887 -260.984375 418.09765625 C-264.84909575 416.809416 -265.08918059 415.59393878 -266.953125 412.04296875 C-267.51902344 410.96668213 -268.08492188 409.89039551 -268.66796875 408.78149414 C-269.26738281 407.60707764 -269.86679687 406.43266113 -270.484375 405.22265625 C-270.79262207 404.62274872 -271.10086914 404.02284119 -271.41845703 403.40475464 C-283.42134889 379.97314026 -293.48069483 355.14771997 -297.984375 329.09765625 C-298.16492432 328.45320557 -298.34547363 327.80875488 -298.53149414 327.14477539 C-299.0078125 325.0859375 -299.0078125 325.0859375 -298.984375 321.09765625 C-297.03531489 318.46409292 -294.50181491 316.83982025 -291.796875 315.03515625 C-290.21841461 313.90932424 -288.64030364 312.78300223 -287.0625 311.65625 C-286.22912109 311.07601074 -285.39574219 310.49577148 -284.53710938 309.89794922 C-281.14780227 307.50767085 -277.85051598 305.00519686 -274.54833984 302.49658203 C-220.95522459 261.81268095 -163.98880843 225.39377758 -105.7734375 191.71386719 C-100.83704152 188.8533156 -95.91110827 185.97480829 -90.984375 183.09765625 C-103.31526872 179.66919557 -115.74717176 176.77030881 -128.234375 173.97265625 C-129.29648193 173.73466309 -130.35858887 173.49666992 -131.45288086 173.25146484 C-177.68646877 162.92709395 -224.25803964 154.80253962 -270.984375 147.09765625 C-269.88973253 143.63496173 -268.78324668 140.42543981 -266.953125 137.28515625 C-266.5600415 136.6094458 -266.16695801 135.93373535 -265.76196289 135.23754883 C-265.34035889 134.53138428 -264.91875488 133.82521973 -264.484375 133.09765625 C-264.04150146 132.35217529 -263.59862793 131.60669434 -263.14233398 130.83862305 C-258.8027666 123.63517141 -254.05325298 116.80319989 -248.984375 110.09765625 C-248.54480469 109.51387207 -248.10523438 108.93008789 -247.65234375 108.32861328 C-241.94356604 100.7916283 -235.92979281 93.655806 -229.4609375 86.76171875 C-227.4383921 84.58604688 -225.51269236 82.37601152 -223.609375 80.09765625 C-220.50936182 76.52929576 -217.1323673 73.31018173 -213.671875 70.09765625 C-213.16285645 69.62328125 -212.65383789 69.14890625 -212.12939453 68.66015625 C-211.05535612 67.67726254 -209.96649617 66.71038726 -208.86547852 65.7578125 C-207.46382459 64.52079152 -206.1119713 63.22690171 -204.78881836 61.90625 C-201.42298816 58.78439922 -198.74473513 56.33588481 -194.09790039 55.70703125 C-190.71201783 55.93101585 -187.5036195 56.45269926 -184.171875 57.09765625 C-182.88909668 57.30825684 -181.60631836 57.51885742 -180.28466797 57.73583984 C-177.41338206 58.209178 -174.54986737 58.7140145 -171.68798828 59.24121094 C-167.58516387 59.99571605 -163.47476173 60.69459156 -159.35993958 61.3802948 C-135.73091235 65.32264418 -112.26892886 69.98018549 -88.85400391 75.03564453 C-87.36892838 75.35342613 -87.36892838 75.35342613 -85.85385132 75.67762756 C-83.99046719 76.07685584 -82.12812075 76.48096745 -80.26699829 76.89060974 C-78.18161641 77.33644956 -76.08387425 77.72390013 -73.984375 78.09765625 C-73.654375 77.76765625 -73.324375 77.43765625 -72.984375 77.09765625 C-73.36134521 76.64028076 -73.73831543 76.18290527 -74.12670898 75.71166992 C-75.89196361 73.56966283 -77.65694691 71.4274324 -79.421875 69.28515625 C-80.06423096 68.5055957 -80.70658691 67.72603516 -81.3684082 66.92285156 C-84.8137405 62.73982096 -88.25008937 58.54995867 -91.671875 54.34765625 C-99.54660022 44.71974545 -107.62340299 35.30729835 -115.984375 26.09765625 C-117.3229398 24.62322209 -118.65667115 23.14437803 -119.984375 21.66015625 C-120.54125 21.04269531 -121.098125 20.42523437 -121.671875 19.7890625 C-122.984375 18.09765625 -122.984375 18.09765625 -123.984375 15.09765625 C-108.33994678 8.2258046 -92.10770848 3.81981618 -75.296875 0.84765625 C-74.44480469 0.6966748 -73.59273437 0.54569336 -72.71484375 0.39013672 C-12.47966689 -9.57788602 -12.47966689 -9.57788602 0 0 Z M21.015625 111.09765625 C15.66589731 118.41688985 13.1045272 126.65512342 10.265625 135.16015625 C9.7418378 136.70648097 9.2179926 138.25278604 8.6940918 139.79907227 C-2.74659329 168.44472635 -2.74659329 168.44472635 -5.984375 198.09765625 C-0.82512349 207.04035887 10.83728634 210.00119672 20.078125 213.28515625 C21.65291626 213.84891968 21.65291626 213.84891968 23.25952148 214.42407227 C32.62124867 217.71679904 42.07989255 220.66451888 51.578125 223.53515625 C52.64572556 223.85787003 52.64572556 223.85787003 53.7348938 224.18710327 C69.53663182 230.00782246 69.53663182 230.00782246 85.703125 229.09765625 C102.34255558 214.70679737 107.84986406 180.22348656 113.640625 159.72265625 C113.88820557 158.86913574 114.13578613 158.01561523 114.39086914 157.13623047 C116.21862153 150.42618105 117.53197233 144.22213948 114.40234375 137.7734375 C98.31743606 119.74043952 55.38481962 110.39067962 32.34375 107.796875 C27.74747444 107.77095615 24.59414231 107.91675197 21.015625 111.09765625 Z " fill="#6A3CFD" transform="translate(300.984375,2.90234375)"/>
<path d="M0 0 C1.3430381 2.6860762 0.49254204 4.10820042 -0.41049194 6.84843445 C-0.63725616 7.51204483 -0.86402039 8.17565521 -1.09765625 8.859375 C-1.44215317 9.89859856 -1.44215317 9.89859856 -1.79360962 10.95881653 C-2.28773322 12.44924944 -2.78481293 13.93870486 -3.28451538 15.42727661 C-4.58262504 19.30286695 -5.85064951 23.18821579 -7.1171875 27.07421875 C-7.49356606 28.22838539 -7.49356606 28.22838539 -7.87754822 29.40586853 C-9.93956182 35.75656535 -11.89419157 42.13014219 -13.6875 48.5625 C-13.93056885 49.40329102 -14.1736377 50.24408203 -14.42407227 51.11035156 C-16.08324609 57.2187031 -17.55660698 63.88678604 -14.625 69.75 C-7.97525797 75.44977888 0.90707393 78.28926856 9.0625 81.1875 C10.63729126 81.75126343 10.63729126 81.75126343 12.24389648 82.32641602 C21.60562367 85.61914279 31.06426755 88.56686263 40.5625 91.4375 C41.63010056 91.76021378 41.63010056 91.76021378 42.7192688 92.08944702 C58.68082704 98.10238762 58.68082704 98.10238762 74.8125 96.6875 C76.70905365 95.22444433 78.3945719 93.77442053 80 92 C78.71441752 98.78835611 76.75516901 105.29842549 74.125 111.6875 C72.21281243 116.33447659 70.62959626 121.05467801 69.0690918 125.82983398 C66.50605906 133.60401211 63.62513347 141.26030787 60.76953125 148.93066406 C58.71189461 154.46382654 56.68988523 160.00842917 54.75756836 165.58666992 C51.00779168 176.41007488 46.90221152 187.06274264 42.625 197.6875 C42.11093597 198.96850586 42.11093597 198.96850586 41.58648682 200.27539062 C21.27888741 250.85483288 -0.57129107 300.80308942 -24.45068359 349.79980469 C-25.85695656 352.70453618 -27.24172593 355.61781402 -28.61328125 358.5390625 C-34.63247519 371.34593277 -40.99558639 383.96411594 -47.4375 396.5625 C-47.88055481 397.43154968 -48.32360962 398.30059937 -48.78009033 399.19598389 C-50.05624468 401.69662618 -51.33775239 404.1944461 -52.62109375 406.69140625 C-53.00300369 407.44048752 -53.38491364 408.18956879 -53.77839661 408.96134949 C-54.82584448 410.99011056 -55.89904908 412.99982534 -57 415 C-57.33020645 415.60430344 -57.6604129 416.20860687 -58.00062561 416.83122253 C-60.37422595 420.81592423 -60.37422595 420.81592423 -63.19360352 421.64526367 C-63.97662842 421.59088135 -64.75965332 421.53649902 -65.56640625 421.48046875 C-66.88729248 421.39804932 -66.88729248 421.39804932 -68.23486328 421.31396484 C-72.83651297 420.79147487 -77.38119826 420.14556974 -81.9375 419.3125 C-82.94184082 419.13098389 -83.94618164 418.94946777 -84.98095703 418.76245117 C-112.58684956 413.61829253 -142.47819002 404.68120665 -166 389 C-164.59595754 385.24565697 -162.87687599 381.8719906 -160.8671875 378.40625 C-159.91755127 376.75967407 -159.91755127 376.75967407 -158.94873047 375.07983398 C-158.61145935 374.49789276 -158.27418823 373.91595154 -157.92669678 373.31637573 C-156.10837187 370.17596368 -154.30406484 367.02752579 -152.5 363.87890625 C-152.12648407 363.22712906 -151.75296814 362.57535187 -151.36813354 361.90382385 C-140.38120779 342.70206323 -129.93740171 323.23924427 -119.84204102 303.55517578 C-118.47981606 300.91390652 -117.09552985 298.28501856 -115.70288086 295.65966797 C-109.69394956 284.33091625 -103.91918151 272.90793191 -98.3125 261.375 C-97.88180206 260.49027008 -97.45110413 259.60554016 -97.00735474 258.69400024 C-78.14936318 219.91349149 -60.08662654 180.41222485 -45 140 C-60.80919751 148.42806344 -76.50941302 156.99674609 -92 166 C-93.65322266 166.95712891 -93.65322266 166.95712891 -95.33984375 167.93359375 C-111.1953868 177.11571216 -126.87826828 186.5212831 -142.35693359 196.33007812 C-144.7480475 197.84081331 -147.14688446 199.33784717 -149.55078125 200.828125 C-172.51179416 215.10685311 -195.009873 230.27115417 -217 246 C-217.74668945 246.53351074 -218.49337891 247.06702148 -219.26269531 247.61669922 C-224.52747772 251.38516316 -229.76878007 255.18512244 -235 259 C-235.7719873 259.56187012 -236.54397461 260.12374023 -237.33935547 260.70263672 C-239.72897182 262.44388851 -242.11540385 264.18938008 -244.5 265.9375 C-245.27867432 266.50799072 -246.05734863 267.07848145 -246.85961914 267.66625977 C-250.99669101 270.71758039 -255.07286567 273.82806845 -259.09375 277.03125 C-259.91681641 277.68488525 -260.73988281 278.33852051 -261.58789062 279.01196289 C-263.1670576 280.27257928 -264.73901269 281.54229632 -266.30273438 282.82202148 C-267.00720703 283.38477783 -267.71167969 283.94753418 -268.4375 284.52734375 C-269.05496094 285.02999756 -269.67242187 285.53265137 -270.30859375 286.05053711 C-270.86675781 286.36385986 -271.42492187 286.67718262 -272 287 C-275.86472075 285.71175975 -276.10480559 284.49628253 -277.96875 280.9453125 C-278.53464844 279.86902588 -279.10054688 278.79273926 -279.68359375 277.68383789 C-280.28300781 276.50942139 -280.88242187 275.33500488 -281.5 274.125 C-281.80824707 273.52509247 -282.11649414 272.92518494 -282.43408203 272.30709839 C-294.43697389 248.87548401 -304.49631983 224.05006372 -309 198 C-309.18054932 197.35554932 -309.36109863 196.71109863 -309.54711914 196.04711914 C-310.0234375 193.98828125 -310.0234375 193.98828125 -310 190 C-308.05093989 187.36643667 -305.51743991 185.742164 -302.8125 183.9375 C-301.23403961 182.81166799 -299.65592864 181.68534598 -298.078125 180.55859375 C-297.24474609 179.97835449 -296.41136719 179.39811523 -295.55273438 178.80029297 C-292.16342727 176.4100146 -288.86614098 173.90754061 -285.56396484 171.39892578 C-231.96892841 130.71356629 -175.00151341 94.25062484 -116.76220703 60.6027832 C-114.80096291 59.46476237 -112.84403471 58.31928908 -110.89013672 57.16870117 C-105.70489819 54.11763829 -100.54852016 51.16606018 -95.125 48.5625 C-90.49603997 46.29482818 -86.01627788 43.90183309 -81.5625 41.30078125 C-73.79729204 36.81649961 -65.85929814 32.70264685 -57.875 28.625 C-56.36976988 27.85363952 -54.86456203 27.08223558 -53.359375 26.31079102 C-41.93439595 20.4639191 -30.4747061 14.6860722 -19 8.9375 C-18.2125238 8.54242249 -17.42504761 8.14734497 -16.6137085 7.74029541 C-14.38947429 6.62528818 -12.16378699 5.51324555 -9.9375 4.40234375 C-9.27662384 4.07091873 -8.61574768 3.73949371 -7.93484497 3.39802551 C-5.31068645 2.09263068 -2.78533182 0.92844394 0 0 Z " fill="#4F19FD" transform="translate(312,134)"/>
<path d="M0 0 C7.04213279 5.64343629 13.16323802 12.14412085 19 19 C19.47276367 19.54978516 19.94552734 20.09957031 20.43261719 20.66601562 C36.99834178 40.03679901 50.79811208 61.6356763 61 85 C51.86434959 88.90216223 42.43405112 91.91697676 33 95 C34.48981166 95.74490583 35.97993823 96.48918537 37.47119141 97.23120117 C38.85317961 97.92518875 40.23032025 98.62889496 41.60302734 99.34106445 C46.05962714 101.62991337 50.5297651 103.63517516 55.1953125 105.46484375 C72.40092242 112.53712841 72.40092242 112.53712841 75.7265625 119.703125 C77.2178176 124.11034258 78.00752787 128.56767874 78.61279297 133.17285156 C79.00884591 136.06458739 79.55785428 138.886722 80.16015625 141.7421875 C82.2931795 151.95337526 84.13194429 162.05564066 84.11352539 172.51757812 C84.11367142 173.22100342 84.11381744 173.92442871 84.1139679 174.64916992 C84.11327869 176.94322948 84.10553345 179.23720487 84.09765625 181.53125 C84.09578854 183.13407344 84.0943663 184.73689746 84.09336853 186.33972168 C84.08957117 190.53509122 84.07976496 194.73042552 84.06866455 198.92578125 C84.05839031 203.21614099 84.05385809 207.50650648 84.04882812 211.796875 C84.03813991 220.19793274 84.02109732 228.59896197 84 237 C80.53615384 235.86866886 77.30961778 234.78245603 74.14453125 232.96875 C73.45053223 232.57582764 72.7565332 232.18290527 72.04150391 231.77807617 C71.30593262 231.35631104 70.57036133 230.9345459 69.8125 230.5 C68.19223311 229.58837259 66.57111306 228.67826013 64.94921875 227.76953125 C64.12341309 227.30627441 63.29760742 226.84301758 62.44677734 226.36572266 C39.9945133 213.83349705 16.46699382 203.46281867 -7 193 C-3.1135478 202.18889861 0.78118043 211.37096469 4.9296875 220.4453125 C18.90354404 251.02655156 31.13784875 282.36277531 42.54003906 313.98779297 C43.57239131 316.84873887 44.64434379 319.69191631 45.73339844 322.53173828 C46.29913039 324.04318117 46.8645675 325.55473445 47.4296875 327.06640625 C47.70160919 327.75661362 47.97353088 328.44682098 48.25369263 329.15794373 C49.97935518 333.84480555 50.22365535 337.16289933 49 342 C47.76000977 344.51611328 47.76000977 344.51611328 46.19140625 346.8203125 C45.61430908 347.67882812 45.03721191 348.53734375 44.44262695 349.421875 C43.82218506 350.31390625 43.20174316 351.2059375 42.5625 352.125 C41.92723389 353.05570312 41.29196777 353.98640625 40.63745117 354.9453125 C27.08561979 374.64960349 11.55747591 394.73891784 -7 410 C-8.85274819 411.64321119 -10.70542521 413.28646013 -12.5546875 414.93359375 C-14 416 -14 416 -16 416 C-16.43530029 414.86312744 -16.87060059 413.72625488 -17.3190918 412.55493164 C-39.90103942 353.7030582 -65.17972731 296.08601396 -93.61328125 239.82421875 C-94.13237061 238.79659424 -94.65145996 237.76896973 -95.1862793 236.71020508 C-96.1071107 234.89557499 -97.03381305 233.08390476 -97.96801758 231.27612305 C-102.59562161 222.19755552 -102.59562161 222.19755552 -101.03125 216.42578125 C-100.53387188 215.04990398 -100.02255528 213.67901353 -99.5 212.3125 C-99.22736328 211.56919434 -98.95472656 210.82588867 -98.67382812 210.06005859 C-96.42098246 203.96690289 -94.01070363 197.93472748 -91.61621094 191.89624023 C-89.1287365 185.53362219 -87.02807933 179.07805014 -85.04101562 172.54345703 C-81.43589819 160.70286719 -81.43589819 160.70286719 -78.9375 156 C-77.81413259 153.78260265 -77.81413259 153.78260265 -77.12890625 150.28515625 C-76.17941118 146.40975495 -74.73671547 143.04034964 -73 139.4375 C-65.37079799 122.77810831 -60.40111791 104.49646898 -55.5 86.875 C-55.26917725 86.05499512 -55.03835449 85.23499023 -54.80053711 84.39013672 C-53.63094696 80.03708084 -52.80626842 75.76944467 -52.21484375 71.30078125 C-50.72658576 61.10837852 -47.76280138 51.23652737 -45.0625 41.3125 C-44.51827679 39.28857362 -43.97465286 37.26448599 -43.43164062 35.24023438 C-40.67238943 24.99193866 -40.67238943 24.99193866 -39.70275879 21.54211426 C-39.21383876 19.7735265 -38.75251399 17.99717383 -38.31286621 16.21569824 C-38.07821655 15.31992065 -37.84356689 14.42414307 -37.60180664 13.5012207 C-37.40099991 12.69425247 -37.20019318 11.88728424 -36.99330139 11.05586243 C-35.67914721 8.33592242 -34.26739729 7.76196406 -31.5234375 6.6171875 C-29.69094596 6.04940135 -27.84900542 5.51145413 -26 5 C-24.11465117 4.34317302 -22.23184084 3.67901685 -20.3515625 3.0078125 C-18.44399574 2.37630613 -16.53512836 1.74871538 -14.625 1.125 C-13.65433594 0.79242188 -12.68367188 0.45984375 -11.68359375 0.1171875 C-10.74902344 -0.18703125 -9.81445312 -0.49125 -8.8515625 -0.8046875 C-7.59593506 -1.22210205 -7.59593506 -1.22210205 -6.31494141 -1.64794922 C-3.47088824 -2.08046606 -2.38406729 -1.540825 0 0 Z " fill="#9879FE" transform="translate(469,76)"/>
<path d="M0 0 C1.34304752 2.68609505 0.49253167 4.10824709 -0.41052246 6.84849548 C-0.63727661 7.51208572 -0.86403076 8.17567596 -1.09765625 8.859375 C-1.32723022 9.55200943 -1.5568042 10.24464386 -1.79333496 10.95826721 C-2.28735068 12.44852237 -2.7843399 13.9377944 -3.28396606 15.42617798 C-4.58430576 19.30752199 -5.85576634 23.1982349 -7.125 27.08984375 C-7.50199791 28.2452491 -7.50199791 28.2452491 -7.88661194 29.42399597 C-9.91829087 35.68207826 -11.82182683 41.96666736 -13.5625 48.3125 C-13.78881104 49.11977539 -14.01512207 49.92705078 -14.24829102 50.75878906 C-15.4529665 55.2566173 -16.26198234 59.68590204 -16.890625 64.30078125 C-18.39047471 74.47383596 -22.16307171 83.88839282 -25.70349121 93.49398804 C-27.38096192 98.1033946 -28.84788256 102.74692215 -30.23985291 107.44987488 C-39.71450578 139.13625326 -39.71450578 139.13625326 -52.98071289 146.43359375 C-57.7435802 148.80792464 -62.6469803 150.78663083 -67.62646484 152.66259766 C-72.52274789 154.6036773 -76.93060885 157.17166908 -81.4375 159.875 C-83.11616723 160.84681658 -84.79588244 161.81682486 -86.4765625 162.78515625 C-88.31777854 163.85665019 -90.15891871 164.92827453 -92 166 C-93.69779143 166.98328554 -95.39558376 167.96656951 -97.09339905 168.94981384 C-112.36018735 177.79911776 -127.4497883 186.88345404 -142.35693359 196.33007812 C-144.7480475 197.84081331 -147.14688446 199.33784717 -149.55078125 200.828125 C-172.51179416 215.10685311 -195.009873 230.27115417 -217 246 C-217.74668945 246.53351074 -218.49337891 247.06702148 -219.26269531 247.61669922 C-224.52747772 251.38516316 -229.76878007 255.18512244 -235 259 C-235.7719873 259.56187012 -236.54397461 260.12374023 -237.33935547 260.70263672 C-239.72897182 262.44388851 -242.11540385 264.18938008 -244.5 265.9375 C-245.27867432 266.50799072 -246.05734863 267.07848145 -246.85961914 267.66625977 C-250.99669101 270.71758039 -255.07286567 273.82806845 -259.09375 277.03125 C-259.91681641 277.68488525 -260.73988281 278.33852051 -261.58789062 279.01196289 C-263.1670576 280.27257928 -264.73901269 281.54229632 -266.30273438 282.82202148 C-267.00720703 283.38477783 -267.71167969 283.94753418 -268.4375 284.52734375 C-269.05496094 285.02999756 -269.67242187 285.53265137 -270.30859375 286.05053711 C-270.86675781 286.36385986 -271.42492187 286.67718262 -272 287 C-275.86472075 285.71175975 -276.10480559 284.49628253 -277.96875 280.9453125 C-278.53464844 279.86902588 -279.10054688 278.79273926 -279.68359375 277.68383789 C-280.28300781 276.50942139 -280.88242187 275.33500488 -281.5 274.125 C-281.80824707 273.52509247 -282.11649414 272.92518494 -282.43408203 272.30709839 C-294.43697389 248.87548401 -304.49631983 224.05006372 -309 198 C-309.18054932 197.35554932 -309.36109863 196.71109863 -309.54711914 196.04711914 C-310.0234375 193.98828125 -310.0234375 193.98828125 -310 190 C-308.05093989 187.36643667 -305.51743991 185.742164 -302.8125 183.9375 C-301.23403961 182.81166799 -299.65592864 181.68534598 -298.078125 180.55859375 C-297.24474609 179.97835449 -296.41136719 179.39811523 -295.55273438 178.80029297 C-292.16342727 176.4100146 -288.86614098 173.90754061 -285.56396484 171.39892578 C-231.96892841 130.71356629 -175.00151341 94.25062484 -116.76220703 60.6027832 C-114.80096291 59.46476237 -112.84403471 58.31928908 -110.89013672 57.16870117 C-105.70489819 54.11763829 -100.54852016 51.16606018 -95.125 48.5625 C-90.49603997 46.29482818 -86.01627788 43.90183309 -81.5625 41.30078125 C-73.79729204 36.81649961 -65.85929814 32.70264685 -57.875 28.625 C-56.36976988 27.85363952 -54.86456203 27.08223558 -53.359375 26.31079102 C-41.93439595 20.4639191 -30.4747061 14.6860722 -19 8.9375 C-18.2125238 8.54242249 -17.42504761 8.14734497 -16.6137085 7.74029541 C-14.38947429 6.62528818 -12.16378699 5.51324555 -9.9375 4.40234375 C-9.27662384 4.07091873 -8.61574768 3.73949371 -7.93484497 3.39802551 C-5.31068645 2.09263068 -2.78533182 0.92844394 0 0 Z " fill="#5D2AFD" transform="translate(312,134)"/>
<path d="M0 0 C2.9549027 3.18522543 4.90020196 6.78720821 6.76513672 10.68896484 C9.03958223 15.07000338 12.19789831 18.82501854 15.203125 22.72265625 C18.53355549 27.2404297 21.81109927 31.7956808 25.05078125 36.37890625 C25.51266846 37.03165527 25.97455566 37.6844043 26.45043945 38.35693359 C27.30383992 39.56756778 28.15290825 40.78127183 28.99682617 41.99853516 C31.05497084 45.03795972 31.05497084 45.03795972 34.015625 47.09765625 C34.0580835 46.49719482 34.10054199 45.8967334 34.14428711 45.27807617 C34.84046621 36.58348329 36.19699745 28.01505186 37.578125 19.41015625 C37.81478354 17.91867218 38.05111394 16.42713601 38.28710938 14.93554688 C38.85950626 11.32230917 39.43631701 7.70979315 40.015625 4.09765625 C59.80819949 7.45955287 79.08558648 15.22357403 97.015625 24.09765625 C97.95422363 24.56075195 98.89282227 25.02384766 99.85986328 25.50097656 C112.04940534 31.56871312 124.15036155 37.82686864 135.015625 46.09765625 C135.95656006 46.69441162 136.89749512 47.29116699 137.86694336 47.90600586 C140.4705387 51.77338478 140.13201398 52.58746316 139.26928711 57.02783203 C138.66187311 59.49891491 138.0214464 61.96202165 137.35546875 64.41796875 C137.01457484 65.75549708 136.67615406 67.0936579 136.34007263 68.43240356 C135.44695447 71.95730492 134.51766204 75.47160754 133.57814789 78.98439026 C132.8517986 81.71311343 132.14362933 84.44638149 131.43604469 87.18001938 C129.37891513 95.12373172 127.25763088 103.04949396 125.11798096 110.97131348 C124.19543637 114.39135156 123.27868684 117.81294301 122.36132812 121.234375 C120.58483001 127.85692759 118.80236207 134.47785889 117.015625 141.09765625 C116.355625 141.09765625 115.695625 141.09765625 115.015625 141.09765625 C114.60570312 140.35 114.19578125 139.60234375 113.7734375 138.83203125 C104.10008271 123.78459047 70.19370401 118.35136378 54.28442383 114.01171875 C48.044042 112.30194839 41.91471817 110.40930041 35.796875 108.3125 C25.15410161 104.6933368 14.33580304 101.74474983 3.48883057 98.8062439 C-0.11893333 97.82812006 -3.72377109 96.83966145 -7.32861328 95.85083008 C-18.63410715 92.76801259 -29.94081924 89.80184785 -41.37890625 87.25 C-42.32623123 87.03511932 -43.27355621 86.82023865 -44.24958801 86.59884644 C-48.62711946 85.6077208 -53.00589691 84.65362436 -57.40649414 83.77050781 C-67.29722797 81.65303745 -73.07547372 78.64890646 -78.984375 70.09765625 C-79.93230119 68.910146 -80.88588655 67.7271076 -81.84765625 66.55078125 C-82.66692906 65.4852709 -83.48334163 64.41755517 -84.296875 63.34765625 C-88.58637406 57.79793512 -93.05180225 52.43700375 -97.64599609 47.13769531 C-100.64283486 43.67748796 -103.55980791 40.17131589 -106.421875 36.59765625 C-110.63317722 31.38403302 -115.17684513 26.51938667 -119.82006836 21.69140625 C-123.984375 17.30910235 -123.984375 17.30910235 -123.984375 15.09765625 C-108.33994678 8.2258046 -92.10770848 3.81981618 -75.296875 0.84765625 C-74.44480469 0.6966748 -73.59273437 0.54569336 -72.71484375 0.39013672 C-12.47966689 -9.57788602 -12.47966689 -9.57788602 0 0 Z " fill="#7A51FD" transform="translate(300.984375,2.90234375)"/>
<path d="M0 0 C7.80059187 1.94597691 15.17885309 4.4740353 22.625 7.4921875 C23.69314941 7.92000519 24.76129883 8.34782288 25.86181641 8.78860474 C28.10498809 9.6884098 30.34700051 10.59110984 32.58789062 11.49658203 C35.98825354 12.87025468 39.39220186 14.23470646 42.796875 15.59765625 C44.98979993 16.47862771 47.18251535 17.36012089 49.375 18.2421875 C50.37740723 18.6444455 51.37981445 19.04670349 52.41259766 19.46115112 C57.32764508 21.44996181 62.22002594 23.48856553 67.07861328 25.61181641 C67.96719025 25.99850494 68.85576721 26.38519348 69.77127075 26.78359985 C73.23809868 28.67573188 74.34655182 30.92042187 75.875 34.5 C76.18066895 35.18610352 76.48633789 35.87220703 76.80126953 36.57910156 C77.50071577 38.15631737 78.1844741 39.7405496 78.85546875 41.33007812 C80.0993016 44.23164725 81.41787158 47.09104527 82.75 49.953125 C98.39937512 83.80994618 112.01613276 118.59095299 124.46728516 153.73730469 C125.45555785 156.51664028 126.48516059 159.27355567 127.56005859 162.02050781 C128.02879395 163.24350586 128.4975293 164.46650391 128.98046875 165.7265625 C129.39578857 166.77666504 129.8111084 167.82676758 130.23901367 168.90869141 C131.38138434 173.54927446 130.86946977 177.23572447 128.76000977 181.51611328 C128.24237061 182.27649902 127.72473145 183.03688477 127.19140625 183.8203125 C126.61430908 184.67882812 126.03721191 185.53734375 125.44262695 186.421875 C124.82218506 187.31390625 124.20174316 188.2059375 123.5625 189.125 C122.92723389 190.05570313 122.29196777 190.98640625 121.63745117 191.9453125 C108.08561979 211.64960349 92.55747591 231.73891784 74 247 C72.14725181 248.64321119 70.29457479 250.28646013 68.4453125 251.93359375 C67 253 67 253 65 253 C64.34704956 251.29469116 64.34704956 251.29469116 63.6809082 249.55493164 C41.09896058 190.7030582 15.82027269 133.08601396 -12.61328125 76.82421875 C-13.13237061 75.79659424 -13.65145996 74.76896973 -14.1862793 73.71020508 C-15.1071107 71.89557499 -16.03381305 70.08390476 -16.96801758 68.27612305 C-21.59562161 59.19755552 -21.59562161 59.19755552 -20.03125 53.42578125 C-19.53387188 52.04990398 -19.02255528 50.67901353 -18.5 49.3125 C-18.22736328 48.56919434 -17.95472656 47.82588867 -17.67382812 47.06005859 C-15.42229195 40.9704446 -13.01659416 34.94021498 -10.6184082 28.90722656 C-8.07126709 22.40406794 -5.95161792 15.79443731 -3.953125 9.10400391 C-3.72496094 8.34909668 -3.49679687 7.59418945 -3.26171875 6.81640625 C-3.06537842 6.15068604 -2.86903809 5.48496582 -2.66674805 4.79907227 C-2 3 -2 3 0 0 Z " fill="#A387FE" transform="translate(388,239)"/>
<path d="M0 0 C7.04213279 5.64343629 13.16323802 12.14412085 19 19 C19.47276367 19.54978516 19.94552734 20.09957031 20.43261719 20.66601562 C36.99834178 40.03679901 50.79811208 61.6356763 61 85 C55.23633944 87.47564278 49.38955382 89.57520458 43.40625 91.453125 C42.70873123 91.6721347 42.01121246 91.89114441 41.29255676 92.11679077 C39.80710673 92.58268413 38.32161658 93.04844959 36.83609009 93.51409912 C6.83097079 102.96612915 -22.44837531 114.456995 -51.43237305 126.65966797 C-52.09720703 126.9382666 -52.76204102 127.21686523 -53.44702148 127.50390625 C-55.21639912 128.24633412 -56.98365925 128.993803 -58.75073242 129.74169922 C-62.14255193 131.0552042 -65.49081546 132.05403383 -69 133 C-67.3407588 124.59193506 -64.73258209 116.52393108 -62.125 108.375 C-56.01206448 89.94528622 -56.01206448 89.94528622 -52.12109375 70.98046875 C-50.71317633 60.89373506 -47.73173177 51.12234173 -45.0625 41.3125 C-44.51827679 39.28857362 -43.97465286 37.26448599 -43.43164062 35.24023438 C-40.67238943 24.99193866 -40.67238943 24.99193866 -39.70275879 21.54211426 C-39.21383876 19.7735265 -38.75251399 17.99717383 -38.31286621 16.21569824 C-38.07821655 15.31992065 -37.84356689 14.42414307 -37.60180664 13.5012207 C-37.40099991 12.69425247 -37.20019318 11.88728424 -36.99330139 11.05586243 C-35.67914721 8.33592242 -34.26739729 7.76196406 -31.5234375 6.6171875 C-29.69094596 6.04940135 -27.84900542 5.51145413 -26 5 C-24.11465117 4.34317302 -22.23184084 3.67901685 -20.3515625 3.0078125 C-18.44399574 2.37630613 -16.53512836 1.74871538 -14.625 1.125 C-13.65433594 0.79242188 -12.68367188 0.45984375 -11.68359375 0.1171875 C-10.74902344 -0.18703125 -9.81445312 -0.49125 -8.8515625 -0.8046875 C-8.01447754 -1.08296387 -7.17739258 -1.36124023 -6.31494141 -1.64794922 C-3.47088824 -2.08046606 -2.38406729 -1.540825 0 0 Z " fill="#8C69FE" transform="translate(469,76)"/>
</svg>
