<svg fill="none" viewBox="0 0 320 320" version="1.1" xmlns="http://www.w3.org/2000/svg" width="32" height="32">
<path d="M0 0 C2.3 0.57 2.3 0.57 4.64 1.15 C30.05 8.04 52.22 20.67 71 39 C72.37 40.26 72.37 40.26 73.76 41.54 C99.65 65.99 114.99 102.78 116.3 138.11 C116.34 168.5 116.34 168.5 113 181 C112.62 182.53 112.24 184.06 111.85 185.64 C106.85 204.1 98.82 221.89 87 237 C86.33 237.89 85.66 238.78 84.97 239.7 C59.57 272.2 23.77 291.85 -17 297 C-51.93 298.3 -51.93 298.3 -68 294 C-69.53 293.62 -71.06 293.24 -72.64 292.85 C-98.04 285.96 -120.24 273.34 -139 255 C-140.38 253.71 -140.38 253.71 -141.8 252.39 C-167.67 227.69 -182.83 191.62 -184.34 156.07 C-184.5 121.21 -178.23 89.95 -158 61 C-157.32 60.02 -156.64 59.04 -155.94 58.04 C-131.9 25.19 -97.62 5.24 -57.96 -2.12 C-39.12 -4.5 -18.48 -4.94 0 0 Z M-98.23 100.54 C-121.36 128.13 -137.8 161.27 -135 198 C-132.63 213.3 -126.61 225.63 -115 236 C-97.89 248.33 -78.66 250.22 -58.09 247.3 C-14.72 238.39 20.19 209.49 45.06 173.94 C60.98 149.47 70.73 120.81 66.32 91.46 C62.94 76.8 56.13 64.66 43.8 55.67 C-4.29 26.09 -65.82 63.6 -98.23 100.54 Z " fill="#97E997" transform="translate(194,13)"/>
<path d="M0 0 C2.31 0 4.62 0 7 0 C7 0.66 7 1.32 7 2 C8.65 1.67 10.3 1.34 12 1 C12 1.66 12 2.32 12 3 C12.85 2.69 12.85 2.69 13.71 2.38 C16.64 1.89 17.98 2.59 20.62 3.88 C21.4 4.24 22.18 4.61 22.98 4.99 C24.32 5.66 25.66 6.33 27 7 C27.96 7.19 27.96 7.19 28.94 7.38 C31.35 8.11 32.28 9.2 34 11 C34.66 11 35.32 11 36 11 C36.99 11.99 36.99 11.99 38 13 C39.01 13.85 40.02 14.69 41.06 15.56 C44.84 18.77 48.27 22.27 51.69 25.85 C53.98 28.13 53.98 28.13 57.03 29.83 C71.01 40.04 76.05 68.95 79 85 C81.67 103.72 81.92 124.6 77 143 C76.62 144.53 76.24 146.06 75.85 147.64 C70.85 166.1 62.82 183.89 51 199 C50.33 199.89 49.66 200.78 48.97 201.7 C23.57 234.2 -12.23 253.85 -53 259 C-87.93 260.3 -87.93 260.3 -104 256 C-105.53 255.62 -107.06 255.24 -108.64 254.85 C-134.04 247.96 -156.24 235.34 -175 217 C-175.92 216.14 -176.85 215.28 -177.8 214.39 C-187.04 205.57 -197.46 194.19 -202 182 C-201.5 181.01 -201.5 181.01 -201 180 C-200.31 181.02 -200.31 181.02 -199.6 182.05 C-184.9 203.03 -166.05 213.27 -141.12 217.69 C-110.11 220.71 -72.43 210.88 -47.86 191.3 C-46.61 190.18 -45.38 189.04 -44.16 187.89 C-41.41 185.48 -38.45 183.5 -35.44 181.44 C-2.83 158.44 22.5 122.13 29.61 82.59 C31.7 63.19 30.12 44.07 17.89 28.28 C13.42 23.05 9.04 19.29 3 16 C3.33 12.37 3.66 8.74 4 5 C2.02 4.01 2.02 4.01 0 3 C0 2.01 0 1.02 0 0 Z " fill="#9DEA9D" transform="translate(230,51)"/>
<path d="M0 0 C0.99 1.98 0.99 1.98 2 4 C2.99 4.49 2.99 4.49 4 5 C4 7.97 4 10.94 4 14 C-0.16 15.39 -2.08 13.86 -5.94 12.11 C-30.17 3.35 -56.57 10.83 -79 21 C-82.1 22.61 -85.12 24.26 -88.1 26.07 C-89.04 26.53 -89.04 26.53 -90 27 C-90.66 26.67 -91.32 26.34 -92 26 C-62.91 6.83 -34.54 -0.71 0 0 Z " fill="#2CD32C" transform="translate(230,51)"/>
<path d="M0 0 C0.99 0.5 0.99 0.5 2 1 C-18.99 15.23 -46.03 28.38 -71.94 28.06 C-72.9 28.05 -73.85 28.04 -74.84 28.04 C-75.55 28.02 -76.27 28.01 -77 28 C-77.33 25.03 -77.66 22.06 -78 19 C-75.39 19.07 -75.39 19.07 -72.73 19.14 C-46.52 19.54 -26.13 14.47 -3.35 1.66 C-2.25 1.11 -1.14 0.56 0 0 Z " fill="#2FD42F" transform="translate(182,241)"/>
<path d="M0 0 C3.63 0 7.26 0 11 0 C11.66 1.32 12.32 2.64 13 4 C13.66 4.33 14.32 4.66 15 5 C15 7.97 15 10.94 15 14 C11.4 15.2 10.4 14.71 6.94 13.38 C6.06 13.05 5.18 12.73 4.28 12.4 C1.38 10.62 0.88 9.23 0 6 C-0.12 2.69 -0.12 2.69 0 0 Z " fill="#1FD01F" transform="translate(219,51)"/>
<path d="M0 0 C0.66 0.33 1.32 0.66 2 1 C-14.02 11.86 -32.1 20.62 -51 25 C-51 23.02 -51 21.04 -51 19 C-49.89 18.78 -48.77 18.56 -47.62 18.34 C-31.49 14.98 -17.72 9.74 -3.35 1.66 C-2.25 1.11 -1.14 0.56 0 0 Z " fill="#41D741" transform="translate(182,241)"/>
<path d="M0 0 C-0.33 1.65 -0.66 3.3 -1 5 C-2.16 5.27 -3.33 5.54 -4.52 5.81 C-17.72 9.04 -30.16 13.35 -41.89 20.31 C-42.92 20.87 -43.94 21.42 -45 22 C-45.66 21.67 -46.32 21.34 -47 21 C-15.13 0 -15.13 0 0 0 Z " fill="#49D949" transform="translate(185,56)"/>
<path d="M0 0 C0 1.98 0 3.96 0 6 C-6.44 6.49 -6.44 6.49 -13 7 C-13 5.35 -13 3.7 -13 2 C-4.57 -0.29 -4.57 -0.29 0 0 Z " fill="#41D741" transform="translate(198,53)"/>
<path d="M0 0 C0.66 0.33 1.32 0.66 2 1 C-1.38 4.98 -5.03 6.53 -9.81 8.5 C-14.02 10.25 -17.95 11.97 -21.89 14.28 C-22.91 14.85 -23.94 15.42 -25 16 C-25.66 15.67 -26.32 15.34 -27 15 C-18.34 9.46 -9.53 3.92 0 0 Z " fill="#68DF68" transform="translate(165,62)"/>
<path d="M0 0 C2.38 0.19 2.38 0.19 5 1 C6.6 3.89 7 5.69 7 9 C5.02 9 3.04 9 1 9 C0.67 6.03 0.34 3.06 0 0 Z " fill="#27D227" transform="translate(104,260)"/>
<path d="M0 0 C0.66 0.33 1.32 0.66 2 1 C-17.88 14 -17.88 14 -22 14 C-22 13.01 -22 12.02 -22 11 C-20.66 10.37 -19.33 9.75 -17.95 9.1 C-16.21 8.28 -14.48 7.47 -12.69 6.62 C-10.09 5.41 -10.09 5.41 -7.45 4.16 C-3.15 2.19 -3.15 2.19 0 0 Z " fill="#70E170" transform="translate(182,241)"/>
<path d="M0 0 C3.63 0 7.26 0 11 0 C11 1.65 11 3.3 11 5 C8.31 5.88 8.31 5.88 5 6 C2.86 4.21 1.61 2.32 0 0 Z " fill="#39D539" transform="translate(120,261)"/>
<path d="M0 0 C-1 3 -1 3 -3 4.17 C-3.8 4.5 -4.61 4.84 -5.44 5.19 C-6.24 5.53 -7.04 5.88 -7.87 6.23 C-10 7 -10 7 -12 7 C-11.78 5.11 -11.78 5.11 -11 3 C-9 1.95 -9 1.95 -6.56 1.25 C-5.36 0.89 -5.36 0.89 -4.13 0.52 C-2 0 -2 0 0 0 Z " fill="#55DB55" transform="translate(160,253)"/>
<path d="M0 0 C-0.33 1.32 -0.66 2.64 -1 4 C-3.31 4.66 -5.62 5.32 -8 6 C-8 5.34 -8 4.68 -8 4 C-8.66 4 -9.32 4 -10 4 C-10 3.34 -10 2.68 -10 2 C-3.38 0 -3.38 0 0 0 Z " fill="#4AD94A" transform="translate(148,257)"/>
<path d="M0 0 C-0.33 0.99 -0.66 1.98 -1 3 C-3.07 3.73 -3.07 3.73 -5.56 4.19 C-6.39 4.35 -7.22 4.5 -8.07 4.67 C-9.02 4.83 -9.02 4.83 -10 5 C-8.3 1.16 -8.3 1.16 -5.56 -0.31 C-3 -1 -3 -1 0 0 Z " fill="#53DB53" transform="translate(176,60)"/>
<path d="M0 0 C1.65 0 3.3 0 5 0 C5 1.98 5 3.96 5 6 C3.02 6 1.04 6 -1 6 C-0.67 4.02 -0.34 2.04 0 0 Z " fill="#39D539" transform="translate(193,53)"/>
<path d="M0 0 C0.66 0.33 1.32 0.66 2 1 C0.33 2.67 -1.33 4.33 -3 6 C-3.72 6.76 -4.44 7.53 -5.19 8.31 C-7 10 -7 10 -9 10 C-7.62 6.79 -6.08 4.95 -3.38 2.75 C-2.74 2.23 -2.11 1.71 -1.46 1.17 C-0.74 0.59 -0.74 0.59 0 0 Z " fill="#BEF1BE" transform="translate(206,223)"/>
<path d="M0 0 C2.11 1.71 2.94 2.52 3.29 5.26 C3.26 6.06 3.22 6.86 3.19 7.69 C3.16 8.5 3.13 9.3 3.11 10.14 C3.07 10.75 3.04 11.37 3 12 C0.5 9.5 0.64 8.33 0.38 4.88 C0.26 3.51 0.26 3.51 0.15 2.12 C0.1 1.42 0.05 0.72 0 0 Z " fill="#1ACF1A" transform="translate(11,180)"/>
</svg>
