<svg width="32" height="32" viewBox="0 0 29 29" fill="none" xmlns="http://www.w3.org/2000/svg"><path d="M14.6018 0.611685C6.87033 0.611685 0.601562 6.88035 0.601562 14.6117C0.601562 18.8326 2.47059 22.617 5.42388 25.1848L12.3497 10.9828H20.0974L11.6532 28.2983C12.6051 28.5026 13.5895 28.6094 14.6018 28.6094C22.3333 28.6094 28.6021 22.3407 28.6021 14.6094C28.6021 6.87803 22.3333 0.609375 14.6018 0.609375V0.611685Z" fill="url(#paint0_linear_2902_46242)"></path><path d="M5.42388 25.1825L13.0648 9.51551C13.0857 9.4714 13.1066 9.42728 13.1298 9.38317L13.2343 9.16725H13.2389C14.5925 6.6296 17.2649 4.90224 20.3412 4.90224C23.6846 4.90224 26.552 6.94303 27.7686 9.84519C25.8206 4.45879 20.6593 0.609375 14.6018 0.609375C6.87033 0.609375 0.601562 6.87803 0.601562 14.6094C0.601562 18.8303 2.47059 22.6147 5.42388 25.1825Z" fill="url(#paint1_linear_2902_46242)"></path><defs><linearGradient id="paint0_linear_2902_46242" x1="16.6476" y1="6.36763" x2="15.5537" y2="26.16" gradientUnits="userSpaceOnUse"><stop offset="0.313072" stop-color="#9EC0E0"></stop><stop offset="1" stop-color="white"></stop></linearGradient><linearGradient id="paint1_linear_2902_46242" x1="16.9723" y1="5.65448" x2="7.25452" y2="21.457" gradientUnits="userSpaceOnUse"><stop stop-color="white"></stop><stop offset="1" stop-color="#BCD5EC"></stop></linearGradient></defs></svg>