<svg width="32" height="32" viewBox="0 0 24 24" fill="none" xmlns="http://www.w3.org/2000/svg">
<path fill-rule="evenodd" clip-rule="evenodd" d="M20.7062 13.286V10.3666C20.7062 9.84532 20.7062 9.55859 20.6801 9.35006C20.6801 9.2458 20.6541 9.19366 20.6541 9.1676C20.628 9.0894 20.6019 9.03727 20.5498 8.98514C20.5237 8.98514 20.4977 8.933 20.3934 8.88087C20.211 8.75054 19.9764 8.62021 19.5332 8.35955L17.0048 6.89985C16.5617 6.63919 16.301 6.50886 16.1186 6.4046C16.0143 6.35246 15.9622 6.3264 15.9622 6.3264C15.884 6.30033 15.8058 6.30033 15.7276 6.3264C15.7015 6.3264 15.6494 6.35246 15.5712 6.4046C15.3887 6.50886 15.1281 6.63919 14.6849 6.89985L12.1565 8.35955C11.7134 8.62021 11.4528 8.75054 11.2964 8.88087C11.2182 8.933 11.166 8.98514 11.14 8.98514C11.0878 9.03727 11.0618 9.11547 11.0357 9.1676C11.0357 9.19366 11.0357 9.2458 11.0096 9.35006C11.0096 9.55859 10.9836 9.84532 10.9836 10.3666V13.286C10.9836 13.8074 10.9836 14.0941 11.0096 14.3026C11.0096 14.4069 11.0357 14.459 11.0357 14.4851C11.0618 14.5633 11.0878 14.6154 11.14 14.6675C11.166 14.6675 11.1921 14.7197 11.2964 14.7718C11.4788 14.9021 11.7134 15.0325 12.1565 15.2931L14.6849 16.7528C15.1281 17.0135 15.3887 17.1438 15.5712 17.2481C15.6755 17.3002 15.7276 17.3263 15.7276 17.3263C15.8058 17.3523 15.884 17.3523 15.9622 17.3263C15.9883 17.3263 16.0404 17.3002 16.1186 17.2481C16.301 17.1438 16.5617 17.0135 17.0048 16.7528L19.5332 15.2931C19.9764 15.0325 20.237 14.9021 20.3934 14.7718C20.4716 14.7197 20.5237 14.6675 20.5498 14.6675C20.6019 14.6154 20.628 14.5372 20.6541 14.4851C20.6541 14.459 20.6541 14.4069 20.6801 14.3026C20.7062 14.0941 20.7062 13.8074 20.7062 13.286ZM22.2702 7.42117C21.9574 7.08231 21.5403 6.82165 20.7062 6.35246L18.1778 4.89276C17.3437 4.39751 16.9006 4.13685 16.4574 4.05865C16.0665 3.98045 15.6494 3.98045 15.2584 4.05865C14.8153 4.16291 14.3982 4.39751 13.538 4.89276L11.0096 6.35246C10.1755 6.84772 9.7324 7.08231 9.44567 7.42117C9.18501 7.73396 8.97648 8.07282 8.84615 8.46381C8.71582 8.90694 8.71582 9.40219 8.71582 10.3666V13.286C8.71582 14.2765 8.71582 14.7457 8.84615 15.1889C8.97648 15.5799 9.18501 15.9448 9.44567 16.2315C9.75846 16.5704 10.1755 16.831 11.0096 17.3002L13.538 18.7599C14.3722 19.2552 14.8153 19.4898 15.2584 19.594C15.6494 19.6722 16.0665 19.6722 16.4574 19.594C16.9006 19.4898 17.3176 19.2552 18.1778 18.7599L20.7062 17.3002C21.5403 16.805 21.9834 16.5704 22.2702 16.2315C22.5308 15.9187 22.7394 15.5799 22.8697 15.1889C23 14.7457 23 14.2505 23 13.286V10.3666C23 9.37613 23 8.90694 22.8697 8.46381C22.7394 8.07282 22.5308 7.7079 22.2702 7.42117Z" fill="#2D9CDB"/>
<path fill-rule="evenodd" clip-rule="evenodd" d="M12.9904 13.286V10.3666C12.9904 9.84532 12.9904 9.55859 12.9643 9.35006C12.9643 9.2458 12.9383 9.19366 12.9383 9.1676C12.9122 9.0894 12.8861 9.03727 12.834 8.98514C12.8079 8.98514 12.7819 8.933 12.6776 8.88087C12.4951 8.75054 12.2605 8.62021 11.8174 8.35955L9.28901 6.89985C8.84589 6.63919 8.58523 6.50886 8.40276 6.4046C8.2985 6.35246 8.24637 6.3264 8.24637 6.3264C8.16817 6.30033 8.08997 6.30033 8.01177 6.3264C7.98571 6.3264 7.93357 6.35246 7.85538 6.4046C7.67291 6.50886 7.41225 6.63919 6.96913 6.89985L4.44072 8.35955C3.9976 8.62021 3.73694 8.75054 3.58054 8.88087C3.50234 8.933 3.45021 8.98514 3.42414 8.98514C3.37201 9.03727 3.34595 9.11547 3.31988 9.1676C3.31988 9.19366 3.31988 9.2458 3.29381 9.35006C3.29381 9.55859 3.26775 9.84532 3.26775 10.3666V13.286C3.26775 13.8074 3.26775 14.0941 3.29381 14.3026C3.29381 14.4069 3.31988 14.459 3.31988 14.4851C3.34595 14.5633 3.37201 14.6154 3.42414 14.6675C3.45021 14.6675 3.47628 14.7197 3.58054 14.7718C3.763 14.9021 3.9976 15.0325 4.44072 15.2931L6.96913 16.7528C7.41225 17.0135 7.67291 17.1438 7.85538 17.2481C7.95964 17.3002 8.01177 17.3263 8.01177 17.3263C8.08997 17.3523 8.16817 17.3523 8.24637 17.3263C8.27243 17.3263 8.32457 17.3002 8.40276 17.2481C8.58523 17.1438 8.84589 17.0135 9.28901 16.7528L11.8174 15.2931C12.2605 15.0325 12.5212 14.9021 12.6776 14.7718C12.7558 14.7197 12.8079 14.6675 12.834 14.6675C12.8861 14.6154 12.9122 14.5372 12.9383 14.4851C12.9383 14.459 12.9383 14.4069 12.9643 14.3026C12.9904 14.0941 12.9904 13.8074 12.9904 13.286ZM14.5544 7.42117C14.2416 7.08231 13.8245 6.82165 12.9904 6.35246L10.462 4.89276C9.62787 4.39751 9.21081 4.13685 8.74162 4.05865C8.35063 3.98045 7.93357 3.98045 7.54258 4.05865C7.09946 4.16291 6.6824 4.39751 5.82222 4.89276L3.29381 6.35246C2.4597 6.84772 2.01658 7.08231 1.72985 7.42117C1.46919 7.73396 1.26066 8.07282 1.13033 8.46381C1 8.90694 1 9.40219 1 10.3666V13.286C1 14.2765 1 14.7457 1.13033 15.1889C1.26066 15.5799 1.46919 15.9448 1.72985 16.2315C2.04264 16.5704 2.4597 16.831 3.29381 17.3002L5.82222 18.7599C6.65634 19.2552 7.09946 19.4898 7.54258 19.594C7.93357 19.6722 8.35063 19.6722 8.74162 19.594C9.18475 19.4898 9.6018 19.2552 10.462 18.7599L12.9904 17.3002C13.8245 16.805 14.2676 16.5704 14.5544 16.2315C14.815 15.9187 15.0235 15.5799 15.1539 15.1889C15.2842 14.7457 15.2842 14.2505 15.2842 13.286V10.3666C15.2842 9.37613 15.2842 8.90694 15.1539 8.46381C15.0496 8.07282 14.8411 7.7079 14.5544 7.42117Z" fill="#2F80ED"/>
<path d="M12.0002 15.2148C12.0523 15.2409 12.1044 15.293 12.1826 15.3191L14.2679 16.5181C13.9812 16.7527 13.5902 16.9613 12.9907 17.3262L12.0002 17.8996L11.0097 17.3262C10.4101 16.9613 10.0191 16.7527 9.73242 16.5181L11.8177 15.3191C11.8959 15.267 11.948 15.2409 12.0002 15.2148Z" fill="#2F80ED"/>
<path d="M14.2679 7.13443C13.9812 6.89984 13.5902 6.69131 12.9907 6.32638L12.0002 5.75293L11.0097 6.32638C10.4101 6.69131 10.0191 6.89984 9.73242 7.13443L11.8177 8.33347C11.8698 8.35954 11.948 8.41167 12.0002 8.43773C12.0523 8.41167 12.1044 8.35954 12.1826 8.33347L14.2679 7.13443Z" fill="#2D9CDB"/>
</svg>
