<svg width="32" height="32" viewBox="0 0 24 24" fill="none" xmlns="http://www.w3.org/2000/svg">
<g clip-path="url(#clip0_1003_325088)">
<path fill-rule="evenodd" clip-rule="evenodd" d="M0.506816 19.883C0.428692 19.8831 0.351614 19.8651 0.281598 19.8304C0.211582 19.7958 0.150522 19.7454 0.103185 19.6833C0.0558469 19.6211 0.0235119 19.5489 0.00870332 19.4721C-0.00610523 19.3954 -0.0029867 19.3163 0.0178155 19.241L4.28982 3.74504C4.33218 3.591 4.41037 3.44917 4.51801 3.33112C4.62565 3.21307 4.75969 3.12215 4.90917 3.06579C5.05866 3.00942 5.21936 2.98922 5.37814 3.00682C5.53693 3.02441 5.6893 3.07932 5.82282 3.16704L11.4448 6.85404C11.6098 6.96207 11.8026 7.01961 11.9998 7.01961C12.197 7.01961 12.3899 6.96207 12.5548 6.85404L18.1998 3.16504C18.3334 3.07754 18.4859 3.02288 18.6446 3.00552C18.8034 2.98815 18.9641 3.00858 19.1134 3.06513C19.2628 3.12169 19.3967 3.21276 19.5042 3.33092C19.6116 3.44909 19.6896 3.59099 19.7318 3.74504L23.9818 19.242C24.0025 19.3173 24.0055 19.3963 23.9905 19.473C23.9756 19.5496 23.9431 19.6217 23.8956 19.6837C23.8482 19.7456 23.7871 19.7958 23.717 19.8302C23.6469 19.8646 23.5699 19.8824 23.4918 19.882H18.0698C19.0569 18.7383 19.6 17.2778 19.5998 15.767V15.59C19.5997 14.1118 19.062 12.684 18.0868 11.573L17.3898 8.07804C17.3756 8.00506 17.3431 7.93688 17.2953 7.87993C17.2475 7.82299 17.186 7.77914 17.1166 7.75253C17.0472 7.72592 16.9721 7.71742 16.8985 7.72784C16.8249 7.73825 16.7551 7.76723 16.6958 7.81204L14.0698 9.78104C13.9775 9.85029 13.8705 9.89724 13.757 9.91823C13.6435 9.93922 13.5268 9.93368 13.4158 9.90204C12.49 9.63752 11.5086 9.63752 10.5828 9.90204C10.472 9.93368 10.3554 9.93921 10.2421 9.91822C10.1288 9.89722 10.0219 9.85027 9.92982 9.78104L7.30182 7.81004C7.24258 7.7658 7.17305 7.73738 7.09979 7.72747C7.02652 7.71756 6.95194 7.72649 6.88309 7.75341C6.81423 7.78034 6.75337 7.82436 6.70626 7.88134C6.65914 7.93831 6.62733 8.00636 6.61382 8.07904L5.93882 11.731C4.95229 12.7339 4.39953 14.0843 4.39982 15.491V15.824C4.39982 17.298 4.92682 18.724 5.88782 19.844L5.91982 19.882L0.506816 19.883Z" fill="#29E154"/>
<path d="M9.21289 16.8431H10.7329V13.2971H9.44289L9.21289 16.8431ZM14.7859 16.8431H13.2659V13.2971H14.5559L14.7859 16.8431Z" fill="black"/>
</g>
<defs>
<clipPath id="clip0_1003_325088">
<rect width="24" height="24" fill="white"/>
</clipPath>
</defs>
</svg>
