<svg width="32" height="32" viewBox="0 0 24 24" fill="none" xmlns="http://www.w3.org/2000/svg">
<g clip-path="url(#clip0_968_321238)">
<path d="M13.2188 7.96882V7.78132C10.7812 7.78132 12.9844 9.37507 13.2188 7.96882ZM14.3438 7.12507C14.6719 6.14069 16.3594 6.04694 16.5469 7.26569H16.0781C15.9375 6.56257 14.7656 6.51569 14.7656 7.78132C14.7656 8.48444 15.8438 8.90632 16.0781 8.06257H16.5469C16.2656 9.60944 13.7812 9.04694 14.3438 7.12507ZM7.5 6.37507H7.96875V6.79694C8.20312 6.23444 9.23438 6.18757 9.42188 6.84382C9.75 6.14069 11.0625 6.18757 11.0625 7.17194V8.90632H10.5469V7.31257C10.5469 6.60944 9.51562 6.60944 9.51562 7.35944V8.90632H9V7.26569C8.8853 6.82694 8.30086 6.73928 8.0625 7.12507L7.96875 7.35944V8.90632H7.5V6.37507ZM8.57812 18.5157C6.375 18.5157 5.01562 16.9688 5.01562 14.4844C5.01562 12.0001 6.375 10.5001 8.57812 10.5001C10.7812 10.5001 12.1875 12.0469 12.1875 14.4844C12.1875 16.9219 10.8281 18.5157 8.57812 18.5157ZM12.7031 8.90632C11.3438 9.23444 11.1562 7.50007 12.5625 7.45319L13.2188 7.40632V7.21882C13.2656 6.65632 12.3281 6.60944 12.1875 7.12507H11.7188C11.7205 7.00934 11.7529 6.89613 11.8125 6.79694C12.1875 6.14069 13.7344 6.14069 13.7344 7.17194V8.90632H13.2656V8.48444C13.2077 8.59107 13.1275 8.68396 13.0304 8.75676C12.9333 8.82957 12.8217 8.88058 12.7031 8.90632ZM15.8906 18.5157C14.2031 18.4219 13.0312 17.6251 12.9375 16.2188H14.0625C15.1406 19.5938 20.9062 15.9844 15.2344 14.8126C14.3438 14.6251 13.6875 14.2032 13.4062 13.6876C11.625 10.2188 18.5156 9.18757 18.7031 12.7501H17.625C17.2969 10.4532 13.0312 11.7188 14.5781 13.3126C15.2344 13.9688 16.5938 13.9219 17.5781 14.3438C19.9219 15.4219 18.7969 18.6094 15.8906 18.5157ZM8.57812 11.4844C7.07812 11.4844 6.14062 12.6563 6.14062 14.4844C6.14062 16.3126 7.07812 17.4844 8.57812 17.4844C10.0781 17.4844 11.0625 16.3594 11.0625 14.4844C11.0625 12.6094 10.125 11.4844 8.57812 11.4844Z" fill="black"/>
</g>
<defs>
<clipPath id="clip0_968_321238">
<rect width="24" height="24" fill="white"/>
</clipPath>
</defs>
</svg>
