<svg fill="none" viewBox="0 0 460 460" version="1.1" xmlns="http://www.w3.org/2000/svg" width="32" height="32">
<path d="M0 0 C151.8 0 303.6 0 460 0 C460 151.8 460 303.6 460 460 C308.2 460 156.4 460 0 460 C0 308.2 0 156.4 0 0 Z " fill="#FEFEFE" transform="translate(0,0)"/>
<path d="M0 0 C9.98 8.91 16.08 18.12 20.19 30.81 C20.56 31.7 20.93 32.6 21.31 33.52 C22.58 38.27 22.37 42.78 22.31 47.69 C22.29 49.58 22.28 51.48 22.26 53.43 C22.22 55.6 22.22 55.6 22.19 57.81 C23.3 57.75 24.42 57.7 25.56 57.64 C45.84 57.04 62.29 63.25 77.19 76.81 C88.95 87.97 95.32 103.18 96.42 119.18 C96.69 130.73 94.97 148.66 86.59 157.49 C85.9 158.15 85.9 158.15 85.19 158.81 C84.86 159.8 84.53 160.79 84.19 161.81 C83.53 161.81 82.87 161.81 82.19 161.81 C81.53 163.13 80.87 164.45 80.19 165.81 C44.82 201.16 9.34 236.39 -26.13 271.62 C-46.44 287.48 -46.44 287.48 -55.81 307.81 C-54.4 309.56 -54.4 309.56 -52.81 310.81 C-52.81 311.47 -52.81 312.13 -52.81 312.81 C-52.01 313.12 -52.01 313.12 -51.19 313.44 C-47.89 315.35 -45.22 317.86 -42.81 320.81 C-42.81 321.47 -42.81 322.13 -42.81 322.81 C-41.82 323.14 -40.83 323.47 -39.81 323.81 C-39.81 324.47 -39.81 325.13 -39.81 325.81 C-39.01 326.12 -39.01 326.12 -38.19 326.44 C-34.89 328.35 -32.22 330.86 -29.81 333.81 C-29.81 334.47 -29.81 335.13 -29.81 335.81 C-28.82 336.14 -27.83 336.47 -26.81 336.81 C-25.58 339.29 -25.68 340.99 -25.69 343.75 C-25.68 344.63 -25.68 345.5 -25.68 346.4 C-25.83 349.18 -26.17 351.14 -28.12 353.2 C-32.02 356.21 -35.35 357.84 -40.35 357.56 C-47.83 355.29 -53.73 348.3 -58.49 342.36 C-59.97 340.55 -59.97 340.55 -62.75 338.38 C-65.93 335.71 -68.48 332.87 -71.15 329.71 C-72.89 327.65 -72.89 327.65 -75.44 325.44 C-82.17 317.99 -83.38 310.92 -83.57 301.04 C-78.22 271.35 -27.27 236.01 -8.31 217.19 C42.02 177.75 42.02 177.75 69.5 122.69 C69.43 113.81 67.36 105.43 61.19 98.81 C61.19 98.15 61.19 97.49 61.19 96.81 C60.2 96.48 59.21 96.15 58.19 95.81 C58.19 95.15 58.19 94.49 58.19 93.81 C57.63 93.53 57.07 93.26 56.49 92.97 C54.93 92.19 53.37 91.39 51.82 90.59 C50.99 90.17 50.17 89.75 49.31 89.31 C48.49 88.89 47.67 88.47 46.82 88.03 C37.88 83.89 27.62 83.11 18.12 86.06 C-21.55 102.14 -56.21 155.28 -85.46 184.62 C-109.6 208.59 -109.6 208.59 -115.62 209.19 C-118.91 209.16 -120.64 208.58 -123.19 206.5 C-126.55 203.06 -128.14 200.9 -128.38 196.12 C-128.44 195.32 -128.5 194.51 -128.57 193.68 C-120.39 162.63 -58.91 121.07 -36.68 98.94 C-12.86 77.65 -12.86 77.65 -3.25 49.44 C-3.56 39 -7.44 29.32 -14.81 21.81 C-23.88 14.04 -34.68 11.05 -46.48 11.43 C-54.59 12.37 -60.42 16.01 -66.81 20.81 C-67.47 20.81 -68.13 20.81 -68.81 20.81 C-69.08 21.41 -69.35 22.01 -69.62 22.62 C-70.81 24.81 -71.91 26.23 -73.81 27.81 C-74.47 27.81 -75.13 27.81 -75.81 27.81 C-76.14 28.8 -76.47 29.79 -76.81 30.81 C-77.47 30.81 -78.13 30.81 -78.81 30.81 C-79.14 31.8 -79.47 32.79 -79.81 33.81 C-80.47 33.81 -81.13 33.81 -81.81 33.81 C-82.47 35.13 -83.13 36.45 -83.81 37.81 C-84.47 37.81 -85.13 37.81 -85.81 37.81 C-86.14 38.8 -86.47 39.79 -86.81 40.81 C-87.47 40.81 -88.13 40.81 -88.81 40.81 C-89.14 41.8 -89.47 42.79 -89.81 43.81 C-90.47 43.81 -91.13 43.81 -91.81 43.81 C-92.08 44.41 -92.35 45.01 -92.62 45.62 C-93.81 47.81 -94.91 49.23 -96.81 50.81 C-97.47 50.81 -98.13 50.81 -98.81 50.81 C-99.14 51.8 -99.47 52.79 -99.81 53.81 C-100.47 53.81 -101.13 53.81 -101.81 53.81 C-102.14 54.8 -102.47 55.79 -102.81 56.81 C-103.47 56.81 -104.13 56.81 -104.81 56.81 C-105.8 58.79 -105.8 58.79 -106.81 60.81 C-107.47 60.81 -108.13 60.81 -108.81 60.81 C-109.31 62.3 -109.31 62.3 -109.81 63.81 C-110.47 63.81 -111.13 63.81 -111.81 63.81 C-112.31 65.3 -112.31 65.3 -112.81 66.81 C-113.47 66.81 -114.13 66.81 -114.81 66.81 C-115.21 67.71 -115.21 67.71 -115.62 68.62 C-116.81 70.81 -117.91 72.23 -119.81 73.81 C-120.47 73.81 -121.13 73.81 -121.81 73.81 C-122.31 75.3 -122.31 75.3 -122.81 76.81 C-123.47 76.81 -124.13 76.81 -124.81 76.81 C-125.31 78.3 -125.31 78.3 -125.81 79.81 C-126.47 79.81 -127.13 79.81 -127.81 79.81 C-128.8 81.79 -128.8 81.79 -129.81 83.81 C-130.47 83.81 -131.13 83.81 -131.81 83.81 C-132.31 85.3 -132.31 85.3 -132.81 86.81 C-133.47 86.81 -134.13 86.81 -134.81 86.81 C-135.31 88.3 -135.31 88.3 -135.81 89.81 C-136.47 89.81 -137.13 89.81 -137.81 89.81 C-138.21 90.71 -138.21 90.71 -138.62 91.62 C-139.81 93.81 -140.91 95.23 -142.81 96.81 C-143.47 96.81 -144.13 96.81 -144.81 96.81 C-145.31 98.3 -145.31 98.3 -145.81 99.81 C-146.47 99.81 -147.13 99.81 -147.81 99.81 C-148.31 101.3 -148.31 101.3 -148.81 102.81 C-149.47 102.81 -150.13 102.81 -150.81 102.81 C-151.8 104.79 -151.8 104.79 -152.81 106.81 C-153.47 106.81 -154.13 106.81 -154.81 106.81 C-155.31 108.3 -155.31 108.3 -155.81 109.81 C-156.47 109.81 -157.13 109.81 -157.81 109.81 C-158.31 111.3 -158.31 111.3 -158.81 112.81 C-159.47 112.81 -160.13 112.81 -160.81 112.81 C-161.08 113.41 -161.35 114.01 -161.62 114.62 C-162.81 116.81 -163.91 118.23 -165.81 119.81 C-166.47 119.81 -167.13 119.81 -167.81 119.81 C-168.14 120.8 -168.47 121.79 -168.81 122.81 C-169.47 122.81 -170.13 122.81 -170.81 122.81 C-171.14 123.8 -171.47 124.79 -171.81 125.81 C-172.47 125.81 -173.13 125.81 -173.81 125.81 C-174.47 127.13 -175.13 128.45 -175.81 129.81 C-176.47 129.81 -177.13 129.81 -177.81 129.81 C-178.14 130.8 -178.47 131.79 -178.81 132.81 C-179.47 132.81 -180.13 132.81 -180.81 132.81 C-181.14 133.8 -181.47 134.79 -181.81 135.81 C-182.47 135.81 -183.13 135.81 -183.81 135.81 C-184.08 136.41 -184.35 137.01 -184.62 137.62 C-185.81 139.81 -186.91 141.23 -188.81 142.81 C-189.47 142.81 -190.13 142.81 -190.81 142.81 C-191.14 143.8 -191.47 144.79 -191.81 145.81 C-192.47 145.81 -193.13 145.81 -193.81 145.81 C-194.14 146.8 -194.47 147.79 -194.81 148.81 C-195.47 148.81 -196.13 148.81 -196.81 148.81 C-197.47 150.13 -198.13 151.45 -198.81 152.81 C-199.47 152.81 -200.13 152.81 -200.81 152.81 C-201.14 153.8 -201.47 154.79 -201.81 155.81 C-202.47 155.81 -203.13 155.81 -203.81 155.81 C-204.14 156.8 -204.47 157.79 -204.81 158.81 C-205.47 158.81 -206.13 158.81 -206.81 158.81 C-207.08 159.41 -207.35 160.01 -207.62 160.62 C-208.81 162.81 -209.91 164.23 -211.81 165.81 C-212.47 165.81 -213.13 165.81 -213.81 165.81 C-214.14 166.8 -214.47 167.79 -214.81 168.81 C-219.2 171.63 -222.64 172.63 -227.81 171.81 C-231.93 169.24 -234.93 166.33 -236.81 161.81 C-237.52 157.21 -236.99 154.58 -234.31 150.88 C-230.8 146.6 -227.04 142.39 -222.81 138.81 C-222.15 138.81 -221.49 138.81 -220.81 138.81 C-220.5 138.01 -220.5 138.01 -220.19 137.19 C-218.28 133.89 -215.76 131.22 -212.81 128.81 C-212.15 128.81 -211.49 128.81 -210.81 128.81 C-210.58 128.25 -210.34 127.69 -210.09 127.11 C-208.52 124.29 -206.6 122.33 -204.31 120.06 C-203.52 119.26 -202.72 118.46 -201.91 117.64 C-199.81 115.81 -199.81 115.81 -197.81 115.81 C-197.61 115.28 -197.4 114.74 -197.19 114.19 C-195.28 110.89 -192.76 108.22 -189.81 105.81 C-189.15 105.81 -188.49 105.81 -187.81 105.81 C-187.58 105.25 -187.34 104.69 -187.09 104.11 C-185.52 101.29 -183.6 99.33 -181.31 97.06 C-180.52 96.26 -179.72 95.46 -178.91 94.64 C-176.81 92.81 -176.81 92.81 -174.81 92.81 C-174.61 92.28 -174.4 91.74 -174.19 91.19 C-172.28 87.89 -169.76 85.22 -166.81 82.81 C-166.15 82.81 -165.49 82.81 -164.81 82.81 C-164.58 82.25 -164.34 81.69 -164.09 81.11 C-162.52 78.29 -160.6 76.33 -158.31 74.06 C-157.12 72.86 -157.12 72.86 -155.91 71.64 C-153.81 69.81 -153.81 69.81 -151.81 69.81 C-151.5 69.01 -151.5 69.01 -151.19 68.19 C-149.28 64.89 -146.76 62.22 -143.81 59.81 C-143.15 59.81 -142.49 59.81 -141.81 59.81 C-141.58 59.25 -141.34 58.69 -141.09 58.11 C-139.52 55.29 -137.6 53.33 -135.31 51.06 C-134.12 49.86 -134.12 49.86 -132.91 48.64 C-130.81 46.81 -130.81 46.81 -128.81 46.81 C-128.61 46.28 -128.4 45.74 -128.19 45.19 C-126.28 41.89 -123.76 39.22 -120.81 36.81 C-120.15 36.81 -119.49 36.81 -118.81 36.81 C-118.58 36.25 -118.34 35.69 -118.09 35.11 C-116.52 32.29 -114.6 30.33 -112.31 28.06 C-111.52 27.26 -110.72 26.46 -109.91 25.64 C-107.81 23.81 -107.81 23.81 -105.81 23.81 C-105.61 23.28 -105.4 22.74 -105.19 22.19 C-103.28 18.89 -100.76 16.22 -97.81 13.81 C-97.15 13.81 -96.49 13.81 -95.81 13.81 C-95.44 12.96 -95.44 12.96 -95.07 12.08 C-92.58 7.58 -88.54 4.29 -84.81 0.81 C-84.14 0.19 -83.47 -0.44 -82.78 -1.08 C-58.68 -21.61 -23.81 -19.18 0 0 Z " fill="#020202" transform="translate(297.8125,63.1875)"/>
<path d="M0 0 C4.12 0.7 5.71 2.3 8.48 5.42 C10.95 9.28 10.64 12.86 10.03 17.26 C9.23 20.37 7.79 22.24 5.48 24.42 C4.82 24.42 4.16 24.42 3.48 24.42 C3.15 25.41 2.82 26.4 2.48 27.42 C0.83 28.77 -0.84 30.1 -2.52 31.42 C-3.18 32.41 -3.84 33.4 -4.52 34.42 C-5.18 34.42 -5.84 34.42 -6.52 34.42 C-6.85 35.41 -7.18 36.4 -7.52 37.42 C-8.18 37.42 -8.84 37.42 -9.52 37.42 C-9.85 38.41 -10.18 39.4 -10.52 40.42 C-12.17 41.77 -13.84 43.1 -15.52 44.42 C-16.18 45.41 -16.84 46.4 -17.52 47.42 C-18.18 47.42 -18.84 47.42 -19.52 47.42 C-19.85 48.41 -20.18 49.4 -20.52 50.42 C-22.17 51.77 -23.84 53.1 -25.52 54.42 C-26.18 55.41 -26.84 56.4 -27.52 57.42 C-28.18 57.42 -28.84 57.42 -29.52 57.42 C-29.85 58.41 -30.18 59.4 -30.52 60.42 C-31.18 60.42 -31.84 60.42 -32.52 60.42 C-32.85 61.41 -33.18 62.4 -33.52 63.42 C-35.17 64.77 -36.84 66.1 -38.52 67.42 C-39.18 68.41 -39.84 69.4 -40.52 70.42 C-41.18 70.42 -41.84 70.42 -42.52 70.42 C-43.02 71.9 -43.02 71.9 -43.52 73.42 C-45.17 74.77 -46.84 76.1 -48.52 77.42 C-49.18 78.41 -49.84 79.4 -50.52 80.42 C-51.18 80.42 -51.84 80.42 -52.52 80.42 C-53.02 81.9 -53.02 81.9 -53.52 83.42 C-54.18 83.42 -54.84 83.42 -55.52 83.42 C-56.02 84.9 -56.02 84.9 -56.52 86.42 C-58.17 87.77 -59.84 89.1 -61.52 90.42 C-62.18 91.41 -62.84 92.4 -63.52 93.42 C-64.18 93.42 -64.84 93.42 -65.52 93.42 C-66.02 94.9 -66.02 94.9 -66.52 96.42 C-68.17 97.77 -69.84 99.1 -71.52 100.42 C-72.18 101.41 -72.84 102.4 -73.52 103.42 C-74.18 103.42 -74.84 103.42 -75.52 103.42 C-76.02 104.9 -76.02 104.9 -76.52 106.42 C-77.18 106.42 -77.84 106.42 -78.52 106.42 C-79.02 107.9 -79.02 107.9 -79.52 109.42 C-81.17 110.77 -82.84 112.1 -84.52 113.42 C-85.18 114.41 -85.84 115.4 -86.52 116.42 C-87.18 116.42 -87.84 116.42 -88.52 116.42 C-89.02 117.9 -89.02 117.9 -89.52 119.42 C-91.17 120.77 -92.84 122.1 -94.52 123.42 C-95.18 124.41 -95.84 125.4 -96.52 126.42 C-97.18 126.42 -97.84 126.42 -98.52 126.42 C-99.02 127.9 -99.02 127.9 -99.52 129.42 C-100.18 129.42 -100.84 129.42 -101.52 129.42 C-101.77 129.95 -102.02 130.49 -102.27 131.04 C-103.52 133.42 -103.52 133.42 -105.46 136.23 C-109.93 143.13 -110.95 148.55 -110.96 156.79 C-110.98 158.57 -111 160.36 -111.02 162.19 C-110.13 171.6 -105.77 179.53 -98.96 185.98 C-89.4 193.82 -80.79 195.37 -68.41 195.02 C-36 191.01 -7.93 145.87 11.98 125.92 C64.51 73.27 64.51 73.27 70.23 73.04 C73.85 73.08 76.11 73.34 78.98 75.61 C82.75 79.85 82.75 79.85 83.48 83.42 C81.02 105.51 39.04 136.68 25.04 150.61 C14.4 161.22 3.76 171.84 -7.21 182.77 C-46.73 221.29 -46.73 221.29 -73.9 221.86 C-87.49 221.63 -98.01 218.49 -109.52 211.42 C-111.13 210.49 -111.13 210.49 -112.77 209.54 C-126.27 199.11 -135.91 182.16 -138.52 165.42 C-140.57 144.01 -132.79 127.64 -119.52 111.42 C-101.47 93.2 -83.36 75.04 -65.21 56.92 C-55.31 47.03 -45.42 37.14 -35.22 26.95 C-7.84 -0.24 -7.84 -0.24 0 0 Z " fill="#020202" transform="translate(258.5234375,99.58203125)"/>
</svg>
