<?xml version="1.0" encoding="UTF-8"?>
<svg version="1.1" xmlns="http://www.w3.org/2000/svg" width="32" height="32" viewBox="0 0 200 200">
<path d="M0 0 C66 0 132 0 200 0 C200 66 200 132 200 200 C134 200 68 200 0 200 C0 134 0 68 0 0 Z " fill="#004AAD" transform="translate(0,0)"/>
<path d="M0 0 C10.23 0 20.46 0 31 0 C34.41956385 8.9862957 37.7028587 17.9582679 40.69921875 27.09375 C43.01222398 34.10351645 45.52339552 41.04678399 48 48 C50.25005429 44.62491856 51.42902981 41.2093228 52.71484375 37.40234375 C52.97125137 36.65344376 53.227659 35.90454376 53.49183655 35.13294983 C54.03428713 33.5457941 54.57463549 31.95791857 55.11303711 30.36938477 C55.9267452 27.969223 56.74694743 25.57136285 57.56835938 23.17382812 C58.09674367 21.62513283 58.62474998 20.07630852 59.15234375 18.52734375 C59.39307114 17.82278549 59.63379852 17.11822723 59.88182068 16.39231873 C61.72100111 10.95677432 63.34816011 5.50613298 65 0 C75.23 0 85.46 0 96 0 C96 1.98 96 3.96 96 6 C93.94921875 6.22786458 91.8984375 6.45572917 89.84765625 6.68359375 C87.98859771 6.81886614 87.98859771 6.81886614 87 8 C86.9008944 9.86635788 86.87200739 11.73648194 86.87060547 13.60546875 C86.86587723 15.40238159 86.86587723 15.40238159 86.86105347 17.2355957 C86.8630777 18.53972412 86.86510193 19.84385254 86.8671875 21.1875 C86.8665144 22.52889015 86.86554432 23.87028019 86.86428833 25.21166992 C86.86281164 28.02621621 86.86496496 30.84073082 86.86962891 33.65527344 C86.87532619 37.27040631 86.87204703 40.88546495 86.86605644 44.50059509 C86.86245003 47.27144942 86.86358978 50.04228602 86.86618423 52.81314087 C86.86717967 54.79689583 86.86413259 56.78065147 86.86105347 58.7644043 C86.86420563 59.96234619 86.86735779 61.16028809 86.87060547 62.39453125 C86.87140106 63.45518799 86.87219666 64.51584473 86.87301636 65.60864258 C86.73027721 67.95314943 86.73027721 67.95314943 88 69 C89.34747084 69.23075082 90.70377565 69.41153063 92.0625 69.5625 C93.361875 69.706875 94.66125 69.85125 96 70 C96 71.98 96 73.96 96 76 C84.45 76 72.9 76 61 76 C61 74.02 61 72.04 61 70 C64.465 69.01 64.465 69.01 68 68 C68 50.84 68 33.68 68 16 C66.185 21.445 64.37 26.89 62.5 32.5 C57.66666667 47 52.83333333 61.5 48 76 C45.36 76 42.72 76 40 76 C39.71914551 75.18249268 39.43829102 74.36498535 39.14892578 73.52270508 C32.4450758 54.01083016 25.72981661 34.50293439 19 15 C18.9747092 22.36897044 18.95715821 29.73792974 18.94506836 37.10693359 C18.94002997 39.61540139 18.93319916 42.12386624 18.92456055 44.63232422 C18.91247339 48.2314527 18.90676685 51.83054247 18.90234375 55.4296875 C18.89718246 56.55680145 18.89202118 57.68391541 18.88670349 58.84518433 C18.88662796 59.88611237 18.88655243 60.92704041 18.88647461 61.99951172 C18.88314369 63.37851151 18.88314369 63.37851151 18.87974548 64.78536987 C18.85489471 67.04150588 18.85489471 67.04150588 20 69 C22.32156597 69.40729228 24.6568787 69.74438677 27 70 C27 71.98 27 73.96 27 76 C18.09 76 9.18 76 0 76 C0 74.02 0 72.04 0 70 C2.05078125 69.77213542 4.1015625 69.54427083 6.15234375 69.31640625 C8.01140229 69.18113386 8.01140229 69.18113386 9 68 C9.0991056 66.13364212 9.12799261 64.26351806 9.12939453 62.39453125 C9.13254669 61.19658936 9.13569885 59.99864746 9.13894653 58.7644043 C9.1369223 57.46027588 9.13489807 56.15614746 9.1328125 54.8125 C9.1334856 53.47110985 9.13445568 52.12971981 9.13571167 50.78833008 C9.13718836 47.97378379 9.13503504 45.15926918 9.13037109 42.34472656 C9.12467381 38.72959369 9.12795297 35.11453505 9.13394356 31.49940491 C9.13754997 28.72855058 9.13641022 25.95771398 9.13381577 23.18685913 C9.13282033 21.20310417 9.13586741 19.21934853 9.13894653 17.2355957 C9.13579437 16.03765381 9.13264221 14.83971191 9.12939453 13.60546875 C9.12859894 12.54481201 9.12780334 11.48415527 9.12698364 10.39135742 C9.26972279 8.04685057 9.26972279 8.04685057 8 7 C6.65252916 6.76924918 5.29622435 6.58846937 3.9375 6.4375 C2.638125 6.293125 1.33875 6.14875 0 6 C0 4.02 0 2.04 0 0 Z " fill="#F9FAFD" transform="translate(52,61)"/>
<path d="M0 0 C0.33 1.98 0.66 3.96 1 6 C-11.95916626 11.01013123 -25.06001664 15.36354861 -38.375 19.3125 C-39.43385406 19.63078766 -39.43385406 19.63078766 -40.51409912 19.95550537 C-49.45854971 22.63528343 -58.34756512 24.78328399 -67.54736328 26.39257812 C-70.55226154 26.92122944 -73.52069891 27.53311937 -76.5 28.1875 C-82.66493874 29.19661652 -88.8303925 29.21441778 -95.0625 29.25 C-96.57070312 29.26389771 -96.57070312 29.26389771 -98.109375 29.27807617 C-110.18390135 29.22776565 -121.4917578 27.65934104 -130.875 19.5 C-131.57625 18.675 -132.2775 17.85 -133 17 C-133.70125 16.21625 -134.4025 15.4325 -135.125 14.625 C-137.90980785 10.726269 -140 6.89506342 -140 2 C-138.02 2 -136.04 2 -134 2 C-133.731875 2.65226563 -133.46375 3.30453125 -133.1875 3.9765625 C-129.30293063 12.64017445 -124.59859048 16.76004452 -115.875 20.375 C-82.81542971 30.31366327 -35.79973339 14.04213519 -5.66015625 1.03125 C-3 0 -3 0 0 0 Z " fill="#F3F7FB" transform="translate(169,138)"/>
</svg>
