<svg fill="none" viewBox="0 0 478 480" version="1.1" xmlns="http://www.w3.org/2000/svg" width="32" height="32">
<path d="M0 0 C157.74 0 315.48 0 478 0 C478 158.4 478 316.8 478 480 C320.26 480 162.52 480 0 480 C0 321.6 0 163.2 0 0 Z " fill="#F0F6FD" transform="translate(0,0)"/>
<path d="M0 0 C15.84 0 31.68 0 48 0 C52.65 10.08 57.21 20.04 61.38 30.31 C63.88 36.44 66.62 42.34 69.66 48.21 C71.43 51.89 72.76 55.66 74.04 59.53 C75.09 62.23 76.49 64.53 78 67 C78.7 68.86 79.39 70.72 80.07 72.59 C81.62 76.6 83.5 80.46 85.32 84.36 C87.15 88.32 88.89 92.31 90.62 96.31 C93.24 102.34 93.24 102.34 96.12 108.25 C98.19 112.25 99.86 116.4 101.57 120.56 C103.24 124.58 104.96 128.57 106.69 132.56 C107.27 133.9 107.85 135.25 108.45 136.63 C109.91 140.03 109.91 140.03 112 143 C112 143.99 112 144.98 112 146 C116.78 143.61 120.11 131.34 121.94 127.12 C123.57 123.38 125.2 119.64 126.88 115.78 C129.41 109.95 129.41 109.95 132 104 C135.14 96.87 138.29 89.75 141.44 82.62 C143 79.09 144.56 75.56 146.17 71.93 C148.56 66.52 148.56 66.52 151 61 C154.42 53.27 157.83 45.54 161.25 37.81 C162.76 34.4 164.27 30.98 165.83 27.46 C168.56 21.25 171.28 15.04 173.98 8.82 C177 2 177 2 178 1 C194.17 1 210.34 1 227 1 C227 66.34 227 131.68 227 199 C211.82 199 196.64 199 181 199 C180.67 168.64 180.34 138.28 180 107 C166.07 138.14 166.07 138.14 152.19 169.31 C150.53 173.04 148.87 176.77 147.17 180.61 C145.79 183.71 144.42 186.81 143 190 C141.68 192.97 140.36 195.94 139 199 C121.84 199 104.68 199 87 199 C84.69 193.72 82.38 188.44 80 183 C78.07 179.14 78.07 179.14 76.11 175.29 C74.56 172.1 73.31 168.81 72.04 165.51 C70.6 162.03 68.87 158.72 67.15 155.37 C65.83 152.65 64.82 149.9 63.81 147.06 C62.85 144.62 61.69 142.33 60.5 140 C59 137.08 57.65 134.22 56.56 131.12 C54.95 126.58 52.72 122.39 50.5 118.12 C48.77 114.52 47.4 110.75 46 107 C45.67 137.36 45.34 167.72 45 199 C30.15 199 15.3 199 0 199 C0 133.33 0 67.66 0 0 Z " fill="#1E416C" transform="translate(123,147)"/>
<path d="M0 0 C0.99 0 1.98 0 3 0 C4.82 1.97 4.82 1.97 6.69 4.5 C7.62 5.75 7.62 5.75 8.57 7.03 C9.28 8.01 9.28 8.01 10 9 C6.97 15.06 2.13 19.01 -2.69 23.75 C-9.04 30 -15.18 36.26 -21 43 C-24.03 46.22 -27.1 49.4 -30.19 52.56 C-31.75 54.17 -33.31 55.78 -34.92 57.44 C-36.27 58.62 -37.61 59.79 -39 61 C-42.77 60.06 -43.72 59.73 -46.31 57.19 C-46.84 56.69 -47.38 56.18 -47.93 55.67 C-48.28 55.12 -48.63 54.57 -49 54 C-48 50 -48 50 -42 43 C-86.27 43.06 -130.54 43.15 -174.81 43.25 C-199.47 43.3 -224.12 43.34 -249.52 43.39 C-291.91 39.15 -291.91 39.15 -327.9 54.71 C-354.23 83.48 -336.53 172.05 -336.62 203.56 C-336.7 227.61 -336.77 251.66 -336.85 276.44 C-336.9 295.11 -336.95 313.77 -337 333 C-336.34 333 -335.68 333 -335 333 C-334.79 332.46 -334.57 331.92 -334.35 331.36 C-332.5 328.12 -330.04 325.85 -327.38 323.25 C-326.37 322.27 -325.37 321.28 -324.34 320.27 C-323.57 319.52 -322.79 318.77 -322 318 C-317.71 319.92 -315.23 322.62 -312 326 C-313.48 329.49 -315.46 331.64 -318.19 334.25 C-320.98 336.93 -323.55 339.64 -326.08 342.58 C-332.86 350.23 -340.27 357.28 -347.53 364.47 C-350.79 367.76 -353.97 371.13 -356.97 374.66 C-360 378 -360 378 -364 379 C-366.14 377.57 -366.14 377.57 -368.25 375.56 C-368.96 374.9 -369.66 374.25 -370.39 373.57 C-371.19 372.79 -371.19 372.79 -372 372 C-371 368 -371 368 -363 360 C-362.38 310.94 -362.23 261.88 -362.31 212.81 C-362.53 53.89 -362.53 53.89 -346.1 36.01 C-294.52 -13.28 -144.49 17.89 -80.71 17.93 C-21.74 24.6 -21.74 24.6 -8 9 C-6.67 7.54 -5.35 6.07 -4.06 4.56 C-1.01 1.01 -1.01 1.01 0 0 Z " fill="#20426E" transform="translate(411,35)"/>
<path d="M0 0 C3.77 0.94 4.72 1.27 7.31 3.81 C7.84 4.31 8.38 4.82 8.93 5.33 C9.46 6.16 9.46 6.16 10 7 C9 11 9 11 2 18 C1.42 66.33 1.27 114.67 1.31 163 C1.41 324.86 1.41 324.86 -18.17 345.5 C-63.67 385.78 -220.52 360.76 -278.77 360.49 C-340.73 354.27 -340.73 354.27 -360 377 C-360.33 377.66 -360.66 378.32 -361 379 C-364.63 378.43 -366.26 377.08 -368.75 374.44 C-369.36 373.8 -369.98 373.16 -370.61 372.5 C-371.07 372 -371.53 371.51 -372 371 C-370.41 367.07 -367.84 364.67 -364.81 361.75 C-361.65 358.69 -358.67 355.62 -355.79 352.3 C-349.55 345.22 -342.74 338.72 -336.03 332.09 C-332.95 328.98 -329.95 325.78 -327.09 322.47 C-324 319 -324 319 -320 317 C-318.63 318.23 -317.28 319.49 -315.94 320.75 C-314.81 321.79 -314.81 321.79 -313.65 322.86 C-313.11 323.57 -312.56 324.27 -312 325 C-313 329 -313 329 -319 336 C-274.1 335.89 -229.21 335.76 -184.31 335.62 C-159.31 335.56 -134.31 335.49 -108.55 335.41 C-72.5 341.06 -72.5 341.06 -42.56 331.62 C-41.79 330.82 -41.79 330.82 -41 330 C-40.07 329.46 -39.14 328.93 -38.19 328.38 C-30.81 322.88 -28.39 315.47 -25 307 C-24.54 263.29 -24.33 219.58 -24.25 175.88 C-24.19 151.74 -24.14 127.61 -24.08 102.74 C-24.05 84.02 -24.03 65.29 -24 46 C-27.43 48.75 -29.89 50.82 -32.62 54.06 C-34.67 56.47 -36.73 58.79 -39 61 C-41.99 59.64 -44.29 58.05 -46.75 55.88 C-47.67 55.07 -47.67 55.07 -48.61 54.24 C-49.07 53.83 -49.53 53.42 -50 53 C-46.51 46.03 -40.32 41.18 -34.81 35.75 C-24.09 25.17 -24.09 25.17 -14 14 C-11.63 11.45 -9.24 8.93 -6.81 6.44 C-5.62 5.2 -4.43 3.96 -3.21 2.68 C-2.15 1.8 -1.09 0.91 0 0 Z " fill="#1F426D" transform="translate(423,67)"/>
<path d="M0 0 C-25.45 10.91 -133.86 3.22 -156.44 3.19 C-184.03 3.16 -211.63 3.13 -240.06 3.11 C-261.49 3.07 -282.92 3.04 -305 3 C-305 2.34 -305 1.68 -305 1 C-283.77 0.94 -262.55 0.88 -240.68 0.82 C-213.35 0.73 -186.03 0.65 -157.88 0.56 C-130.56 0.48 -103.25 0.4 -75.12 0.32 C-0.14 -0.05 -0.14 -0.05 0 0 Z " fill="#416286" transform="translate(383,425)"/>
<path d="M0 0 C26.99 0.12 53.97 0.23 81.77 0.35 C108.78 0.44 135.8 0.53 163.62 0.62 C184.59 0.74 205.55 0.86 227.15 0.98 C227.15 1.31 227.15 1.64 227.15 1.98 C206.38 1.89 185.6 1.8 164.2 1.7 C137.41 1.67 110.62 1.64 83.02 1.6 C56.27 1.53 29.52 1.46 1.95 1.39 C-58.51 -4.58 -58.51 -4.58 -76.85 16.98 C-78.17 17.31 -79.49 17.64 -80.85 17.98 C-56.25 -11.8 -56.65 0.85 0 0 Z " fill="#C3D0DE" transform="translate(142.8515625,427.0234375)"/>
<path d="M0 0 C3 3 3 3 3.07 23.2 C2.95 31.61 2.82 40.02 2.69 48.69 C2.51 61.32 2.51 61.32 2.32 74.2 C2.22 80.73 2.11 87.27 2 94 C-13.51 94 -29.02 94 -45 94 C-45 93.67 -45 93.34 -45 93 C-30.15 93 -15.3 93 0 93 C0 62.31 0 31.62 0 0 Z " fill="#C5D2E0" transform="translate(168,253)"/>
<path d="M0 0 C0.33 0 0.66 0 1 0 C1 30.69 1 61.38 1 93 C0.67 93 0.34 93 0 93 C0 64.62 0 36.24 0 7 C-0.99 7.33 -1.98 7.66 -3 8 C-1.12 1.12 -1.12 1.12 0 0 Z " fill="#D4DFEA" transform="translate(303,253)"/>
<path d="M0 0 C0.99 0.33 1.98 0.66 3 1 C-2.67 7.93 -9.03 14.13 -15.38 20.44 C-17.55 22.6 -19.72 24.77 -21.96 27 C-23.62 28.65 -25.29 30.3 -27 32 C-27.99 31.67 -28.98 31.34 -30 31 C-27.85 28.87 -27.85 28.87 -25.65 26.69 C-22.82 23.87 -22.82 23.87 -19.94 21 C-18.07 19.14 -16.2 17.29 -14.28 15.38 C-10.01 11.03 -5.96 6.62 -2 2 C-1.34 1.34 -0.68 0.68 0 0 Z " fill="#3D5D83" transform="translate(101,384)"/>
<path d="M0 0 C1.32 0.33 2.64 0.66 4 1 C4.33 1.66 4.66 2.32 5 3 C3.94 3.08 3.94 3.08 2.86 3.15 C-1.12 4.33 -2.97 6.58 -5.81 9.56 C-6.79 10.57 -7.76 11.59 -8.77 12.63 C-9.87 13.8 -9.87 13.8 -11 15 C-11.99 14.67 -12.98 14.34 -14 14 C-11.77 11.63 -9.51 9.28 -7.25 6.94 C-5.37 4.97 -5.37 4.97 -3.45 2.96 C-1.74 1.5 -1.74 1.5 0 0 Z " fill="#3C5D82" transform="translate(423,67)"/>
<path d="M0 0 C0.99 0.33 1.98 0.66 3 1 C0.76 3.32 -1.49 5.63 -3.75 7.94 C-5.63 9.87 -5.63 9.87 -7.55 11.84 C-11 15 -11 15 -15 16 C-10.3 10.34 -5.25 5.15 0 0 Z " fill="#CDD9E5" transform="translate(77,429)"/>
<path d="M0 0 C0.66 0.33 1.32 0.66 2 1 C-2.33 6.18 -6.77 10.73 -12 15 C-12 10.4 -9.1 8.19 -6 5 C-4.05 3.24 -2.06 1.62 0 0 Z " fill="#3F6084" transform="translate(73,64)"/>
<path d="M0 0 C1.32 0.66 2.64 1.32 4 2 C3.45 2.22 2.9 2.45 2.33 2.68 C-0.71 4.4 -2.81 6.63 -5.25 9.12 C-6.59 10.49 -6.59 10.49 -7.95 11.88 C-8.97 12.93 -8.97 12.93 -10 14 C-10.99 13.67 -11.98 13.34 -13 13 C-8.71 8.71 -4.42 4.42 0 0 Z " fill="#3D5D83" transform="translate(89,353)"/>
<path d="M0 0 C-1.58 4.27 -4.51 6.27 -8 9 C-8 6 -8 6 -6.76 4.39 C-5.95 3.61 -5.95 3.61 -5.12 2.81 C-4.59 2.28 -4.06 1.75 -3.51 1.21 C-2 0 -2 0 0 0 Z " fill="#C6D3E1" transform="translate(89,85)"/>
</svg>
