<svg width="32" height="32" viewBox="0 0 24 24" fill="none" xmlns="http://www.w3.org/2000/svg">
<g clip-path="url(#clip0_177_2091)">
<path d="M2.5879 14.0127C2.5879 14.9291 2.78904 15.6327 3.05195 16.0584C3.39664 16.6159 3.91075 16.8521 4.43488 16.8521C5.11092 16.8521 5.72937 16.6843 6.92118 15.0359C7.87597 13.7148 9.00102 11.8603 9.75801 10.6976L11.04 8.72798C11.9305 7.36006 12.9612 5.83941 14.1431 4.80866C15.1079 3.96738 16.1486 3.5 17.196 3.5C18.9546 3.5 20.6296 4.51905 21.9116 6.43031C23.3145 8.52351 23.9956 11.16 23.9956 13.8809C23.9956 15.4983 23.6768 16.6868 23.1343 17.6257C22.6101 18.5338 21.5886 19.441 19.8701 19.441V16.8521C21.3415 16.8521 21.7088 15.5 21.7088 13.9526C21.7088 11.7476 21.1947 9.30052 20.0621 7.55203C19.2584 6.31181 18.2168 5.55396 17.0708 5.55396C15.8314 5.55396 14.8341 6.48874 13.7132 8.15545C13.1173 9.04096 12.5056 10.1201 11.8187 11.3378L11.0625 12.6773C9.54351 15.3706 9.15876 15.9841 8.39928 16.9964C7.06807 18.7692 5.93133 19.441 4.43488 19.441C2.65968 19.441 1.53712 18.6723 0.841894 17.5139C0.274361 16.57 -0.00439453 15.3314 -0.00439453 13.9201L2.5879 14.0127Z" fill="#0081FB"/>
<path d="M2.03516 6.61308C3.22363 4.78112 4.93877 3.5 6.90593 3.5C8.04518 3.5 9.17774 3.83718 10.3604 4.80283C11.654 5.85861 13.0328 7.5971 14.7529 10.4623L15.3697 11.4905C16.8586 13.971 17.7058 15.2471 18.2015 15.8489C18.8392 16.6217 19.2857 16.8521 19.8657 16.8521C21.3371 16.8521 21.7043 15.5 21.7043 13.9526L23.9912 13.8809C23.9912 15.4983 23.6724 16.6868 23.1299 17.6257C22.6057 18.5338 21.5842 19.441 19.8657 19.441C18.7974 19.441 17.851 19.209 16.8044 18.2217C15.9998 17.4638 15.0592 16.1176 14.3356 14.9074L12.1831 11.3119C11.1032 9.5075 10.1125 8.16212 9.53912 7.55284C8.92233 6.8977 8.12946 6.10649 6.8642 6.10649C5.84013 6.10649 4.97047 6.82508 4.2427 7.92426L2.03516 6.61308Z" fill="url(#paint0_linear_177_2091)"/>
<path d="M6.86861 6.10649C5.84454 6.10649 4.97488 6.82508 4.24709 7.92426C3.21802 9.47746 2.5879 11.791 2.5879 14.0127C2.5879 14.9291 2.78904 15.6327 3.05195 16.0584L0.841894 17.5139C0.274361 16.57 -0.00439453 15.3314 -0.00439453 13.9201C-0.00439453 11.3537 0.700011 8.67873 2.03956 6.61308C3.22804 4.78111 4.94316 3.5 6.91032 3.5L6.86861 6.10649Z" fill="url(#paint1_linear_177_2091)"/>
</g>
<defs>
<linearGradient id="paint0_linear_177_2091" x1="3.38795" y1="13.2649" x2="21.4426" y2="14.2616" gradientUnits="userSpaceOnUse">
<stop stop-color="#0064E1"/>
<stop offset="0.4" stop-color="#0064E1"/>
<stop offset="0.83" stop-color="#0073EE"/>
<stop offset="1" stop-color="#0082FB"/>
</linearGradient>
<linearGradient id="paint1_linear_177_2091" x1="3.75135" y1="15.1011" x2="3.75135" y2="9.00842" gradientUnits="userSpaceOnUse">
<stop stop-color="#0082FB"/>
<stop offset="1" stop-color="#0064E0"/>
</linearGradient>
<clipPath id="clip0_177_2091">
<rect width="24" height="24" fill="white"/>
</clipPath>
</defs>
</svg>
