<svg width="32" height="32" viewBox="0 0 24 24" fill="none" xmlns="http://www.w3.org/2000/svg">
<path d="M21.0548 2.49074C21.0548 3.31406 20.3822 3.98149 19.5525 3.98149C18.7228 3.98149 18.0503 3.31406 18.0503 2.49074C18.0503 1.66743 18.7228 1 19.5525 1C20.3822 1 21.0548 1.66743 21.0548 2.49074Z" fill="url(#paint0_linear_1015_212408)"/>
<path d="M21.0548 2.49074C21.0548 3.31406 20.3822 3.98149 19.5525 3.98149C18.7228 3.98149 18.0503 3.31406 18.0503 2.49074C18.0503 1.66743 18.7228 1 19.5525 1C20.3822 1 21.0548 1.66743 21.0548 2.49074Z" fill="black"/>
<path d="M15.9473 3.98147C15.9473 4.80478 15.2748 5.47221 14.4451 5.47221C13.6154 5.47221 12.9429 4.80478 12.9429 3.98147C12.9429 3.15815 13.6154 2.49072 14.4451 2.49072C15.2748 2.49072 15.9473 3.15815 15.9473 3.98147Z" fill="url(#paint1_linear_1015_212408)"/>
<path d="M15.9473 3.98147C15.9473 4.80478 15.2748 5.47221 14.4451 5.47221C13.6154 5.47221 12.9429 4.80478 12.9429 3.98147C12.9429 3.15815 13.6154 2.49072 14.4451 2.49072C15.2748 2.49072 15.9473 3.15815 15.9473 3.98147Z" fill="black"/>
<path fill-rule="evenodd" clip-rule="evenodd" d="M7.36806 11.0707C7.36806 13.6603 8.64858 15.953 10.6155 17.3595C11.7915 16.3135 12.5314 14.7945 12.5314 13.104V8.92791C12.5314 8.29889 12.9591 7.74908 13.5722 7.58965L21.2525 5.59254C22.1362 5.36278 23 6.02432 23 6.93078V12.0122C23 18.0359 18.0791 22.9191 12.009 22.9191H11.991C5.92085 22.9191 1 18.0359 1 12.0122V8.50531C1 7.874 1.43071 7.32276 2.04686 7.16551L5.62675 6.25188C6.50887 6.02675 7.36806 6.68783 7.36806 7.5917V11.0707ZM2.59324 12.0122C2.59324 14.1092 3.29068 16.0445 4.46793 17.6022C5.01957 18.3321 5.85979 18.8168 6.7747 18.8168C7.64565 18.8168 8.4714 18.6248 9.21139 18.2813C7.11318 16.5706 5.77482 13.9758 5.77483 11.0707V7.84658L2.59324 8.6586V12.0122Z" fill="url(#paint2_linear_1015_212408)"/>
<path fill-rule="evenodd" clip-rule="evenodd" d="M7.36806 11.0707C7.36806 13.6603 8.64858 15.953 10.6155 17.3595C11.7915 16.3135 12.5314 14.7945 12.5314 13.104V8.92791C12.5314 8.29889 12.9591 7.74908 13.5722 7.58965L21.2525 5.59254C22.1362 5.36278 23 6.02432 23 6.93078V12.0122C23 18.0359 18.0791 22.9191 12.009 22.9191H11.991C5.92085 22.9191 1 18.0359 1 12.0122V8.50531C1 7.874 1.43071 7.32276 2.04686 7.16551L5.62675 6.25188C6.50887 6.02675 7.36806 6.68783 7.36806 7.5917V11.0707ZM2.59324 12.0122C2.59324 14.1092 3.29068 16.0445 4.46793 17.6022C5.01957 18.3321 5.85979 18.8168 6.7747 18.8168C7.64565 18.8168 8.4714 18.6248 9.21139 18.2813C7.11318 16.5706 5.77482 13.9758 5.77483 11.0707V7.84658L2.59324 8.6586V12.0122Z" fill="black"/>
<defs>
<linearGradient id="paint0_linear_1015_212408" x1="14.8" y1="7.73027" x2="13.4094" y2="20.633" gradientUnits="userSpaceOnUse">
<stop stop-color="white"/>
<stop offset="1" stop-color="#2E2E2E"/>
</linearGradient>
<linearGradient id="paint1_linear_1015_212408" x1="14.8002" y1="7.73025" x2="13.4096" y2="20.633" gradientUnits="userSpaceOnUse">
<stop stop-color="white"/>
<stop offset="1" stop-color="#2E2E2E"/>
</linearGradient>
<linearGradient id="paint2_linear_1015_212408" x1="14.8001" y1="7.73013" x2="13.4095" y2="20.6329" gradientUnits="userSpaceOnUse">
<stop stop-color="white"/>
<stop offset="1" stop-color="#2E2E2E"/>
</linearGradient>
</defs>
</svg>
