<svg width="32" height="32" viewBox="0 0 24 24" fill="none" xmlns="http://www.w3.org/2000/svg">
<path d="M15.9215 3C16.9812 3 17.8401 3.8343 17.8401 4.863V16.1139C17.8474 16.2863 17.9226 16.4491 18.0499 16.5681C18.1771 16.6872 18.3464 16.7531 18.5221 16.752C18.6976 16.7528 18.8667 16.6868 18.9937 16.5678C19.1207 16.4488 19.1958 16.2861 19.2032 16.1139V9.38909C19.2045 9.14562 19.2546 8.90479 19.3508 8.68035C19.4469 8.4559 19.5871 8.25225 19.7634 8.08101C19.9397 7.90977 20.1486 7.77429 20.3782 7.68232C20.6078 7.59035 20.8536 7.54369 21.1016 7.54499C21.3496 7.54369 21.5955 7.59038 21.8252 7.68241C22.0549 7.77444 22.2638 7.90999 22.4401 8.08133C22.6164 8.25266 22.7566 8.45642 22.8527 8.68097C22.9487 8.90551 22.9988 9.14644 23 9.38999V15.2949C22.999 15.4496 22.9355 15.5977 22.8235 15.7065C22.7114 15.8154 22.56 15.8761 22.4023 15.8754C22.3242 15.8759 22.2468 15.8612 22.1744 15.8323C22.102 15.8034 22.0362 15.7608 21.9806 15.7069C21.925 15.6529 21.8808 15.5888 21.8504 15.5181C21.8201 15.4474 21.8042 15.3716 21.8038 15.2949V9.38999C21.8033 9.29993 21.7847 9.21084 21.7492 9.12782C21.7136 9.04479 21.6618 8.96946 21.5966 8.90611C21.5314 8.84276 21.4541 8.79264 21.3692 8.75861C21.2842 8.72459 21.1933 8.70732 21.1016 8.70779C21.0099 8.70732 20.9189 8.72459 20.834 8.75861C20.7491 8.79264 20.6718 8.84276 20.6066 8.90611C20.5414 8.96946 20.4895 9.04479 20.454 9.12782C20.4184 9.21084 20.3999 9.29993 20.3994 9.38999V16.1148C20.3981 16.3555 20.3485 16.5937 20.2534 16.8156C20.1584 17.0375 20.0197 17.2389 19.8454 17.4082C19.6711 17.5775 19.4645 17.7115 19.2374 17.8024C19.0104 17.8934 18.7673 17.9395 18.5221 17.9382C18.2769 17.9395 18.0338 17.8934 17.8067 17.8024C17.5797 17.7115 17.3731 17.5775 17.1988 17.4082C17.0245 17.2389 16.8858 17.0375 16.7907 16.8156C16.6957 16.5937 16.6461 16.3555 16.6447 16.1148V4.8648C16.6372 4.68199 16.5576 4.5092 16.4229 4.3828C16.2882 4.2564 16.1088 4.18625 15.9224 4.1871C15.7361 4.186 15.5566 4.25593 15.4217 4.38217C15.2868 4.5084 15.207 4.68109 15.1992 4.8639L15.1983 19.1775C15.1953 19.6635 14.9959 20.1286 14.6439 20.4703C14.2919 20.8121 13.816 21.0026 13.3209 21C13.0757 21.0013 12.8326 20.9551 12.6056 20.8642C12.3785 20.7733 12.1719 20.6393 11.9976 20.47C11.8233 20.3007 11.6846 20.0993 11.5896 19.8774C11.4945 19.6555 11.4449 19.4173 11.4436 19.1766V17.436C11.4436 17.1156 11.7113 16.8555 12.0413 16.8555C12.3713 16.8555 12.6389 17.1156 12.6389 17.436V19.1766C12.6389 19.4133 12.7691 19.632 12.9799 19.7508C13.1908 19.8687 13.4511 19.8687 13.6619 19.7508C13.7654 19.6932 13.8514 19.6097 13.9113 19.5089C13.9712 19.408 14.0028 19.2933 14.0029 19.1766V4.863C14.0029 3.8343 14.8618 3 15.9215 3ZM10.7203 3C11.78 3 12.6389 3.8343 12.6389 4.863V15.2337C12.6386 15.3103 12.6228 15.3862 12.5926 15.4569C12.5623 15.5275 12.5182 15.5917 12.4627 15.6456C12.4072 15.6995 12.3414 15.7422 12.2691 15.7711C12.1967 15.8 12.1193 15.8147 12.0413 15.8142C11.9632 15.8147 11.8858 15.8 11.8134 15.7711C11.7411 15.7422 11.6753 15.6995 11.6198 15.6456C11.5643 15.5917 11.5202 15.5275 11.4899 15.4569C11.4597 15.3862 11.4439 15.3103 11.4436 15.2337V4.863C11.4424 4.67578 11.3655 4.49669 11.2299 4.36506C11.0943 4.23344 10.911 4.16004 10.7203 4.161C10.5296 4.16004 10.3464 4.23344 10.2108 4.36506C10.0751 4.49669 9.99829 4.67578 9.99708 4.863V17.4747C9.99417 17.9661 9.79268 18.4362 9.43688 18.7819C9.08108 19.1275 8.60009 19.3203 8.09958 19.3179C7.59892 19.3205 7.11769 19.1278 6.76169 18.7822C6.40569 18.4365 6.20408 17.9662 6.20117 17.4747V9.38999C6.20069 9.29993 6.18214 9.21084 6.1466 9.12782C6.11105 9.04479 6.05919 8.96946 5.99399 8.90611C5.92879 8.84276 5.85152 8.79264 5.76658 8.75861C5.68165 8.72459 5.59073 8.70732 5.499 8.70779C5.40727 8.70732 5.31635 8.72459 5.23142 8.75861C5.14648 8.79264 5.06921 8.84276 5.00401 8.90611C4.93881 8.96946 4.88695 9.04479 4.8514 9.12782C4.81586 9.21084 4.79731 9.29993 4.79683 9.38999V12.81C4.79551 13.0535 4.74536 13.2943 4.64924 13.5187C4.55312 13.7432 4.41292 13.9468 4.23663 14.1181C4.06035 14.2893 3.85143 14.4248 3.62182 14.5168C3.39221 14.6087 3.1464 14.6554 2.89842 14.6541C2.65044 14.6554 2.40462 14.6087 2.17501 14.5168C1.9454 14.4248 1.73649 14.2893 1.5602 14.1181C1.38392 13.9468 1.24371 13.7432 1.14759 13.5187C1.05147 13.2943 1.00132 13.0535 1 12.81L1 11.5698C1 11.2485 1.26767 10.9884 1.59767 10.9884C1.92767 10.9884 2.19625 11.2494 2.19625 11.5698V12.81C2.19625 13.1862 2.51067 13.4913 2.89842 13.4913C3.28617 13.4913 3.60058 13.1862 3.60058 12.81V9.38909C3.60349 8.89769 3.80499 8.42753 4.16078 8.08191C4.51658 7.73629 4.99758 7.5435 5.49808 7.54589C5.99874 7.54326 6.47998 7.73595 6.83598 8.08159C7.19197 8.42723 7.39359 8.89753 7.3965 9.38909V17.4747C7.3965 17.8518 7.71092 18.1569 8.09958 18.1569C8.48733 18.1569 8.80175 17.8518 8.80175 17.4747V4.863C8.80175 3.8343 9.66067 3 10.7203 3Z" fill="url(#paint0_linear_1003_325107)"/>
<defs>
<linearGradient id="paint0_linear_1003_325107" x1="1" y1="12" x2="23" y2="12" gradientUnits="userSpaceOnUse">
<stop stop-color="#E2167E"/>
<stop offset="1" stop-color="#FE603C"/>
</linearGradient>
</defs>
</svg>
