<svg width="32" height="32" viewBox="0 0 24 24" fill="none" xmlns="http://www.w3.org/2000/svg">
<path d="M20.5701 13.7056H17.1411V17.1245H20.5701V13.7056Z" fill="#FA500F"/>
<path d="M24.0002 17.1233H13.7144V20.5423H24.0002V17.1233Z" fill="#E10500"/>
<path d="M13.7142 13.7056H10.2852V17.1245H13.7142V13.7056Z" fill="#FA500F"/>
<path d="M6.85622 13.7056H3.42725V17.1245H6.85622V13.7056Z" fill="#FA500F"/>
<path d="M10.2847 17.1233H0V20.5423H10.2847V17.1233Z" fill="#E10500"/>
<path d="M20.5712 6.86914H13.7144V10.288H20.5712V6.86914Z" fill="#FFAF00"/>
<path d="M10.2841 6.86914H3.42725V10.288H10.2841V6.86914Z" fill="#FFAF00"/>
<path d="M20.5688 10.2864H3.42725V13.7053H20.5688V10.2864Z" fill="#FF8205"/>
<path d="M20.5701 3.44995H17.1411V6.86886H20.5701V3.44995Z" fill="#FFD800"/>
<path d="M6.85622 3.44995H3.42725V6.86886H6.85622V3.44995Z" fill="#FFD800"/>
</svg>
