<svg width="32" height="32" viewBox="0 0 24 24" fill="none" xmlns="http://www.w3.org/2000/svg">
<path d="M2.16748 11.386H4.41117V13.6131H2.16748V11.386ZM10.8396 13.6139H13.0833V15.841H10.8396V13.6139ZM17.5706 15.841H15.3269V17.7677H19.5117V13.6139H17.5706V15.841Z" fill="#624AFF"/>
<path d="M13.0833 11.386H15.3269V13.6131H13.0833V11.386ZM2.16748 9.15894H4.41117V11.386H2.16748V9.15894Z" fill="#36CFD1"/>
<path d="M19.5117 11.386H21.7554V13.6131H19.5117V11.386Z" fill="#624AFF"/>
<path d="M19.5117 9.15894H21.7554V11.386H19.5117V9.15894Z" fill="#36CFD1"/>
<path d="M15.3271 7.23218V9.15884H17.5708V11.3859H19.5119V7.23218H15.3271Z" fill="#624AFF"/>
<path d="M8.59619 11.386H10.8399V13.6131H8.59619V11.386Z" fill="#36CFD1"/>
<path d="M6.35216 9.15884H8.59585V7.23218H4.41113V11.3859H6.35216V9.15884ZM6.35216 13.6139H4.41113V17.7676H8.59585V15.8409H6.35216V13.6139Z" fill="#624AFF"/>
</svg>
