<svg fill="none" viewBox="0 0 40 44" version="1.1" xmlns="http://www.w3.org/2000/svg" width="32" height="32">
<path d="M0 0 C2.938 2.125 2.938 2.125 5 5 C5.911 6.067 6.828 7.13 7.75 8.188 C11.686 13.108 11.57 17.148 11.551 23.363 C10.671 29.171 7.529 32.463 3 36 C-0.857 38.701 -4.915 38.301 -9.5 38.312 C-10.995 38.329 -12.491 38.346 -14.031 38.363 C-17.983 38.002 -19.331 37.803 -22 35 C-26.801 29.163 -27.738 23.381 -27.418 15.957 C-26.657 10.572 -23.941 7.737 -20.062 4.25 C-13.777 -0.368 -7.654 -1.033 0 0 Z " fill="#F5F6FC" transform="translate(28,3)"/>
<path d="M0 0 C1.566 0.012 3.132 0.023 4.746 0.035 C6.315 0.044 7.884 0.053 9.5 0.062 C10.716 0.074 11.931 0.086 13.184 0.098 C10.006 2.216 6.839 3.605 3.34 5.098 C0.968 6.131 0.968 6.131 -1.816 8.098 C-1.486 9.748 -1.156 11.398 -0.816 13.098 C5.454 13.428 11.724 13.758 18.184 14.098 C15.328 16.001 13.101 16.86 9.871 17.91 C3.954 20 0.592 22.689 -3.816 27.098 C-9.26 20.425 -9.61 15.697 -8.816 7.098 C-6.961 2.442 -5.012 0.128 0 0 Z " fill="#1335BB" transform="translate(9.81640625,8.90234375)"/>
<path d="M0 0 C5.793 4.268 5.793 4.268 7 8 C7.125 11.25 7.125 11.25 7 14 C6.278 13.526 5.556 13.051 4.812 12.562 C2.105 11.058 0.038 10.434 -3 10 C-2.691 9.464 -2.381 8.928 -2.062 8.375 C-0.822 5.602 -0.409 3 0 0 Z " fill="#1837BB" transform="translate(32,8)"/>
<path d="M0 0 C5.61 0 11.22 0 17 0 C14.145 1.903 12.581 2.462 9.312 3.125 C8.504 3.293 7.696 3.46 6.863 3.633 C6.248 3.754 5.634 3.875 5 4 C5 3.67 5 3.34 5 3 C2.03 2.505 2.03 2.505 -1 2 C-0.67 1.34 -0.34 0.68 0 0 Z " fill="#0E2FB9" transform="translate(6,9)"/>
<path d="M0 0 C0.99 0.33 1.98 0.66 3 1 C5.393 1.226 7.789 1.408 10.188 1.562 C12.096 1.688 12.096 1.688 14.043 1.816 C15.019 1.877 15.995 1.938 17 2 C17 2.66 17 3.32 17 4 C10.73 3.67 4.46 3.34 -2 3 C-1.34 2.01 -0.68 1.02 0 0 Z " fill="#CDD4F0" transform="translate(9,6)"/>
<path d="M0 0 C0.66 0.33 1.32 0.66 2 1 C-3.157 5.207 -5.282 6.124 -12 6 C-11.425 5.715 -10.85 5.43 -10.258 5.137 C-8.807 4.406 -7.363 3.66 -5.93 2.895 C-5.252 2.537 -4.574 2.18 -3.875 1.812 C-2.85 1.265 -2.85 1.265 -1.805 0.707 C-1.209 0.474 -0.614 0.24 0 0 Z " fill="#1C37BB" transform="translate(32,35)"/>
</svg>
