<svg width="32" height="32" viewBox="0 0 300 300" fill="none" xmlns="http://www.w3.org/2000/svg"><g clip-path="url(#a)"><path d="M110.566 130.069H93.58v40.038h9.036v-11.442h7.95c10.182 0 16.014-5.376 16.014-14.7 0-8.862-5.832-13.896-16.014-13.896Zm-.462 21.048h-7.494v-13.554h7.494c5.034 0 7.896 2.232 7.896 6.69 0 4.578-2.862 6.864-7.896 6.864ZM159.524 146.773h-18.132v-16.704h-9.036v40.038h9.036v-15.786h18.132v15.786h9.042v-40.038h-9.042v16.704ZM199.215 148.655c3.204-1.716 5.148-4.806 5.148-8.352 0-6.576-5.322-10.698-13.788-10.698-8.406 0-13.728 4.002-13.728 10.356 0 3.606 2.118 6.804 5.604 8.694-4.632 1.776-7.662 5.664-7.662 10.296 0 7.092 6.18 11.556 15.846 11.556s15.786-4.518 15.786-11.724c.006-4.578-2.796-8.352-7.206-10.128Zm-8.574-12.81c3.948 0 6.18 1.776 6.18 4.92 0 3.09-2.232 4.86-6.18 4.86-4.002 0-6.234-1.776-6.234-4.86-.006-3.15 2.226-4.92 6.234-4.92Zm0 27.858c-4.692 0-7.32-2.058-7.32-5.718 0-3.546 2.628-5.55 7.266-5.55 4.692 0 7.38 2.058 7.38 5.604-.006 3.6-2.694 5.664-7.326 5.664Z" fill="#00F0FF"/><path d="M249.201 37.803H50.805c-7.182 0-13.002 5.82-13.002 13.002v198.402c0 7.176 5.82 12.996 13.002 12.996h198.402c7.182 0 13.002-5.82 13.002-13.002V50.805c-.006-7.182-5.826-13.002-13.008-13.002Zm-14.616 123.876a4.868 4.868 0 0 1 4.524-3.072 4.876 4.876 0 0 1 4.872 4.872 4.876 4.876 0 0 1-4.872 4.872 4.868 4.868 0 0 1-4.524-3.072h-14.682v23.352l24.456.108a4.88 4.88 0 0 1 4.536-3.054 4.88 4.88 0 0 1 4.854 4.896 4.88 4.88 0 0 1-4.896 4.854 4.88 4.88 0 0 1-4.512-3.09l-24.444-.108v20.664c0 3.9-3.162 7.062-7.062 7.062h-20.61l.108 24.39a4.87 4.87 0 0 1 3.09 4.512 4.877 4.877 0 0 1-4.854 4.896 4.877 4.877 0 0 1-4.896-4.854 4.857 4.857 0 0 1 3.054-4.536l-.108-24.402h-23.352v14.628a4.868 4.868 0 0 1 3.072 4.524 4.876 4.876 0 0 1-4.872 4.872 4.876 4.876 0 0 1-4.872-4.872 4.868 4.868 0 0 1 3.072-4.524v-14.628h-23.496l.108 24.39a4.87 4.87 0 0 1 3.09 4.512 4.877 4.877 0 0 1-4.854 4.896 4.877 4.877 0 0 1-4.896-4.854 4.865 4.865 0 0 1 3.054-4.536l-.108-24.402h-23.352v14.628a4.868 4.868 0 0 1 3.072 4.524 4.876 4.876 0 0 1-4.872 4.872 4.876 4.876 0 0 1-4.872-4.872 4.868 4.868 0 0 1 3.072-4.524v-14.628h-20.46a7.062 7.062 0 0 1-7.062-7.062v-20.664l-24.444.108a4.87 4.87 0 0 1-4.512 3.09 4.877 4.877 0 0 1-4.896-4.854 4.877 4.877 0 0 1 4.854-4.896 4.857 4.857 0 0 1 4.536 3.054l24.456-.108v-23.352H65.403a4.868 4.868 0 0 1-4.524 3.072 4.876 4.876 0 0 1-4.872-4.872 4.876 4.876 0 0 1 4.872-4.872 4.868 4.868 0 0 1 4.524 3.072h14.682v-23.502l-24.444.108a4.87 4.87 0 0 1-4.512 3.09 4.877 4.877 0 0 1-4.896-4.854 4.877 4.877 0 0 1 4.854-4.896 4.857 4.857 0 0 1 4.536 3.054l24.456-.108v-23.352H65.397a4.868 4.868 0 0 1-4.524 3.072A4.876 4.876 0 0 1 56 109.431a4.876 4.876 0 0 1 4.872-4.872 4.868 4.868 0 0 1 4.524 3.072h14.682V87.225c0-3.9 3.162-7.062 7.062-7.062h20.46V65.427a4.868 4.868 0 0 1-3.072-4.524 4.876 4.876 0 0 1 4.872-4.872 4.876 4.876 0 0 1 4.872 4.872 4.868 4.868 0 0 1-3.072 4.524v14.736h23.352l.108-24.51a4.88 4.88 0 0 1-3.054-4.536 4.877 4.877 0 0 1 4.896-4.854 4.877 4.877 0 0 1 4.854 4.896 4.88 4.88 0 0 1-3.09 4.512l-.108 24.492h23.502V65.427a4.868 4.868 0 0 1-3.072-4.524 4.876 4.876 0 0 1 4.872-4.872 4.876 4.876 0 0 1 4.872 4.872 4.868 4.868 0 0 1-3.072 4.524v14.736h23.352l.108-24.51a4.88 4.88 0 0 1-3.054-4.536 4.877 4.877 0 0 1 4.896-4.854 4.88 4.88 0 0 1 4.854 4.896 4.88 4.88 0 0 1-3.09 4.512l-.108 24.492h20.61c3.9 0 7.062 3.162 7.062 7.062v20.406h14.682a4.868 4.868 0 0 1 4.524-3.072 4.876 4.876 0 0 1 4.872 4.872 4.876 4.876 0 0 1-4.872 4.872 4.868 4.868 0 0 1-4.524-3.072h-14.67v23.352l24.456.108a4.88 4.88 0 0 1 4.536-3.054 4.88 4.88 0 0 1 4.854 4.896 4.877 4.877 0 0 1-4.896 4.854 4.88 4.88 0 0 1-4.512-3.09l-24.444-.108v23.502h14.688v-.012Z" fill="url(#b)"/></g><defs><linearGradient id="b" x1="150.006" y1="37.803" x2="150.006" y2="262.203" gradientUnits="userSpaceOnUse"><stop stop-color="#00F0FF"/><stop offset="1" stop-color="#00FF38"/></linearGradient><clipPath id="a"><path fill="#fff" d="M0 0h300v300H0z"/></clipPath></defs></svg>