<svg fill="none" viewBox="0 0 64 64" version="1.1" xmlns="http://www.w3.org/2000/svg" width="32" height="32">
<path d="M0 0 C4.36 -0.06 8.71 -0.12 13.2 -0.18 C24.31 0.44 24.31 0.44 31.31 6.44 C34.28 12.38 32.69 26 32.75 32.12 C32.81 36.48 32.87 40.84 32.93 45.32 C32.31 56.44 32.31 56.44 26.31 63.44 C20.37 66.41 6.75 64.82 0.62 64.88 C-3.73 64.94 -8.09 65 -12.57 65.06 C-23.69 64.44 -23.69 64.44 -30.69 58.44 C-33.66 52.5 -32.07 38.88 -32.12 32.75 C-32.19 28.39 -32.25 24.04 -32.31 19.55 C-31.69 8.44 -31.69 8.44 -25.69 1.44 C-19.75 -1.53 -6.13 0.06 0 0 Z " fill="#010101" transform="translate(31.6875,-0.4375)"/>
<path d="M0 0 C5.14 0.75 8.43 3.14 11.75 7.06 C13.98 10.89 14.27 13.61 13.75 18.06 C11.63 22.74 9.58 26.03 4.75 28.06 C5.33 28.02 5.91 27.97 6.51 27.93 C9.22 27.94 11.19 28.13 13.75 29.06 C16.6 32.34 19.75 36.58 19.75 41.06 C14.14 41.06 8.53 41.06 2.75 41.06 C1.1 37.76 -0.55 34.46 -2.25 31.06 C-2.58 34.36 -2.91 37.66 -3.25 41.06 C-8.53 41.06 -13.81 41.06 -19.25 41.06 C-18.45 36.29 -17.45 31.84 -16.19 27.19 C-15.83 25.85 -15.46 24.51 -15.09 23.13 C-14.81 22.12 -14.54 21.11 -14.25 20.06 C-12.6 20.06 -10.95 20.06 -9.25 20.06 C-9.27 19.51 -9.3 18.95 -9.32 18.38 C-9.46 12.6 -9.59 6.15 -5.94 1.34 C-3.76 -0.31 -2.7 -0.27 0 0 Z " fill="#F2F2F2" transform="translate(32.25,8.9375)"/>
<path d="M0 0 C5.61 0 11.22 0 17 0 C22 8.75 22 8.75 22 11 C16.39 11 10.78 11 5 11 C3.35 7.37 1.7 3.74 0 0 Z " fill="#FAFAFA" transform="translate(30,39)"/>
<path d="M0 0 C0.66 0 1.32 0 2 0 C3.78 3.56 3.21 7.58 3.25 11.5 C3.29 14.08 3.29 14.08 3.33 16.72 C3.22 18.13 3.11 19.54 3 21 C2.01 21.66 1.02 22.32 0 23 C-2.41 19.25 -2.27 15.87 -2.25 11.5 C-2.26 10.19 -2.26 8.88 -2.27 7.53 C-2.03 4.35 -1.7 2.64 0 0 Z " fill="#0B0B0B" transform="translate(29,13)"/>
</svg>
