<svg fill="none" viewBox="0 0 96 96" version="1.1" xmlns="http://www.w3.org/2000/svg" width="32" height="32">
<path d="M0 0 C31.68 0 63.36 0 96 0 C96 31.68 96 63.36 96 96 C64.32 96 32.64 96 0 96 C0 64.32 0 32.64 0 0 Z " fill="#F4F4F4" transform="translate(0,0)"/>
<path d="M0 0 C25.74 0 51.48 0 78 0 C78 25.74 78 51.48 78 78 C68 78 68 78 65.92 76.27 C65.54 75.46 65.15 74.65 64.75 73.81 C64.3 72.91 63.85 72.01 63.38 71.07 C62.93 70.06 62.47 69.05 62 68 C61.44 66.87 60.88 65.74 60.3 64.58 C56 55.72 56 55.72 56 51 C57.65 49.65 59.32 48.32 61 47 C62.83 44.18 62.83 44.18 64.25 41.06 C65 39.53 65 39.53 65.77 37.97 C68.71 30.88 69.33 22.21 67.42 14.74 C65.24 10.17 61.75 8.37 57.24 6.66 C54.24 5.78 52.09 5.45 49 6 C43.93 8.78 40.83 11.5 39 17 C38.09 25.18 39.9 32.53 42.03 40.4 C42.8 43.26 43.47 46.08 44 49 C29.01 55.11 16.89 54 0 54 C0 36.18 0 18.36 0 0 Z " fill="#020202" transform="translate(9,9)"/>
<path d="M0 0 C2.97 6.6 5.94 13.2 9 20 C-10.14 20 -29.28 20 -49 20 C-49 14.72 -49 9.44 -49 4 C-46.82 4.05 -46.82 4.05 -44.6 4.11 C-24.53 4.59 -24.53 4.59 -5.2 -0.16 C-3 -1 -3 -1 0 0 Z " fill="#020202" transform="translate(58,67)"/>
<path d="M0 0 C1.88 0.56 1.88 0.56 3.88 2.06 C6.63 8.96 4.65 15.44 2.02 22.09 C0.67 25 -0.81 27.32 -3.12 29.56 C-3.78 29.56 -4.45 29.56 -5.12 29.56 C-5.61 27.98 -6.08 26.39 -6.56 24.81 C-6.83 23.93 -7.1 23.05 -7.37 22.14 C-7.62 21.29 -7.87 20.44 -8.12 19.56 C-8.32 18.93 -8.51 18.29 -8.71 17.64 C-9.29 14.75 -9.33 11.95 -9.38 9 C-9.4 7.86 -9.43 6.72 -9.45 5.55 C-9.12 2.56 -9.12 2.56 -7.86 0.65 C-5.11 -1.08 -3.09 -0.55 0 0 Z " fill="#0A0A0A" transform="translate(65.125,23.44140625)"/>
<path d="M0 0 C8.91 0 17.82 0 27 0 C26.67 0.66 26.34 1.32 26 2 C18.08 2.33 10.16 2.66 2 3 C1.67 6.96 1.34 10.92 1 15 C0.67 15 0.34 15 0 15 C0 10.05 0 5.1 0 0 Z " fill="#070707" transform="translate(9,71)"/>
</svg>
