<svg width="32" height="32" viewBox="0 0 24 24" fill="none" xmlns="http://www.w3.org/2000/svg">
<g clip-path="url(#clip0_1015_212290)">
<path d="M9.14926 0C14.2023 0 18.2985 4.14403 18.2985 9.25595C18.2985 10.8803 17.8848 12.4068 17.1583 13.7338L23.9736 20.3376L20.566 23.937L13.7023 17.2862C12.3615 18.0659 10.8068 18.5119 9.14926 18.5119C4.09626 18.5119 0 14.3679 0 9.25595C3.54791e-06 4.14403 4.09626 2.77266e-06 9.14926 0ZM9.14926 2.64454C5.53998 2.64455 2.61406 5.60459 2.61406 9.25595C2.61406 12.9074 5.53998 15.8674 9.14926 15.8674C12.7586 15.8674 15.6845 12.9074 15.6845 9.25595C15.6845 5.60459 12.7586 2.64454 9.14926 2.64454ZM6.65152 4.44069C7.66506 3.91023 8.81955 3.72095 9.94679 3.9004C11.0741 4.07984 12.1153 4.61862 12.9188 5.43832C13.7224 6.25802 14.2463 7.31587 14.4143 8.45773C14.5823 9.59958 14.3857 10.7659 13.8529 11.7868L13.275 11.4782L12.697 11.1695C13.0999 10.3976 13.2486 9.51575 13.1216 8.65238C12.9945 7.78901 12.5983 6.98924 11.9908 6.36947C11.3833 5.74969 10.596 5.34229 9.74365 5.20661C8.89134 5.07093 8.01842 5.21402 7.25215 5.61509L6.95184 5.02792L6.65152 4.44069Z" fill="#3050FF"/>
</g>
<defs>
<clipPath id="clip0_1015_212290">
<rect width="24" height="24" fill="white"/>
</clipPath>
</defs>
</svg>
