<svg width="32" height="32" viewBox="0 0 24 24" fill="none" xmlns="http://www.w3.org/2000/svg">
<path fill-rule="evenodd" clip-rule="evenodd" d="M22.956 6.521H12.522C11.945 6.521 11.478 6.989 11.478 7.565V10.695C11.478 11.272 11.012 11.739 10.435 11.739H1.044C0.467 11.739 0 12.206 0 12.783V16.957C0 17.533 0.467 18 1.044 18H11.478C12.055 18 12.522 17.533 12.522 16.957V13.827C12.522 13.249 12.988 12.783 13.565 12.783H22.956C23.533 12.783 24 12.316 24 11.739V7.565C24 6.989 23.533 6.521 22.956 6.521Z" fill="#6E29F6"/>
</svg>
