<svg width="32" height="32" viewBox="0 0 24 24" fill="none" xmlns="http://www.w3.org/2000/svg">
<path d="M2 3.95041C2 2.32094 3.30378 1 4.91209 1H18.9872C20.5955 1 21.8992 2.32094 21.8992 3.95041C21.8992 5.57987 20.5955 6.90079 18.9872 6.90079H4.91209C3.30378 6.90079 2 5.57987 2 3.95041Z" fill="#6200EE"/>
<path d="M3.20425 1.97757C4.40572 0.89433 6.24643 1.003 7.31559 2.22027L15.2466 11.25C16.3158 12.4672 16.2085 14.3322 15.0071 15.4154C13.8056 16.4987 11.9649 16.39 10.8958 15.1727L2.9647 6.143C1.89553 4.92573 2.00278 3.0608 3.20425 1.97757Z" fill="#6200EE"/>
<path d="M2 13.2937C2 11.6642 3.30378 10.3433 4.91209 10.3433H13.163C14.7713 10.3433 16.0751 11.6642 16.0751 13.2937C16.0751 14.9231 14.7713 16.2441 13.163 16.2441H4.91209C3.30378 16.2441 2 14.9231 2 13.2937Z" fill="#6200EE"/>
<path d="M7.82416 20.6692C7.82416 22.2986 6.52039 23.6196 4.91209 23.6196C3.30378 23.6196 2 22.2986 2 20.6692C2 19.0397 3.30378 17.7188 4.91209 17.7188C6.52039 17.7188 7.82416 19.0397 7.82416 20.6692Z" fill="#BF7AFF"/>
</svg>
