<svg fill="none" viewBox="0 0 200 200" version="1.1" xmlns="http://www.w3.org/2000/svg" width="32" height="32">
<path d="M0 0 C66 0 132 0 200 0 C200 66 200 132 200 200 C134 200 68 200 0 200 C0 134 0 68 0 0 Z " fill="#FEFEFE" transform="translate(0,0)"/>
<path d="M0 0 C13.44 7.64 20.02 20.93 24.07 35.49 C25.79 42.48 25.62 48.34 25.62 55.75 C11.11 55.75 -3.42 55.75 -18.38 55.75 C-18.38 60.04 -18.38 64.33 -18.38 68.75 C-20.4 84.29 -27.07 98.97 -39.16 109.09 C-45.22 113.63 -50.99 114.74 -58.38 113.75 C-69.44 110.72 -75.61 104.39 -81.38 94.75 C-87.77 82.3 -90.38 69.67 -90.38 55.75 C-75.85 55.75 -61.33 55.75 -46.38 55.75 C-46.38 51.13 -46.38 46.51 -46.38 41.75 C-44.24 26.75 -37.83 12.87 -26.38 2.75 C-18.07 -3.2 -9.31 -4.45 0 0 Z " fill="#020202" transform="translate(132.375,44.25)"/>
</svg>
