<svg width="32" height="32" viewBox="0 0 24 24" fill="none" xmlns="http://www.w3.org/2000/svg">
<path opacity="0.2" fill-rule="evenodd" clip-rule="evenodd" d="M17.385 11.23C18.609 11.23 19.7828 10.7438 20.6483 9.8783C21.5138 9.01282 22 7.83897 22 6.615C22 5.39103 21.5138 4.21718 20.6483 3.3517C19.7828 2.48622 18.609 2 17.385 2C16.161 2 14.9872 2.48622 14.1217 3.3517C13.2562 4.21718 12.77 5.39103 12.77 6.615C12.77 7.83897 13.2562 9.01282 14.1217 9.8783C14.9872 10.7438 16.161 11.23 17.385 11.23ZM17.385 22C18.609 22 19.7828 21.5138 20.6483 20.6483C21.5138 19.7828 22 18.609 22 17.385C22 16.161 21.5138 14.9872 20.6483 14.1217C19.7828 13.2562 18.609 12.77 17.385 12.77C16.161 12.77 14.9872 13.2562 14.1217 14.1217C13.2562 14.9872 12.77 16.161 12.77 17.385C12.77 18.609 13.2562 19.7828 14.1217 20.6483C14.9872 21.5138 16.161 22 17.385 22ZM6.615 22C7.83897 22 9.01282 21.5138 9.8783 20.6483C10.7438 19.7828 11.23 18.609 11.23 17.385C11.23 16.161 10.7438 14.9872 9.8783 14.1217C9.01282 13.2562 7.83897 12.77 6.615 12.77C5.39103 12.77 4.21718 13.2562 3.3517 14.1217C2.48622 14.9872 2 16.161 2 17.385C2 18.609 2.48622 19.7828 3.3517 20.6483C4.21718 21.5138 5.39103 22 6.615 22Z" fill="black"/>
<path d="M6.615 11.23C9.16379 11.23 11.23 9.16379 11.23 6.615C11.23 4.06621 9.16379 2 6.615 2C4.06621 2 2 4.06621 2 6.615C2 9.16379 4.06621 11.23 6.615 11.23Z" fill="#0F6FFF"/>
</svg>
