<svg width="120" height="120" viewBox="0 0 120 120" fill="none" xmlns="http://www.w3.org/2000/svg">
<path d="M56.9752 90C63.2902 90 69.0141 87.9723 73.3935 84.1698L73.8982 83.7471V89.5772H92V78.4229H86.6113V41.5771H92V30.4229H73.8982V36.0833L73.3935 35.6602C68.9277 32.0278 63.2867 30 56.9752 30C40.4701 30 27 43.435 27 60.0001C27 76.5651 40.4701 90 56.9752 90ZM56.9752 78.0831C47.0412 78.0831 38.9561 69.8856 38.9561 59.9134C38.9561 49.9409 47.0375 41.8301 56.9752 41.8301C61.6899 41.8301 66.2352 43.7747 69.6052 47.1544C72.9719 50.6206 74.8246 55.0988 74.8246 59.9134C74.8246 69.8856 66.8263 78.0831 56.9752 78.0831Z" fill="white"/>
</svg>
