<svg width="120" height="120" viewBox="0 0 120 120" fill="none" xmlns="http://www.w3.org/2000/svg">
<path d="M51.2134 44C57.3417 44 63.4701 44 69.7841 44C69.7841 45.5321 69.7841 47.0642 69.7841 48.6427C65.1879 48.6427 60.5916 48.6427 55.8561 48.6427C55.8561 51.7069 55.8561 54.771 55.8561 57.9281C58.9202 57.9281 61.9844 57.9281 65.1415 57.9281C65.1415 59.4602 65.1415 60.9922 65.1415 62.5708C62.0773 62.5708 59.0131 62.5708 55.8561 62.5708C55.8561 65.6349 55.8561 68.6991 55.8561 71.8561C60.4523 71.8561 65.0486 71.8561 69.7841 71.8561C69.7841 73.3882 69.7841 74.9203 69.7841 76.4988C63.6558 76.4988 57.5274 76.4988 51.2134 76.4988C51.2134 65.7742 51.2134 55.0496 51.2134 44Z" fill="white"/>
<path d="M74.427 44C79.0233 44 83.6195 44 88.3551 44C88.3551 45.5321 88.3551 47.0642 88.3551 48.6427C85.2909 48.6427 82.2267 48.6427 79.0697 48.6427C79.0697 51.7069 79.0697 54.771 79.0697 57.9281C82.1339 57.9281 85.198 57.9281 88.3551 57.9281C88.3551 59.4602 88.3551 60.9922 88.3551 62.5708C85.2909 62.5708 82.2267 62.5708 79.0697 62.5708C79.0697 67.167 79.0697 71.7633 79.0697 76.4988C77.5376 76.4988 76.0055 76.4988 74.427 76.4988C74.427 65.7742 74.427 55.0496 74.427 44Z" fill="white"/>
<path d="M28 48.6428C29.5321 48.6428 31.0642 48.6428 32.6427 48.6428C32.6427 56.3033 32.6427 63.9637 32.6427 71.8563C31.1106 71.8563 29.5785 71.8563 28 71.8563C28 64.1958 28 56.5354 28 48.6428Z" fill="white"/>
<path d="M32.644 71.8562C37.2403 71.8562 41.8366 71.8562 46.5721 71.8562C46.5721 73.3883 46.5721 74.9204 46.5721 76.4989C41.9759 76.4989 37.3796 76.4989 32.644 76.4989C32.644 74.9668 32.644 73.4347 32.644 71.8562Z" fill="white"/>
<path d="M32.644 44C37.2403 44 41.8366 44 46.5721 44C46.5721 45.5321 46.5721 47.0642 46.5721 48.6427C41.9759 48.6427 37.3796 48.6427 32.644 48.6427C32.644 47.1106 32.644 45.5785 32.644 44Z" fill="white"/>
<path d="M88.3574 48.6428C89.8895 48.6428 91.4216 48.6428 93.0001 48.6428C93.0001 51.707 93.0001 54.7712 93.0001 57.9282C91.468 57.9282 89.9359 57.9282 88.3574 57.9282C88.3574 54.864 88.3574 51.7999 88.3574 48.6428Z" fill="white"/>
</svg>
