<svg width="120" height="120" viewBox="0 0 120 120" fill="none" xmlns="http://www.w3.org/2000/svg">
<mask id="mask0_10_4750" style="mask-type:luminance" maskUnits="userSpaceOnUse" x="17" y="17" width="86" height="86">
<path d="M103 17H17V103H103V17Z" fill="white"/>
</mask>
<g mask="url(#mask0_10_4750)">
<path d="M43.1384 41.7227C44.5878 43.172 44.5878 43.172 44.9501 45.8443C45.2219 48.7521 45.2219 48.7521 47.5681 50.3917C52.7315 53.4535 52.7315 53.4535 58.4021 53.2541C59.2265 52.919 60.0508 52.5748 60.8932 52.2305C63.2937 53.1546 65.0873 54.3955 67.2342 55.854C67.2342 57.9465 67.2342 60.039 67.2342 62.195C67.8502 62.4395 68.4662 62.6841 69.1003 62.9287C72.1258 64.1516 75.1151 65.4379 78.1045 66.7242C78.1045 62.5392 78.1045 58.3542 78.1045 54.0423C76.9087 53.4444 75.713 52.8465 74.4811 52.2305C74.1006 49.4224 73.9466 46.877 74.4811 44.0778C76.2475 41.8132 78.1226 40.5179 80.822 39.5486C83.2588 40.0559 83.2588 40.0559 85.3513 41.3603C86.5471 41.9581 87.7428 42.5561 88.9747 43.172C88.9747 46.1613 88.9747 49.1506 88.9747 52.2305C87.4801 52.8285 85.9854 53.4263 84.4455 54.0423C84.4455 58.2273 84.4455 62.4124 84.4455 66.7242C86.692 67.621 86.692 67.621 88.9747 68.5359C88.9747 71.5253 88.9747 74.5147 88.9747 77.5946C86.8369 79.0168 84.989 80.2577 82.6338 81.218C80.197 80.7107 80.197 80.7107 78.1045 79.4063C77.416 79.0348 76.7276 78.6634 76.0119 78.2739C74.4811 76.6887 74.481 76.6887 74.2546 73.799C74.327 72.9656 74.4086 72.1231 74.4811 71.2536C73.8651 71.009 73.2491 70.7734 72.615 70.5198C69.9518 69.4418 69.9518 69.4418 66.7813 67.8566C63.7466 66.371 63.7466 66.371 61.3462 67.6844C59.0815 68.5359 59.0815 68.5359 55.7389 67.2315C52.9942 65.5104 52.8039 65.1571 52.0067 61.7964C50.7204 57.9374 49.9233 57.6838 46.3995 55.9084C43.3377 54.468 43.3377 54.468 40.0585 54.0423C40.0585 58.2273 40.0585 62.4124 40.0585 66.7242C42.305 67.621 42.305 67.621 44.5878 68.5359C44.5878 71.5253 44.5878 74.5147 44.5878 77.5946C40.0404 80.4661 40.0404 80.4661 37.341 81.218C34.714 80.4389 33.2374 79.2704 31 77.5946C31 74.6052 31 71.6159 31 68.5359C32.4946 67.9381 33.9893 67.3403 35.5293 66.7242C35.5293 62.5392 35.5293 58.3542 35.5293 54.0423C33.2918 53.1455 33.2918 53.1455 31 52.2305C31 49.2413 31 46.2519 31 43.172C35.7738 39.5939 37.7939 39.0141 43.1384 41.7227Z" fill="#E0041B"/>
<path d="M62.0265 78.1622C64.5176 79.4122 64.5176 79.4122 67.2351 81.2239C67.9327 84.005 67.8421 86.5776 67.2351 89.3766C64.8528 91.7503 64.8528 91.7503 61.8001 93.0001C58.0861 92.8461 56.1113 91.9672 52.7415 90.2825C52.7415 87.2932 52.7415 84.2948 52.7415 81.2239C58.2944 77.4466 58.2944 77.4466 62.0265 78.1622Z" fill="white"/>
<path d="M63.6111 28.6797C65.7671 29.5856 65.7671 29.5856 67.2346 31.3973C67.5335 34.142 67.4429 36.8053 67.2346 39.55C65.0877 41.0084 63.285 42.2313 60.8936 43.1734C57.5147 42.5212 55.6034 41.4523 52.7409 39.55C52.4782 37.3941 52.4782 37.3941 52.5688 34.912C52.596 34.0786 52.6231 33.2544 52.6412 32.4119C52.6775 31.7778 52.7046 31.1437 52.7409 30.4915C56.772 28.0909 59.0638 27.2938 63.6111 28.6797Z" fill="white"/>
</g>
</svg>
