<svg width="120" height="120" viewBox="0 0 120 120" fill="none" xmlns="http://www.w3.org/2000/svg">
<mask id="mask0_10_4762" style="mask-type:luminance" maskUnits="userSpaceOnUse" x="28" y="51" width="65" height="18">
<path d="M93 51H28V68.7273H93V51Z" fill="white"/>
</mask>
<g mask="url(#mask0_10_4762)">
<path d="M92.9295 59.5657H88.9291C88.8369 58.8427 88.6301 58.3466 88.3083 58.0778C87.9863 57.7921 87.6262 57.6491 87.2276 57.6491C86.5533 57.6491 86.0399 57.9684 85.6874 58.6072C85.35 59.2463 85.1815 60.1793 85.1815 61.4066C85.1815 62.6171 85.3576 63.5416 85.7101 64.1806C86.0779 64.8195 86.6221 65.1388 87.3425 65.1388C87.7718 65.1388 88.1243 65.0044 88.4002 64.7352C88.6915 64.4495 88.8983 64.0377 89.0209 63.4997H92.9983C92.7378 65.2313 92.0786 66.526 91.0212 67.3834C89.9789 68.2408 88.7219 68.6695 87.2506 68.6695C85.9938 68.6695 84.9056 68.3752 83.9858 67.7867C83.0664 67.1816 82.3534 66.3411 81.8477 65.265C81.3418 64.189 81.0892 62.9028 81.0892 61.4066C81.0892 59.86 81.3418 58.5484 81.8477 57.4724C82.3688 56.3798 83.0894 55.5475 84.0089 54.9758C84.9286 54.4044 86.0014 54.1184 87.2276 54.1184C88.2084 54.1184 89.1052 54.3202 89.9177 54.7238C90.7298 55.127 91.3967 55.7325 91.9179 56.5394C92.4542 57.3465 92.7916 58.3552 92.9295 59.5657Z" fill="white"/>
<path d="M76.6743 68.7275L76.6897 55.2214H80.7285L80.709 68.7275H76.6743ZM76.6805 54.0484L76.6808 51.0301L80.7143 51.0273V54.0484H76.6805Z" fill="white"/>
<path d="M57.4203 68.694L57.4003 54.5852H61.5121V68.694H57.4203ZM61.5121 60.6264H60.5613C60.6405 59.1225 60.878 57.8952 61.2742 56.9447C61.6705 55.9765 62.1854 55.268 62.8191 54.8186C63.4529 54.3518 64.1738 54.1184 64.9819 54.1184C65.7108 54.1184 66.3764 54.3086 66.9786 54.6889C67.5804 55.0518 68.0558 55.6137 68.4044 56.3742C68.7531 57.1347 68.9274 58.1026 68.9274 59.2782V68.6919H64.7961L64.8155 60.1856C64.8155 59.615 64.76 59.1571 64.6492 58.8113C64.5384 58.4483 64.3721 58.1806 64.1501 58.0078C63.9283 57.8349 63.6588 57.7484 63.3421 57.7484C63.0727 57.7484 62.8271 57.8175 62.6052 57.9557C62.3834 58.094 62.1934 58.2929 62.0348 58.552C61.8764 58.7943 61.7496 59.0965 61.6545 59.4596C61.5597 59.8053 61.5121 60.1941 61.5121 60.6264ZM68.9274 60.6264H67.3588C67.438 59.1225 67.6915 57.8952 68.1193 56.9447C68.5472 55.9765 69.1097 55.268 69.8066 54.8186C70.5199 54.3518 71.32 54.1184 72.2072 54.1184C72.9837 54.1184 73.681 54.3086 74.2987 54.6889C74.9325 55.0518 75.4318 55.6137 75.7961 56.3742C76.1607 57.1347 76.3427 58.1026 76.3427 59.2782L76.3625 68.6919H72.2311V60.1856C72.2311 59.615 72.1756 59.1571 72.0645 58.8113C71.9537 58.4483 71.7874 58.1806 71.5655 58.0078C71.3439 57.8349 71.0744 57.7484 70.7574 57.7484C70.4883 57.7484 70.2425 57.8175 70.0206 57.9557C69.799 58.094 69.6087 58.2929 69.4503 58.552C69.2917 58.7943 69.1649 59.0965 69.0701 59.4596C68.9749 59.8053 68.9274 60.1941 68.9274 60.6264Z" fill="white"/>
<path d="M50.8234 68.6695C49.5297 68.6695 48.413 68.3752 47.4736 67.7867C46.5494 67.1985 45.8257 66.3661 45.3019 65.2901C44.7937 64.1975 44.5396 62.9028 44.5396 61.4066C44.5396 59.86 44.8014 58.5484 45.325 57.4724C45.8487 56.3798 46.5802 55.5475 47.5197 54.9758C48.4593 54.4044 49.5604 54.1184 50.8234 54.1184C52.1017 54.1184 53.2106 54.4209 54.1501 55.0263C55.0895 55.6148 55.8134 56.4554 56.3219 57.548C56.83 58.6241 57.0841 59.9102 57.0841 61.4066C57.0841 62.9533 56.8223 64.2646 56.2985 65.3407C55.7903 66.4167 55.0664 67.2404 54.127 67.8121C53.1874 68.3835 52.0863 68.6695 50.8234 68.6695ZM50.8234 65.1388C51.5165 65.1388 52.0478 64.8195 52.4174 64.1806C52.787 63.5416 52.9719 62.6171 52.9719 61.4066C52.9719 60.1793 52.787 59.2463 52.4174 58.6072C52.0478 57.9684 51.5165 57.6491 50.8234 57.6491C50.1148 57.6491 49.5759 57.9684 49.2062 58.6072C48.8366 59.2463 48.6518 60.1793 48.6518 61.4066C48.6518 62.6171 48.8366 63.5416 49.2062 64.1806C49.5759 64.8195 50.1148 65.1388 50.8234 65.1388Z" fill="white"/>
<path d="M40.1706 51H44.2801V68.6915H40.1706V51Z" fill="white"/>
<path d="M35.9621 51C36.337 53.9191 37.9344 56.4085 40.1708 57.8383L40.1708 68.6915C40.1441 68.6915 40.1172 68.6912 40.0901 68.6912C39.1848 66.0448 36.486 60.8847 32.1655 59.3492L31.9519 59.2771V51H35.9621Z" fill="white"/>
<path d="M28 59.2773H32.1095V68.6923H28V59.2773Z" fill="white"/>
</g>
</svg>
