<svg width="120" height="120" viewBox="0 0 120 120" fill="none" xmlns="http://www.w3.org/2000/svg">
<mask id="mask0_10_4774" style="mask-type:luminance" maskUnits="userSpaceOnUse" x="28" y="28" width="65" height="65">
<path d="M93 28H28V93H93V28Z" fill="white"/>
</mask>
<g mask="url(#mask0_10_4774)">
<path fill-rule="evenodd" clip-rule="evenodd" d="M84.0843 46.6225C83.7197 46.2567 83.2848 45.9685 82.8058 45.7753C82.3268 45.5821 81.8137 45.488 81.2974 45.4985H81.2811C80.5619 45.4989 79.8497 45.3573 79.1852 45.0821C78.5208 44.8067 77.9172 44.4031 77.409 43.8941C76.9008 43.3851 76.498 42.7809 76.2236 42.1161C75.9494 41.4512 75.8089 40.7388 75.8103 40.0196C75.8185 39.5148 75.7269 39.0132 75.5407 38.5439C75.3545 38.0745 75.0774 37.6466 74.7253 37.2847C74.3733 36.9228 73.9531 36.634 73.489 36.435C73.025 36.236 72.5262 36.1307 72.0213 36.125H41.1923C40.6876 36.1289 40.1886 36.2326 39.7242 36.4303C39.2597 36.6279 38.839 36.9156 38.4863 37.2766C38.1336 37.6377 37.8558 38.0649 37.669 38.5339C37.4822 39.0028 37.3901 39.5041 37.398 40.0088C37.3973 41.4631 36.8192 42.8576 35.7908 43.886C34.7625 44.9144 33.3679 45.4924 31.9136 45.4932V45.4985C31.4018 45.4873 30.893 45.5788 30.4172 45.7676C29.9415 45.9563 29.5083 46.2386 29.1435 46.5976C28.7786 46.9566 28.4895 47.3852 28.2931 47.858C28.0967 48.3306 27.997 48.8379 28.0001 49.3498V59.2135C27.9978 59.7248 28.0979 60.2312 28.2944 60.7031C28.491 61.175 28.78 61.6027 29.1444 61.9611C29.509 62.3196 29.9415 62.6014 30.4166 62.79C30.8917 62.9786 31.3998 63.0702 31.9109 63.0593C33.3631 63.0593 34.756 63.6353 35.7841 64.6609C36.8123 65.6865 37.3917 67.078 37.3953 68.5302V78.5321C37.3952 78.8125 37.4822 79.0861 37.6443 79.315C37.8065 79.5439 38.0356 79.7168 38.3001 79.8098C38.5648 79.9029 38.8517 79.9115 39.1214 79.8345C39.3911 79.7575 39.6302 79.5986 39.8057 79.3798L45.3605 72.4275H72.0186C72.5231 72.4233 73.0218 72.3193 73.4859 72.1215C73.9501 71.9236 74.3705 71.6359 74.7229 71.275C75.0753 70.9139 75.3529 70.4867 75.5395 70.018C75.7261 69.5493 75.8181 69.0482 75.8103 68.5438V68.5383C75.8103 65.505 78.2586 63.054 81.2974 63.054C81.8091 63.0663 82.3181 62.9757 82.7942 62.7878C83.2703 62.5997 83.7037 62.318 84.069 61.9594C84.4342 61.6008 84.7237 61.1724 84.9203 60.6998C85.1169 60.2272 85.2166 59.72 85.2136 59.2082V49.3417C85.2136 48.3585 84.8344 47.3754 84.0843 46.6225ZM77.5301 59.3165C77.5158 60.7616 76.9317 62.1427 75.9047 63.1596C74.8777 64.1764 73.4909 64.7468 72.0457 64.7467H41.1653C39.72 64.7468 38.3333 64.1764 37.3063 63.1596C36.2793 62.1427 35.6952 60.7616 35.6809 59.3165V49.2415C35.6958 47.797 36.2799 46.4167 37.3061 45.4001C38.3323 44.3836 39.7181 43.8126 41.1626 43.8112H72.0376C73.4831 43.8112 74.8701 44.3814 75.8975 45.3982C76.925 46.415 77.5097 47.7961 77.5246 49.2415V59.3165H77.5301Z" fill="white"/>
<path fill-rule="evenodd" clip-rule="evenodd" d="M48.0759 48.502C47.055 48.5013 46.0755 48.9059 45.3528 49.6271C44.6302 50.3483 44.2234 51.3269 44.222 52.3478V56.1991C44.222 57.2205 44.6277 58.2001 45.3499 58.9224C46.0722 59.6445 47.0518 60.0503 48.0732 60.0503C49.0946 60.0503 50.0742 59.6445 50.7965 58.9224C51.5187 58.2001 51.9245 57.2205 51.9245 56.1991V52.3478C51.9245 50.2245 50.202 48.4966 48.0732 48.4966L48.0759 48.502ZM65.1303 48.502C64.1093 48.502 63.1302 48.9074 62.408 49.629C61.6858 50.3507 61.2798 51.3296 61.279 52.3506V56.2018C61.279 57.2232 61.6848 58.2027 62.4071 58.925C63.1293 59.6473 64.1089 60.0531 65.1303 60.0531C66.1517 60.0531 67.1313 59.6473 67.8535 58.925C68.5758 58.2027 68.9815 57.2232 68.9815 56.2018V52.3478C68.9815 50.2245 67.259 48.4966 65.1303 48.4966V48.502Z" fill="white"/>
<path fill-rule="evenodd" clip-rule="evenodd" d="M47.7493 89.3246L53.147 82.5755H79.8078C80.3122 82.5709 80.8108 82.4667 81.2747 82.2687C81.7387 82.0708 82.1589 81.7831 82.5114 81.4222C82.8637 81.0612 83.1413 80.6341 83.328 80.1656C83.5148 79.697 83.607 79.1961 83.5995 78.6918C83.5981 77.24 84.1723 75.8469 85.1962 74.8179C86.2203 73.7888 87.6105 73.2077 89.0622 73.2019H89.0893C89.6009 73.2147 90.1098 73.1244 90.5857 72.9365C91.0614 72.7485 91.4952 72.4667 91.8595 72.108C92.2245 71.7492 92.514 71.3206 92.7098 70.8479C92.9055 70.3752 93.0046 69.8678 93 69.3561V59.6224C93 58.6907 92.6939 57.7807 92.1225 57.0468L91.0477 55.6411V66.8184C91.0493 67.3295 90.9487 67.8358 90.7522 68.3075C90.5556 68.7793 90.2666 69.2068 89.9022 69.5652C89.5378 69.9236 89.1054 70.2054 88.6304 70.3941C88.1555 70.5829 87.6476 70.6747 87.1366 70.6643H87.1177C85.6666 70.6699 84.2769 71.2503 83.2527 72.2781C82.2284 73.3058 81.6529 74.6976 81.6522 76.1486C81.6597 76.6537 81.5673 77.1553 81.3803 77.6245C81.1933 78.0938 80.9153 78.5214 80.5625 78.8828C80.2096 79.2443 79.7887 79.5324 79.3241 79.7306C78.8595 79.9288 78.3603 80.0332 77.8552 80.0378H51.197L45.3227 87.3828C45.0918 87.7067 44.9938 88.1066 45.0488 88.5006C45.1039 88.8944 45.3079 89.2522 45.6188 89.5004C45.9297 89.7484 46.3238 89.8679 46.7202 89.8342C47.1164 89.8006 47.4847 89.6162 47.7493 89.3193V89.3246Z" fill="url(#paint0_linear_10_4774)"/>
<path fill-rule="evenodd" clip-rule="evenodd" d="M41.5531 82.1449L47.2948 74.9679H73.9556C74.4611 74.9636 74.9607 74.8594 75.4256 74.6612C75.8906 74.4629 76.3117 74.1746 76.6647 73.8128C77.0177 73.451 77.2956 73.0229 77.4823 72.5531C77.669 72.0835 77.7609 71.5814 77.7527 71.076C77.7527 68.0535 80.1902 65.6024 83.2073 65.5916H83.2398C83.7512 65.6025 84.2596 65.5108 84.7349 65.3217C85.2102 65.1328 85.6429 64.8504 86.0072 64.4914C86.3716 64.1324 86.6602 63.7039 86.8561 63.2314C87.052 62.7589 87.1513 62.2519 87.1479 61.7404V50.5549L88.5562 52.3966C89.125 53.136 89.4337 54.0406 89.4337 54.9696V64.7033C89.4352 65.214 89.3347 65.72 89.1381 66.1913C88.9415 66.6627 88.6527 67.09 88.2886 67.4483C87.9246 67.8065 87.4927 68.0885 87.0182 68.2775C86.5437 68.4665 86.0363 68.5589 85.5256 68.5491H85.4985C84.048 68.5563 82.6592 69.1375 81.6361 70.1658C80.6129 71.1941 80.0385 72.5856 80.0385 74.0362C80.046 74.5411 79.9536 75.0426 79.7666 75.5117C79.5795 75.9808 79.3015 76.4082 78.9486 76.7694C78.5957 77.1307 78.1748 77.4185 77.7102 77.6165C77.2456 77.8143 76.7464 77.9184 76.2415 77.9227H49.586L44.3968 84.4227C44.0956 84.7994 43.6569 85.0411 43.1774 85.0943C42.6979 85.1477 42.2169 85.0084 41.8402 84.7071C41.4634 84.4057 41.2218 83.967 41.1685 83.4876C41.1152 83.0081 41.2545 82.5271 41.5558 82.1504L41.5531 82.1449Z" fill="url(#paint1_linear_10_4774)"/>
</g>
<defs>
<linearGradient id="paint0_linear_10_4774" x1="120.11" y1="47.7788" x2="30.9414" y2="103.061" gradientUnits="userSpaceOnUse">
<stop stop-color="#46A6F7"/>
<stop offset="1" stop-color="#8364FF"/>
</linearGradient>
<linearGradient id="paint1_linear_10_4774" x1="41.312" y1="91.6757" x2="93.9213" y2="53.6316" gradientUnits="userSpaceOnUse">
<stop stop-color="#FF44D3"/>
<stop offset="1" stop-color="#CF4BFF"/>
</linearGradient>
</defs>
</svg>
