<svg width="120" height="120" viewBox="0 0 120 120" fill="none" xmlns="http://www.w3.org/2000/svg">
<rect width="120" height="120" fill="black"/>
<path d="M23 23C47.75 23 72.5 23 98 23C98 47.75 98 72.5 98 98C73.25 98 48.5 98 23 98C23 73.25 23 48.5 23 23Z" fill="#1866C0"/>
<path d="M23 23C47.75 23 72.5 23 98 23C98 47.75 98 72.5 98 98C73.25 98 48.5 98 23 98C23 73.25 23 48.5 23 23ZM58.8337 24.6204C58.6161 24.7547 58.3983 24.8891 58.174 25.0273C57.9264 25.1802 57.6788 25.3329 57.4238 25.4903C56.8238 25.84 56.2225 26.1878 55.6203 26.5339C55.2948 26.7214 54.9695 26.9089 54.6343 27.1022C53.606 27.6927 52.5763 28.2809 51.5462 28.8684C50.2791 29.5917 49.0152 30.32 47.7558 31.0567C46.1513 31.9953 44.5379 32.9183 42.9231 33.8392C41.9445 34.3984 40.9679 34.9606 39.9922 35.5244C38.67 36.2883 37.3453 37.0477 36.0188 37.804C34.1627 38.8637 32.3126 39.9333 30.4707 41.0176C30.2022 41.1728 29.9337 41.328 29.657 41.4879C29.0023 41.8368 29.0023 41.8367 28.7129 42.3359C28.6716 48.3844 28.6546 54.4331 28.6487 60.4817C28.643 63.8408 28.6372 67.2002 28.631 70.6612C28.0192 75.4571 28.0192 75.4571 29.4453 79.3965C30.009 79.7438 30.581 80.0777 31.1574 80.4036C31.4993 80.5981 31.8412 80.7925 32.1937 80.9928C32.5434 81.1912 32.8934 81.3894 33.2539 81.5937C33.8891 81.9594 34.5237 82.3256 35.1582 82.6924C35.6296 82.9642 35.6296 82.9642 36.1103 83.2417C38.9668 84.8897 38.9668 84.8897 39.9177 85.4384C40.5563 85.8067 41.1948 86.1747 41.8335 86.5427C43.6618 87.5962 45.4864 88.6555 47.3083 89.7197C48.8705 90.6297 50.4374 91.5311 52.0039 92.4336C52.9517 92.9802 53.8994 93.5272 54.8472 94.0742C55.5257 94.4658 56.2043 94.8567 56.8832 95.2475C57.3999 95.545 57.3999 95.545 57.9274 95.8483C58.2413 96.0292 58.5554 96.21 58.879 96.3958C59.2783 96.6283 59.676 96.865 60.0606 97.1208C61.1911 97.1208 61.6912 96.7375 62.6607 96.16C63.1716 95.8583 63.1716 95.8583 63.6929 95.55C64.0411 95.3433 64.3893 95.1367 64.7481 94.9242C65.3822 94.5567 66.017 94.19 66.6523 93.8252C66.9661 93.6442 67.28 93.4631 67.6033 93.2765C68.2418 92.9082 68.8803 92.5401 69.5191 92.1721C71.0559 91.2865 72.5914 90.3985 74.1231 89.5039C75.9745 88.4226 77.8316 87.3515 79.6894 86.2812C80.3243 85.915 80.959 85.5488 81.5937 85.1826C82.8633 84.4502 84.1327 83.7177 85.4023 82.9853C85.7132 82.8057 86.024 82.6262 86.3442 82.4412C87.0123 82.0562 87.6815 81.673 88.3515 81.2911C88.8585 81.0013 88.8585 81.0013 89.3757 80.7058C89.6813 80.5318 89.9868 80.3578 90.3015 80.1788C91.5293 79.5216 91.5293 79.5216 92.4336 78.5176C92.468 72.4965 92.4865 66.4754 92.4977 60.4543C92.5065 57.1073 92.5155 53.7602 92.5246 50.3118C92.4945 47.6798 92.4645 45.0478 92.4336 42.3359C91.5923 41.6348 90.7836 41.1365 89.8335 40.5964C89.4929 40.4019 89.1522 40.2075 88.8013 40.0072C88.453 39.8087 88.1048 39.6106 87.7461 39.4062C87.1111 39.0405 86.4763 38.6742 85.8418 38.3076C85.5272 38.1261 85.2127 37.9447 84.8885 37.7578C84.2574 37.3936 83.6265 37.0293 82.9956 36.6648C81.3587 35.7194 79.7199 34.7771 78.0782 33.8398C76.1215 32.7229 74.1697 31.5977 72.2187 30.4707C71.584 30.1045 70.9493 29.7382 70.3144 29.3721C70.0007 29.191 69.6867 29.01 69.3635 28.8233C68.7249 28.4551 68.0864 28.087 67.4478 27.719C67.1309 27.5363 66.8141 27.3538 66.4876 27.1657C66.1764 26.987 65.8652 26.8084 65.5447 26.6243C64.9001 26.2497 64.2594 25.8687 63.6219 25.4822C63.3107 25.2945 62.9996 25.1069 62.6789 24.9134C62.2615 24.6576 62.2615 24.6576 61.8355 24.3967C60.6121 23.7906 59.9627 23.9047 58.8337 24.6204Z" fill="black"/>
<path d="M31.9355 45.998C32.86 46.3677 33.6811 46.8567 34.5447 47.353C34.9135 47.5648 35.2824 47.7768 35.6622 47.995C37.2061 48.887 38.7461 49.785 40.2851 50.6855C40.8961 50.8803 41.5072 51.0753 42.1368 51.276C43.8007 52.7363 43.8007 52.7363 44.1441 56.3651C44.1032 57.7961 44.0625 59.227 44.0205 60.7014C43.9887 62.1376 43.957 63.5738 43.9244 65.0536C43.8835 66.1613 43.8428 67.2689 43.8007 68.4101C42.834 68.9419 41.8671 69.4736 40.871 70.0215C40.3018 70.3481 39.7339 70.6773 39.1682 71.0102C37.5741 71.9454 35.9736 72.8691 34.3708 73.7895C33.8675 74.0827 33.3685 74.3842 32.8785 74.6993C32.375 75.0019 32.375 75.0019 31.9355 75.0019C31.9355 65.4306 31.9355 55.8593 31.9355 45.998Z" fill="black"/>
<path d="M58.8887 28.5664C58.8887 33.062 58.8887 37.5576 58.8887 42.1894C56.8584 43.3496 56.8584 43.3496 54.7871 44.5332C50.6308 46.8952 50.6308 46.8952 46.5371 49.3627C45.7051 49.8067 45.7051 49.8067 44.8262 49.6602C44.2996 49.3782 43.7819 49.0795 43.2698 48.7722C41.9396 47.9819 40.6047 47.2024 39.2598 46.4375C37.3971 45.3755 35.5432 44.299 33.6934 43.2148C34.3221 42.5862 35.0542 42.2269 35.8265 41.7866C36.1707 41.5897 36.5149 41.3927 36.8698 41.1898C37.2234 40.988 37.5769 40.7862 37.9414 40.5782C38.5826 40.2092 39.2234 39.84 39.864 39.4704C40.1787 39.2889 40.4932 39.1074 40.8174 38.9205C41.7154 38.4009 42.6119 37.8787 43.5079 37.3555C45.6794 36.0872 47.8587 34.8328 50.0379 33.5777C54.147 31.2192 54.147 31.2192 58.21 28.7827C58.5957 28.5664 58.5957 28.5664 58.8887 28.5664Z" fill="black"/>
<path d="M45.2657 71.1934C46.1839 71.5608 46.9987 72.0458 47.8567 72.5393C48.2254 72.7511 48.5942 72.9629 48.974 73.1812C49.3455 73.3954 49.717 73.6095 50.0996 73.8301C50.4243 74.017 50.7489 74.2039 51.0833 74.3965C51.7078 74.7566 52.332 75.1169 52.9561 75.4774C53.6209 75.8615 54.2863 76.2448 54.9519 76.6277C55.2903 76.8224 55.6287 77.017 55.9774 77.2175C56.2829 77.3932 56.5883 77.5689 56.9031 77.7497C57.5721 78.1401 58.2319 78.5464 58.8887 78.957C58.9744 81.2169 58.9867 83.4798 58.9619 85.741C58.9514 86.9853 58.9409 88.2295 58.9299 89.5114C58.9163 90.4757 58.9028 91.44 58.8887 92.4336C57.9272 92.1131 57.1639 91.6729 56.2886 91.1609C55.9483 90.9628 55.608 90.7644 55.2575 90.5602C54.9089 90.3566 54.5604 90.1532 54.2012 89.9434C53.5604 89.5738 52.9198 89.2045 52.2786 88.8357C50.7709 87.9659 49.2669 87.0899 47.7639 86.212C46.2019 85.302 44.6349 84.4004 43.0684 83.4981C40.885 82.2405 38.7048 80.9783 36.5292 79.7072C35.5871 79.1586 34.6419 78.6158 33.6934 78.0782C33.6934 77.9814 33.6934 77.8848 33.6934 77.7852C33.95 77.6435 34.2067 77.5019 34.4711 77.3559C36.1501 76.4269 37.8259 75.4956 39.4755 74.515C40.9583 73.6386 42.4525 72.7817 43.9473 71.9258C44.1875 71.7773 44.4276 71.6286 44.6752 71.4755C44.87 71.3824 45.0649 71.2894 45.2657 71.1934Z" fill="black"/>
<path d="M75.5879 71.1934C76.5123 71.5631 77.3336 72.0521 78.1971 72.5484C78.5659 72.7602 78.9347 72.9721 79.3146 73.1904C80.8584 74.0824 82.3986 74.9803 83.9375 75.8809C84.5966 76.2655 85.2558 76.6501 85.915 77.0344C86.4277 77.3336 86.9404 77.6325 87.4531 77.9317C86.8748 78.51 86.2373 78.8252 85.5212 79.2225C84.3028 79.9041 83.0911 80.5946 81.8867 81.3008C80.4678 82.1315 79.0393 82.9434 77.6066 83.7499C76.7342 84.245 75.8675 84.749 75.0019 85.2559C73.8596 85.9247 72.7131 86.5842 71.5596 87.2334C69.8151 88.2156 68.0876 89.2259 66.3593 90.2364C65.6578 90.6461 64.9561 91.055 64.2536 91.4632C63.9353 91.6486 63.6169 91.834 63.2889 92.0251C62.5507 92.4336 62.5507 92.4336 62.2578 92.4336C62.2578 87.938 62.2578 83.4424 62.2578 78.8106C64.0706 77.7954 64.0706 77.7954 65.9199 76.7598C66.7862 76.2556 67.6524 75.7514 68.5171 75.2445C70.1835 74.2728 71.8611 73.3205 73.5371 72.3653C73.9008 72.1428 74.2644 71.9204 74.6391 71.6911C74.9523 71.5269 75.2653 71.3626 75.5879 71.1934Z" fill="black"/>
<path d="M89.0653 45.998C89.0653 55.521 89.0653 65.0439 89.0653 74.8555C88.074 74.6572 87.3675 74.1826 86.4928 73.6745C86.1257 73.4622 85.7586 73.25 85.3804 73.0313C85.0011 72.8114 84.6221 72.5916 84.2314 72.3652C83.5206 71.9589 82.8096 71.553 82.0982 71.1476C80.5105 70.2415 78.9288 69.3261 77.3465 68.4101C77.0079 64.8654 77.0079 64.8654 77.0536 60.5456C77.0567 59.1192 77.0596 57.6926 77.0627 56.2228C77.1565 55.0723 77.25 53.9216 77.3465 52.7363C78.5709 51.983 79.7906 51.245 81.0362 50.53C81.3652 50.3407 81.6944 50.1515 82.0335 49.9565C82.3721 49.762 82.7107 49.5675 83.0595 49.3671C83.731 48.9797 84.4023 48.5921 85.0736 48.2044C85.6717 47.8595 86.2698 47.5147 86.8681 47.1699C87.0956 47.0385 87.3232 46.9071 87.5576 46.7716C87.7439 46.6644 87.9304 46.5571 88.1223 46.4465C88.3537 46.3132 88.3537 46.3132 88.5899 46.1771C88.9189 45.998 88.9189 45.998 89.0653 45.998Z" fill="black"/>
<path d="M62.2588 28.5664C65.0726 30.1012 67.8441 31.7101 70.6107 33.3283C72.1687 34.2376 73.7327 35.1367 75.2959 36.0371C77.4413 37.2728 79.5842 38.5127 81.7217 39.7622C83.0223 40.5194 84.3278 41.2681 85.6333 42.0166C86.2065 42.3523 86.763 42.6896 87.3076 43.0683C86.6478 43.7282 85.8577 44.1022 85.0461 44.5607C84.4917 44.8751 84.4917 44.8751 83.9259 45.1957C83.3521 45.5203 83.3521 45.5203 82.7666 45.8516C82.0552 46.257 81.3442 46.6629 80.6335 47.0692C80.1296 47.3558 80.1296 47.3558 79.6154 47.6483C79.0135 47.9947 78.4146 48.3467 77.8198 48.7057C77.4496 48.9289 77.4496 48.9289 77.072 49.1566C76.8609 49.2867 76.6498 49.4168 76.4323 49.5509C75.8231 49.834 75.6274 49.8799 75.0029 49.6602C74.6352 49.4697 74.2757 49.2629 73.9226 49.0467C73.7023 48.9138 73.4818 48.7809 73.2548 48.6438C73.0098 48.4959 72.7651 48.3478 72.5126 48.1953C71.9549 47.8677 71.3963 47.5412 70.8372 47.2156C70.39 46.9549 70.39 46.9549 69.9338 46.6887C68.6864 45.9641 67.4356 45.2451 66.1841 44.5275C64.8682 43.7607 63.5646 42.973 62.2588 42.1894C61.9727 39.0377 61.9727 39.0377 62.0756 35.2681C62.1021 34.0196 62.1286 32.7709 62.1558 31.4847C62.1898 30.5217 62.2237 29.5586 62.2588 28.5664Z" fill="black"/>
<path d="M47.0234 54.7871C47.9418 55.1545 48.7565 55.6395 49.6144 56.133C49.9824 56.3444 50.3504 56.5559 50.7297 56.7738C51.2879 57.0956 51.2879 57.0956 51.8574 57.4239C52.1888 57.6141 52.5203 57.8045 52.8616 58.0007C53.7976 58.5389 54.7329 59.0779 55.666 59.6211C56.2318 59.8159 56.7975 60.0109 57.3804 60.2116C58.8887 61.5254 58.8887 61.5254 59.2034 64.6594C59.166 65.888 59.1286 67.1167 59.0901 68.3826C59.0609 69.6164 59.0319 70.8499 59.0019 72.1209C58.9646 73.0716 58.9272 74.0224 58.8887 75.0019C57.8959 74.8034 57.2101 74.318 56.3435 73.7934C54.7996 72.8669 53.2455 71.9658 51.6755 71.0847C50.4415 70.3865 49.2187 69.6697 47.9957 68.9526C47.5152 68.6709 47.5152 68.6709 47.0234 68.4102C47.0234 63.9146 47.0234 59.4189 47.0234 54.7871Z" fill="black"/>
<path d="M60.3535 44.9727C61.278 45.3424 62.0992 45.8313 62.9627 46.3277C63.3316 46.5394 63.7004 46.7514 64.0803 46.9697C65.624 47.8616 67.1643 48.7596 68.7032 49.6602C69.3623 50.0448 70.0215 50.4293 70.6807 50.8137C71.1933 51.1128 71.7061 51.4118 72.2187 51.7109C71.4863 52.4433 70.7056 52.8502 69.8018 53.3589C69.4338 53.567 69.0657 53.7751 68.6866 53.9895C68.3052 54.2044 67.924 54.4192 67.5312 54.6407C66.8137 55.049 66.0966 55.4578 65.3797 55.8674C65.0438 56.059 64.7079 56.2507 64.3618 56.4482C63.367 57.0204 62.3795 57.6037 61.3972 58.1968C60.9394 58.4492 60.9394 58.4492 60.3535 58.5957C59.7813 58.3012 59.2217 57.9821 58.6689 57.6527C58.3266 57.4507 57.9842 57.2489 57.6316 57.0411C57.2729 56.8289 56.9143 56.6168 56.5449 56.3984C55.8529 56.0004 55.1602 55.6036 54.4666 55.2082C54.1297 55.0157 53.7927 54.8234 53.4453 54.6252C51.1362 53.2723 51.1362 53.2723 48.7812 52.0039C48.7812 51.9072 48.7812 51.8106 48.7812 51.7109C49.0332 51.5672 49.285 51.4235 49.5446 51.2754C51.3024 50.272 53.0596 49.2677 54.8147 48.2595C55.1224 48.0827 55.4302 47.9058 55.7473 47.7237C57.0527 46.958 58.335 46.1553 59.6148 45.3475C59.8586 45.2237 60.1023 45.1001 60.3535 44.9727Z" fill="black"/>
<path d="M73.9766 54.7871C74.0276 57.0086 74.0647 59.2303 74.0955 61.4522C74.1176 62.6894 74.1397 63.9266 74.1626 65.2013C74.1012 66.2119 74.0398 67.2225 73.9766 68.2637C72.7553 69.0153 71.5393 69.7496 70.2961 70.4609C68.5926 71.44 66.9001 72.4364 65.2115 73.441C64.9136 73.6177 64.6156 73.7945 64.3086 73.9766C63.8253 74.2644 63.8253 74.2644 63.3324 74.5579C62.5507 75.0019 62.5507 75.0019 62.2578 75.0019C62.2578 70.5064 62.2578 66.0108 62.2578 61.3789C63.5146 60.6539 64.7715 59.9288 66.0664 59.1817C67.3741 58.4189 67.3741 58.4189 68.6814 57.6556C73.6049 54.7871 73.6049 54.7871 73.9766 54.7871Z" fill="black"/>
</svg>
