<svg width="120" height="120" viewBox="0 0 120 120" fill="none" xmlns="http://www.w3.org/2000/svg">
<g clip-path="url(#clip0_1_54)">
<path d="M53.8727 52.3988H40.9377V40.0948H51.3458C52.7352 40.0948 53.87 38.9573 53.87 37.5706V27.1571H66.1767V40.0948C66.177 41.7109 65.8589 43.3113 65.2406 44.8044C64.6222 46.2975 63.7156 47.6541 62.5728 48.7968C61.4299 49.9394 60.073 50.8456 58.5798 51.4637C57.0865 52.0817 55.4861 52.3995 53.87 52.3988H53.8727ZM40.9377 53.6636H28V65.9675H38.4135C39.8002 65.9675 40.9377 67.105 40.9377 68.4917V78.9052H53.2417V65.9675C53.242 64.3516 52.924 62.7515 52.3058 61.2586C51.6876 59.7656 50.7813 58.4091 49.6387 57.2665C48.4961 56.1239 47.1396 55.2176 45.6467 54.5994C44.1537 53.9812 42.5536 53.6632 40.9377 53.6636ZM82.3021 53.0271C81.6333 53.025 80.9925 52.7583 80.5196 52.2854C80.0467 51.8125 79.7801 51.1717 79.7779 50.5029V40.0948H67.474V53.0271C67.4732 54.6432 67.791 56.2436 68.409 57.7369C69.0271 59.2301 69.9333 60.587 71.076 61.7299C72.2186 62.8728 73.5752 63.7793 75.0683 64.3977C76.5615 65.016 78.1618 65.3341 79.7779 65.3338H92.7156V53.0325H82.3021V53.0271ZM54.5065 78.9079V91.8457H66.8131V81.4321C66.8131 80.0427 67.9506 78.9079 69.3373 78.9079H79.7508V66.5959H66.8104C65.1941 66.5951 63.5935 66.913 62.1 67.5312C60.6066 68.1494 59.2496 69.0559 58.1067 70.1988C56.9638 71.3417 56.0573 72.6987 55.4391 74.1921C54.8209 75.6856 54.503 77.2862 54.5038 78.9025L54.5065 78.9079Z" fill="#F0529C"/>
</g>
<defs>
<clipPath id="clip0_1_54">
<rect width="65" height="65" fill="white" transform="translate(28 27)"/>
</clipPath>
</defs>
</svg>
