<svg width="120" height="120" viewBox="0 0 120 120" fill="none" xmlns="http://www.w3.org/2000/svg">
<mask id="mask0_1_987" style="mask-type:luminance" maskUnits="userSpaceOnUse" x="27" y="27" width="65" height="65">
<path d="M92 27H27V92H92V27Z" fill="white"/>
</mask>
<g mask="url(#mask0_1_987)">
<path fill-rule="evenodd" clip-rule="evenodd" d="M27 39.675L50.3188 27L60.0227 32.4275L68.4185 27.7285L92 40.9208V64.486L82.2987 69.9135V79.3088L59.6029 92L36.6308 79.7583V69.3393L27 64.6458V39.675ZM30.4775 43.6617V51.6079L51.9708 62.7067L51.8842 66.5498L30.4775 55.4998V62.6985L57.6773 77.0608V58.8771L30.4775 43.6617ZM59.5677 55.9358L86.085 41.5004L78.9621 37.5192L58.9258 48.7235L55.5377 46.7302L75.4873 35.5718L68.4185 31.6177L41.8606 46.0802L59.5677 55.9385V55.9358ZM38.375 44.1383L56.5452 34.3721L50.3188 30.8892L32.135 40.6663L38.375 44.1383ZM68.275 83.2575L61.1846 87.2252V59.3375L78.8212 49.4738V77.3642L71.7525 81.3183V58.999L68.2777 60.846V83.2629L68.275 83.2575ZM40.1083 71.2867L57.6773 80.95V86.9896L40.1083 77.8165V71.2894V71.2867ZM88.5225 62.5388V44.0408L82.2987 47.5292V66.0244L88.5225 62.5415V62.5388Z" fill="black"/>
</g>
</svg>
