<svg width="120" height="120" viewBox="0 0 120 120" fill="none" xmlns="http://www.w3.org/2000/svg">
<mask id="mask0_1_995" style="mask-type:luminance" maskUnits="userSpaceOnUse" x="27" y="27" width="65" height="65">
<path d="M92 27H27V92H92V27Z" fill="white"/>
</mask>
<g mask="url(#mask0_1_995)">
<path d="M85.8107 42.1937L75.0234 48.45C74.6537 48.6612 74.2355 48.7722 73.81 48.7722C73.3843 48.7722 72.9662 48.6612 72.5967 48.45L60.6909 41.5817C60.3209 41.37 59.9022 41.2587 59.4762 41.2587C59.0499 41.2587 58.6312 41.37 58.2615 41.5817L46.38 48.45C46.0105 48.6612 45.5922 48.7722 45.1666 48.7722C44.741 48.7722 44.3228 48.6612 43.9533 48.45L33.1633 42.2127L59.5047 27L85.8107 42.1937Z" fill="#5BCA87"/>
<path d="M77.4853 52.6399C77.1227 52.8536 76.8226 53.1586 76.6143 53.5245C76.4063 53.8904 76.2974 54.3045 76.2991 54.7253V68.462C76.2972 68.8845 76.1848 69.2989 75.9735 69.6648C75.762 70.0304 75.4589 70.3348 75.0939 70.5474L63.1014 77.3453C62.7314 77.5569 62.4245 77.8637 62.2127 78.2337C62.0007 78.6037 61.8915 79.0234 61.8961 79.4497V91.9267L73.8914 85.0587L88.2726 76.8063V46.3836L77.4853 52.6399Z" fill="#EC5D3E"/>
<path d="M56.7371 78.2986C56.5464 77.9162 56.2624 77.5882 55.9111 77.3452L43.9158 70.5311C43.5615 70.3136 43.2683 70.0097 43.0641 69.6476C42.8599 69.2855 42.7513 68.8774 42.7485 68.4619V54.709C42.7401 54.2903 42.6228 53.881 42.4082 53.5215C42.1935 53.162 41.8889 52.8646 41.5244 52.6587L40.3029 51.9545L30.7371 46.3862V76.8063L45.121 85.0586L57.1326 92V79.5201C57.1144 79.0853 56.9776 78.6609 56.7371 78.2986Z" fill="#2464F5"/>
</g>
</svg>
