<svg width="120" height="120" viewBox="0 0 120 120" fill="none" xmlns="http://www.w3.org/2000/svg">
<path d="M77.3307 54.4326C76.0568 52.5527 74.701 50.7286 73.2672 48.9657C73.2672 48.9657 68.0441 42.9221 68.9146 34C68.9146 34 48.8926 41.7704 48.6034 57.5994C48.6034 57.5994 45.7012 52.9942 46.281 44.3605C46.281 44.3605 39.8982 50.4041 39.0276 60.1895C32.934 62.203 28 67.3832 28 72.5635C28 79.7588 35.8347 85.8024 45.1198 85.8024C38.1556 84.6507 32.9325 80.0471 32.9325 74.2902C32.9325 70.2617 35.2549 67.0965 38.737 64.7931C38.9308 66.9053 39.4142 69.2076 40.1873 71.7001C40.1873 71.7001 43.6694 82.6372 55.8567 85.5141C59.3388 86.3774 63.1116 86.0907 66.5937 84.6507C70.3665 82.9239 74.7191 79.4705 74.7191 71.7001C74.7191 71.7001 75.0083 63.9297 70.365 59.9012C70.365 59.9012 76.4601 74.2902 65.1419 78.6071C61.3701 80.0465 57.5983 80.0465 53.8265 78.6071C48.8926 76.5936 42.7989 71.4134 43.6694 57.8861C43.6694 57.8861 46.5717 67.6716 52.956 71.4134C52.956 71.4134 47.1515 54.721 64.2714 43.2088C64.2714 43.2088 65.7232 49.2524 69.7851 52.7059C70.9464 53.8576 81.3926 61.9163 79.3609 75.7302C81.3926 73.1401 83.1337 66.8082 81.3926 61.9163C81.3926 61.9163 81.1019 60.7646 80.2314 59.3262C84.584 60.1895 88.0661 63.643 88.3568 71.4134C88.6475 78.032 83.7135 83.5006 77.3307 85.8024C86.0359 84.6507 93 78.032 93 69.6866C93 61.6279 86.6158 55.0093 77.3307 54.4326Z" fill="url(#paint0_linear_1_1036)"/>
<defs>
<linearGradient id="paint0_linear_1_1036" x1="60.6681" y1="50.1684" x2="60.5534" y2="76.7828" gradientUnits="userSpaceOnUse">
<stop stop-color="#F7B52C"/>
<stop offset="1" stop-color="#E95513"/>
</linearGradient>
</defs>
</svg>
