<svg width="120" height="120" viewBox="0 0 120 120" fill="none" xmlns="http://www.w3.org/2000/svg">
<path d="M84.8617 32.1785C86.1969 32.1901 87.5261 32.2019 88.8965 32.2078C90.4306 32.2312 90.4306 32.2312 92 32.2487C92 35.1532 92 38.046 92 41.0325C86.9757 41.0325 81.9514 41.0325 76.7748 41.0325C76.7748 43.937 76.7748 46.8356 76.7748 49.8163C81.7991 49.8163 86.8234 49.8163 92 49.8163C92 52.5276 92 55.233 92 58.0146C86.9757 58.0146 81.9514 58.0146 76.7748 58.0146C76.7748 65.1704 76.7748 72.3204 76.7748 79.6812C81.7991 79.6812 86.8234 79.6812 92 79.6812C92 82.5799 92 85.4843 92 88.465C70.55 88.465 49.0999 88.465 27 88.465C27 85.5722 27 82.6678 27 79.6812C31.8311 79.6812 36.6621 79.6812 41.6396 79.6812C41.6396 72.5312 41.6396 65.3813 41.6396 58.0146C37.5815 58.0146 33.5234 58.0146 29.3423 58.0146C29.3423 55.3091 29.3423 52.6037 29.3423 49.8163C36.4923 49.8163 43.6424 49.8163 51.0091 49.8163C51.0091 59.6718 51.0091 69.5271 51.0091 79.6812C56.4198 79.6812 61.8307 79.6812 67.4054 79.6812C67.4054 72.5312 67.4054 65.3813 67.4054 58.0146C64.1203 58.0146 60.8351 58.0146 57.4504 58.0146C57.4504 55.3091 57.4504 52.6037 57.4504 49.8163C60.7355 49.8163 64.0208 49.8163 67.4054 49.8163C67.3586 48.6569 67.3059 47.4974 67.2589 46.3028C67.2766 42.0515 67.9031 39.4632 70.8428 36.3713C75.223 32.3249 78.9122 32.1199 84.8617 32.1785Z" fill="#0235FF"/>
<path d="M48.0779 32.2516C50.1802 33.212 50.8829 33.8268 52.177 35.7651C52.4288 38.8688 52.4758 40.8772 50.4203 43.3777C48.2067 44.7538 46.5672 44.6777 44.0549 44.3088C42.8076 43.9633 42.8076 43.9633 41.3086 42.8273C40.0964 40.2449 39.9441 37.9786 40.4653 35.1795C42.4446 32.0876 44.6348 31.6016 48.0779 32.2516Z" fill="#0638FF"/>
</svg>
