<svg width="120" height="120" viewBox="0 0 120 120" fill="none" xmlns="http://www.w3.org/2000/svg">
<path fill-rule="evenodd" clip-rule="evenodd" d="M68.0833 44L60.4973 62.12L52.9031 44H48.0335L56.3535 63.808C56.6859 64.6136 57.2546 65.3034 57.9872 65.7891C58.7195 66.2749 59.5824 66.5347 60.4656 66.5352C61.3488 66.536 62.2122 66.2774 62.9451 65.7923C63.6782 65.3075 64.2481 64.6184 64.5815 63.8134L72.9529 44H68.0833ZM71.3225 71.6054L85.2 57.6214L83.3068 53.1707L68.151 68.4746C67.5322 69.0989 67.1143 69.889 66.9488 70.7461C66.7836 71.6032 66.8787 72.4891 67.2221 73.2933C67.5593 74.0923 68.1291 74.7749 68.8598 75.2552C69.5906 75.7354 70.4493 75.9917 71.3279 75.992L71.3333 76L93 75.9466L91.1067 71.496L71.3279 71.6054H71.3225ZM35.8 57.6106L37.6931 53.16L52.849 68.464C54.1165 69.7413 54.4821 71.6347 53.7779 73.2827C53.4405 74.0813 52.8706 74.7638 52.1399 75.244C51.4093 75.7243 50.5506 75.9808 49.6721 75.9813L28.0054 75.9333L28 75.9387L29.8932 71.488L49.6721 71.6L35.8 57.6106Z" fill="#5019C5"/>
</svg>
