<svg width="120" height="120" viewBox="0 0 120 120" fill="none" xmlns="http://www.w3.org/2000/svg">
<path fill-rule="evenodd" clip-rule="evenodd" d="M63.62 37C61.8867 37 60.4838 38.38 60.4838 40.0766V79.861C60.4838 81.5603 61.8893 82.9376 63.6227 82.9376H72.5818C74.3152 82.9376 75.7181 81.5576 75.7181 79.861V40.0766C75.7208 38.38 74.3152 37 72.5818 37H63.62ZM46.72 37.2192C45.8696 37.2192 45.0977 37.552 44.5343 38.0932C44.5317 38.0986 44.5235 38.0932 44.5263 38.0878C44.5263 38.0823 44.5208 38.0797 44.5181 38.085L44.4233 38.2068C44.2817 38.357 44.1555 38.5211 44.0469 38.6966C43.749 39.0863 43.489 39.4975 43.2696 39.9305L29.0915 67.7387L28.2898 69.5084C28.2748 69.5387 28.2603 69.5694 28.2465 69.6003L28.1598 69.7897C28.1598 69.7952 28.1598 69.7952 28.1652 69.7952C28.0546 70.1163 27.9997 70.454 28.0027 70.7937L28 79.9476C28.0042 80.3527 28.0884 80.753 28.2474 81.1256C28.4065 81.4983 28.6375 81.8359 28.9272 82.1194C29.2169 82.4028 29.5597 82.6264 29.9359 82.7774C30.3122 82.9285 30.7145 83.0041 31.12 82.9998H40.48C40.8855 83.0041 41.2878 82.9285 41.6641 82.7774C42.0403 82.6264 42.3831 82.4028 42.6728 82.1194C42.9625 81.8359 43.1935 81.4983 43.3526 81.1256C43.5116 80.753 43.5958 80.3527 43.6 79.9476V64.6865C43.6 57.9462 49.1873 52.4802 56.08 52.4802C56.4855 52.4846 56.8878 52.409 57.2641 52.2579C57.6403 52.1069 57.9831 51.8832 58.2728 51.5998C58.5625 51.3164 58.7935 50.9787 58.9526 50.6061C59.1116 50.2334 59.1958 49.8332 59.2 49.4281V40.2714C59.1958 39.8663 59.1116 39.466 58.9526 39.0934C58.7935 38.7208 58.5625 38.3831 58.2728 38.0996C57.9831 37.8162 57.6403 37.5925 57.2641 37.4415C56.8878 37.2904 56.4855 37.2149 56.08 37.2192H46.72ZM77.4 75.372C77.4 71.1562 80.8938 67.7414 85.2 67.7414C89.5063 67.7414 93 71.1562 93 75.372C93 79.5796 89.5063 82.9998 85.2 82.9998C80.8938 82.9998 77.4 79.5877 77.4 75.372Z" fill="black"/>
</svg>
