<svg width="120" height="120" viewBox="0 0 120 120" fill="none" xmlns="http://www.w3.org/2000/svg">
<path d="M89.7962 82.8256H30.2258C28.9897 82.8256 27.9878 83.8278 27.9878 85.0636V89.7624C27.9878 90.9982 28.9897 92 30.2258 92H89.7962C91.0324 92 92.0343 90.9982 92.0343 89.7624V85.0636C92.0343 83.8278 91.0324 82.8256 89.7962 82.8256Z" fill="black"/>
<path d="M47.8737 73.2462C47.5154 73.2462 47.2126 72.983 47.1569 72.6247C44.8235 57.1985 43.135 55.8366 27.8203 53.5272C27.3504 53.4554 27 53.0493 27 52.5715C27 52.0936 27.3504 51.6876 27.8203 51.6158C43.0553 49.3142 44.4093 47.9525 46.7109 32.7253C46.7827 32.2553 47.1888 31.905 47.6666 31.905C48.1444 31.905 48.5505 32.2553 48.6223 32.7253C50.9239 47.9525 52.2856 49.3142 67.513 51.6158C67.9825 51.6876 68.333 52.0936 68.333 52.5715C68.333 53.0493 67.9825 53.4554 67.513 53.5272C52.2141 55.8366 50.9079 57.1985 48.5905 72.6247C48.5345 72.9752 48.2321 73.2462 47.8737 73.2462Z" fill="black"/>
<path d="M76.9427 52.8352C76.7197 52.8352 76.5285 52.6681 76.4967 52.445C75.0392 42.8085 73.9799 41.9564 64.4153 40.5149C64.1205 40.4671 63.8975 40.2203 63.8975 39.9176C63.8975 39.6229 64.1125 39.3681 64.4153 39.3203C73.9323 37.8868 74.7845 37.0346 76.218 27.5177C76.2657 27.223 76.5125 27 76.8153 27C77.1099 27 77.3646 27.215 77.4126 27.5177C78.8459 37.0346 79.6983 37.8868 89.215 39.3203C89.5098 39.3681 89.7329 39.6149 89.7329 39.9176C89.7329 40.2123 89.5178 40.4671 89.215 40.5149C79.6583 41.9564 78.8379 42.8085 77.3885 52.445C77.3567 52.6681 77.1654 52.8352 76.9427 52.8352Z" fill="black"/>
<path d="M76.8625 76.8848C76.7192 76.8848 76.5998 76.7812 76.5758 76.6379C75.652 70.5056 74.9752 69.9642 68.8906 69.0482C68.6996 69.0164 68.564 68.857 68.564 68.666C68.564 68.4748 68.6996 68.3155 68.8906 68.2838C74.9431 67.3677 75.4849 66.8264 76.4006 60.7735C76.4326 60.5825 76.5918 60.4471 76.783 60.4471C76.974 60.4471 77.1335 60.5825 77.1653 60.7735C78.081 66.8264 78.6226 67.3677 84.6753 68.2838C84.8665 68.3155 85.0019 68.4748 85.0019 68.666C85.0019 68.857 84.8665 69.0164 84.6753 69.0482C78.5909 69.9642 78.073 70.5056 77.1494 76.6379C77.1253 76.7812 77.006 76.8848 76.8625 76.8848Z" fill="black"/>
</svg>
