<svg width="120" height="120" viewBox="0 0 120 120" fill="none" xmlns="http://www.w3.org/2000/svg">
<mask id="mask0_1_5674" style="mask-type:luminance" maskUnits="userSpaceOnUse" x="29" y="27" width="63" height="60">
<path d="M41.34 30.0472C51.4044 44.1867 67.6361 51.9541 83.7796 48.9513C84.9206 48.7389 86.1618 48.359 87.4524 47.8625C89.9034 46.9174 93.1124 50.7593 91.2524 52.6136C90.1303 53.7419 88.9763 54.8381 87.7918 55.9006C80.3827 62.4728 72.3263 68.2769 63.7464 73.224C55.1181 78.212 46.0035 82.3068 36.5441 85.4449C35.2475 85.8756 33.7371 86.3167 32.113 86.7534C29.5782 87.4368 27.8599 82.7411 29.9042 81.0931C30.9899 80.2183 31.9485 79.327 32.7097 78.4372C43.3812 65.9576 44.3264 48.2933 36.9269 32.5954C36.5584 31.8017 36.2099 30.9989 35.8816 30.1877C34.8557 27.6768 37.8556 25.8255 39.6157 27.8862C40.2205 28.5816 40.7957 29.3035 41.34 30.0472Z" fill="white"/>
</mask>
<g mask="url(#mask0_1_5674)">
<path d="M35.0311 23.2189L63.6691 77.1152L104.745 51.3485L76.1069 -2.54922L35.0311 23.2189Z" fill="url(#paint0_linear_1_5674)"/>
<path d="M35.031 23.2191L63.669 77.1153L22.5933 102.883L-6.04468 48.9872L35.031 23.2191Z" fill="url(#paint1_linear_1_5674)"/>
<path d="M92.3083 131.013L63.6704 77.1167L104.746 51.347L133.384 105.245L92.3083 131.013Z" fill="url(#paint2_linear_1_5674)"/>
<path d="M92.3067 131.013L63.6687 77.1167L22.5929 102.883L51.2309 156.781L92.3067 131.013Z" fill="url(#paint3_linear_1_5674)"/>
</g>
<mask id="mask1_1_5674" style="mask-type:luminance" maskUnits="userSpaceOnUse" x="48" y="64" width="35" height="28">
<path d="M82.2453 64.1184C75.5875 72.3255 74.1773 81.1562 75.4319 88.7217L75.5022 89.1778C75.8357 91.4448 73.1618 92.8415 71.3509 91.436L71.0847 91.231C65.0087 86.6056 57.8409 83.1257 48.3014 84.2203C54.0754 82.529 59.9809 80.0211 65.7474 76.6922C72.0807 73.0358 77.6348 68.7408 82.2453 64.1184Z" fill="white"/>
</mask>
<g mask="url(#mask1_1_5674)">
<path d="M34.718 23.6992L73.8212 91.4288L115.204 67.5356L76.1004 -0.193665L34.718 23.6992Z" fill="url(#paint4_linear_1_5674)"/>
<path d="M34.7188 23.6991L73.822 91.428L32.4382 115.321L-6.66797 47.592L34.7188 23.6991Z" fill="url(#paint5_linear_1_5674)"/>
<path d="M112.927 159.159L73.8207 91.4297L115.206 67.5356L154.311 135.265L112.927 159.159Z" fill="url(#paint6_linear_1_5674)"/>
<path d="M112.928 159.159L73.8218 91.4297L32.441 115.32L71.5443 183.05L112.928 159.159Z" fill="url(#paint7_linear_1_5674)"/>
</g>
<defs>
<linearGradient id="paint0_linear_1_5674" x1="63.6691" y1="77.1152" x2="69.5673" y2="31.2824" gradientUnits="userSpaceOnUse">
<stop stop-color="#27B2F0"/>
<stop offset="0.203" stop-color="#26DFFB"/>
<stop offset="0.406" stop-color="#30F5FE"/>
<stop offset="0.653" stop-color="#F0FEFC"/>
<stop offset="0.863" stop-color="#FBC610"/>
<stop offset="1" stop-color="#FD9C22"/>
</linearGradient>
<linearGradient id="paint1_linear_1_5674" x1="63.669" y1="77.1153" x2="23.5878" y2="61.2709" gradientUnits="userSpaceOnUse">
<stop stop-color="#27B2F0"/>
<stop offset="0.203" stop-color="#26DFFB"/>
<stop offset="0.406" stop-color="#30F5FE"/>
<stop offset="0.653" stop-color="#F0FEFC"/>
<stop offset="0.863" stop-color="#FBC610"/>
<stop offset="1" stop-color="#FD9C22"/>
</linearGradient>
<linearGradient id="paint2_linear_1_5674" x1="63.6704" y1="77.1152" x2="103.75" y2="92.9614" gradientUnits="userSpaceOnUse">
<stop stop-color="#27B2F0"/>
<stop offset="0.203" stop-color="#26DFFB"/>
<stop offset="0.406" stop-color="#30F5FE"/>
<stop offset="0.653" stop-color="#F0FEFC"/>
<stop offset="0.863" stop-color="#FBC610"/>
<stop offset="1" stop-color="#FD9C22"/>
</linearGradient>
<linearGradient id="paint3_linear_1_5674" x1="63.6686" y1="77.1152" x2="57.7705" y2="122.948" gradientUnits="userSpaceOnUse">
<stop stop-color="#27B2F0"/>
<stop offset="0.203" stop-color="#26DFFB"/>
<stop offset="0.406" stop-color="#30F5FE"/>
<stop offset="0.653" stop-color="#F0FEFC"/>
<stop offset="0.863" stop-color="#FBC610"/>
<stop offset="1" stop-color="#FD9C22"/>
</linearGradient>
<linearGradient id="paint4_linear_1_5674" x1="73.8212" y1="91.4289" x2="72.9957" y2="76.9854" gradientUnits="userSpaceOnUse">
<stop stop-color="#1C6FFF"/>
<stop offset="1" stop-color="#24B5EF"/>
</linearGradient>
<linearGradient id="paint5_linear_1_5674" x1="73.822" y1="91.428" x2="61.7252" y2="83.492" gradientUnits="userSpaceOnUse">
<stop stop-color="#1C6FFF"/>
<stop offset="1" stop-color="#24B5EF"/>
</linearGradient>
<linearGradient id="paint6_linear_1_5674" x1="73.8222" y1="91.4289" x2="85.9189" y2="99.3662" gradientUnits="userSpaceOnUse">
<stop stop-color="#1C6FFF"/>
<stop offset="1" stop-color="#24B5EF"/>
</linearGradient>
<linearGradient id="paint7_linear_1_5674" x1="73.8233" y1="91.4281" x2="74.6488" y2="105.873" gradientUnits="userSpaceOnUse">
<stop stop-color="#1C6FFF"/>
<stop offset="1" stop-color="#24B5EF"/>
</linearGradient>
</defs>
</svg>
