<svg width="120" height="120" viewBox="0 0 120 120" fill="none" xmlns="http://www.w3.org/2000/svg">
<path d="M59.5003 27.0054C41.5524 27.0054 27 41.5575 27 59.5052C27 69.3037 31.3388 78.0888 38.1945 84.0498L54.2723 51.081H72.2579L52.6554 91.2775C54.8652 91.7518 57.1503 92 59.5003 92C77.4483 92 92.0006 77.4474 92.0006 59.4998C92.0006 41.5521 77.4483 27 59.5003 27V27.0054Z" fill="url(#paint0_linear_1_5703)"/>
<path d="M38.1945 84.0444L55.9323 47.6748C55.9808 47.5724 56.0294 47.4701 56.0832 47.3676L56.3258 46.8664H56.3365C59.4787 40.9755 65.6825 36.9655 72.8238 36.9655C80.5853 36.9655 87.2417 41.7031 90.0659 48.4402C85.5438 35.9361 73.5623 27 59.5003 27C41.5524 27 27 41.5521 27 59.4998C27 69.2983 31.3388 78.0835 38.1945 84.0444Z" fill="url(#paint1_linear_1_5703)"/>
<defs>
<linearGradient id="paint0_linear_1_5703" x1="64.2495" y1="40.3673" x2="61.7101" y2="86.3136" gradientUnits="userSpaceOnUse">
<stop offset="0.313072" stop-color="#9EC0E0"/>
<stop offset="1" stop-color="white"/>
</linearGradient>
<linearGradient id="paint1_linear_1_5703" x1="65.0033" y1="38.7118" x2="42.4442" y2="75.396" gradientUnits="userSpaceOnUse">
<stop stop-color="white"/>
<stop offset="1" stop-color="#BCD5EC"/>
</linearGradient>
</defs>
</svg>
