<svg width="120" height="120" viewBox="0 0 120 120" fill="none" xmlns="http://www.w3.org/2000/svg">
<path d="M72.3114 29.6938C74.0503 31.2462 75.1132 32.8509 75.8293 35.0621C75.8937 35.2171 75.9582 35.3739 76.0245 35.5342C76.2457 36.3619 76.2091 37.1477 76.1987 38.0032C76.1952 38.3325 76.1935 38.6635 76.19 39.0034C76.183 39.3814 76.1831 39.3814 76.1778 39.7665C76.3712 39.7561 76.5663 39.7474 76.765 39.7369C80.2985 39.6324 83.1648 40.7144 85.761 43.0771C87.81 45.0216 88.9198 47.6717 89.1115 50.4596C89.1585 52.472 88.8589 55.5961 87.3988 57.1346C87.2786 57.2496 87.2786 57.2496 87.1548 57.3646C87.0973 57.5371 87.0399 57.7097 86.9806 57.8874C86.8656 57.8874 86.7506 57.8874 86.6321 57.8874C86.5172 58.1174 86.4022 58.3474 86.2837 58.5844C80.1208 64.7436 73.9389 70.8821 67.7585 77.0206C64.2198 79.784 64.2198 79.784 62.5871 83.3263C62.8329 83.6312 62.8329 83.6312 63.1098 83.849C63.1098 83.964 63.1098 84.079 63.1098 84.1975C63.2493 84.2514 63.2493 84.2515 63.3921 84.3072C63.9671 84.64 64.4323 85.0774 64.8523 85.5913C64.8523 85.7063 64.8523 85.8213 64.8523 85.9398C65.0247 85.9974 65.1973 86.0548 65.375 86.114C65.375 86.229 65.375 86.344 65.375 86.4625C65.5143 86.5166 65.5143 86.5166 65.6572 86.5723C66.2322 86.9051 66.6975 87.3424 67.1173 87.8565C67.1173 87.9715 67.1173 88.0865 67.1173 88.205C67.2899 88.2624 67.4624 88.32 67.64 88.3792C67.8544 88.8113 67.8369 89.1075 67.8352 89.5884C67.8369 89.7417 67.8369 89.8933 67.8369 90.0501C67.8109 90.5345 67.7516 90.876 67.4118 91.2349C66.7323 91.7594 66.1521 92.0434 65.2809 91.9946C63.9776 91.5991 62.9495 90.3812 62.1202 89.3462C61.8623 89.0308 61.8623 89.0308 61.3779 88.6527C60.8238 88.1875 60.3795 87.6927 59.9144 87.1421C59.6111 86.7831 59.6111 86.7831 59.1668 86.3981C57.9942 85.1 57.7834 83.8681 57.7503 82.1467C58.6825 76.9735 67.5599 70.8159 70.8635 67.5367C79.633 60.6647 79.633 60.6647 84.421 51.0711C84.4088 49.5239 84.0482 48.0638 82.9731 46.9103C82.9731 46.7953 82.9731 46.6804 82.9731 46.5619C82.8006 46.5043 82.6281 46.4469 82.4504 46.3876C82.4504 46.2726 82.4504 46.1576 82.4504 46.0392C82.3529 45.9903 82.2552 45.9433 82.1542 45.8928C81.8824 45.7568 81.6105 45.6175 81.3405 45.478C81.1959 45.4049 81.053 45.3317 80.9031 45.2551C80.7603 45.1819 80.6174 45.1087 80.4693 45.032C78.9116 44.3106 77.1239 44.1748 75.4686 44.6888C68.5565 47.4906 62.5175 56.7496 57.4209 61.8617C53.2149 66.0383 53.2149 66.0383 52.1659 66.1428C51.5927 66.1376 51.2913 66.0366 50.8469 65.6741C50.2615 65.0748 49.9845 64.6984 49.9427 63.8655C49.9322 63.7261 49.9217 63.5849 49.9095 63.4404C51.3348 58.0303 62.047 50.7889 65.9204 46.933C70.0707 43.2234 70.0707 43.2234 71.7452 38.3082C71.6912 36.4891 71.0151 34.8024 69.731 33.4939C68.1506 32.1401 66.2688 31.6191 64.2128 31.6853C62.7998 31.8491 61.7839 32.4833 60.6706 33.3197C60.5556 33.3197 60.4406 33.3197 60.3221 33.3197C60.275 33.4243 60.228 33.5287 60.1809 33.6351C59.9736 34.0167 59.7819 34.2641 59.4508 34.5394C59.3358 34.5394 59.2208 34.5394 59.1023 34.5394C59.0449 34.7119 58.9874 34.8843 58.9281 35.0621C58.8131 35.0621 58.6981 35.0621 58.5796 35.0621C58.5222 35.2346 58.4647 35.407 58.4054 35.5848C58.2904 35.5848 58.1754 35.5848 58.0569 35.5848C57.9419 35.8147 57.827 36.0448 57.7085 36.2817C57.5935 36.2817 57.4785 36.2817 57.36 36.2817C57.3025 36.4542 57.245 36.6268 57.1858 36.8045C57.0708 36.8045 56.9558 36.8045 56.8373 36.8045C56.7797 36.9769 56.7223 37.1495 56.6631 37.3272C56.5481 37.3272 56.4331 37.3272 56.3146 37.3272C56.2675 37.4317 56.2205 37.5362 56.1734 37.6426C55.9661 38.0242 55.7744 38.2716 55.4434 38.5469C55.3283 38.5469 55.2133 38.5469 55.0948 38.5469C55.0374 38.7194 54.9799 38.8918 54.9206 39.0696C54.8056 39.0696 54.6906 39.0696 54.5721 39.0696C54.5147 39.2421 54.4572 39.4145 54.3979 39.5923C54.2829 39.5923 54.1679 39.5923 54.0494 39.5923C53.877 39.9373 53.8769 39.9373 53.701 40.2892C53.586 40.2892 53.471 40.2892 53.3525 40.2892C53.2654 40.5489 53.2654 40.5489 53.1783 40.8119C53.0633 40.8119 52.9483 40.8119 52.8298 40.8119C52.7427 41.0716 52.7427 41.0716 52.6556 41.3347C52.5406 41.3347 52.4256 41.3347 52.3071 41.3347C52.2374 41.4915 52.2374 41.4915 52.1659 41.65C51.9586 42.0317 51.7669 42.2791 51.4359 42.5544C51.3208 42.5544 51.2058 42.5544 51.0873 42.5544C51.0002 42.814 51.0002 42.814 50.9131 43.0771C50.7981 43.0771 50.6831 43.0771 50.5646 43.0771C50.4775 43.3367 50.4775 43.3367 50.3904 43.5998C50.2754 43.5998 50.1604 43.5998 50.0419 43.5998C49.8695 43.9447 49.8695 43.9447 49.6935 44.2967C49.5785 44.2967 49.4635 44.2967 49.345 44.2967C49.2579 44.5564 49.2579 44.5564 49.1708 44.8194C49.0558 44.8194 48.9408 44.8194 48.8223 44.8194C48.7352 45.0791 48.7352 45.0791 48.6481 45.3422C48.5331 45.3422 48.4181 45.3422 48.2996 45.3422C48.2299 45.499 48.2299 45.499 48.1584 45.6575C47.9511 46.0392 47.7594 46.2866 47.4284 46.5619C47.3134 46.5619 47.1983 46.5619 47.0799 46.5619C46.9928 46.8215 46.9928 46.8215 46.9056 47.0846C46.7906 47.0846 46.6756 47.0846 46.5571 47.0846C46.47 47.3442 46.47 47.3442 46.3829 47.6073C46.2679 47.6073 46.1529 47.6073 46.0344 47.6073C45.862 47.9522 45.862 47.9522 45.686 48.3042C45.571 48.3042 45.456 48.3042 45.3375 48.3042C45.2504 48.5639 45.2504 48.5639 45.1633 48.8269C45.0483 48.8269 44.9333 48.8269 44.8148 48.8269C44.7277 49.0866 44.7277 49.0866 44.6406 49.3496C44.5256 49.3496 44.4106 49.3496 44.2921 49.3496C44.2451 49.4542 44.198 49.5587 44.1509 49.665C43.9436 50.0467 43.7519 50.2941 43.4209 50.5694C43.3059 50.5694 43.1908 50.5694 43.0724 50.5694C43.0149 50.7418 42.9574 50.9143 42.8982 51.0921C42.7831 51.0921 42.6681 51.0921 42.5496 51.0921C42.4922 51.2646 42.4347 51.437 42.3754 51.6148C42.2604 51.6148 42.1454 51.6148 42.0269 51.6148C41.9119 51.8447 41.797 52.0747 41.6785 52.3117C41.5635 52.3117 41.4485 52.3117 41.33 52.3117C41.2726 52.4842 41.215 52.6567 41.1558 52.8344C41.0408 52.8344 40.9258 52.8344 40.8073 52.8344C40.7497 53.0069 40.6923 53.1795 40.6331 53.3571C40.5181 53.3571 40.4031 53.3571 40.2846 53.3571C40.2376 53.4617 40.1905 53.5662 40.1434 53.6725C39.9361 54.0541 39.7444 54.3016 39.4134 54.5769C39.2984 54.5769 39.1834 54.5769 39.0649 54.5769C39.0074 54.7493 38.95 54.9218 38.8907 55.0996C38.7756 55.0996 38.6606 55.0996 38.5422 55.0996C38.4847 55.272 38.4272 55.4445 38.3679 55.6223C38.2529 55.6223 38.1379 55.6223 38.0194 55.6223C37.9044 55.8522 37.7895 56.0822 37.671 56.3192C37.556 56.3192 37.441 56.3192 37.3225 56.3192C37.2651 56.4917 37.2075 56.6642 37.1483 56.8419C37.0333 56.8419 36.9183 56.8419 36.7998 56.8419C36.7423 57.0144 36.6848 57.187 36.6256 57.3646C36.5106 57.3646 36.3956 57.3646 36.2771 57.3646C36.2301 57.4692 36.183 57.5737 36.1359 57.68C35.9286 58.0616 35.7369 58.3091 35.4059 58.5844C35.2909 58.5844 35.1759 58.5844 35.0574 58.5844C34.9999 58.7568 34.9425 58.9293 34.8832 59.1071C34.1183 59.5984 33.5189 59.7726 32.6181 59.6298C31.9002 59.1819 31.3775 58.6749 31.0499 57.8874C30.9262 57.0859 31.0186 56.6276 31.4855 55.983C32.0971 55.2372 32.7522 54.5037 33.4892 53.8799C33.6042 53.8799 33.7193 53.8799 33.8377 53.8799C33.8917 53.7405 33.8917 53.7405 33.9458 53.5976C34.2786 53.0226 34.7177 52.5574 35.2317 52.1375C35.3467 52.1375 35.4617 52.1375 35.5801 52.1375C35.6202 52.0399 35.6621 51.9424 35.7056 51.8412C35.9791 51.3499 36.3137 51.0085 36.7127 50.6129C36.8503 50.4735 36.9898 50.3341 37.1308 50.1912C37.4967 49.8724 37.4967 49.8724 37.8452 49.8724C37.8801 49.78 37.9167 49.686 37.9533 49.5901C38.2861 49.0151 38.7251 48.5499 39.2392 48.13C39.3542 48.13 39.4692 48.13 39.5876 48.13C39.6277 48.0324 39.6696 47.9349 39.7131 47.8338C39.9866 47.3424 40.3212 47.001 40.7202 46.6054C40.8578 46.466 40.9972 46.3266 41.1383 46.1837C41.5042 45.8649 41.5042 45.8649 41.8527 45.8649C41.8876 45.7725 41.9242 45.6785 41.9608 45.5826C42.2936 45.0076 42.7326 44.5424 43.2467 44.1225C43.3617 44.1225 43.4767 44.1225 43.5951 44.1225C43.6351 44.0249 43.6771 43.9274 43.7206 43.8263C43.9941 43.3349 44.3287 42.9935 44.7277 42.5979C44.935 42.3888 44.935 42.3888 45.1458 42.1762C45.5117 41.8574 45.5117 41.8574 45.8602 41.8574C45.9142 41.718 45.9142 41.718 45.9683 41.5751C46.301 41.0002 46.7401 40.5349 47.2542 40.115C47.3692 40.115 47.4842 40.115 47.6026 40.115C47.6426 40.0174 47.6846 39.9199 47.7281 39.8188C48.0016 39.3274 48.3362 38.986 48.7352 38.5904C48.9425 38.3813 48.9425 38.3813 49.1533 38.1687C49.5192 37.8499 49.5192 37.8499 49.8677 37.8499C49.9026 37.7576 49.9392 37.6635 49.9758 37.5676C50.3085 36.9927 50.7476 36.5274 51.2616 36.1075C51.3767 36.1075 51.4917 36.1075 51.6101 36.1075C51.6501 36.0099 51.692 35.9124 51.7356 35.8113C52.0091 35.3199 52.3437 34.9785 52.7427 34.5829C52.8803 34.4435 53.0197 34.3042 53.1608 34.1612C53.5267 33.8424 53.5267 33.8424 53.8752 33.8424C53.9101 33.7501 53.9467 33.656 53.9833 33.5601C54.316 32.9852 54.7551 32.5199 55.2691 32.1C55.3842 32.1 55.4992 32.1 55.6176 32.1C55.6821 31.9519 55.6821 31.9519 55.7466 31.7986C56.1804 31.0145 56.8843 30.4412 57.5342 29.8349C57.6509 29.7268 57.7677 29.6171 57.8879 29.5056C62.0871 25.9285 68.1628 26.3518 72.3114 29.6938Z" fill="#020202"/>
<path d="M65.4656 36.0351C66.1835 36.1571 66.4605 36.4359 66.9432 36.9794C67.3736 37.652 67.3196 38.2757 67.2133 39.0425C67.0739 39.5843 66.823 39.9101 66.4205 40.29C66.3055 40.29 66.1905 40.29 66.0721 40.29C66.0145 40.4625 65.957 40.6349 65.8978 40.8127C65.6103 41.048 65.3193 41.2796 65.0266 41.5096C64.9116 41.6821 64.7966 41.8547 64.6781 42.0324C64.5631 42.0324 64.4481 42.0324 64.3296 42.0324C64.2722 42.2049 64.2146 42.3774 64.1554 42.5551C64.0404 42.5551 63.9254 42.5551 63.8069 42.5551C63.7494 42.7276 63.6919 42.9001 63.6327 43.0778C63.3452 43.313 63.0542 43.5448 62.7615 43.7748C62.6465 43.9473 62.5315 44.1197 62.413 44.2975C62.298 44.2975 62.183 44.2975 62.0646 44.2975C62.007 44.47 61.9496 44.6424 61.8903 44.8202C61.6028 45.0555 61.3118 45.2871 61.0191 45.5171C60.9041 45.6896 60.7891 45.8622 60.6706 46.0398C60.5556 46.0398 60.4406 46.0398 60.3221 46.0398C60.2647 46.2124 60.2071 46.3849 60.1479 46.5626C60.0329 46.5626 59.9179 46.5626 59.7994 46.5626C59.742 46.7351 59.6844 46.9076 59.6252 47.0853C59.3377 47.3205 59.0467 47.5523 58.754 47.7823C58.639 47.9548 58.524 48.1272 58.4055 48.305C58.2905 48.305 58.1756 48.305 58.0571 48.305C57.9699 48.5628 57.9699 48.5628 57.8828 48.8277C57.5953 49.0629 57.3043 49.2946 57.0116 49.5246C56.8966 49.6971 56.7816 49.8697 56.6631 50.0473C56.5481 50.0473 56.4331 50.0473 56.3146 50.0473C56.2275 50.3053 56.2275 50.3053 56.1404 50.5701C56.0254 50.5701 55.9104 50.5701 55.7919 50.5701C55.7048 50.828 55.7048 50.828 55.6177 51.0928C55.3302 51.328 55.0392 51.5598 54.7465 51.7898C54.6315 51.9622 54.5165 52.1347 54.398 52.3125C54.283 52.3125 54.1681 52.3125 54.0496 52.3125C53.9624 52.5703 53.9624 52.5703 53.8753 52.8352C53.5878 53.0704 53.2968 53.3021 53.0041 53.5321C52.8891 53.7046 52.7741 53.8772 52.6556 54.0548C52.5406 54.0548 52.4256 54.0548 52.3071 54.0548C52.22 54.3128 52.22 54.3128 52.1329 54.5775C52.0179 54.5775 51.9029 54.5775 51.7844 54.5775C51.6973 54.8355 51.6973 54.8355 51.6102 55.1003C51.3227 55.3355 51.0317 55.5673 50.739 55.7973C50.624 55.9697 50.509 56.1422 50.3905 56.32C50.2755 56.32 50.1606 56.32 50.0421 56.32C49.9549 56.5778 49.9549 56.5778 49.8678 56.8427C49.5803 57.0779 49.2893 57.3096 48.9967 57.5396C48.8816 57.7121 48.7666 57.8846 48.6481 58.0623C48.5331 58.0623 48.4181 58.0623 48.2996 58.0623C48.2125 58.3203 48.2125 58.3203 48.1254 58.585C48.0104 58.585 47.8954 58.585 47.7769 58.585C47.7334 58.6775 47.6898 58.7715 47.6463 58.8673C47.4284 59.2821 47.4284 59.2821 47.0904 59.7716C46.3116 60.9739 46.1339 61.9182 46.1321 63.354C46.1286 63.6641 46.1252 63.976 46.1217 64.2949C46.2768 65.9345 47.0365 67.3162 48.223 68.44C49.8887 69.806 51.3889 70.0761 53.546 70.0151C59.1931 69.3164 64.0839 61.4513 67.5531 57.9752C76.7058 48.8015 76.7058 48.8015 77.7025 48.7615C78.3332 48.7684 78.727 48.8137 79.2271 49.2092C79.8839 49.9481 79.8839 49.9481 80.0111 50.5701C79.5825 54.419 72.2679 59.8501 69.8286 62.2772C67.9747 64.1259 66.1208 65.9763 64.2094 67.8807C57.3235 74.5924 57.3235 74.5924 52.5894 74.6917C50.2215 74.6516 48.3885 74.1046 46.383 72.8727C46.1025 72.7106 46.1025 72.7106 45.8167 72.5451C43.4646 70.7277 41.7849 67.7745 41.3301 64.8577C40.9729 61.1272 42.3285 58.275 44.6406 55.4488C47.7856 52.2742 50.9411 49.11 54.1036 45.9527C55.8285 44.2295 57.5517 42.5063 59.3289 40.7308C64.0996 35.9933 64.0996 35.9933 65.4656 36.0351Z" fill="#020202"/>
</svg>
