<svg width="120" height="120" viewBox="0 0 120 120" fill="none" xmlns="http://www.w3.org/2000/svg">
<mask id="mask0_1_5820" style="mask-type:luminance" maskUnits="userSpaceOnUse" x="28" y="27" width="65" height="65">
<path d="M93 27H28V92H93V27Z" fill="white"/>
</mask>
<g mask="url(#mask0_1_5820)">
<mask id="mask1_1_5820" style="mask-type:luminance" maskUnits="userSpaceOnUse" x="28" y="27" width="65" height="65">
<path d="M93 27H28V92H93V27Z" fill="white"/>
</mask>
<g mask="url(#mask1_1_5820)">
<path d="M35.009 64.9509C35.009 67.4329 35.5538 69.3384 36.2658 70.4913C37.1993 72.0012 38.5917 72.641 40.0113 72.641C41.8422 72.641 43.5172 72.1865 46.745 67.7221C49.3308 64.1441 52.3779 59.1215 54.428 55.9725L57.9001 50.6382C60.3119 46.9334 63.1033 42.815 66.3044 40.0234C68.9174 37.7449 71.7359 36.479 74.5726 36.479C79.3355 36.479 83.872 39.239 87.344 44.4153C91.1437 50.0844 92.9879 57.2249 92.9879 64.594C92.9879 68.9744 92.1248 72.1933 90.6555 74.7362C89.2358 77.1956 86.4693 79.6526 81.8149 79.6526V72.641C85.8 72.641 86.7948 68.979 86.7948 64.7882C86.7948 58.8163 85.4024 52.1888 82.3349 47.4533C80.1583 44.0944 77.3373 42.0418 74.2335 42.0418C70.8768 42.0418 68.1758 44.5736 65.14 49.0875C63.5261 51.4858 61.8695 54.4085 60.0091 57.7065L57.961 61.3342C53.8471 68.6286 52.8051 70.2902 50.7481 73.0318C47.1428 77.8331 44.0642 79.6526 40.0113 79.6526C35.2034 79.6526 32.1631 77.5707 30.2802 74.4334C28.7431 71.877 27.9882 68.5225 27.9882 64.7002L35.009 64.9509Z" fill="#0081FB"/>
<path d="M33.5128 44.9103C36.7316 39.9488 41.3768 36.479 46.7045 36.479C49.79 36.479 52.8573 37.3922 56.0604 40.0076C59.5639 42.867 63.2982 47.5754 67.9567 55.3352L69.6272 58.12C73.6597 64.838 75.9542 68.2941 77.2967 69.924C79.0238 72.017 80.2331 72.641 81.8039 72.641C85.7889 72.641 86.7834 68.979 86.7834 64.7882L92.9773 64.594C92.9773 68.9744 92.1134 72.1933 90.6444 74.7362C89.2248 77.1956 86.4582 79.6526 81.8039 79.6526C78.9106 79.6526 76.3474 79.0243 73.5129 76.3503C71.3337 74.2977 68.7863 70.6517 66.8265 67.3741L60.9969 57.6362C58.0722 52.7494 55.3889 49.1056 53.8361 47.4555C52.1656 45.6812 50.0183 43.5383 46.5915 43.5383C43.818 43.5383 41.4626 45.4845 39.4916 48.4614L33.5128 44.9103Z" fill="url(#paint0_linear_1_5820)"/>
<path d="M46.6026 43.5383C43.8291 43.5383 41.4738 45.4845 39.5027 48.4614C36.7156 52.668 35.009 58.9338 35.009 64.9509C35.009 67.4329 35.5538 69.3384 36.2658 70.4913L30.2802 74.4334C28.7431 71.877 27.9882 68.5225 27.9882 64.7002C27.9882 57.7495 29.896 50.5048 33.5239 44.9103C36.7427 39.9487 41.3878 36.479 46.7156 36.479L46.6026 43.5383Z" fill="url(#paint1_linear_1_5820)"/>
</g>
</g>
<defs>
<linearGradient id="paint0_linear_1_5820" x1="37.1766" y1="62.9257" x2="86.0747" y2="65.625" gradientUnits="userSpaceOnUse">
<stop stop-color="#0064E1"/>
<stop offset="0.4" stop-color="#0064E1"/>
<stop offset="0.83" stop-color="#0073EE"/>
<stop offset="1" stop-color="#0082FB"/>
</linearGradient>
<linearGradient id="paint1_linear_1_5820" x1="38.16" y1="67.8987" x2="38.16" y2="51.3977" gradientUnits="userSpaceOnUse">
<stop stop-color="#0082FB"/>
<stop offset="1" stop-color="#0064E0"/>
</linearGradient>
</defs>
</svg>
