<svg width="120" height="120" viewBox="0 0 120 120" fill="none" xmlns="http://www.w3.org/2000/svg">
<rect width="120" height="120" fill="#7EC7FF"/>
<path d="M88.9876 34C91.2034 34 93 35.7965 93 38.0125V72.8948C93 74.1798 92.4225 75.3965 91.4276 76.2092L79.6036 85.8643C78.8394 86.4882 77.8823 86.8304 76.8958 86.8304H32.0125C29.7968 86.8304 28.0004 85.0335 28 82.8178V48.9791C28 47.6912 28.5802 46.4707 29.5792 45.6579L42.7351 34.959C43.4983 34.3386 44.4526 34 45.4361 34H88.9876ZM47.456 42.0081C46.9665 42.0083 46.4913 42.1747 46.1106 42.4825L36.8825 49.9484C36.3801 50.3546 36.086 50.9662 36.086 51.6123V77.4496C36.0861 78.1883 36.6861 78.7884 37.4247 78.7884H44.0501V64.8938C44.051 63.7128 45.0076 62.7557 46.1885 62.7553H51.2719C52.4531 62.7553 53.4096 63.7124 53.4103 64.8938V78.7884H58.226V64.8938C58.2271 63.7124 59.1866 62.7553 60.3678 62.7553H65.448C66.6293 62.7553 67.5888 63.7124 67.5898 64.8938V78.7884H74.7845C75.2765 78.7884 75.7551 78.6176 76.1364 78.3071L84.1854 71.7562C84.6848 71.3498 84.975 70.7394 84.975 70.0957V43.3602C84.9743 42.623 84.377 42.0262 83.6399 42.025L47.456 42.0081Z" fill="black"/>
<path d="M47.4564 42.0081L83.6404 42.025C84.3774 42.0262 84.9746 42.623 84.9753 43.3602V70.0957C84.9753 70.7394 84.6853 71.3498 84.1858 71.7562L76.1369 78.3071C75.7555 78.6176 75.277 78.7884 74.7849 78.7884H67.5903V64.8937C67.5892 63.7124 66.6297 62.7553 65.4484 62.7553H60.3682C59.187 62.7553 58.2275 63.7124 58.2265 64.8937V78.7884H53.4107V64.8937C53.41 63.7124 52.4536 62.7553 51.2723 62.7553H46.1889C45.0079 62.7557 44.0513 63.7128 44.0505 64.8937V78.7884H37.4251C36.6866 78.7884 36.0866 78.1883 36.0864 77.4495V51.6123C36.0864 50.9662 36.3804 50.3546 36.8829 49.9483L46.111 42.4825C46.4917 42.1747 46.9669 42.0082 47.4564 42.0081Z" fill="white"/>
</svg>
