<svg width="120" height="120" viewBox="0 0 120 120" fill="none" xmlns="http://www.w3.org/2000/svg">
<path d="M28 56.7835H35.4453V64.1737H28V56.7835ZM56.7768 64.1763H64.2222V71.5666H56.7768V64.1763ZM79.1124 71.5666H71.6671V77.9599H85.5536V64.1763H79.1124V71.5666Z" fill="#624AFF"/>
<path d="M64.2222 56.7835H71.6671V64.1738H64.2222V56.7835ZM28 49.3935H35.4453V56.7835H28V49.3935Z" fill="#36CFD1"/>
<path d="M85.5544 56.7835H93.0001V64.1737H85.5544V56.7835Z" fill="#624AFF"/>
<path d="M85.5544 49.3935H93.0001V56.7835H85.5544V49.3935Z" fill="#36CFD1"/>
<path d="M71.6697 43V49.3932H79.1149V56.7833H85.5561V43H71.6697Z" fill="#624AFF"/>
<path d="M49.334 56.7835H56.7792V64.1737H49.334V56.7835Z" fill="#36CFD1"/>
<path d="M41.8877 49.3932H49.333V43H35.4468V56.7833H41.8877V49.3932ZM41.8877 64.1766H35.4468V77.9598H49.333V71.5664H41.8877V64.1766Z" fill="#624AFF"/>
</svg>
