<svg width="120" height="120" viewBox="0 0 120 120" fill="none" xmlns="http://www.w3.org/2000/svg">
<path d="M90.5012 72.2541C89.1309 75.837 87.2568 79.0764 84.7676 81.9013C78.3273 89.2028 70.213 92.8889 60.4712 93C60.4471 92.9992 60.424 92.9894 60.4062 92.9729C60.3879 92.9566 60.3755 92.9347 60.3711 92.9105C60.3667 92.8878 60.3693 92.8641 60.379 92.8429C60.3891 92.8198 60.4074 92.8015 60.4305 92.7915C65.5386 90.6816 69.7851 87.4478 72.9566 82.9357C75.0741 79.943 76.5714 76.5571 77.3603 72.9771C77.9482 70.323 78.254 67.6823 78.124 65.0093C77.9941 62.2521 77.7125 60.6732 76.8134 58.0623C75.7678 55.0291 74.3352 52.2123 72.4067 49.6963C70.0153 46.5708 67.3261 44.6316 64.5527 42.1698C61.8578 39.7864 58.6214 35.0658 61.6844 32.0027C62.7244 30.9626 64.3848 30.4047 66.6625 30.3208C73.3738 30.077 80.2339 34.7516 84.5295 39.6727C86.5607 42.0018 88.267 44.5423 89.5806 47.3563C90.8968 50.1756 91.785 53.1034 92.2293 56.1474C92.5895 58.6257 92.5461 60.0504 92.4784 62.5529C92.3744 65.8752 91.7058 69.1557 90.5012 72.2541Z" fill="url(#paint0_linear_1_5973)"/>
<path d="M60.1203 28.0271C60.1383 28.0435 60.1505 28.0653 60.1549 28.0893C60.1593 28.1133 60.1557 28.138 60.1445 28.1598C60.1345 28.1811 60.1171 28.1984 60.0958 28.2085C54.985 30.3183 50.7385 33.5521 47.567 38.0642C45.4493 41.0577 43.952 44.4445 43.1632 48.0255C42.5755 50.677 42.2695 53.3203 42.3968 55.9908C42.5295 58.7479 42.8139 60.3268 43.713 62.9378C44.7558 65.9709 46.1885 68.7878 48.1168 71.3009C50.5082 74.4265 53.1977 76.3709 55.9709 78.8302C58.6658 81.2137 61.9022 85.9315 58.8392 88.9945C57.7965 90.0374 56.1387 90.5953 53.8612 90.6791C47.15 90.9202 40.2897 86.2482 35.9942 81.3245C33.963 78.9954 32.2567 76.4577 30.9432 73.6409C29.6342 70.8563 28.7417 67.894 28.2944 64.8496C27.9343 62.3743 27.9775 60.9496 28.048 58.4472C28.1401 55.1295 28.8172 51.9038 30.0251 48.7459C31.3901 45.1628 33.267 41.9209 35.7559 39.0988C42.1937 31.7971 50.3105 28.1083 60.0523 28C60.0769 28 60.104 28.0108 60.1203 28.0271Z" fill="url(#paint1_linear_1_5973)"/>
<path d="M51.6203 60.2368L58.2694 58.3193L60.2194 51.6027C60.2304 51.5654 60.2534 51.5328 60.2851 51.5098C60.3163 51.4868 60.3545 51.4747 60.3935 51.4753C60.4322 51.4759 60.47 51.4892 60.5008 51.5132C60.5312 51.5372 60.5533 51.5705 60.5633 51.6081L62.134 57.729C64.2359 58.9126 66.6031 59.7739 69.2355 60.318C69.2556 60.324 69.2743 60.3346 69.2896 60.3488C69.3049 60.3633 69.3168 60.381 69.3242 60.4008C69.3316 60.4203 69.3342 60.4416 69.3318 60.4626C69.3298 60.4835 69.3227 60.5036 69.3112 60.5214C69.2955 60.5447 69.2728 60.5627 69.2462 60.5727L62.7949 62.4929C62.7255 62.5136 62.6623 62.5511 62.6109 62.6022C62.5592 62.6533 62.521 62.7162 62.4997 62.7854L60.5497 69.4048C60.5456 69.4242 60.5353 69.442 60.5199 69.4553C60.5049 69.4686 60.4859 69.4763 60.4659 69.4778C60.4454 69.4787 60.4254 69.4727 60.4086 69.4609C60.392 69.4491 60.3796 69.4322 60.3737 69.4128L58.4426 62.9263C58.4198 62.8433 58.3758 62.7679 58.3153 62.7071C58.2543 62.6462 58.1787 62.6022 58.096 62.5795L51.623 60.6703C51.5881 60.6599 51.5562 60.6413 51.5299 60.6159C51.5037 60.5908 51.4839 60.5595 51.4722 60.5252C51.4605 60.4906 51.4573 60.4537 51.4628 60.4176C51.4684 60.3816 51.4825 60.3476 51.5039 60.318C51.533 60.2794 51.5738 60.2507 51.6203 60.2368Z" fill="url(#paint2_linear_1_5973)"/>
<defs>
<linearGradient id="paint0_linear_1_5973" x1="76.4477" y1="30.3126" x2="76.4477" y2="93" gradientUnits="userSpaceOnUse">
<stop stop-color="#F85EAD"/>
<stop offset="1" stop-color="#FD75FD"/>
</linearGradient>
<linearGradient id="paint1_linear_1_5973" x1="44.076" y1="28" x2="44.076" y2="90.6875" gradientUnits="userSpaceOnUse">
<stop offset="0.332" stop-color="#11F5EF"/>
<stop offset="1" stop-color="#C738FB"/>
</linearGradient>
<linearGradient id="paint2_linear_1_5973" x1="60.3952" y1="51.47" x2="60.3952" y2="69.4778" gradientUnits="userSpaceOnUse">
<stop offset="0.332" stop-color="#11F5EF"/>
<stop offset="1" stop-color="#C738FB"/>
</linearGradient>
</defs>
</svg>
