<svg width="120" height="120" viewBox="0 0 120 120" fill="none" xmlns="http://www.w3.org/2000/svg">
<mask id="mask0_1_6017" style="mask-type:luminance" maskUnits="userSpaceOnUse" x="27" y="28" width="65" height="65">
<path d="M92 28H27V93H92V28Z" fill="white"/>
</mask>
<g mask="url(#mask0_1_6017)">
<path d="M56.1236 92.9887L57.0865 92.9116L61.8344 92.6682L63.0408 92.9116C63.8377 93.0771 64.7231 92.8337 65.7745 92.5133L66.7374 92.192L68.8292 91.5504L70.0355 91.3841C70.8324 91.307 71.6403 91.1407 72.3597 90.7424L73.7321 90.0229L75.2594 89.06L76.6318 88.4955C77.1963 88.252 77.6722 88.097 78.0817 87.7761L79.8525 86.4148L81.8557 84.8875L82.8186 84.0795C83.217 83.681 83.6265 83.3601 83.9475 82.8732L84.9104 81.4233L85.9507 79.741L87.478 77.4943L88.12 76.2879C88.441 75.8009 88.5959 75.159 88.7619 74.6057L89.0054 73.4767L89.6473 71.872C89.802 71.4735 89.9683 71.1526 90.0454 70.6656L90.3666 68.8948L90.8534 66.648C90.9312 66.1611 91.0083 65.7627 91.0083 65.1982L90.8534 61.6566L90.6878 59.7308C90.61 59.0114 90.4445 58.3584 90.1232 57.639L89.7137 56.7536L88.8283 54.2634L88.2639 52.4151C88.0978 52.0167 87.9429 51.6183 87.6994 51.1313L87.0575 50.0024L86.1721 48.0766L84.7222 45.8299L83.2724 44.0591L81.2581 42.1334L79.2549 40.606L78.5354 39.9641C78.137 39.6431 77.8935 39.5546 77.4951 39.3222L75.2373 38.1933L74.3519 37.7174C74.0309 37.4738 73.6325 37.3079 73.223 37.1529L71.6957 36.5885C71.2972 36.4224 70.8102 36.3449 70.4118 36.2675L69.6925 38.6913L67.1358 39.8423C66.5714 39.4328 64.7009 37.7174 63.1736 37.8059L61.5688 34.9062L56.6659 34.6627L55.548 36.7213L54.6737 38.7245C54.1092 38.7245 53.9986 40.2297 53.4341 40.4732L48.8854 36.7323L46.2181 36.6881C45.4101 36.9315 44.6907 37.2525 43.9714 37.817L43.0859 38.4589L41.7246 39.3443L41.0052 39.9088L39.4779 41.3586L38.2715 41.7681C37.4747 42.0891 36.6667 42.731 35.9362 43.6939L35.6153 44.1809L34.4089 45.5421C34.2429 45.7856 34.0105 45.9406 33.8445 46.2615L32.7156 47.8663L31.5867 49.7921L30.7788 51.1534C30.2918 52.0388 29.9819 53.0017 29.8933 53.9646V54.6065L28.9304 57.0193L28.6095 57.9821C28.4435 58.5466 28.4435 59.0225 28.4435 59.6644V61.3467L27.9897 66.1389V67.5113C27.9897 68.2307 28.1557 68.9612 28.3992 69.6031L28.7976 70.732L29.0412 72.0158C29.1186 72.8238 29.4395 73.6206 29.849 74.3511L30.2475 75.0705L31.3764 77.5607L31.8634 78.8445C32.1069 79.5639 32.5828 80.2059 33.0697 80.7703L33.7892 81.5782L35.239 83.0281L37.1648 84.8764L38.5261 86.0827C39.002 86.5587 39.5664 86.8907 40.1308 87.1231L41.4147 87.6875L43.1081 89.0488L44.3919 89.8458C45.1113 90.3327 46.0742 90.6537 46.9596 90.7311L47.5241 90.8089L49.4498 91.4506C49.8483 91.6055 50.1692 91.694 50.4902 91.7718L52.1724 92.0152L53.3788 92.5798C54.0982 92.9002 55.061 93.0552 56.1125 92.9781L56.1236 92.9887ZM50.6562 61.236L51.94 58.6683L53.2239 57.141L54.5077 55.3701L56.677 54.4848L61.8234 54.1638L63.6716 55.7686L65.9958 57.141L68.0876 61.3245L68.0102 65.984L67.0473 68.3967L65.5199 70.8095L64.1586 72.3368L61.6684 73.3771L57.009 73.4547L55.1607 72.3257L53.0689 70.7984L51.3866 68.3082L51.0657 66.1389L50.6673 61.236H50.6562Z" fill="black"/>
<path d="M67.5674 34.8397H65.7302V36.677H67.5674V34.8397Z" fill="black"/>
<path d="M67.5674 34.8397H65.7302V36.677H67.5674V34.8397Z" fill="black"/>
<mask id="mask1_1_6017" style="mask-type:luminance" maskUnits="userSpaceOnUse" x="65" y="34" width="3" height="3">
<path d="M67.5674 34.8397H65.7302V36.677H67.5674V34.8397Z" fill="white"/>
</mask>
<g mask="url(#mask1_1_6017)">
<path d="M66.6488 34.8397C67.1579 34.8397 67.5674 35.2492 67.5674 35.7584C67.5674 36.2675 67.1579 36.677 66.6488 36.677C66.1397 36.677 65.7302 36.2675 65.7302 35.7584C65.7302 35.2492 66.1397 34.8397 66.6488 34.8397Z" fill="black"/>
</g>
<path d="M66.5055 37.164H66.5498L66.7601 37.1528H66.8154C66.8486 37.175 66.8818 37.1528 66.9372 37.1528H66.9814C66.9814 37.1418 67.07 37.1086 67.07 37.1086H67.1253C67.1585 37.1086 67.1917 37.0865 67.2249 37.0754L67.2803 37.0422L67.3467 36.9979L67.402 36.9758C67.4242 36.9758 67.4462 36.9536 67.4684 36.9426L67.5459 36.8873L67.6344 36.8208L67.6787 36.7876C67.7008 36.7655 67.7119 36.7545 67.7229 36.7323L67.7672 36.6659L67.8115 36.5884L67.8779 36.4888L67.9 36.4335C67.9111 36.4113 67.9222 36.3892 67.9222 36.356V36.3117L67.9554 36.2453C67.9554 36.2232 67.9665 36.2121 67.9775 36.1899V36.1125C67.9886 36.1125 68.0108 36.0129 68.0108 36.0129C68.0108 35.9908 68.0108 35.9797 68.0108 35.9465V35.7915L67.9996 35.703C67.9996 35.6698 67.9886 35.6476 67.9775 35.6145V35.5813C67.9665 35.5813 67.9222 35.4706 67.9222 35.4706L67.9 35.3931C67.9 35.3709 67.889 35.3599 67.8779 35.3378L67.8557 35.2935L67.8115 35.205L67.7451 35.1053L67.6787 35.0279L67.5901 34.9394L67.5016 34.8729L67.4684 34.8508C67.4573 34.8398 67.4462 34.8286 67.4242 34.8286L67.3245 34.7844L67.2803 34.7623C67.2692 34.7623 67.2471 34.7401 67.236 34.7401L67.1696 34.718C67.1585 34.718 67.1364 34.718 67.1142 34.7069H67.0367L67.0036 34.6737C66.9814 34.6516 66.9261 34.6516 66.8597 34.6516H66.738L66.5277 34.6405H66.4281H66.3948C66.3727 34.6405 66.3395 34.6405 66.3173 34.6516L66.251 34.6737L66.0849 34.718C66.0518 34.718 66.0186 34.7401 65.9853 34.7623L65.9411 34.7955L65.8857 34.8286L65.8525 34.8508L65.7862 34.9172L65.7308 34.9394C65.6976 34.9504 65.6644 34.9836 65.6311 35.0279V35.05C65.6201 35.05 65.5648 35.1053 65.5648 35.1053C65.5648 35.1053 65.5426 35.1275 65.5426 35.1385L65.4984 35.205L65.4541 35.2935L65.4209 35.3489C65.3987 35.382 65.3877 35.4263 65.3766 35.4706V35.4927L65.3324 35.5923V35.6366C65.3102 35.6588 65.3102 35.6809 65.3102 35.7141V35.7915L65.2881 36.0018V36.0571C65.2881 36.0904 65.2881 36.1236 65.3102 36.1457V36.1899C65.3213 36.1899 65.3324 36.2453 65.3324 36.2453C65.3324 36.2785 65.3434 36.3117 65.3656 36.345V36.3781C65.3767 36.3781 65.432 36.4888 65.432 36.4888L65.4541 36.5441C65.4652 36.5774 65.4873 36.5994 65.5095 36.6327L65.5426 36.6659L65.6091 36.7323L65.6976 36.8098L65.7529 36.8651C65.7751 36.8873 65.7972 36.8983 65.8193 36.9094L65.8747 36.9315L65.9411 36.9869L65.9964 37.02C66.0296 37.0422 66.0739 37.0532 66.1071 37.0532H66.1292L66.2177 37.0865C66.2399 37.0865 66.251 37.0865 66.262 37.0975H66.3285L66.3838 37.1307C66.417 37.1418 66.4613 37.1528 66.5055 37.1528V37.164ZM66.262 35.7915L66.3173 35.6809L66.3727 35.6145L66.4281 35.537L66.5277 35.5038H66.749C66.749 35.4927 66.8265 35.5591 66.8265 35.5591L66.9261 35.6145L67.0147 35.8026V36.0018L66.9704 36.1014L66.9039 36.201L66.8486 36.2675L66.738 36.3117H66.5387L66.4613 36.2675L66.3727 36.201L66.2952 36.0904V36.0018C66.2842 36.0018 66.262 35.7915 66.262 35.7915Z" fill="black"/>
<path d="M65.7291 43.8156L65.9947 43.7934L67.2785 43.7271L67.6105 43.7934C67.8319 43.8377 68.0643 43.7714 68.3521 43.6828L68.6177 43.5943L69.1822 43.4172L69.5031 43.3729C69.7245 43.3507 69.9347 43.3065 70.134 43.1958L70.5103 42.9966L70.9308 42.731L71.296 42.576C71.451 42.5096 71.5838 42.4654 71.6834 42.3768L72.1593 42.0116L72.7016 41.6021L72.9673 41.3807C73.0779 41.2701 73.1886 41.1815 73.2772 41.0598L73.5428 40.6724L73.8195 40.2075L74.24 39.5988L74.4171 39.2779C74.5057 39.1451 74.55 38.968 74.5942 38.8131L74.6606 38.5032L74.8377 38.0715C74.8819 37.9608 74.9262 37.8723 74.9483 37.7395L75.0369 37.2636L75.1697 36.6548C75.1919 36.522 75.2139 36.4114 75.2139 36.2675L75.1697 35.3046L75.1254 34.7844C75.1033 34.5852 75.059 34.4192 74.9705 34.22L74.8598 33.9765L74.6163 33.3014L74.4614 32.8034C74.4171 32.6926 74.3729 32.582 74.3064 32.4492L74.1293 32.1393L73.8859 31.6191L73.4985 31.0104L73.1111 30.5345L72.5688 30.0143L72.0265 29.6048L71.8273 29.4277C71.7166 29.3392 71.6502 29.317 71.5395 29.2507L70.9308 28.9408L70.6873 28.8079C70.5988 28.7415 70.4881 28.6972 70.3774 28.653L69.9679 28.498C69.8573 28.4538 69.7245 28.4317 69.6248 28.4095L69.1489 28.3431L68.9055 28.166C68.7505 28.0553 68.4517 28.0332 68.0311 28.0553L67.2232 28.0332L65.8951 27.9668L65.2421 28.011H65.0207C64.8658 28.011 64.6887 28.0332 64.5448 28.0996L64.0911 28.2546L63.0728 28.5202C62.8515 28.5866 62.6633 28.6751 62.4641 28.83L62.2206 29.0071L61.8443 29.2507L61.6451 29.4056L61.2245 29.7929L60.9036 29.9036C60.6822 29.9922 60.4719 30.1693 60.2727 30.4238L60.1842 30.5566L59.8522 30.9218C59.8079 30.9883 59.7414 31.0325 59.6972 31.1211L59.3873 31.5527L59.0774 32.0729L58.8561 32.4381C58.7233 32.6816 58.6347 32.9362 58.6126 33.2017V33.3788L58.347 34.0319L58.2584 34.2864C58.2142 34.4414 58.2142 34.5742 58.2142 34.7512V35.205L58.0813 36.511V36.8762C58.0813 37.0754 58.1256 37.2636 58.192 37.4407L58.3027 37.7505L58.3691 38.1047C58.3913 38.3261 58.4798 38.5364 58.5904 38.7356L58.7011 38.9347L59.011 39.6099L59.1438 39.9641C59.2103 40.1633 59.3431 40.3293 59.4648 40.4842L59.664 40.7056L60.0514 41.104L60.5716 41.6021L60.9479 41.9341C61.0807 42.0669 61.2356 42.1554 61.3794 42.2108L61.7226 42.3658L62.1764 42.731L62.5194 42.9524C62.7187 43.0851 62.9732 43.1737 63.2167 43.1958L63.3716 43.2179L63.8918 43.395C64.0025 43.4393 64.091 43.4614 64.1796 43.4835L64.6334 43.55L64.9654 43.7049C65.1646 43.7934 65.4191 43.8377 65.7069 43.8156H65.7291ZM64.246 35.2161L64.5891 34.5188L64.9321 34.1093L65.2753 33.6334L65.8619 33.3899L67.2563 33.3014L67.7544 33.733L68.3852 34.0982L68.9498 35.2271L68.9276 36.4889L68.6619 37.1418L68.2414 37.7948L67.8651 38.2154L67.19 38.5032L65.9282 38.5252L65.4302 38.2154L64.8658 37.7948L64.412 37.1197L64.3235 36.5331L64.2128 35.205L64.246 35.2161Z" fill="black"/>
<path d="M51.4416 43.8156L51.7072 43.7935L52.9911 43.7271L53.3231 43.7935C53.5444 43.8377 53.7769 43.7713 54.0646 43.6828L54.3302 43.5943L54.8947 43.4172L55.2157 43.3729C55.437 43.3507 55.6473 43.3065 55.8465 43.1958L56.2228 42.9966L56.6434 42.731L57.0086 42.576C57.1635 42.5096 57.2963 42.4654 57.396 42.3768L57.8719 42.0116L58.4142 41.6021L58.6798 41.3807C58.7905 41.2701 58.9012 41.1815 58.9897 41.0598L59.2553 40.6724L59.532 40.2075L59.9526 39.5989L60.1297 39.2779C60.2182 39.1451 60.2625 38.968 60.3067 38.8131L60.3732 38.5032L60.5502 38.0715C60.5945 37.9609 60.6388 37.8723 60.6609 37.7395L60.7494 37.2636L60.8822 36.6548C60.9044 36.522 60.9265 36.4114 60.9265 36.2675L60.8822 35.3046L60.838 34.7844C60.8159 34.5853 60.7716 34.4192 60.6831 34.22L60.5723 33.9765L60.3289 33.3014L60.1739 32.8033C60.1297 32.6927 60.0854 32.582 60.019 32.4492L59.8419 32.1393L59.5984 31.6191L59.211 31.0104L58.8237 30.5345L58.2814 30.0143L57.739 29.6048L57.5399 29.4277C57.4291 29.3392 57.3628 29.3171 57.252 29.2506L56.6434 28.9408L56.3999 28.808C56.3114 28.7415 56.2006 28.6972 56.09 28.653L55.6805 28.498C55.5698 28.4538 55.437 28.4316 55.3374 28.4095L54.8615 28.3431L54.618 28.166C54.463 28.0553 54.1642 28.0332 53.7436 28.0553L52.9357 28.0332L51.5855 28L50.9325 28.0443H50.7112C50.5562 28.0443 50.3791 28.0664 50.2352 28.1328L49.7814 28.2877L48.7632 28.5534C48.5419 28.6198 48.3537 28.7083 48.1545 28.8633L47.911 29.0404L47.5347 29.2838L47.3355 29.4388L46.9149 29.8261L46.594 29.9368C46.3726 30.0254 46.1624 30.2024 45.9631 30.457L45.8746 30.5898L45.5426 30.9551C45.4983 31.0214 45.4319 31.0657 45.3876 31.1542L45.0777 31.5859L44.7678 32.1061L44.5465 32.4713C44.4136 32.7148 44.3251 32.9693 44.303 33.235V33.4121L44.0374 34.065L43.9488 34.3196C43.9045 34.4745 43.9045 34.6073 43.9045 34.7844V35.2382L43.7717 36.5442V36.9094C43.7717 37.1086 43.816 37.2968 43.8825 37.4738L43.9931 37.7838L44.0595 38.1379C44.0816 38.3593 44.1702 38.5695 44.2808 38.7688L44.3916 38.968L44.7015 39.6431L44.8343 39.9973C44.9006 40.1965 45.0335 40.3625 45.1552 40.5175L45.3544 40.7388L45.7418 41.1373L46.262 41.6353L46.6382 41.9673C46.7711 42.1001 46.926 42.1887 47.0699 42.244L47.413 42.3989L47.8667 42.7641L48.2099 42.9855C48.4091 43.1183 48.6637 43.2069 48.9071 43.229L49.062 43.2511L49.5823 43.4282C49.6929 43.4725 49.7814 43.4946 49.87 43.5168L50.3238 43.5831L50.6558 43.7381C50.855 43.8267 51.1095 43.871 51.3974 43.8488L51.4416 43.8156ZM49.9585 35.2161L50.3017 34.5188L50.6447 34.1093L50.9879 33.6334L51.5744 33.3899L52.9689 33.3014L53.4669 33.733L54.0978 34.0982L54.6623 35.2272L54.6401 36.4888L54.3745 37.1419L53.954 37.7948L53.5777 38.2154L52.9025 38.5032L51.6408 38.5253L51.1428 38.2154L50.5783 37.7948L50.1246 37.1197L50.036 36.5331L49.9253 35.205L49.9585 35.2161Z" fill="black"/>
<path d="M53.2674 34.8397H51.4302V36.677H53.2674V34.8397Z" fill="black"/>
<path d="M53.2674 34.8397H51.4302V36.677H53.2674V34.8397Z" fill="black"/>
<mask id="mask2_1_6017" style="mask-type:luminance" maskUnits="userSpaceOnUse" x="51" y="34" width="3" height="3">
<path d="M53.2674 34.8397H51.4302V36.677H53.2674V34.8397Z" fill="white"/>
</mask>
<g mask="url(#mask2_1_6017)">
<path d="M52.3488 34.8397C52.8579 34.8397 53.2674 35.2492 53.2674 35.7584C53.2674 36.2675 52.8579 36.677 52.3488 36.677C51.8397 36.677 51.4302 36.2675 51.4302 35.7584C51.4302 35.2492 51.8397 34.8397 52.3488 34.8397Z" fill="black"/>
</g>
<path d="M52.2057 37.164H52.25L52.4602 37.1528H52.5156C52.5488 37.175 52.582 37.1528 52.6373 37.1528H52.6816C52.6816 37.1418 52.7701 37.1086 52.7701 37.1086H52.8255C52.8587 37.1086 52.8919 37.0865 52.9251 37.0754L52.9805 37.0422L53.0468 36.9979L53.1021 36.9758C53.1243 36.9758 53.1464 36.9536 53.1686 36.9426L53.246 36.8873L53.3346 36.8208L53.3788 36.7876C53.401 36.7655 53.4121 36.7545 53.4231 36.7323L53.4674 36.6659L53.5116 36.5884L53.5781 36.4888L53.6002 36.4335C53.6113 36.4113 53.6224 36.3892 53.6224 36.356V36.3117L53.6555 36.2453C53.6555 36.2232 53.6667 36.2121 53.6777 36.1899V36.1125C53.6887 36.1125 53.7109 36.0129 53.7109 36.0129C53.7109 35.9908 53.7109 35.9797 53.7109 35.9465V35.7915L53.6998 35.703C53.6998 35.6698 53.6887 35.6476 53.6777 35.6145V35.5813C53.6667 35.5813 53.6224 35.4706 53.6224 35.4706L53.6002 35.3931C53.6002 35.3709 53.5892 35.3599 53.5781 35.3378L53.5559 35.2935L53.5116 35.205L53.4453 35.1053L53.3788 35.0279L53.2903 34.9394L53.2018 34.8729L53.1686 34.8508C53.1575 34.8398 53.1464 34.8286 53.1243 34.8286L53.0247 34.7844L52.9805 34.7623C52.9693 34.7623 52.9472 34.7401 52.9362 34.7401L52.8697 34.718C52.8587 34.718 52.8365 34.718 52.8144 34.7069H52.7369L52.7038 34.6737C52.6816 34.6516 52.6263 34.6516 52.5598 34.6516H52.4381L52.2278 34.6405H52.1282H52.095C52.0729 34.6405 52.0397 34.6405 52.0175 34.6516L51.9511 34.6737L51.7851 34.718C51.752 34.718 51.7187 34.7401 51.6855 34.7623L51.6412 34.7955L51.5859 34.8286L51.5527 34.8508L51.4863 34.9172L51.431 34.9394C51.3978 34.9504 51.3646 34.9836 51.3313 35.0279V35.05C51.3203 35.05 51.265 35.1053 51.265 35.1053C51.265 35.1053 51.2428 35.1275 51.2428 35.1385L51.1985 35.205L51.1543 35.2935L51.1211 35.3489C51.0989 35.382 51.0879 35.4263 51.0768 35.4706V35.4927L51.0326 35.5923V35.6366C51.0104 35.6588 51.0104 35.6809 51.0104 35.7141V35.7915L50.9883 36.0018V36.0571C50.9883 36.0904 50.9883 36.1236 51.0104 36.1457V36.1899C51.0215 36.1899 51.0326 36.2453 51.0326 36.2453C51.0326 36.2785 51.0436 36.3117 51.0658 36.345V36.3781C51.0768 36.3781 51.1321 36.4888 51.1321 36.4888L51.1543 36.5441C51.1654 36.5774 51.1875 36.5994 51.2096 36.6327L51.2428 36.6659L51.3092 36.7323L51.3978 36.8098L51.4531 36.8651C51.4753 36.8873 51.4974 36.8983 51.5195 36.9094L51.5749 36.9315L51.6412 36.9869L51.6966 37.02C51.7298 37.0422 51.7741 37.0532 51.8073 37.0532H51.8294L51.9179 37.0865C51.9401 37.0865 51.9511 37.0865 51.9622 37.0975H52.0286L52.084 37.1307C52.1172 37.1418 52.1615 37.1528 52.2057 37.1528V37.164ZM51.9733 35.7915L52.0286 35.6809L52.084 35.6145L52.1393 35.537L52.2389 35.5038H52.4602C52.4602 35.4927 52.5377 35.5591 52.5377 35.5591L52.6373 35.6145L52.7259 35.8026V36.0018L52.6816 36.1014L52.6152 36.201L52.5598 36.2675L52.4492 36.3117H52.25L52.1725 36.2675L52.084 36.201L52.0065 36.0904V36.0018C51.9954 36.0018 51.9733 35.7915 51.9733 35.7915Z" fill="black"/>
</g>
</svg>
