<svg width="120" height="120" viewBox="0 0 120 120" fill="none" xmlns="http://www.w3.org/2000/svg">
<mask id="mask0_1_6192" style="mask-type:luminance" maskUnits="userSpaceOnUse" x="28" y="28" width="65" height="65">
<path d="M93 28H28V93H93V28Z" fill="white"/>
</mask>
<g mask="url(#mask0_1_6192)">
<path d="M64.3808 32.7559C60.201 29.4987 55.0067 27.8196 49.7113 28.0138C44.4159 28.2079 39.3586 30.263 35.4286 33.8175C30.9918 37.8301 28.3291 43.4397 28.0255 49.4142C27.7218 55.3886 29.802 61.2393 33.8091 65.681C37.358 69.6168 42.181 72.1751 47.4298 72.9062C52.6786 73.6374 58.0172 72.4945 62.5066 69.6785L45.0026 50.2788L64.3808 32.7559Z" fill="#4D5EFF"/>
<path d="M56.6216 86.8846C60.8009 90.1403 65.9941 91.8187 71.2882 91.6244C76.5824 91.4302 81.6387 89.376 85.5683 85.8229C90.0045 81.81 92.6667 76.2005 92.9706 70.2262C93.2737 64.252 91.1944 58.4014 87.1878 53.9593C83.6389 50.0237 78.8159 47.4653 73.5671 46.7341C68.3183 46.003 62.9798 47.1459 58.4903 49.9618L75.9943 69.3616L56.6161 86.8846H56.6216Z" fill="#00FFCE"/>
</g>
</svg>
