<svg width="120" height="120" viewBox="0 0 120 120" fill="none" xmlns="http://www.w3.org/2000/svg">
<mask id="mask0_1_6353" style="mask-type:luminance" maskUnits="userSpaceOnUse" x="27" y="28" width="65" height="65">
<path d="M92 28H27V93H92V28Z" fill="white"/>
</mask>
<g mask="url(#mask0_1_6353)">
<path d="M82.811 34.0856C74.9108 31.4694 68.1156 37.0214 66.5313 42.1022C66.5313 42.1022 60.8302 60.4106 58.4008 68.0481C57.2416 71.6935 54.3681 77.6572 48.9568 77.6572C44.5504 77.6572 42.2863 73.5217 41.3302 71.0571L34.7598 53.5422C33.9988 51.6979 34.795 48.0172 37.8473 46.915C41.1081 45.745 43.2043 48.4722 43.746 49.9212L51.9306 70.8837C53.8806 68.3704 55.121 64.2808 55.9281 61.3856L50.5548 47.2752C48.0063 40.6912 41.2652 37.6958 35.0225 39.9979C29.966 41.8612 25.0991 48.2421 27.7452 56.2614L34.5268 73.7031C35.556 76.3464 39.6213 84.9779 48.8133 84.9779C59.8443 84.9779 63.9827 75.5719 66.2793 68.1375C67.4277 64.4189 73.7246 44.3122 73.7246 44.3122C74.64 41.3087 78.3558 40.4447 80.6796 41.2031C82.3181 41.7339 85.2783 43.9954 84.3223 47.5C84.1435 48.1392 79.1223 64.316 77.2698 69.2371C76.3029 71.8046 73.8518 77.3783 68.2673 76.6037C66.5665 80.3683 65.1527 82.5594 63.0131 84.5256C69.979 87.8244 80.1298 84.5012 84.4035 71.5906C85.9906 66.7887 91.5646 49.4744 91.5646 49.4744C93.1836 44.1579 90.2941 36.561 82.811 34.0856Z" fill="url(#paint0_linear_1_6353)"/>
</g>
<defs>
<linearGradient id="paint0_linear_1_6353" x1="29.056" y1="43.2669" x2="97.8371" y2="74.8839" gradientUnits="userSpaceOnUse">
<stop stop-color="#40EDD8"/>
<stop offset="0.024" stop-color="#38E7E2"/>
<stop offset="0.084" stop-color="#28DAF7"/>
<stop offset="0.124" stop-color="#22D5FF"/>
<stop offset="0.36" stop-color="#1ABFFF"/>
<stop offset="0.85" stop-color="#0786FE"/>
<stop offset="0.909" stop-color="#047FFE"/>
</linearGradient>
</defs>
</svg>
