<svg width="120" height="120" viewBox="0 0 120 120" fill="none" xmlns="http://www.w3.org/2000/svg">
<rect width="120" height="120" fill="#133426"/>
<path fill-rule="evenodd" clip-rule="evenodd" d="M29.2478 27.7812C30.7079 26.5788 32.8664 26.7877 34.0689 28.2477L49.0529 46.4416C50.2554 47.9017 50.0465 50.06 48.5864 51.2625C47.1262 52.4646 44.9678 52.2557 43.7653 50.7957L28.7812 32.602C27.5787 31.1419 27.7876 28.9836 29.2478 27.7812Z" fill="white"/>
<path fill-rule="evenodd" clip-rule="evenodd" d="M56.4597 92C54.5682 92 53.0348 90.4669 53.0348 88.5755L53.0337 56.3484C53.0337 55.5165 53.3361 54.7135 53.8849 54.0886L74.8787 30.1834C76.1266 28.7622 78.291 28.6218 79.7124 29.8699C81.1335 31.1179 81.2739 33.2818 80.026 34.703L59.8835 57.6383L59.8847 88.575C59.8847 90.4664 58.3515 92 56.4597 92Z" fill="white"/>
<path fill-rule="evenodd" clip-rule="evenodd" d="M81.1114 65.504C83.0028 65.504 84.536 67.0376 84.536 68.929V88.1219C84.536 90.0133 83.0028 91.5465 81.1114 91.5465C79.22 91.5465 77.6865 90.0133 77.6865 88.1219V68.929C77.6865 67.0376 79.22 65.504 81.1114 65.504Z" fill="white"/>
<path d="M85.9468 60.4813C88.8861 60.4813 91.2691 58.0986 91.2691 55.1594C91.2691 52.22 88.8861 49.8375 85.9468 49.8375C83.0075 49.8375 80.6245 52.22 80.6245 55.1594C80.6245 58.0986 83.0075 60.4813 85.9468 60.4813Z" fill="#00FF00"/>
</svg>
