<svg width="24" height="24" viewBox="0 0 24 24" fill="none" xmlns="http://www.w3.org/2000/svg">
<path d="M10.3967 10.2432H7.19866V7.2H9.77192C10.1154 7.2 10.396 6.91865 10.396 6.57567V4H13.4386V7.2C13.4387 7.59973 13.3601 7.99555 13.2072 8.36486C13.0543 8.73417 12.8302 9.06972 12.5476 9.35233C12.2651 9.63495 11.9296 9.8591 11.5604 10.012C11.1912 10.1648 10.7955 10.2434 10.396 10.2432H10.3967ZM7.19866 10.5561H4V13.5993H6.5746C6.91743 13.5993 7.19866 13.8807 7.19866 14.2237V16.7993H10.2406V13.5993C10.2407 13.1997 10.1621 12.8039 10.0093 12.4346C9.85642 12.0654 9.63235 11.7298 9.34986 11.4472C9.06737 11.1646 8.73199 10.9405 8.36288 10.7876C7.99377 10.6346 7.59816 10.556 7.19866 10.5561ZM17.4254 10.3987C17.2601 10.3981 17.1016 10.3322 16.9847 10.2152C16.8678 10.0982 16.8019 9.93975 16.8013 9.77434V7.2H13.7594V10.3987C13.7592 10.7984 13.8377 11.1942 13.9905 11.5636C14.1434 11.9329 14.3674 12.2685 14.6499 12.5512C14.9324 12.8339 15.2678 13.0581 15.637 13.211C16.0061 13.364 16.4018 13.4427 16.8013 13.4426H20V10.4H17.4254V10.3987ZM10.5533 16.8V20H13.596V17.4243C13.596 17.0807 13.8772 16.8 14.22 16.8H16.7946V13.7547H13.5953C13.1957 13.7546 12.8 13.8332 12.4307 13.9861C12.0615 14.139 11.726 14.3632 11.4434 14.6459C11.1609 14.9286 10.9368 15.2642 10.7839 15.6336C10.6311 16.003 10.5525 16.3989 10.5527 16.7987L10.5533 16.8Z" fill="#F0529C"/>
</svg>
