<svg width="24" height="24" viewBox="0 0 24 24" fill="none" xmlns="http://www.w3.org/2000/svg">
<path fill-rule="evenodd" clip-rule="evenodd" d="M8.50087 15L8.24557 14.1677H5.89078L5.63478 15H4L6.36383 8.1481H7.77322L10.1663 15H8.50087ZM7.07339 10.1052L6.25948 12.9246H7.86783L7.07339 10.1052ZM10.3478 8.1481H11.8991V15H10.3478V8.1481ZM12.3165 13.6001C12.3861 13.262 12.5092 12.9379 12.681 12.6411C12.8299 12.3899 13.0163 12.1652 13.2341 11.9755C13.4567 11.7844 13.6918 11.6115 13.9388 11.4568C14.1336 11.3392 14.3144 11.2258 14.4821 11.1187C14.6365 11.0207 14.7833 10.9115 14.9217 10.7911C15.0414 10.6876 15.1423 10.5637 15.2195 10.4237C15.2939 10.2844 15.3308 10.1276 15.3287 9.96869C15.3287 9.69431 15.2563 9.49692 15.111 9.37653C14.9586 9.2532 14.7673 9.18888 14.5718 9.19524C14.3493 9.18888 14.1333 9.27171 13.9715 9.42552C13.8108 9.57881 13.7301 9.835 13.7301 10.1941H12.2087C12.2058 9.89633 12.2587 9.60069 12.3645 9.32263C12.4661 9.05874 12.6226 8.82146 12.8237 8.62757C13.0365 8.42458 13.2877 8.26779 13.561 8.1677C13.8819 8.05128 14.2211 7.99459 14.5621 8.00041C14.8543 7.99901 15.1464 8.0403 15.4275 8.1229C15.689 8.19779 15.9353 8.32379 16.151 8.49458C16.3631 8.66677 16.5336 8.88795 16.6477 9.14064C16.7763 9.43392 16.839 9.7531 16.832 10.0751C16.8355 10.3481 16.7736 10.6169 16.6518 10.859C16.5357 11.0886 16.3875 11.3 16.2122 11.4848C16.041 11.6661 15.8525 11.8278 15.6501 11.9699C15.4483 12.1099 15.2647 12.2289 15.1012 12.3269C14.8744 12.4836 14.6866 12.6187 14.5384 12.7328C14.4111 12.8283 14.2924 12.9348 14.1837 13.0513C14.1018 13.1385 14.039 13.242 13.9993 13.3551C13.963 13.4722 13.9456 13.5944 13.9478 13.717H16.7847V15H12.1892C12.181 14.5301 12.2237 14.0607 12.3165 13.6001ZM17.0783 9.35133C17.3434 9.35689 17.6082 9.33223 17.8678 9.27783C18.0417 9.24353 18.2045 9.16864 18.345 9.05804C18.4584 8.96075 18.5398 8.83126 18.5816 8.68567C18.6289 8.51068 18.6511 8.32869 18.6477 8.1467H20V15H18.4397V10.4678H17.0783V9.35133Z" fill="black"/>
</svg>
