<svg width="24" height="24" viewBox="0 0 24 24" fill="none" xmlns="http://www.w3.org/2000/svg">
<path d="M9.90535 15.7432C10.0093 15.4672 9.94868 15.5612 10.2353 15.8085C11.6173 17.0032 17.1247 14.5719 16.2587 13.1505C15.1887 11.6685 10.976 12.6705 8.59268 13.1185C8.97268 12.9459 10.4827 12.4532 11.05 12.3099C11.8293 12.1125 12.15 12.0485 12.8754 11.8759C11.242 12.0425 8.73134 12.8712 6.41734 13.7405C7.54534 12.8432 9.80201 12.0485 10.32 11.8065C9.24934 12.0485 7.25601 12.9452 5.75667 13.7032C4.90534 14.1332 4.62133 14.2932 4 14.6385C4.464 14.2419 5.02 13.7165 5.96734 13.1612C7.11001 12.4925 7.17734 12.4625 7.52267 12.2552C6.69334 12.6005 5.934 12.9465 5.416 13.1192C5.93134 12.7632 6.90067 12.2212 7.28067 12.0485C7.16534 12.0585 6.93534 12.1519 6.79734 12.1865C7.48801 11.8065 7.99667 11.6332 8.28668 11.5399C13.2334 9.91187 18.9527 10.0852 19.8334 11.8919C20.7147 13.6985 17.9894 16.2159 14.2687 17.0312C13.6247 17.1725 13.0547 17.2499 12.518 17.2699C11.9607 17.2905 11.5527 17.2665 11.16 17.1899C10.118 16.9865 9.66868 16.3685 9.90535 15.7432Z" fill="#003E97"/>
<path d="M11.6667 8.45652C12.1154 8.52586 12.3227 8.56052 12.5647 8.56052C12.1847 8.31852 12.0967 8.29052 11.218 7.80052C12.0807 7.73186 12.4887 7.78452 13.462 7.76586C13.048 7.52452 12.8407 7.52452 12.392 7.31719C13.0124 7.26848 13.6344 7.24535 14.2567 7.24786C14.1828 7.14858 14.0884 7.06629 13.98 7.00652C14.9467 6.97186 16.32 7.07052 17.1034 7.41986C18.6314 8.10452 18.4334 9.16586 16.7234 9.46186C16.4094 9.51586 15.8467 9.56052 15.474 9.56186C14.9957 9.55562 14.5189 9.50834 14.0487 9.42052C12.8014 9.18186 11.8394 8.76719 11.6667 8.45652Z" fill="#D70D19"/>
</svg>
