<svg width="24" height="24" viewBox="0 0 24 24" fill="none" xmlns="http://www.w3.org/2000/svg">
<path fill-rule="evenodd" clip-rule="evenodd" d="M8.50881 10.4747C8.50881 10.672 8.53015 10.8314 8.56748 10.948C8.61015 11.0654 8.66348 11.1934 8.73815 11.332C8.76481 11.374 8.77548 11.4167 8.77548 11.454C8.77548 11.5074 8.74348 11.5607 8.67415 11.614L8.33881 11.8374C8.29828 11.8666 8.25007 11.8833 8.20014 11.8854C8.14681 11.8854 8.09348 11.8587 8.04081 11.8107C7.96919 11.7337 7.90512 11.6499 7.84947 11.5607C7.78988 11.4584 7.73472 11.3537 7.68414 11.2467C7.26947 11.736 6.74747 11.9807 6.11947 11.9807C5.6728 11.9807 5.31613 11.8534 5.05546 11.598C4.79546 11.342 4.66212 11.002 4.66212 10.576C4.66212 10.124 4.82213 9.75601 5.14613 9.48001C5.4708 9.20334 5.90146 9.06468 6.44947 9.06468C6.6308 9.06468 6.8168 9.08068 7.01347 9.10734C7.2108 9.13401 7.41347 9.17668 7.62547 9.22468V8.83601C7.62547 8.43134 7.54081 8.14934 7.37547 7.98467C7.20547 7.81934 6.91814 7.74 6.5088 7.74C6.32213 7.74 6.13013 7.76067 5.93346 7.80867C5.7368 7.85667 5.5448 7.91534 5.3588 7.99001C5.29807 8.01697 5.23573 8.04013 5.17213 8.05934C5.14471 8.06818 5.11624 8.07333 5.08746 8.07467C5.01279 8.07467 4.97546 8.02134 4.97546 7.91V7.64934C4.97546 7.564 4.98613 7.5 5.01279 7.46267C5.05306 7.41427 5.10424 7.37611 5.16213 7.35134C5.37534 7.24547 5.6002 7.16493 5.83213 7.11133C6.10348 7.04187 6.38272 7.00803 6.6628 7.01067C7.29614 7.01067 7.75881 7.15467 8.05681 7.442C8.35014 7.72867 8.49815 8.16534 8.49815 8.75068V10.4747H8.50881ZM6.3488 11.284C6.52413 11.284 6.7048 11.252 6.8968 11.188C7.09196 11.1206 7.26614 11.0034 7.40214 10.848C7.48809 10.7497 7.55015 10.6329 7.58347 10.5067C7.61481 10.3794 7.63681 10.2247 7.63681 10.044V9.82068C7.4753 9.78131 7.31171 9.75104 7.1468 9.73001C6.98097 9.70894 6.81397 9.69826 6.6468 9.69801C6.29013 9.69801 6.02947 9.76735 5.85346 9.91135C5.67813 10.0547 5.59346 10.2567 5.59346 10.5227C5.59346 10.7727 5.6568 10.9594 5.79013 11.0867C5.91746 11.22 6.10347 11.284 6.3488 11.284ZM10.6222 11.8587C10.5262 11.8587 10.4622 11.8427 10.4195 11.8054C10.3768 11.7734 10.3395 11.6987 10.3075 11.598L9.05748 7.484C9.03317 7.41502 9.01705 7.34342 9.00948 7.27067C9.00948 7.18533 9.05215 7.13733 9.13681 7.13733H9.65882C9.75948 7.13733 9.82882 7.154 9.86549 7.19067C9.90882 7.22267 9.94082 7.29733 9.97215 7.39867L10.8668 10.9214L11.6968 7.39867C11.7235 7.292 11.7555 7.22267 11.7975 7.19067C11.8615 7.15144 11.9359 7.13282 12.0108 7.13733H12.4362C12.5375 7.13733 12.6068 7.154 12.6495 7.19067C12.6915 7.22267 12.7295 7.29733 12.7502 7.39867L13.5908 10.964L14.5115 7.39867C14.5435 7.292 14.5808 7.22267 14.6182 7.19067C14.6799 7.15146 14.7525 7.13279 14.8255 7.13733H15.3208C15.4055 7.13733 15.4542 7.18067 15.4542 7.27067C15.4542 7.29733 15.4482 7.324 15.4428 7.356C15.4345 7.40149 15.422 7.44612 15.4055 7.48934L14.1235 11.6027C14.0915 11.7094 14.0542 11.778 14.0115 11.81C13.9514 11.8486 13.8808 11.8672 13.8095 11.8634H13.3515C13.2515 11.8634 13.1815 11.8474 13.1382 11.81C13.0962 11.7727 13.0588 11.7034 13.0382 11.5967L12.2135 8.16467L11.3935 11.5914C11.3668 11.698 11.3355 11.7674 11.2935 11.8047C11.2502 11.842 11.1755 11.858 11.0802 11.858L10.6228 11.8587H10.6222ZM17.4595 12.002C17.1829 12.002 16.9062 11.97 16.6402 11.9067C16.3742 11.8427 16.1669 11.7734 16.0282 11.6934C15.9429 11.646 15.8849 11.5927 15.8635 11.5447C15.8427 11.4976 15.8318 11.4468 15.8315 11.3954V11.124C15.8315 11.0127 15.8742 10.9594 15.9535 10.9594C15.9855 10.9594 16.0175 10.9647 16.0495 10.9754C16.0815 10.986 16.1295 11.0074 16.1829 11.0287C16.3635 11.1087 16.5602 11.172 16.7682 11.2147C16.9815 11.2574 17.1882 11.2787 17.4015 11.2787C17.7362 11.2787 17.9975 11.22 18.1782 11.1027C18.2648 11.0504 18.336 10.976 18.3846 10.8873C18.4332 10.7985 18.4574 10.6985 18.4549 10.5974C18.4568 10.5288 18.4452 10.4606 18.4205 10.3967C18.3959 10.3327 18.3589 10.2742 18.3115 10.2247C18.2155 10.124 18.0342 10.0333 17.7735 9.94802L17.0022 9.70801C16.6135 9.58601 16.3262 9.40535 16.1509 9.16601C15.9792 8.94513 15.8855 8.67371 15.8842 8.39401C15.8842 8.17067 15.9329 7.974 16.0282 7.80334C16.1242 7.63334 16.2515 7.484 16.4115 7.36734C16.5715 7.24467 16.7515 7.154 16.9649 7.09067C17.1782 7.02667 17.4015 7 17.6355 7C17.7522 7 17.8755 7.00533 17.9922 7.02133C18.1142 7.03733 18.2255 7.05867 18.3375 7.08C18.4442 7.10667 18.5455 7.13333 18.6409 7.16467C18.7369 7.19667 18.8115 7.22867 18.8649 7.26067C18.9277 7.2923 18.9824 7.33791 19.0249 7.394C19.0592 7.44577 19.0758 7.50731 19.0722 7.56934V7.81934C19.0722 7.93134 19.0295 7.99001 18.9495 7.99001C18.8787 7.98188 18.8101 7.96015 18.7475 7.926C18.426 7.78398 18.0776 7.71325 17.7262 7.71867C17.4229 7.71867 17.1829 7.766 17.0182 7.86734C16.8529 7.96867 16.7682 8.12267 16.7682 8.34067C16.7682 8.49001 16.8215 8.61801 16.9282 8.71868C17.0349 8.82001 17.2309 8.92134 17.5129 9.01201L18.2689 9.25068C18.6515 9.37335 18.9289 9.54401 19.0935 9.76201C19.2582 9.98002 19.3382 10.23 19.3382 10.5067C19.3382 10.7354 19.2902 10.9434 19.2002 11.124C19.1056 11.3062 18.9731 11.466 18.8115 11.5927C18.6462 11.726 18.4495 11.8214 18.2209 11.8907C17.9809 11.9647 17.7315 12.002 17.4595 12.002Z" fill="black"/>
<path fill-rule="evenodd" clip-rule="evenodd" d="M4.2521 13.3167C6.50811 14.6254 9.29212 15.4187 12.1701 15.4187C14.1128 15.4187 16.2462 15.0141 18.2102 14.1841C18.5035 14.0507 18.7528 14.3754 18.4655 14.5887C16.7148 15.8821 14.1708 16.5681 11.9841 16.5681C8.91879 16.5681 6.15744 15.4347 4.07076 13.5507C3.90609 13.402 4.05476 13.1994 4.2521 13.3167ZM19.9395 13.1834C20.1308 13.4234 19.8862 15.0674 18.9495 15.8547C18.8062 15.9774 18.6675 15.9134 18.7315 15.7541L18.8482 15.4614C19.0768 14.8747 19.3828 13.9961 19.1948 13.7581C18.9708 13.4714 17.7148 13.6201 17.1455 13.6894C16.9755 13.7107 16.9488 13.5614 17.1035 13.4494C18.1035 12.7474 19.7482 12.9494 19.9395 13.1834Z" fill="#FF9900"/>
</svg>
