<svg width="24" height="24" viewBox="0 0 24 24" fill="none" xmlns="http://www.w3.org/2000/svg">
<path d="M16.803 4.0877C16.76 4.01703 16.6606 3.97437 16.5746 4.01703L14.9697 4.90568C14.1599 5.35767 13.6482 5.83699 13.3353 6.75364C13.1971 7.16286 13.1459 7.59613 13.1851 8.02599C13.2243 8.45586 13.3529 8.87297 13.5629 9.25091C13.6052 9.32158 13.7053 9.36424 13.7899 9.32158L15.3961 8.43293C16.206 7.98094 16.7177 7.50162 17.0299 6.58497C17.1684 6.1757 17.2197 5.74234 17.1806 5.31235C17.1415 4.88236 17.0129 4.46511 16.803 4.08703V4.0877ZM5.29332 7.61428C5.23706 7.61547 5.18344 7.63819 5.14365 7.67769C5.10387 7.71719 5.08098 7.77043 5.07978 7.82628C5.07978 8.96892 5.5767 9.99823 6.359 10.7035C7.26823 11.5222 8.12037 11.7335 9.2861 11.7335H11.588C11.7015 11.7335 11.8009 11.6349 11.8009 11.5222C11.8009 10.3796 11.304 9.34891 10.5223 8.64426C9.61246 7.82628 8.76031 7.61362 7.59458 7.61362H5.29399L5.29332 7.61428ZM19.9993 11.0282C19.998 10.9726 19.9751 10.9196 19.9355 10.8803C19.8958 10.8409 19.8425 10.8182 19.7865 10.8169V10.8302H17.4563C16.2765 10.8302 15.4102 11.0569 14.4863 11.8749C13.6905 12.5655 13.1795 13.6235 13.1795 14.7808C13.1795 14.8935 13.2789 14.9921 13.3924 14.9921H15.7225C16.9023 14.9921 17.7686 14.7661 18.6926 13.9481C19.1044 13.5795 19.4336 13.1291 19.6588 12.6261C19.8841 12.1231 19.9996 11.5787 19.9993 11.0282ZM4 14.5268C4 14.3715 4.12759 14.2301 4.29815 14.2301H7.52407C9.15785 14.2301 10.3511 14.5408 11.6303 15.6834C12.7249 16.6567 13.4065 18.11 13.4206 19.7033C13.4206 19.8587 13.293 20 13.1224 20H9.89718C8.26273 20 7.06946 19.704 5.79024 18.5614C4.69568 17.5734 4.0141 16.1201 4 14.5268Z" fill="#416FDC"/>
</svg>
