<svg width="24" height="24" viewBox="0 0 24 24" fill="none" xmlns="http://www.w3.org/2000/svg">
<path d="M18.5566 7.74L15.9013 9.28C15.8103 9.33197 15.7074 9.35931 15.6026 9.35931C15.4978 9.35931 15.3949 9.33197 15.3039 9.28L12.3733 7.58933C12.2822 7.53724 12.1792 7.50983 12.0743 7.50983C11.9694 7.50983 11.8663 7.53724 11.7753 7.58933L8.85062 9.28C8.75966 9.33197 8.65671 9.35931 8.55195 9.35931C8.44719 9.35931 8.34424 9.33197 8.25329 9.28L5.59729 7.74467L12.0813 4L18.5566 7.74Z" fill="#5BCA87"/>
<path d="M16.5073 10.3113C16.418 10.3639 16.3441 10.439 16.2929 10.5291C16.2417 10.6191 16.2149 10.721 16.2153 10.8246V14.206C16.2148 14.31 16.1872 14.412 16.1351 14.502C16.0831 14.5921 16.0085 14.667 15.9186 14.7193L12.9666 16.3926C12.8755 16.4447 12.8 16.5202 12.7479 16.6113C12.6957 16.7024 12.6688 16.8057 12.67 16.9106V19.982L15.6226 18.2913L19.1626 16.26V8.7713L16.5073 10.3113Z" fill="#EC5D3E"/>
<path d="M11.4 16.6273C11.3531 16.5332 11.2831 16.4525 11.1967 16.3927L8.24399 14.7153C8.15676 14.6619 8.0846 14.587 8.03433 14.4979C7.98405 14.4088 7.95732 14.3083 7.95666 14.206V10.8207C7.95459 10.7176 7.92572 10.6169 7.87288 10.5284C7.82004 10.4399 7.74506 10.3667 7.65533 10.316L7.35466 10.1427L5 8.772V16.26L8.54066 18.2913L11.4973 20V16.928C11.4928 16.821 11.4592 16.7166 11.4 16.6273Z" fill="#2464F5"/>
</svg>
