<svg width="24" height="24" viewBox="0 0 24 24" fill="none" xmlns="http://www.w3.org/2000/svg">
<path fill-rule="evenodd" clip-rule="evenodd" d="M7.318 6.52427C7.23045 6.44596 7.15959 6.35079 7.10967 6.24445C7.05975 6.13812 7.0318 6.0228 7.02749 5.90541C7.02317 5.78803 7.04258 5.67097 7.08456 5.56126C7.12653 5.45155 7.19021 5.35143 7.27178 5.2669C7.35335 5.18237 7.45113 5.11516 7.55928 5.0693C7.66743 5.02344 7.78371 4.99987 7.90118 5C8.01865 5.00013 8.13489 5.02395 8.24293 5.07005C8.35098 5.11614 8.44862 5.18356 8.53 5.26827L10.4153 7.08694C10.4687 7.13894 10.5147 7.1956 10.552 7.25627H13.4033C13.4417 7.19439 13.4876 7.13751 13.54 7.08694L15.4253 5.26827C15.5937 5.11767 15.8139 5.03817 16.0396 5.04646C16.2654 5.05476 16.4791 5.15021 16.636 5.31277C16.7929 5.47533 16.8807 5.69235 16.8809 5.91826C16.8811 6.14416 16.7938 6.36137 16.6373 6.52427L15.88 7.25694H16.4453C17.388 7.25711 18.2921 7.63168 18.9587 8.29827C19.6253 8.96486 19.9998 9.8689 20 10.8116V15.7049C20.0001 16.1719 19.9082 16.6343 19.7296 17.0657C19.5509 17.4971 19.2891 17.8892 18.9589 18.2194C18.6288 18.5496 18.2368 18.8115 17.8054 18.9902C17.374 19.169 16.9116 19.2609 16.4447 19.2609H7.55533C6.6124 19.2609 5.70809 18.8864 5.04133 18.2196C4.37458 17.5528 4 16.6485 4 15.7056V10.8116C4 9.86867 4.37458 8.96436 5.04133 8.2976C5.70809 7.63085 6.6124 7.25627 7.55533 7.25627H8.076L7.318 6.5236V6.52427ZM7.55533 8.97094C7.08389 8.97111 6.63182 9.15852 6.29853 9.49194C5.96523 9.82536 5.778 10.2775 5.778 10.7489V15.7683C5.77818 16.2396 5.96549 16.6916 6.29876 17.0248C6.63204 17.3581 7.08401 17.5454 7.55533 17.5456H16.4447C16.916 17.5454 17.368 17.3581 17.7012 17.0248C18.0345 16.6916 18.2218 16.2396 18.222 15.7683V10.7483C18.2218 10.2769 18.0345 9.82498 17.7012 9.4917C17.368 9.15842 16.916 8.97111 16.4447 8.97094H7.55533ZM8.44467 12.4323C8.44467 12.1966 8.53829 11.9705 8.70495 11.8039C8.87161 11.6372 9.09764 11.5436 9.33333 11.5436C9.56902 11.5436 9.79506 11.6372 9.96172 11.8039C10.1284 11.9705 10.222 12.1966 10.222 12.4323V13.2269C10.222 13.4626 10.1284 13.6887 9.96172 13.8553C9.79506 14.022 9.56902 14.1156 9.33333 14.1156C9.09764 14.1156 8.87161 14.022 8.70495 13.8553C8.53829 13.6887 8.44467 13.4626 8.44467 13.2269V12.4323ZM14.6667 11.5436C14.176 11.5436 13.778 11.9416 13.778 12.4323V13.2269C13.778 13.3436 13.801 13.4592 13.8456 13.567C13.8903 13.6748 13.9558 13.7728 14.0383 13.8553C14.1208 13.9378 14.2188 14.0033 14.3266 14.048C14.4344 14.0926 14.55 14.1156 14.6667 14.1156C14.7834 14.1156 14.8989 14.0926 15.0067 14.048C15.1146 14.0033 15.2125 13.9378 15.295 13.8553C15.3776 13.7728 15.443 13.6748 15.4877 13.567C15.5323 13.4592 15.5553 13.3436 15.5553 13.2269V12.4323C15.5553 11.9416 15.1573 11.5436 14.6667 11.5436Z" fill="#FB7299"/>
</svg>
