<svg width="24" height="24" viewBox="0 0 24 24" fill="none" xmlns="http://www.w3.org/2000/svg">
<path d="M16.1429 10.1083C15.8571 9.67658 15.5238 9.22092 15.1429 8.74127C15.1429 8.74127 13.8571 7.23037 14.0714 5C14.0714 5 9.14286 6.94258 9.07143 10.8997C9.07143 10.8997 8.35714 9.74853 8.5 7.59011C8.5 7.59011 6.92857 9.101 6.71429 11.5472C5.21429 12.0508 4 13.3459 4 14.641C4 16.4396 5.92857 17.9505 8.21429 17.9505C6.5 17.6627 5.21429 16.5116 5.21429 15.0726C5.21429 14.0654 5.78571 13.274 6.64286 12.6984C6.69048 13.226 6.80952 13.8016 7 14.4251C7 14.4251 7.85714 17.1591 10.8571 17.8786C11.7143 18.0944 12.6429 18.0225 13.5 17.6627C14.4286 17.2311 15.5 16.3677 15.5 14.4251C15.5 14.4251 15.5714 12.4825 14.4286 11.4753C14.4286 11.4753 15.9286 15.0726 13.1429 16.1519C12.2143 16.5116 11.2857 16.5116 10.3571 16.1519C9.14286 15.6482 7.64286 14.3532 7.85714 10.9716C7.85714 10.9716 8.57143 13.4178 10.1429 14.3532C10.1429 14.3532 8.71429 10.1802 12.9286 7.30232C12.9286 7.30232 13.2857 8.81321 14.2857 9.67658C14.5714 9.96437 17.1429 11.9789 16.6429 15.4324C17.1429 14.7848 17.5714 13.202 17.1429 11.9789C17.1429 11.9789 17.0714 11.6911 16.8571 11.3314C17.9286 11.5472 18.7857 12.4106 18.8571 14.3532C18.9286 16.008 17.7143 17.375 16.1429 17.9505C18.2857 17.6627 20 16.008 20 13.9215C20 11.907 18.4286 10.2522 16.1429 10.1083Z" fill="url(#paint0_linear_15_4942)"/>
<defs>
<linearGradient id="paint0_linear_15_4942" x1="12.0414" y1="9.04201" x2="12.0121" y2="15.6957" gradientUnits="userSpaceOnUse">
<stop stop-color="#F7B52C"/>
<stop offset="1" stop-color="#E95513"/>
</linearGradient>
</defs>
</svg>
