<svg width="24" height="24" viewBox="0 0 24 24" fill="none" xmlns="http://www.w3.org/2000/svg">
<path d="M14.1411 16.336L12.9018 16.0123V10.0981L14.2283 9.76214C14.9556 9.57742 15.5665 9.42687 15.5956 9.43269C15.6189 9.43269 15.6363 11.0581 15.6363 13.0487V16.6654L15.5083 16.6596C15.4327 16.6596 14.816 16.5098 14.1411 16.336Z" fill="#00C8D2"/>
<path d="M8.36365 14.8486C8.36365 12.8588 8.3811 11.2268 8.41019 11.2268C8.43347 11.221 9.04438 11.3723 9.77747 11.557L11.0982 11.8923L11.0866 14.8377L11.0691 17.7825L9.88219 18.0894C9.23056 18.2566 8.61965 18.413 8.53237 18.4305L8.36365 18.4712V14.8486Z" fill="#3C8CFF"/>
<path d="M17.2654 11.8923C17.2654 5.32507 17.2713 4.97234 17.3702 5.00143C17.4225 5.01889 17.9404 5.15198 18.5164 5.2967C19.0924 5.44725 19.6625 5.59125 19.7847 5.62034L20 5.67852L19.9884 11.904L19.9709 18.1352L18.7898 18.4363C18.144 18.6036 17.5331 18.7542 17.44 18.7782L17.2654 18.8182V11.8923Z" fill="#78E6DC"/>
<path d="M4 11.9156C4 8.5134 4.01745 5.73013 4.04655 5.73013C4.06982 5.73013 4.68073 5.88068 5.408 6.06031L6.73455 6.39559V11.9098C6.73455 14.9352 6.72291 17.4181 6.71127 17.4181C6.69382 17.4181 6.07709 17.5745 5.344 17.7599L4 18.1003V11.9156Z" fill="#325AB4"/>
</svg>
