<svg width="24" height="24" viewBox="0 0 24 24" fill="none" xmlns="http://www.w3.org/2000/svg">
<path fill-rule="evenodd" clip-rule="evenodd" d="M10.6114 5C13.8821 5 17.3968 7.56555 16.5648 11.877C16.5555 11.9225 16.5401 11.968 16.5268 12.0135L16.5248 11.8334C16.4695 9.88345 15.5021 6.02635 10.6114 6.02635C8.34938 6.02635 5.18668 8.01145 5.32468 11.3291C5.29801 14.4347 7.6947 16.789 10.6247 16.7448L10.6734 16.7442C11.4734 16.7228 12.5154 16.4653 12.7401 15.6671C12.7821 15.647 12.9134 16.0143 12.9188 16.0559C12.9508 16.2223 12.9934 16.2957 13.0468 16.2769C13.7008 16.0507 14.5708 15.4825 14.3481 14.7298C14.2308 14.3333 13.1648 14.6343 13.0674 14.5043C13.3461 13.8679 14.5568 13.9024 15.1694 14.0389C15.4648 14.1052 15.6075 14.2859 15.8441 14.3262C16.0375 14.36 16.4981 14.1962 16.4841 14.4835C15.4841 16.4608 13.2221 18 10.6121 18C6.43602 18 4 14.4731 4 11.3291C4 7.56555 7.30603 5 10.6114 5ZM10.6001 7.145C10.9227 7.145 11.3501 7.29125 11.5201 7.52525C13.9661 7.6195 14.3954 9.27115 14.6494 11.0639C14.8194 12.2586 14.8594 12.5588 14.7708 11.9654L14.8261 12.3489C14.8714 12.6401 15.1954 12.8279 15.4808 12.6843C15.5768 12.6355 15.6501 12.5341 15.6995 12.3788C15.7047 12.362 15.7134 12.3465 15.725 12.333C15.7366 12.3196 15.7509 12.3086 15.767 12.3007C15.783 12.2929 15.8006 12.2882 15.8185 12.2871C15.8365 12.286 15.8545 12.2884 15.8715 12.2943L16.2881 12.4373C16.3191 12.4485 16.3447 12.4705 16.36 12.4991C16.3753 12.5277 16.3791 12.5608 16.3708 12.592C16.3094 12.8155 16.1927 13.0208 16.0308 13.19C15.4454 13.786 14.1928 13.6216 13.9774 12.787C13.8841 12.4269 13.9408 12.3801 13.7474 11.9797C13.5528 11.576 12.9221 11.5188 12.6208 11.7879C12.3908 11.9927 12.3494 12.3112 12.3501 12.6212L12.4001 14.035C12.4001 14.1902 12.3369 14.3389 12.2243 14.4487C12.1118 14.5584 11.9592 14.62 11.8001 14.62H10.8667C10.7879 14.62 10.7099 14.6049 10.6371 14.5755C10.5643 14.5461 10.4982 14.503 10.4425 14.4487C10.3868 14.3943 10.3426 14.3298 10.3124 14.2589C10.2822 14.1879 10.2667 14.1118 10.2667 14.035V13.6125C10.2667 13.5143 10.2469 13.4171 10.2084 13.3264C10.1698 13.2358 10.1134 13.1533 10.0422 13.0839C9.97098 13.0145 9.88647 12.9595 9.79345 12.9219C9.70043 12.8843 9.60074 12.865 9.50006 12.865C9.39937 12.865 9.29968 12.8843 9.20666 12.9219C9.11364 12.9595 9.02913 13.0145 8.95794 13.0839C8.88674 13.1533 8.83027 13.2358 8.79174 13.3264C8.75321 13.4171 8.73338 13.5143 8.73338 13.6125V14.035C8.73338 14.1902 8.67017 14.3389 8.55764 14.4487C8.44512 14.5584 8.29251 14.62 8.13338 14.62H7.20003C7.0409 14.62 6.88829 14.5584 6.77576 14.4487C6.66324 14.3389 6.60003 14.1902 6.60003 14.035L6.62336 11.9296C6.63136 10.705 6.8607 9.55195 8.27004 9.24255C8.40338 9.2133 8.43805 9.32705 8.46338 9.46485C8.48005 9.56495 8.49205 9.62865 8.49871 9.65595C8.96605 11.6436 9.66539 12.4503 10.5947 12.0752L11.0347 11.8601L11.2041 11.7756C11.3094 11.7223 11.3707 11.6904 11.3881 11.6781C11.3961 11.6716 11.2781 11.5442 11.1167 11.3765L10.4421 10.6829C10.3971 10.6369 10.3528 10.5901 10.3094 10.5426C10.2781 10.5205 10.2321 10.5867 10.1707 10.7414C10.1214 10.8435 10.0034 10.9053 9.98939 10.9534C9.98073 10.9911 10.0614 11.147 10.2307 11.4213C10.3401 11.6085 10.3774 11.7515 10.0241 11.6443C9.33072 11.1243 9.01205 10.1668 8.90138 9.22305C8.89872 9.2003 8.79338 7.9796 8.79338 7.9796C8.77854 7.77325 8.84837 7.5696 8.98753 7.41345C9.12668 7.2573 9.32375 7.16144 9.53539 7.14695L10.6001 7.145ZM19.2628 12.787C19.2875 13.24 18.9942 13.2446 18.4541 13.1711L17.2655 12.9917C17.0888 12.9573 17.0088 12.9274 17.0568 12.8962C17.3701 12.6914 19.2355 12.2917 19.2635 12.787H19.2628ZM18.6528 12.733L18.0355 12.7603C17.4688 12.8104 17.0675 12.9163 18.2608 12.9787L18.3295 12.9807C18.8728 12.9885 19.1722 12.7473 18.6528 12.733ZM19.7642 10.3924H19.7708C20.2975 10.6511 19.8155 11.0619 19.3375 11.2978C19.2442 11.3433 19.0102 11.4122 18.6361 11.5026C18.4755 11.5286 18.3315 11.5624 18.4141 11.6066L18.4208 11.6098C19.7222 12.2325 16.3388 12.607 16.7575 12.4451L17.0108 12.3489C17.4641 12.176 18.0868 11.9056 18.1215 11.4798C18.1468 11.1678 18.9568 11.1926 19.1168 10.8507C19.1488 10.7818 19.1168 10.6973 19.0208 10.5978C18.9875 10.5673 18.9582 10.5367 18.9495 10.5016C18.9008 10.3033 19.4162 10.2214 19.7642 10.3924ZM18.0521 10.0843C17.9621 10.863 16.3995 12.8091 16.7528 11.9453L16.7641 11.9179C16.9628 11.4519 17.0148 10.4743 17.6555 9.8243C17.8221 9.6553 18.0795 9.84705 18.0521 10.0843ZM12.7348 9.91985C12.7481 9.46875 13.4028 9.29065 13.6321 9.6943C13.6388 8.8662 12.3381 9.1951 12.7348 9.91985Z" fill="url(#paint0_linear_15_4949)"/>
<defs>
<linearGradient id="paint0_linear_15_4949" x1="0.99904" y1="11.4182" x2="14.1453" y2="18.9213" gradientUnits="userSpaceOnUse">
<stop stop-color="#504AF4"/>
<stop offset="1" stop-color="#3485FF"/>
</linearGradient>
</defs>
</svg>
