<svg width="24" height="24" viewBox="0 0 24 24" fill="none" xmlns="http://www.w3.org/2000/svg">
<path d="M7.13933 14.6367L10.286 12.872L10.3393 12.7187L10.286 12.6333H10.1333L9.60667 12.6013L7.808 12.5527L6.24867 12.488L4.738 12.4067L4.35733 12.326L4 11.856L4.03667 11.6213L4.35667 11.4073L4.814 11.4473L5.82733 11.516L7.346 11.6213L8.44733 11.686L10.08 11.856H10.3393L10.376 11.7513L10.2867 11.686L10.218 11.6213L8.646 10.5573L6.94467 9.432L6.054 8.784L5.57133 8.45667L5.32867 8.14867L5.22333 7.47667L5.66067 6.99533L6.248 7.03533L6.398 7.076L6.99333 7.53333L8.26533 8.51733L9.926 9.73933L10.1693 9.942L10.266 9.87333L10.2787 9.82467L10.1693 9.642L9.266 8.01133L8.302 6.35133L7.87267 5.66333L7.75933 5.25067C7.71615 5.09217 7.69286 4.92892 7.69 4.76467L8.18867 4.08933L8.464 4L9.128 4.08933L9.408 4.332L9.82133 5.27467L10.4893 6.76067L11.526 8.78067L11.83 9.37933L11.992 9.934L12.0527 10.104H12.158V10.0067L12.2433 8.86933L12.4013 7.47267L12.5547 5.676L12.608 5.16933L12.8587 4.56267L13.3567 4.23467L13.746 4.42133L14.066 4.878L14.0213 5.174L13.8307 6.408L13.458 8.34333L13.2153 9.638H13.3567L13.5187 9.47667L14.1753 8.606L15.2767 7.23L15.7633 6.68333L16.33 6.08067L16.6947 5.79333H17.3833L17.89 6.546L17.6633 7.32333L16.954 8.22133L16.3667 8.98267L15.524 10.116L14.9973 11.0227L15.046 11.096L15.1713 11.0827L17.0753 10.6787L18.104 10.492L19.3313 10.282L19.8867 10.5407L19.9473 10.804L19.7287 11.342L18.416 11.666L16.8767 11.974L14.584 12.516L14.556 12.536L14.5887 12.5767L15.6213 12.674L16.0627 12.698H17.144L19.1573 12.848L19.684 13.196L20 13.6213L19.9473 13.9447L19.1373 14.358L18.044 14.0987L15.4913 13.492L14.6167 13.2727H14.4953V13.346L15.224 14.058L16.5613 15.2647L18.234 16.818L18.3187 17.2033L18.104 17.5067L17.8773 17.474L16.4073 16.3693L15.84 15.8713L14.556 14.7913H14.4707V14.9047L14.7667 15.3373L16.33 17.6847L16.4113 18.4047L16.298 18.64L15.8927 18.782L15.4473 18.7007L14.5313 17.4173L13.588 15.9727L12.826 14.6773L12.7327 14.7307L12.2833 19.5667L12.0727 19.8133L11.5867 20L11.182 19.6927L10.9673 19.1947L11.182 18.2107L11.4413 16.928L11.6513 15.908L11.842 14.6413L11.9553 14.22L11.9473 14.192L11.854 14.204L10.898 15.5153L9.44467 17.4787L8.294 18.7087L8.018 18.818L7.54 18.5713L7.58467 18.13L7.852 17.7373L9.444 15.7133L10.404 14.4587L11.024 13.7347L11.02 13.6293H10.9833L6.75467 16.3733L6.00133 16.4707L5.67667 16.1667L5.71733 15.6693L5.87133 15.5073L7.14333 14.6327L7.13933 14.6367Z" fill="#D97757"/>
</svg>
