<svg width="24" height="24" viewBox="0 0 24 24" fill="none" xmlns="http://www.w3.org/2000/svg">
<path d="M13.0109 12.4044C13.5596 12.4044 13.8276 13.0657 13.4502 13.4577L9.86569 17.0596C9.80832 17.1178 9.73997 17.1639 9.66461 17.1955C9.58925 17.227 9.50838 17.2432 9.4267 17.2432C9.34502 17.2432 9.26415 17.227 9.18879 17.1955C9.11343 17.1639 9.04508 17.1178 8.98771 17.0596L4.18253 12.2084C4.06565 12.0914 4 11.9328 4 11.7675C4 11.6021 4.06565 11.4435 4.18253 11.3265L8.21907 7.27126C8.37969 7.11241 8.59648 7.02332 8.82238 7.02332C9.04829 7.02332 9.26508 7.11241 9.4257 7.27126C9.58382 7.43348 9.67231 7.65105 9.67231 7.87758C9.67231 8.10411 9.58382 8.32168 9.4257 8.48389L6.59712 11.3385C6.48024 11.4555 6.41459 11.6141 6.41459 11.7795C6.41459 11.9448 6.48024 12.1034 6.59712 12.2204L8.99971 14.6337C9.05708 14.6918 9.12543 14.738 9.20079 14.7695C9.27615 14.8011 9.35701 14.8173 9.4387 14.8173C9.52038 14.8173 9.60125 14.8011 9.67661 14.7695C9.75197 14.738 9.82032 14.6918 9.87769 14.6337L10.1943 14.3157C10.2532 14.2585 10.2998 14.1898 10.3312 14.1139C10.3626 14.038 10.3782 13.9565 10.377 13.8744V13.2491C10.377 13.1631 10.377 13.0777 10.3897 12.9918C10.4002 12.8345 10.4705 12.6872 10.5862 12.5801C10.7018 12.473 10.854 12.4142 11.0117 12.4158H13.0109V12.4038V12.4044Z" fill="#00E7E7"/>
<path d="M19.826 12.9191L15.7795 16.9869C15.6188 17.1458 15.402 17.2349 15.1761 17.2349C14.9502 17.2349 14.7334 17.1458 14.5728 16.9869C14.4145 16.8247 14.3259 16.607 14.3259 16.3803C14.3259 16.1536 14.4145 15.9359 14.5728 15.7736L17.4127 12.9191C17.5296 12.8021 17.5953 12.6435 17.5953 12.4781C17.5953 12.3127 17.5296 12.1541 17.4127 12.0371L14.9995 9.62384C14.9421 9.56569 14.8738 9.51952 14.7984 9.488C14.723 9.45649 14.6422 9.44026 14.5605 9.44026C14.4788 9.44026 14.3979 9.45649 14.3226 9.488C14.2472 9.51952 14.1789 9.56569 14.1215 9.62384L13.8048 9.94183C13.6885 10.0596 13.6229 10.2183 13.6222 10.3838V11.0085C13.6222 11.0951 13.6222 11.1798 13.6095 11.2658C13.599 11.4231 13.5287 11.5703 13.413 11.6774C13.2974 11.7845 13.1452 11.8433 12.9875 11.8418H10.9883C10.4396 11.8418 10.171 11.1805 10.5489 10.7885L13.2675 8.05523L13.6209 7.68657L14.1208 7.18392C14.1782 7.12567 14.2466 7.07941 14.322 7.04784C14.3974 7.01626 14.4784 7 14.5602 7C14.6419 7 14.7229 7.01626 14.7983 7.04784C14.8737 7.07941 14.9421 7.12567 14.9995 7.18392L19.816 12.0238C19.9319 12.1431 19.9977 12.3023 19.9999 12.4687C20.0022 12.6351 19.9406 12.796 19.828 12.9184L19.8273 12.9191H19.826Z" fill="#00BFFF"/>
</svg>
