<svg width="24" height="24" viewBox="0 0 24 24" fill="none" xmlns="http://www.w3.org/2000/svg">
<path d="M14.2788 15.5741L18.2778 18.9838C18.2778 18.9838 15.9875 21.1685 13.228 16.98L14.2788 15.5741Z" fill="url(#paint0_linear_15_4956)"/>
<path d="M14.369 15.5517L17.5822 19.7094C17.5822 19.7094 14.8905 21.3804 13.0539 16.7081L14.3697 15.5517H14.369Z" fill="url(#paint1_radial_15_4956)"/>
<path d="M13.2735 18.7118H10.6727C10.6116 18.7124 10.5517 18.6947 10.5006 18.6611C10.4495 18.6275 10.4097 18.5794 10.386 18.523L5.01743 6.05544C4.95661 5.91981 5.06288 5.76111 5.21319 5.76111H7.84611C7.97475 5.76111 8.08801 5.83661 8.13276 5.94987L13.4706 18.4161C13.5237 18.5594 13.4252 18.7111 13.2742 18.7111L13.2735 18.7118Z" fill="url(#paint2_linear_15_4956)"/>
<path d="M8.94163 6.47981C7.48255 6.87272 6.94562 8.20316 6.94562 8.20316C6.94562 8.20316 7.87546 7.87807 9.16885 7.59073C9.75886 7.46715 10.3539 7.36895 10.9523 7.29639C10.9223 6.86503 10.0602 6.17778 8.94163 6.47981Z" fill="url(#paint3_linear_15_4956)"/>
<path d="M8.26139 7.53063C7.11202 8.5206 7.14278 9.94962 7.14278 9.94962C7.14278 9.94962 7.79996 9.31481 8.79063 8.43741C9.4555 7.84804 10.2113 7.3188 10.2113 7.3188C9.97705 6.95595 9.18424 6.73642 8.26139 7.53063Z" fill="url(#paint4_linear_15_4956)"/>
<path d="M8.01177 9.01976C7.05886 10.1838 7.27769 11.3863 7.27769 11.3863C7.27769 11.3863 7.83769 10.8494 8.67665 9.83635C9.06898 9.37853 9.48019 8.93723 9.90921 8.51359C9.62187 8.19479 8.76753 8.1053 8.01177 9.01976Z" fill="url(#paint5_linear_15_4956)"/>
<path d="M14.0593 6.8951C14.0593 6.8951 13.7726 6.14703 13.1826 5.82193C12.6079 5.50453 11.0656 5.43601 9.97706 6.2526C8.53336 7.32646 8.04187 9.07988 7.9356 9.49656C6.8925 13.548 9.02485 15.8307 11.3907 16.9353L14.0593 6.8958V6.8951Z" fill="url(#paint6_linear_15_4956)"/>
<path d="M7.03647 11.8624C7.06565 13.2347 7.63871 14.5393 8.62962 15.4892C9.62053 16.439 10.9481 16.9564 12.3205 16.9276L12.1017 6.57068C9.24363 6.63849 6.97565 9.00435 7.03647 11.8624Z" fill="url(#paint7_linear_15_4956)"/>
<path d="M8.00411 12.823C8.31382 15.6419 10.8615 17.6756 13.681 17.3659L12.5478 7.14465C11.1932 7.29701 9.95427 7.98019 9.10257 9.04446C8.25087 10.1087 7.85585 11.468 8.00411 12.823Z" fill="url(#paint8_radial_15_4956)"/>
<path d="M10.1134 6.64618C9.73752 7.0381 9.52211 7.55657 9.50955 8.09943C9.497 8.64228 9.68822 9.17016 10.0455 9.57903C10.4027 9.98825 10.8994 10.2498 11.4389 10.3128C11.9784 10.3757 12.522 10.2355 12.9637 9.9195L10.1134 6.64618Z" fill="url(#paint9_radial_15_4956)"/>
<path d="M11.8451 9.6469C12.1153 9.65191 12.3838 9.60302 12.6349 9.50308C12.886 9.40314 13.1146 9.25416 13.3075 9.06484C13.5004 8.87552 13.6535 8.64967 13.7581 8.40047C13.8627 8.15127 13.9166 7.88373 13.9166 7.61348C13.9166 7.34323 13.8627 7.07569 13.7581 6.82649C13.6535 6.57729 13.5004 6.35144 13.3075 6.16212C13.1146 5.9728 12.886 5.82382 12.6349 5.72388C12.3838 5.62394 12.1153 5.57505 11.8451 5.58006C11.3123 5.58994 10.8047 5.80852 10.4314 6.18878C10.0582 6.56905 9.84903 7.08062 9.84903 7.61348C9.84903 8.14634 10.0582 8.65791 10.4314 9.03818C10.8047 9.41844 11.3123 9.63702 11.8451 9.6469Z" fill="url(#paint10_radial_15_4956)"/>
<path d="M9.70509 13.5257C10.4154 15.7859 12.8274 17.0486 15.0877 16.3376L12.517 8.14307C11.9787 8.31153 11.4789 8.58446 11.0462 8.94623C10.6135 9.30801 10.2564 9.75153 9.99521 10.2514C9.73405 10.7514 9.57401 11.2979 9.52422 11.8597C9.47444 12.4215 9.5359 12.9876 9.70509 13.5257Z" fill="url(#paint11_linear_15_4956)"/>
<path d="M10.2875 12.4448C10.3822 12.9228 10.5702 13.3775 10.8406 13.7829C11.1111 14.1882 11.4589 14.5363 11.8639 14.8073C12.269 15.0782 12.7235 15.2667 13.2014 15.3619C13.6793 15.4571 14.1714 15.4572 14.6493 15.3623L13.1979 8.08292C11.1942 8.47653 9.88686 10.4334 10.2875 12.4448Z" fill="url(#paint12_linear_15_4956)"/>
<path d="M11.3453 5.97295C11.3453 5.97295 10.8922 6.75947 11.1418 7.63688C11.4515 8.72473 12.6079 8.88343 13.0994 8.76248L13.8027 7.28871L12.5701 5.64017L11.3453 5.97295Z" fill="url(#paint13_radial_15_4956)"/>
<path d="M12.6232 8.05984C12.6232 8.05984 12.2457 8.1731 12.0031 8.62614C11.799 9.00437 11.8598 9.52592 11.8598 9.52592L13.3944 8.34719L12.6232 8.05984Z" fill="url(#paint14_linear_15_4956)"/>
<path d="M14.3165 10.9703C14.3165 10.9703 13.0162 10.955 12.6911 9.74547C12.4722 8.9219 12.8651 8.35421 12.8651 8.35421L13.7118 8.10532L14.3165 10.9703Z" fill="url(#paint15_linear_15_4956)"/>
<path d="M8.51028 4.52924C8.51028 4.52924 8.78994 5.82193 10.1966 6.34348C11.2621 6.73639 13.0462 5.66322 13.0462 5.66322C13.0462 5.66322 12.1094 5.2773 10.7181 5.2773C9.67503 5.2773 8.51028 4.52924 8.51028 4.52924Z" fill="url(#paint16_radial_15_4956)"/>
<path d="M15.4205 7.26563C15.4205 7.26563 15.5869 6.39662 15.0346 5.58772C14.6116 4.9676 13.5524 4.27196 11.5878 4.70332C9.93161 5.06617 9.68272 4 9.68272 4C9.62959 4.27266 9.81066 6.04146 11.5347 5.78418C13.651 5.46677 13.4699 7.53829 14.218 7.88576C14.8381 8.15842 15.4205 7.26563 15.4205 7.26563Z" fill="url(#paint17_linear_15_4956)"/>
<path d="M13.2203 8.48281C13.497 8.48281 13.7623 8.37291 13.9579 8.17729C14.1535 7.98167 14.2634 7.71636 14.2634 7.43971C14.2634 7.16306 14.1535 6.89774 13.9579 6.70212C13.7623 6.5065 13.497 6.39661 13.2203 6.39661C12.9437 6.39661 12.6784 6.5065 12.4827 6.70212C12.2871 6.89774 12.1772 7.16306 12.1772 7.43971C12.1772 7.71636 12.2871 7.98167 12.4827 8.17729C12.6784 8.37291 12.9437 8.48281 13.2203 8.48281Z" fill="url(#paint18_radial_15_4956)"/>
<path d="M10.6349 18.7118H13.3112C13.3723 18.7124 13.4323 18.6947 13.4833 18.6611C13.5344 18.6275 13.5742 18.5794 13.5979 18.523L18.9665 6.05546C19.0273 5.91983 18.921 5.76113 18.7707 5.76113H16.0637C16.0024 5.76041 15.9424 5.77799 15.8912 5.81162C15.84 5.84525 15.8 5.8934 15.7763 5.94989L10.4385 18.4161C10.3854 18.5594 10.4839 18.7118 10.6349 18.7118Z" fill="url(#paint19_linear_15_4956)"/>
<path d="M10.6349 18.7118H13.3112C13.3724 18.7125 13.4323 18.6949 13.4834 18.6612C13.5345 18.6276 13.5743 18.5795 13.5979 18.523L17.8625 8.63454C17.9227 8.49821 17.8171 8.33951 17.6654 8.33951H14.9598C14.8984 8.33865 14.8382 8.35617 14.7869 8.3898C14.7355 8.42344 14.6954 8.47167 14.6717 8.52827L10.4385 18.4168C10.3854 18.5601 10.4839 18.7118 10.6349 18.7118Z" fill="url(#paint20_radial_15_4956)"/>
<path d="M14.8381 7.41733C14.8381 7.41733 14.8759 6.1624 13.5755 5.50452C11.7612 4.58936 10.098 6.75945 8.19287 5.50452C8.19287 5.50452 8.57879 7.43971 12.4646 6.70702C13.4245 6.52525 13.8481 6.82727 14.0593 7.17544C14.241 7.46977 14.2257 7.72705 14.2257 7.87806L14.8381 7.41733Z" fill="url(#paint21_radial_15_4956)"/>
<path d="M14.5585 7.65156C14.5585 7.65156 14.6563 6.97131 14.09 6.55533C13.4776 6.10928 12.9854 6.20017 12.9854 6.20017C12.9854 6.20017 13.3336 5.98833 13.8328 5.98833C14.0977 5.98833 14.1879 5.95058 14.1879 5.95058C14.1879 5.95058 14.2257 5.82963 14.0593 5.64017C15.4806 6.26799 15.1101 7.34115 15.1101 7.34115L14.5585 7.65156Z" fill="url(#paint22_linear_15_4956)"/>
<path d="M15.0346 8.79322C15.0346 8.79322 14.4752 9.31477 13.674 9.04211C13.6209 9.02742 13.6286 8.71002 13.674 8.50587C13.7195 8.27097 13.8782 8.01438 14.0068 7.85568C14.8759 7.93119 15.0346 8.79322 15.0346 8.79322Z" fill="url(#paint23_linear_15_4956)"/>
<path d="M15.4205 7.2132C15.4205 7.2132 15.8511 7.88576 15.7225 8.64921C15.5715 9.53361 14.7325 9.94959 14.7325 9.94959C14.7325 9.94959 15.1331 8.40731 13.9984 7.8557C13.9984 7.8557 14.2334 7.59842 14.5738 7.43971C15.0723 7.2132 15.4205 7.2132 15.4205 7.2132Z" fill="url(#paint24_linear_15_4956)"/>
<path d="M13.0546 7.84803C13.189 7.84803 13.3178 7.79467 13.4128 7.69967C13.5078 7.60468 13.5611 7.47585 13.5611 7.34151C13.5611 7.20717 13.5078 7.07834 13.4128 6.98335C13.3178 6.88836 13.189 6.83499 13.0546 6.83499C12.9203 6.83499 12.7914 6.88836 12.6965 6.98335C12.6015 7.07834 12.5481 7.20717 12.5481 7.34151C12.5481 7.47585 12.6015 7.60468 12.6965 7.69967C12.7914 7.79467 12.9203 7.84803 13.0546 7.84803Z" fill="url(#paint25_radial_15_4956)"/>
<path d="M12.9407 7.61382C13.1203 7.61382 13.2658 7.45791 13.2658 7.26565C13.2658 7.07409 13.1203 6.91818 12.9407 6.91818C12.761 6.91818 12.6156 7.07409 12.6156 7.26565C12.6156 7.45791 12.761 7.61382 12.9407 7.61382Z" fill="url(#paint26_radial_15_4956)"/>
<path d="M13.1672 7.09223C13.1873 7.09223 13.2066 7.08424 13.2208 7.07001C13.2351 7.05579 13.2431 7.03649 13.2431 7.01638C13.2431 6.99626 13.2351 6.97696 13.2208 6.96274C13.2066 6.94851 13.1873 6.94052 13.1672 6.94052C13.1471 6.94052 13.1278 6.94851 13.1136 6.96274C13.0993 6.97696 13.0913 6.99626 13.0913 7.01638C13.0913 7.03649 13.0993 7.05579 13.1136 7.07001C13.1278 7.08424 13.1471 7.09223 13.1672 7.09223Z" fill="white"/>
<defs>
<linearGradient id="paint0_linear_15_4956" x1="13.4391" y1="17.18" x2="17.8038" y2="18.0406" gradientUnits="userSpaceOnUse">
<stop offset="0.006" stop-color="#E8096A"/>
<stop offset="1" stop-color="#00AFFF"/>
</linearGradient>
<radialGradient id="paint1_radial_15_4956" cx="0" cy="0" r="1" gradientUnits="userSpaceOnUse" gradientTransform="translate(14.6377 17.6227) rotate(5.75) scale(4.49455 4.49455)">
<stop stop-color="#00CAFF"/>
<stop offset="1" stop-color="#38E700"/>
</radialGradient>
<linearGradient id="paint2_linear_15_4956" x1="11.827" y1="18.3552" x2="6.33669" y2="5.35072" gradientUnits="userSpaceOnUse">
<stop stop-color="#412DF5"/>
<stop offset="0.691" stop-color="#0606B6"/>
<stop offset="1" stop-color="#4B00B4"/>
</linearGradient>
<linearGradient id="paint3_linear_15_4956" x1="7.25883" y1="7.40196" x2="9.50933" y2="7.15866" gradientUnits="userSpaceOnUse">
<stop stop-color="#E60030"/>
<stop offset="1" stop-color="#690040"/>
</linearGradient>
<linearGradient id="paint4_linear_15_4956" x1="7.34902" y1="8.72125" x2="9.14858" y2="8.2039" gradientUnits="userSpaceOnUse">
<stop stop-color="#FF6500"/>
<stop offset="1" stop-color="#EE182C"/>
</linearGradient>
<linearGradient id="paint5_linear_15_4956" x1="7.46715" y1="9.66855" x2="9.60789" y2="10.0817" gradientUnits="userSpaceOnUse">
<stop stop-color="#EA4D07"/>
<stop offset="1" stop-color="#C5171E"/>
</linearGradient>
<linearGradient id="paint6_linear_15_4956" x1="12.008" y1="6.10229" x2="8.53616" y2="16.5983" gradientUnits="userSpaceOnUse">
<stop stop-color="#0091FF"/>
<stop offset="0.005" stop-color="#0292FC"/>
<stop offset="0.126" stop-color="#37A5C2"/>
<stop offset="0.249" stop-color="#65B58E"/>
<stop offset="0.372" stop-color="#8CC363"/>
<stop offset="0.496" stop-color="#ACCF3F"/>
<stop offset="0.62" stop-color="#C4D823"/>
<stop offset="0.745" stop-color="#D6DE10"/>
<stop offset="0.871" stop-color="#E1E204"/>
<stop offset="1" stop-color="#E4E300"/>
</linearGradient>
<linearGradient id="paint7_linear_15_4956" x1="8.35853" y1="7.36069" x2="13.1217" y2="16.864" gradientUnits="userSpaceOnUse">
<stop offset="0.006" stop-color="#DE003B"/>
<stop offset="0.241" stop-color="#D976FF"/>
<stop offset="1" stop-color="#00A4EA"/>
</linearGradient>
<radialGradient id="paint8_radial_15_4956" cx="0" cy="0" r="1" gradientUnits="userSpaceOnUse" gradientTransform="translate(11.3804 10.3242) rotate(-6.338) scale(8.02727)">
<stop stop-color="#00DFFF"/>
<stop offset="1" stop-color="#ABE700"/>
</radialGradient>
<radialGradient id="paint9_radial_15_4956" cx="0" cy="0" r="1" gradientUnits="userSpaceOnUse" gradientTransform="translate(11.0406 8.31816) rotate(-40.957) scale(1.93583)">
<stop stop-color="#0068FF"/>
<stop offset="1" stop-color="#9CE830"/>
</radialGradient>
<radialGradient id="paint10_radial_15_4956" cx="0" cy="0" r="1" gradientUnits="userSpaceOnUse" gradientTransform="translate(11.8451 7.61383) scale(2.03792)">
<stop stop-color="#008A43"/>
<stop offset="1" stop-color="#A3E830"/>
</radialGradient>
<linearGradient id="paint11_linear_15_4956" x1="11.5969" y1="9.49518" x2="12.4177" y2="15.291" gradientUnits="userSpaceOnUse">
<stop stop-color="#FF9500"/>
<stop offset="1" stop-color="#F7FF2B"/>
</linearGradient>
<linearGradient id="paint12_linear_15_4956" x1="14.4354" y1="13.4879" x2="11.0104" y2="9.92582" gradientUnits="userSpaceOnUse">
<stop offset="0.207" stop-color="#FF8E00"/>
<stop offset="1" stop-color="#F41B56"/>
</linearGradient>
<radialGradient id="paint13_radial_15_4956" cx="0" cy="0" r="1" gradientUnits="userSpaceOnUse" gradientTransform="translate(12.9735 7.40477) scale(1.67655)">
<stop stop-color="#FF0000"/>
<stop offset="1" stop-color="#FFFF00"/>
</radialGradient>
<linearGradient id="paint14_linear_15_4956" x1="12.0136" y1="9.20012" x2="12.5624" y2="8.60307" gradientUnits="userSpaceOnUse">
<stop stop-color="#FFB41F"/>
<stop offset="1" stop-color="#F42A56"/>
</linearGradient>
<linearGradient id="paint15_linear_15_4956" x1="13.021" y1="10.6935" x2="14.0411" y2="8.8436" gradientUnits="userSpaceOnUse">
<stop stop-color="#FFB900"/>
<stop offset="1" stop-color="#F41880"/>
</linearGradient>
<radialGradient id="paint16_radial_15_4956" cx="0" cy="0" r="1" gradientUnits="userSpaceOnUse" gradientTransform="translate(10.4151 5.61568) rotate(-9.492) scale(2.31799)">
<stop offset="0.001" stop-color="#72003F"/>
<stop offset="1" stop-color="#CA1D67"/>
</radialGradient>
<linearGradient id="paint17_linear_15_4956" x1="9.67503" y1="5.96875" x2="15.4442" y2="5.96875" gradientUnits="userSpaceOnUse">
<stop stop-color="#FF6500"/>
<stop offset="1" stop-color="#EE182C"/>
</linearGradient>
<radialGradient id="paint18_radial_15_4956" cx="0" cy="0" r="1" gradientUnits="userSpaceOnUse" gradientTransform="translate(13.2343 7.43272) scale(0.825294)">
<stop stop-color="#D1DEE7"/>
<stop offset="1" stop-color="white"/>
</radialGradient>
<linearGradient id="paint19_linear_15_4956" x1="10.9824" y1="18.816" x2="18.526" y2="5.41926" gradientUnits="userSpaceOnUse">
<stop stop-color="#008DFF"/>
<stop offset="0.181" stop-color="#331DEA"/>
<stop offset="0.833" stop-color="#39C3FE"/>
<stop offset="1" stop-color="#60F5A9"/>
</linearGradient>
<radialGradient id="paint20_radial_15_4956" cx="0" cy="0" r="1" gradientUnits="userSpaceOnUse" gradientTransform="translate(14.6361 15.5186) rotate(-156.16) scale(1.92645 5.34216)">
<stop offset="0.001" stop-color="#7F06FB"/>
<stop offset="1" stop-color="#7A10FB" stop-opacity="0"/>
</radialGradient>
<radialGradient id="paint21_radial_15_4956" cx="0" cy="0" r="1" gradientUnits="userSpaceOnUse" gradientTransform="translate(8.56621 5.97223) scale(6.04082 6.04082)">
<stop offset="0.001" stop-color="#FF0042"/>
<stop offset="0.422" stop-color="#0068FF"/>
<stop offset="0.659" stop-color="#1877E2"/>
<stop offset="1" stop-color="#4EEFBE"/>
</radialGradient>
<linearGradient id="paint22_linear_15_4956" x1="14.0523" y1="5.83942" x2="14.09" y2="7.4593" gradientUnits="userSpaceOnUse">
<stop stop-color="#E60030"/>
<stop offset="1" stop-color="#690040"/>
</linearGradient>
<linearGradient id="paint23_linear_15_4956" x1="14.3235" y1="8.99456" x2="14.3872" y2="7.98432" gradientUnits="userSpaceOnUse">
<stop stop-color="#FFD71F"/>
<stop offset="1" stop-color="#DD001B"/>
</linearGradient>
<linearGradient id="paint24_linear_15_4956" x1="14.2641" y1="8.52476" x2="15.5764" y2="8.61635" gradientUnits="userSpaceOnUse">
<stop stop-color="#FF4C00"/>
<stop offset="1" stop-color="#FFFF1E"/>
</linearGradient>
<radialGradient id="paint25_radial_15_4956" cx="0" cy="0" r="1" gradientUnits="userSpaceOnUse" gradientTransform="translate(12.812 7.35584) scale(0.632782)">
<stop stop-color="#FF9100"/>
<stop offset="0.226" stop-color="#FF9500"/>
<stop offset="0.443" stop-color="#FEA000"/>
<stop offset="0.657" stop-color="#FCB400"/>
<stop offset="0.867" stop-color="#F9CF00"/>
<stop offset="1" stop-color="#F7E400"/>
</radialGradient>
<radialGradient id="paint26_radial_15_4956" cx="0" cy="0" r="1" gradientUnits="userSpaceOnUse" gradientTransform="translate(12.782 7.24398) scale(0.680504)">
<stop/>
<stop offset="0.092" stop-color="#000004"/>
<stop offset="0.177" stop-color="#01000F"/>
<stop offset="0.258" stop-color="#020021"/>
<stop offset="0.338" stop-color="#03003C"/>
<stop offset="0.417" stop-color="#05005D"/>
<stop offset="0.494" stop-color="#080087"/>
<stop offset="0.571" stop-color="#0A00B8"/>
<stop offset="0.645" stop-color="#0E00F0"/>
<stop offset="0.654" stop-color="#0E00F7"/>
</radialGradient>
</defs>
</svg>
