<svg width="24" height="24" viewBox="0 0 24 24" fill="none" xmlns="http://www.w3.org/2000/svg">
<path d="M19.8317 7.00684C19.6623 6.92259 19.589 7.08363 19.4903 7.16585C19.4563 7.19235 19.4277 7.227 19.399 7.25826C19.151 7.52802 18.8617 7.70469 18.4837 7.68362C17.931 7.65236 17.459 7.82903 17.0417 8.25983C16.953 7.72847 16.6584 7.41182 16.2104 7.20798C15.9757 7.10197 15.7384 6.99665 15.5737 6.7663C15.4591 6.60255 15.4277 6.41976 15.3704 6.24038C15.3337 6.13166 15.2971 6.0209 15.1751 6.00255C15.0417 5.98149 14.9897 6.09496 14.9377 6.19009C14.7291 6.57876 14.6484 7.00684 14.6564 7.44036C14.6744 8.41612 15.0784 9.19346 15.8817 9.74589C15.9731 9.80908 15.9964 9.87295 15.9677 9.96536C15.9131 10.1556 15.8477 10.3404 15.7904 10.5314C15.7537 10.653 15.6991 10.6788 15.5711 10.6265C15.1386 10.4371 14.7457 10.1649 14.4138 9.82471C13.8424 9.26209 13.3264 8.64103 12.6825 8.15451C12.5332 8.04213 12.38 7.93538 12.2231 7.83447C11.5665 7.18419 12.3098 6.65011 12.4818 6.58692C12.6618 6.52033 12.5438 6.29338 11.9625 6.29609C11.3812 6.29881 10.8492 6.49654 10.1712 6.76087C10.0704 6.80022 9.96677 6.83135 9.86118 6.85396C9.22761 6.73228 8.57964 6.70892 7.93922 6.78465C6.68258 6.92734 5.67927 7.53345 4.94128 8.56696C4.05463 9.80908 3.84597 11.2211 4.1013 12.6929C4.36996 14.2448 5.14728 15.5297 6.34125 16.534C7.5799 17.5757 9.00587 18.086 10.6332 17.9882C11.6211 17.9304 12.7218 17.7952 13.9624 16.7243C14.2758 16.8833 14.6038 16.9465 15.1491 16.9941C15.5691 17.0341 15.9731 16.9737 16.2857 16.9071C16.7757 16.8011 16.7417 16.3383 16.5651 16.2541C15.1284 15.5719 15.4437 15.8498 15.1564 15.6249C15.8871 14.7442 16.987 13.8296 17.4177 10.8664C17.451 10.6306 17.4224 10.4825 17.4177 10.2922C17.415 10.1767 17.441 10.1312 17.571 10.1182C17.9317 10.0801 18.2816 9.97047 18.601 9.79549C19.5317 9.27704 19.9077 8.42631 19.9963 7.40571C20.0097 7.24942 19.9936 7.08906 19.8317 7.00684ZM11.7205 16.1922C10.3278 15.0765 9.65252 14.7089 9.37386 14.7245C9.11253 14.7408 9.15986 15.0446 9.2172 15.243C9.2772 15.4387 9.35519 15.5732 9.46452 15.7451C9.54052 15.8586 9.59252 16.0278 9.38919 16.1549C8.94053 16.4375 8.16122 16.0597 8.12455 16.0414C7.21724 15.4964 6.45792 14.7775 5.92393 13.7943C5.40794 12.8478 5.10794 11.8326 5.05861 10.7488C5.04528 10.4865 5.12061 10.3941 5.37661 10.3466C5.71267 10.281 6.05701 10.2721 6.39592 10.3201C7.81722 10.5321 9.02653 11.1796 10.0412 12.205C10.6198 12.7893 11.0578 13.4872 11.5092 14.1694C11.9891 14.8937 12.5051 15.5841 13.1625 16.1494C13.3944 16.3479 13.5791 16.4987 13.7564 16.6095C13.2218 16.6706 12.3298 16.6842 11.7205 16.1922ZM12.3871 11.8163C12.387 11.7826 12.395 11.7493 12.4103 11.7194C12.4256 11.6894 12.4479 11.6638 12.4751 11.6446C12.5023 11.6254 12.5337 11.6132 12.5666 11.6092C12.5995 11.6051 12.6329 11.6093 12.6638 11.6213C12.7032 11.6357 12.7373 11.6623 12.7612 11.6974C12.7851 11.7325 12.7976 11.7743 12.7971 11.817C12.7972 11.8446 12.7919 11.8719 12.7815 11.8974C12.7712 11.9229 12.7559 11.946 12.7367 11.9654C12.7174 11.9848 12.6946 12.0002 12.6695 12.0105C12.6444 12.0208 12.6175 12.026 12.5905 12.0256C12.5636 12.0257 12.537 12.0203 12.5122 12.0098C12.4874 11.9993 12.4649 11.9838 12.446 11.9643C12.4271 11.9448 12.4123 11.9217 12.4023 11.8963C12.3923 11.8709 12.3867 11.8437 12.3871 11.8163ZM14.4604 12.9008C14.3271 12.9558 14.1944 13.0034 14.0671 13.0095C13.8755 13.0163 13.6876 12.9553 13.5351 12.8369C13.3524 12.6806 13.2218 12.5936 13.1671 12.3218C13.1483 12.189 13.1519 12.0539 13.1778 11.9223C13.2245 11.7001 13.1725 11.5574 13.0185 11.4283C12.8938 11.3223 12.7345 11.2931 12.5598 11.2931C12.5 11.2896 12.4419 11.2714 12.3905 11.2401C12.3171 11.2034 12.2571 11.111 12.3145 10.9968C12.3331 10.9601 12.4211 10.8704 12.4425 10.8541C12.6798 10.7169 12.9538 10.7617 13.2065 10.865C13.4411 10.9629 13.6184 11.1422 13.8738 11.3964C14.1344 11.7028 14.1818 11.7878 14.3304 12.0174C14.4478 12.1975 14.5544 12.3823 14.6271 12.5936C14.6718 12.7261 14.6144 12.8342 14.4604 12.9008Z" fill="#4D6BFE"/>
</svg>
