<svg width="24" height="24" viewBox="0 0 24 24" fill="none" xmlns="http://www.w3.org/2000/svg">
<mask id="mask0_15_5005" style="mask-type:luminance" maskUnits="userSpaceOnUse" x="4" y="4" width="16" height="16">
<path d="M20 4H4V20H20V4Z" fill="white"/>
</mask>
<g mask="url(#mask0_15_5005)">
<path d="M7.54001 14.5041C7.65467 12.0041 8.79534 10.5047 9.23934 10.0114C7.06601 11.3834 5.62267 13.7834 5.00067 15.5501V16.2967C5.00067 18.3421 6.81734 20.0001 9.06001 20.0001C9.55955 20.0007 10.0556 19.9162 10.5267 19.7501C10.762 19.6701 10.9934 19.5847 11.2194 19.4981C11.828 18.8987 12.3194 18.2247 12.7147 17.5034C9.46334 19.1241 7.39867 17.5514 7.53934 14.5034L7.54001 14.5041Z" fill="#1E37FC"/>
<path d="M19.0468 10.8553C18.2388 10.2546 16.3074 9.25262 14.1154 8.98862C14.3121 11.5166 14.1774 14.8326 12.7154 17.5039C12.3172 18.2386 11.8132 18.9107 11.2194 19.4986C13.7288 18.5333 15.7168 17.1939 16.9501 16.0193C18.8301 14.2306 19.1854 12.5673 19.1908 11.5793C19.1924 11.3311 19.1434 11.0852 19.0468 10.8566V10.8553Z" fill="#37E1BE"/>
<path d="M13.5353 5.24467C12.6367 4.46667 11.4987 4 10.26 4C9.02133 4 7.922 4.45133 7.03 5.20467C5.86067 6.19333 5.08467 7.70467 5 9.41667V15.5507C5.62133 13.784 7.06467 11.384 9.238 10.0127C9.57133 9.80067 9.92133 9.616 10.284 9.46C11.5393 8.926 12.8693 8.83867 14.1147 8.98933C13.9667 7.10267 13.636 5.65467 13.5347 5.24467H13.5353Z" fill="#A569FF"/>
<path d="M15.5368 7.3073C15.2958 7.06512 15.0558 6.822 14.8168 6.57796C14.6821 6.43596 14.5515 6.29863 14.4261 6.1633L13.5375 5.24463C13.6381 5.65463 13.9695 7.10196 14.1168 8.9893C16.3088 9.25263 18.2401 10.2546 19.0475 10.8559C18.1768 10.006 16.7308 8.5313 15.5368 7.3073Z" fill="#1E37FC"/>
</g>
</svg>
