<svg width="24" height="24" viewBox="0 0 24 24" fill="none" xmlns="http://www.w3.org/2000/svg">
<path d="M6.28601 10.8333C6.28601 12.38 6.88801 13.864 7.95934 14.958C8.48512 15.4976 9.11338 15.9266 9.80726 16.2201C10.5011 16.5135 11.2466 16.6653 12 16.6667C12.7533 16.6652 13.4986 16.5133 14.1924 16.2199C14.8861 15.9265 15.5143 15.4975 16.04 14.958C17.1156 13.8547 17.7165 12.3742 17.714 10.8333H20C20 12.9993 19.1573 15.0767 17.6567 16.608C16.9206 17.3633 16.0411 17.964 15.0697 18.3748C14.0983 18.7856 13.0547 18.9981 12 19C9.87801 19 7.84334 18.14 6.34334 16.608C4.83759 15.0633 3.99645 12.9905 4.00001 10.8333H6.28601ZM15.4287 10.8333C15.43 11.7578 15.0694 12.6461 14.424 13.308C14.1086 13.6317 13.7317 13.8892 13.3155 14.0653C12.8992 14.2413 12.452 14.3325 12 14.3333C11.5479 14.3326 11.1006 14.2415 10.6842 14.0654C10.2678 13.8893 9.89082 13.6318 9.57534 13.308C8.93019 12.646 8.56981 11.7577 8.57134 10.8333H15.4287ZM12 5C13.5153 5 14.9687 5.61467 16.04 6.70867C17.1156 7.81197 17.7165 9.29251 17.714 10.8333H15.4287C15.43 9.90885 15.0694 9.02058 14.424 8.35867C14.1086 8.03494 13.7317 7.77749 13.3155 7.60142C12.8992 7.42534 12.452 7.3342 12 7.33333C11.5479 7.33411 11.1006 7.42521 10.6842 7.60129C10.2678 7.77736 9.89082 8.03486 9.57534 8.35867C8.93019 9.02068 8.56981 9.90895 8.57134 10.8333H6.28668C6.28668 9.28667 6.88868 7.80267 7.96001 6.70867C8.4857 6.16919 9.11386 5.74015 9.80762 5.44674C10.5014 5.15332 11.2468 5.00144 12 5Z" fill="url(#paint0_radial_15_5014)"/>
<defs>
<radialGradient id="paint0_radial_15_5014" cx="0" cy="0" r="1" gradientTransform="matrix(14.4661 18.0169 -31.9892 26.7661 5.53334 0.983334)" gradientUnits="userSpaceOnUse">
<stop stop-color="#6A46AC"/>
<stop offset="0.63" stop-color="#31008C"/>
</radialGradient>
</defs>
</svg>
