<svg width="24" height="24" viewBox="0 0 24 24" fill="none" xmlns="http://www.w3.org/2000/svg">
<path fill-rule="evenodd" clip-rule="evenodd" d="M13.8667 8L11.9993 12.53L10.13 8H8.93133L10.9793 12.952C11.0612 13.1534 11.2012 13.3258 11.3815 13.4473C11.5618 13.5687 11.7742 13.6337 11.9916 13.6338C12.2089 13.634 12.4214 13.5693 12.6019 13.4481C12.7824 13.3269 12.9226 13.1546 13.0047 12.9533L15.0653 8H13.8667ZM14.664 14.9013L18.08 11.4053L17.614 10.2927L13.8833 14.1187C13.731 14.2748 13.6281 14.4723 13.5874 14.6865C13.5468 14.9008 13.5701 15.1223 13.6547 15.3233C13.7376 15.523 13.8779 15.6937 14.0578 15.8138C14.2377 15.9339 14.4491 15.998 14.6653 15.998L14.6667 16L20 15.9867L19.534 14.874L14.6653 14.9013H14.664ZM5.92 11.4027L6.386 10.29L10.1167 14.116C10.4287 14.4353 10.5187 14.9087 10.3453 15.3207C10.2623 15.5203 10.122 15.6909 9.94214 15.811C9.76228 15.9311 9.55091 15.9952 9.33467 15.9953L4.00133 15.9833L4 15.9847L4.466 14.872L9.33467 14.9L5.92 11.4027Z" fill="#5019C5"/>
</svg>
