<svg width="24" height="24" viewBox="0 0 24 24" fill="none" xmlns="http://www.w3.org/2000/svg">
<path opacity="0.35" fill-rule="evenodd" clip-rule="evenodd" d="M23.704 11.7927C23.8667 11.7927 24 11.8767 24 11.9793V12.6133C24 12.716 23.8667 12.8 23.704 12.8C23.5413 12.8 23.408 12.716 23.408 12.6133V11.9787C23.408 11.8767 23.5413 11.7927 23.704 11.7927ZM22.528 12.0407C22.6907 12.0407 22.824 12.1247 22.824 12.2273V13.624C22.824 13.726 22.6907 13.81 22.528 13.81C22.3647 13.81 22.232 13.726 22.232 13.6233V12.2267C22.232 12.1247 22.3653 12.0407 22.528 12.0407ZM21.3513 12.33C21.514 12.33 21.6473 12.4133 21.6473 12.516V14.086C21.6473 14.1887 21.514 14.2727 21.3513 14.2727C21.1887 14.2727 21.0553 14.1887 21.0553 14.086V12.516C21.0553 12.4133 21.1887 12.33 21.3513 12.33ZM20.1753 12.5693C20.338 12.5693 20.4713 12.6527 20.4713 12.7553V14.3087C20.4713 14.4107 20.338 14.4947 20.1753 14.4947C20.0127 14.4947 19.8793 14.4107 19.8793 14.308V12.7547C19.8793 12.6527 20.0127 12.5693 20.1753 12.5693ZM18.9987 12.78C19.162 12.78 19.2947 12.864 19.2947 12.9667V14.3113C19.2947 14.414 19.1613 14.498 18.9987 14.498C18.836 14.498 18.7027 14.414 18.7027 14.3113V12.9667C18.7027 12.864 18.836 12.78 18.9987 12.78ZM17.8287 13.638C17.9913 13.638 18.1247 13.7213 18.1247 13.8247V14.2513C18.1247 14.3533 17.9913 14.4367 17.8287 14.4367C17.666 14.4367 17.5327 14.3533 17.5327 14.2507V13.824C17.5327 13.7213 17.666 13.638 17.8287 13.638Z" fill="black"/>
<path fill-rule="evenodd" clip-rule="evenodd" d="M23.704 10.0867C23.8667 10.0867 24 10.17 24 10.2727V11.3227C24 11.4253 23.8667 11.5093 23.704 11.5093C23.5413 11.5093 23.408 11.4253 23.408 11.3227V10.2727C23.408 10.17 23.5413 10.086 23.704 10.086V10.0867ZM22.528 9.38133C22.6907 9.38133 22.824 9.46467 22.824 9.568V11.4413C22.824 11.5433 22.6907 11.6267 22.528 11.6267C22.3647 11.6267 22.232 11.5433 22.232 11.4407V9.56733C22.232 9.46467 22.3653 9.38133 22.528 9.38133ZM21.3513 9.116C21.514 9.116 21.6473 9.2 21.6473 9.30267V11.7473C21.6473 11.8493 21.514 11.934 21.3513 11.934C21.1887 11.934 21.0553 11.8493 21.0553 11.7473V9.302C21.0553 9.2 21.1887 9.116 21.3513 9.116ZM20.1753 9C20.338 9 20.4713 9.084 20.4713 9.18667V12.0467C20.4713 12.1493 20.338 12.2333 20.1753 12.2333C20.0127 12.2333 19.8793 12.1493 19.8793 12.0467V9.18667C19.8793 9.084 20.0127 9 20.1753 9ZM18.9987 9.07267C19.162 9.07267 19.2947 9.15667 19.2947 9.25933V12.1627C19.2947 12.2653 19.1613 12.3493 18.9987 12.3493C18.836 12.3493 18.7027 12.2653 18.7027 12.1627V9.25867C18.7027 9.15667 18.836 9.072 18.9987 9.072V9.07267ZM17.8287 9.25467C17.9913 9.25467 18.1247 9.338 18.1247 9.44133V13.064C18.1247 13.166 17.9913 13.2507 17.8287 13.2507C17.666 13.2507 17.5327 13.1667 17.5327 13.064V9.44C17.5327 9.33733 17.666 9.25333 17.8287 9.25333V9.25467ZM16.628 9.56333C16.7907 9.56333 16.924 9.64667 16.924 9.74933V13.8573C16.924 13.96 16.7907 14.044 16.628 14.044C16.4653 14.044 16.332 13.96 16.332 13.8573V9.74933C16.332 9.64667 16.4653 9.56267 16.628 9.56267V9.56333ZM15.452 10.086C15.6147 10.086 15.748 10.17 15.748 10.2727V14.2247C15.748 14.3273 15.6147 14.4113 15.452 14.4113C15.2887 14.4113 15.156 14.3273 15.156 14.2247V10.2727C15.156 10.17 15.2893 10.086 15.452 10.086ZM14.2753 10.7673C14.4387 10.7673 14.5713 10.8513 14.5713 10.954V14.3947C14.5713 14.4973 14.438 14.5813 14.2753 14.5813C14.1127 14.5813 13.9793 14.4973 13.9793 14.3947V10.9533C13.9793 10.8507 14.1127 10.7667 14.2753 10.7667V10.7673ZM13.0993 11.238C13.262 11.238 13.3953 11.322 13.3953 11.4247V14.814C13.3953 14.916 13.262 15 13.0993 15C12.9367 15 12.8033 14.916 12.8033 14.8133V11.4247C12.8033 11.322 12.9367 11.238 13.0993 11.238ZM11.9287 11.628C12.092 11.628 12.2247 11.712 12.2247 11.8147V13.618C12.2247 13.7207 12.0913 13.8047 11.9287 13.8047C11.766 13.8047 11.6327 13.7207 11.6327 13.618V11.814C11.6327 11.712 11.766 11.628 11.9287 11.628ZM10.7173 9.86933C10.88 9.86933 11.0133 9.95333 11.0133 10.056V12.57C11.0133 12.6727 10.88 12.7567 10.7173 12.7567C10.5547 12.7567 10.4213 12.6727 10.4213 12.57V10.056C10.4213 9.95333 10.5547 9.86933 10.7173 9.86933ZM9.508 10.034C9.67067 10.034 9.80333 10.118 9.80333 10.2207V10.994C9.80333 11.096 9.67 11.18 9.508 11.18C9.34467 11.18 9.212 11.096 9.212 10.9933V10.22C9.212 10.118 9.34533 10.034 9.508 10.034ZM8.296 9.93C8.45867 9.93 8.592 10.014 8.592 10.1167V10.4653C8.592 10.5673 8.45867 10.6513 8.296 10.6513C8.13333 10.6513 8 10.5673 8 10.4647V10.1167C8 10.014 8.13333 9.93 8.296 9.93ZM11.9293 9.63533C12.092 9.63533 12.2247 9.71933 12.2247 9.822V10.0833C12.2247 10.186 12.0913 10.27 11.9287 10.27C11.766 10.27 11.6327 10.186 11.6327 10.0833V9.82133C11.6327 9.71867 11.766 9.63467 11.9287 9.63467L11.9293 9.63533Z" fill="black"/>
</svg>
