<svg width="24" height="24" viewBox="0 0 24 24" fill="none" xmlns="http://www.w3.org/2000/svg">
<path d="M20 11.9997C20 7.44353 16.1729 3.76526 11.5638 4.0117C7.50862 4.2276 4.22741 7.50878 4.01152 11.5639C3.7671 16.171 7.44547 20 11.9996 20H17.2565C18.7698 20 19.996 18.7739 19.996 17.2606V12.2665C19.998 12.179 20 12.0893 20 11.9997ZM7.88542 16.4439C6.61245 15.3563 5.82627 13.6169 5.86293 11.845C5.86496 11.7207 5.87107 11.5965 5.88329 11.4722V11.4641C6.06864 9.34791 7.4353 7.37429 9.34983 6.45776C11.2665 5.54124 13.6596 5.71638 15.4234 6.89972C17.1853 8.0851 18.2525 10.2359 18.1282 12.3561C18.1018 12.8205 18.0203 13.2808 17.9083 13.7309C17.8553 13.9448 17.7881 14.1688 17.6007 14.3033C17.4969 14.3766 17.3604 14.4051 17.2423 14.3542C17.0447 14.2686 17.0203 14.0384 17.006 13.8409C16.9062 12.4172 16.5273 10.9508 15.564 9.89782C14.8368 9.10146 13.8063 8.59638 12.7329 8.49658C11.6595 8.39678 10.5577 8.70426 9.68182 9.33159C8.94864 9.85705 8.37423 10.6086 8.0952 11.4641C7.81617 12.3195 7.84468 13.2808 8.2113 14.1057C8.48012 14.7107 8.92618 15.236 9.47816 15.5986C10.4558 16.2402 11.794 16.3318 12.8103 15.7513C13.8266 15.1708 14.4336 13.9122 14.1749 12.7716C13.904 11.5761 12.6494 10.6575 11.4314 10.8836C11.3153 10.906 11.1931 10.8367 11.1625 10.7226C11.1198 10.5577 11.3031 10.4722 11.4538 10.4457C12.6351 10.2339 13.8999 10.8326 14.5476 11.8428C15.1953 12.8531 15.2279 14.2055 14.6984 15.2829C14.1688 16.3603 13.1199 17.1465 11.9528 17.4317C10.3825 17.8145 8.95877 17.3624 7.88338 16.4439H7.88542Z" fill="url(#paint0_linear_15_5326)"/>
<defs>
<linearGradient id="paint0_linear_15_5326" x1="4.35776" y1="4.5881" x2="22.3258" y2="22.0146" gradientUnits="userSpaceOnUse">
<stop offset="0.11" stop-color="#FFD400"/>
<stop offset="0.22" stop-color="#FF891F"/>
<stop offset="0.42" stop-color="#E4659A"/>
<stop offset="0.56" stop-color="#DB2ED7"/>
<stop offset="0.75" stop-color="#7264F4"/>
</linearGradient>
</defs>
</svg>
