<svg width="24" height="24" viewBox="0 0 24 24" fill="none" xmlns="http://www.w3.org/2000/svg">
<path d="M8.02902 17.5723C8.02902 17.5723 9.65809 17.3904 9.74899 17.3614C9.8399 17.3308 11.5308 17.421 11.5308 17.421L12.6166 17.693L13.6129 18.0552L13.8842 18.1461L15.3627 17.6021L17.1445 17.3308L18.351 17.3606L19.2863 17.4814L19.679 17.6021L19.6485 19.2326L18.8339 19.021L17.2638 18.9002L16.1773 18.9904L15.242 19.202L14.3976 19.474L13.794 19.7155L12.5257 19.2326L10.9868 18.9301H9.20573L8.02902 19.1417V17.5723Z" fill="#858599" fill-opacity="0.5"/>
<path d="M13.7889 19.9999C11.045 18.4886 8.13085 19.3948 8.10176 19.4042L7.77231 19.509V17.429L7.94685 17.3723C8.07339 17.3315 11.0915 16.3876 14.0311 18.0057L13.7889 18.4472C11.4297 17.1483 8.94538 17.6363 8.2763 17.8035V18.8362C9.15119 18.6282 11.6181 18.2297 14.0311 19.5584L13.7889 19.9999Z" fill="#858599"/>
<path d="M13.7547 19.9998L13.5118 19.5584C15.9256 18.2297 18.3918 18.6282 19.2674 18.8362V17.8043C18.5983 17.6363 16.1133 17.1497 13.7547 18.4479L13.5118 18.0064C16.4514 16.3883 19.4696 17.3323 19.5961 17.3737L19.7706 17.4297V19.5111L19.4419 19.4042C19.4128 19.3948 16.4994 18.4893 13.7547 19.9998Z" fill="#858599"/>
<path d="M16.9132 15.2552C16.9144 15.1675 16.8981 15.0804 16.8651 14.9991C16.8321 14.9178 16.7832 14.8439 16.7212 14.7818C16.6623 14.7198 16.5908 14.6712 16.5115 14.6392C16.4322 14.6072 16.347 14.5926 16.2616 14.5963C16.0847 14.6077 15.9181 14.6835 15.7932 14.8094C15.666 14.9636 15.6041 15.1243 15.6049 15.3076C15.6035 15.3927 15.6193 15.4773 15.6513 15.5563C15.6833 15.6352 15.7308 15.707 15.7911 15.7672C15.9183 15.9032 16.0747 15.965 16.2594 15.9526C16.4383 15.9526 16.5932 15.8799 16.7198 15.7396C16.8445 15.6088 16.9142 15.4352 16.9147 15.2545L16.9132 15.2552ZM11.8318 15.7403C11.9567 15.6125 12.0257 15.4404 12.0238 15.2618C12.0251 15.079 11.957 14.9025 11.8333 14.7679C11.7066 14.656 11.5419 14.5969 11.3729 14.6029C11.1992 14.6159 11.0345 14.686 10.9046 14.8021C10.7798 14.9379 10.711 15.1159 10.7119 15.3003C10.7119 15.4821 10.7766 15.6385 10.9039 15.7679C11.0275 15.9039 11.1824 15.965 11.3664 15.9534C11.5555 15.9476 11.7089 15.8807 11.8311 15.7403H11.8318Z" fill="#858599" fill-opacity="0.5"/>
<path d="M13.7453 17.5636C13.2413 17.5636 12.746 17.5214 12.3671 17.4239C11.3468 17.1621 10.5344 16.6894 9.88498 15.9796C9.20936 15.24 9.16645 14.528 9.12136 13.7738C9.11554 13.6771 9.10972 13.5796 9.10245 13.4793C9.04209 12.6451 8.64718 11.3404 8.64355 11.328L8.61227 11.2255L8.67482 11.1389C9.22896 10.3696 9.98791 9.77112 10.8653 9.41171C11.6857 9.06989 12.6617 8.89099 13.8507 8.86481C15.8296 8.74917 17.9874 9.57243 18.9823 10.8226L19.0448 10.9019L18.5939 13.0036C18.5896 13.1164 18.5561 13.7076 18.3932 14.9163C18.2019 16.3323 16.4529 17.1425 15.5547 17.3723C15.098 17.4901 14.4129 17.5636 13.7453 17.5636ZM9.08354 11.3069C9.18099 11.6415 9.47481 12.6975 9.52935 13.448C9.53662 13.5491 9.54244 13.6494 9.54826 13.7476C9.59189 14.4822 9.62753 15.0632 10.1999 15.6909C10.7926 16.3381 11.5359 16.7701 12.4726 17.0101C13.2667 17.2137 14.6987 17.1512 15.4478 16.9585C16.0929 16.7927 17.8041 16.093 17.9699 14.8574C18.1445 13.5585 18.1678 12.9716 18.1685 12.9666V12.9476L18.5845 11.0102C17.9299 9.75352 17.5423 9.49607 16.7096 9.18189C15.8325 8.85099 14.7627 9.23644 13.8711 9.28953H13.8638C11.5904 9.33898 9.92353 8.60954 9.08281 11.3062L9.08354 11.3069Z" fill="#858599"/>
<path d="M18.2143 11.1724C18.3765 11.5891 18.4448 11.7978 18.5968 12.1804C18.5968 12.1804 18.9983 11.5353 19.1255 11.0735C19.2528 10.6073 19.175 10.0131 19.0746 9.45824C18.8244 8.5259 18.6295 8.4539 17.8768 7.90191C17.5194 7.65984 17.138 7.45513 16.7387 7.29101C15.8472 6.94973 14.9068 6.75331 13.9533 6.7092C13.0057 6.69697 12.0623 6.83693 11.1591 7.12374C10.7525 7.26216 10.3619 7.4438 9.99405 7.66555C9.21224 8.17099 8.66825 8.88298 8.36498 9.79787C8.28353 10.1419 8.15408 10.472 8.1868 10.7906C8.33226 12.2524 9.28642 12.8945 9.22097 12.5426C9.13588 12.088 9.19042 11.8197 9.30751 11.3848C9.5286 10.563 10.053 9.95569 10.8806 9.56879H10.8835C11.0442 9.5237 11.8609 9.05971 12.9445 9.61388C13.2325 9.73751 13.7358 10.0713 13.9874 10.0633C14.2398 10.0561 14.6027 9.81242 14.8674 9.64733C15.3641 9.33606 15.8347 9.22988 16.4558 9.42697C17.3597 9.7106 17.9139 10.3528 18.2143 11.1724Z" fill="#858599"/>
<path d="M4.8851 10.4437L5.56436 10.643L6.34326 10.603L6.90325 10.2233L7.50324 9.6837L7.94251 9.08371L8.5025 8.50408L9.0414 8.16445L9.78029 8.00446L9.28067 8.88371L8.86104 9.30261L7.98178 10.5215L7.58251 11.1215L7.12288 11.4415L6.46326 11.8807C6.46326 11.8807 5.88363 12.0007 5.824 12.0204C5.76509 12.0407 5.2851 12.1207 5.2851 12.1207L4.86547 12.1004L4.54547 12.0007L4.8451 11.4008L4.88583 10.9615V10.4422L4.8851 10.4437Z" fill="#858599" fill-opacity="0.5"/>
<path d="M6.62323 6.98773L6.56287 7.44591L6.40287 7.76663L6.2036 8.06626L5.70325 8.36589L6.30324 8.66552L6.96286 8.92515L7.64212 9.06551L7.94176 9.08588L8.66174 8.58552L9.42028 7.90626L9.16065 7.82626L8.22248 7.72663L7.52213 7.46627L7.0225 7.20736L6.6225 6.98773H6.62323Z" fill="#858599" fill-opacity="0.5"/>
<path d="M5.10616 12.2902C4.89526 12.2902 4.67272 12.2771 4.43927 12.2531L4 12.2022L4.21672 12.064L4.33236 11.9382C4.34836 11.9142 4.39418 11.8335 4.47054 11.664V11.6625C4.59417 11.3971 4.63635 10.9535 4.59926 10.344L4.57308 9.93385L4.88944 10.1957C5.21962 10.4691 5.63415 10.5346 6.15487 10.3935C6.62032 10.2611 7.12722 9.82621 7.65885 9.10332C8.1483 8.39933 8.85156 7.92225 9.75336 7.68371L9.83772 7.66116L10.4072 8.10479L9.89518 8.06843C9.8457 8.11533 9.79931 8.16537 9.75627 8.21824L9.74609 8.23061L9.733 8.24224C9.43918 8.76442 9.01883 9.27932 8.59847 9.84294L8.59265 9.85312C8.52793 9.96658 8.46174 10.0837 8.38975 10.2V10.2066L8.36647 10.2437C7.93594 10.9433 7.46249 11.4676 6.95922 11.8036C6.49741 12.1273 5.87561 12.2902 5.10616 12.2902ZM4.74253 11.9229C5.61088 11.9789 6.28724 11.8414 6.75705 11.5105L6.76068 11.5084C7.21595 11.2051 7.65012 10.7244 8.05012 10.08C8.05684 10.0605 8.06694 10.0423 8.07993 10.0262C8.1512 9.91058 8.21811 9.79276 8.28357 9.67713C8.56865 9.13168 8.89592 8.64587 9.26028 8.23061C8.71629 8.4706 8.28502 8.82696 7.95121 9.30768L7.9483 9.31204C7.36067 10.1128 6.80504 10.5789 6.2516 10.736C5.76215 10.8684 5.33307 10.8451 4.96871 10.6669C4.97598 11.1687 4.91926 11.5447 4.79635 11.8109C4.77744 11.8531 4.75999 11.8894 4.74399 11.9222H4.74253V11.9229Z" fill="#858599"/>
<path d="M5.14688 12.2902C4.93597 12.2902 4.71343 12.2771 4.47998 12.2531L4.51634 11.8997C5.51342 12.0051 6.27995 11.8742 6.79703 11.5106L6.8014 11.5084C7.25666 11.2051 7.69011 10.7244 8.0901 10.0808C8.10169 10.0482 8.12148 10.0191 8.14756 9.99642L8.38028 10.2655C8.40985 10.239 8.42852 10.2025 8.43264 10.163L8.42901 10.2051L8.40719 10.243C7.97665 10.9426 7.5032 11.4669 6.99994 11.8029C6.5374 12.1266 5.91632 12.2902 5.14688 12.2902ZM8.18246 8.88517C8.10714 8.8903 8.03174 8.89418 7.95629 8.8968C7.35775 8.91789 6.71994 8.75135 6.0545 8.40081C6.63049 8.02846 6.79121 7.60374 6.76867 7.22193C6.90612 7.33101 7.04939 7.42629 7.19848 7.50774C8.17665 8.059 9.21008 8.14627 10.9766 7.65174L10.8566 7.3172C9.17809 7.78046 8.26901 7.7041 7.37084 7.1972C7.10804 7.05256 6.87052 6.86613 6.66758 6.64521L6.64358 6.61903L6.27995 6.22485L6.34831 6.73175C6.35849 6.77393 6.56649 7.76228 5.61378 8.24445L5.32433 8.39063L5.60287 8.55645C6.38322 9.02044 7.1403 9.25462 7.85302 9.25462L8.18246 8.88517ZM12.6762 14.3345C12.6187 14.3332 12.5629 14.315 12.5156 14.2824C12.4683 14.2497 12.4316 14.2038 12.41 14.1505C12.1729 13.6087 11.9868 13.3833 11.7053 13.0415C11.4217 12.6967 10.8159 12.1127 10.7162 12.0284C10.5824 11.9149 10.5446 11.7608 10.6246 11.6538C10.6646 11.6015 10.7839 11.4946 11.029 11.6575C11.5257 11.9862 12.6275 12.9753 12.9257 13.7694C13.0347 14.0582 12.9257 14.2545 12.7795 14.3142C12.7465 14.3278 12.7112 14.3348 12.6755 14.3345H12.6762ZM14.8194 14.3491C14.7829 14.3491 14.7468 14.3417 14.7133 14.3273C14.5671 14.2654 14.4616 14.0676 14.5736 13.7804C14.882 12.9905 15.9969 12.0153 16.4972 11.6931C16.7445 11.5331 16.8623 11.6408 16.9016 11.6946C16.9809 11.8015 16.9409 11.9549 16.8063 12.0669C16.7052 12.1506 16.0922 12.7251 15.8034 13.0676C15.5183 13.4058 15.33 13.6291 15.0849 14.168C15.0632 14.2207 15.0266 14.266 14.9796 14.2983C14.9326 14.3305 14.8772 14.3484 14.8202 14.3498V14.3483L14.8194 14.3491Z" fill="#858599"/>
<path d="M15.914 5.68448C15.9213 5.27285 15.7213 4.91795 15.3126 4.62123C14.898 4.33032 14.4021 4.18342 13.8253 4.17905C13.2493 4.17469 12.7555 4.3165 12.3483 4.60595C11.9388 4.89758 11.7301 5.24885 11.725 5.65684C11.7265 5.78484 11.7374 5.9012 11.7541 6.01029C13.2813 5.51866 14.6493 5.55939 15.8558 6.13174C15.8886 5.97902 15.9082 5.83139 15.914 5.68448Z" fill="#858599" fill-opacity="0.5"/>
<path d="M9.52715 13.9752L9.51988 13.9578C9.49982 13.9123 9.48234 13.8656 9.46752 13.8182L9.42461 13.6807L9.14243 13.6902L9.12061 13.9272C9.12207 13.9367 9.12716 13.9592 9.13225 14V14.008C9.13443 14.0225 9.13516 14.0342 9.13807 14.0458C9.14182 14.1035 9.13311 14.1614 9.11253 14.2155C9.09195 14.2696 9.05998 14.3186 9.0188 14.3592C8.93734 14.4465 8.83116 14.4843 8.69153 14.4785C8.51699 14.4712 8.45881 14.4021 8.43117 14.3505C8.35481 14.2123 8.34972 14.1389 8.35335 14.1062C8.36426 14.0167 8.38244 13.9214 8.40935 13.8262C8.44935 13.6763 8.41881 13.5033 8.31772 13.3113L8.21372 13.1134C8.16921 13.0246 8.13505 12.9309 8.1119 12.8342C8.09065 12.7235 8.09614 12.6093 8.1279 12.5011C8.15624 12.3899 8.2246 12.293 8.3199 12.2291C8.42673 12.1604 8.55551 12.1344 8.68062 12.1564L8.69153 12.1578H8.70244C8.84207 12.1578 8.95625 12.1724 9.04352 12.1949C9.01844 12.0558 9.01184 11.914 9.02389 11.7731C8.9356 11.7351 8.84268 11.7089 8.74753 11.6953H8.74171L8.67262 11.6895C8.46289 11.6706 8.25257 11.7187 8.0719 11.8269C7.87409 11.9433 7.74027 12.1135 7.67627 12.336C7.62075 12.5288 7.61326 12.7323 7.65446 12.9287C7.66027 12.9585 7.66682 12.9942 7.67846 13.0276C7.70973 13.1258 7.76064 13.2349 7.83118 13.352C7.93882 13.5287 7.97154 13.5869 7.98027 13.6065L7.98391 13.6131C7.997 13.6371 7.99991 13.6742 7.99118 13.7222L7.98754 13.7389C7.97979 13.7807 7.97155 13.8224 7.96282 13.864C7.87918 14.0807 7.87045 14.2814 7.93663 14.4567C7.96592 14.5443 8.01221 14.6252 8.07287 14.6949C8.13353 14.7645 8.20734 14.8215 8.29008 14.8625C8.38754 14.9105 8.49953 14.941 8.62462 14.9534C8.69299 14.9607 8.76426 14.9607 8.83844 14.957C8.95335 14.9534 9.06557 14.9213 9.16507 14.8637C9.26457 14.8061 9.34824 14.7247 9.40861 14.6269C9.4708 14.5352 9.51381 14.4319 9.53506 14.3231C9.55631 14.2144 9.55535 14.1025 9.53224 13.9942L9.52934 13.9752H9.52715ZM19.9452 12.0429C19.8829 11.827 19.7375 11.6447 19.5408 11.536C19.3658 11.4337 19.1622 11.3891 18.9605 11.4087L18.9379 11.4109L18.8703 11.4189H18.8645C18.7288 11.4429 18.5987 11.4914 18.4805 11.5622C18.4963 11.6985 18.4924 11.8364 18.4688 11.9716L18.5416 11.9426C18.6346 11.904 18.7612 11.8735 18.9285 11.848L18.9379 11.8466C18.9973 11.8328 19.0591 11.8323 19.1187 11.8453C19.1783 11.8582 19.2343 11.8843 19.2826 11.9215C19.3954 12.0036 19.4717 12.1062 19.5154 12.2327C19.5517 12.352 19.5568 12.4545 19.5314 12.5455C19.5043 12.6474 19.4693 12.7471 19.4266 12.8436C19.3825 12.9375 19.3362 13.0304 19.2877 13.1222C19.2184 13.2486 19.1924 13.3941 19.2135 13.5367C19.231 13.6647 19.2499 13.7709 19.2703 13.8611C19.2838 13.9417 19.2748 14.0245 19.2441 14.1003L19.2419 14.1047C19.215 14.1898 19.071 14.2356 18.9874 14.256C18.7961 14.3018 18.7103 14.232 18.6594 14.1687C18.5747 14.0639 18.5301 13.9324 18.5336 13.7978L18.5365 13.7592C18.5385 13.7365 18.5419 13.7139 18.5466 13.6916L18.5408 13.4465L18.2274 13.4538L18.1939 13.5883C18.182 13.6351 18.1664 13.6808 18.1474 13.7251L18.1394 13.7447L18.1357 13.7658C18.0994 13.9891 18.1452 14.2007 18.2717 14.3971L18.2746 14.4014C18.4128 14.6007 18.6114 14.7112 18.847 14.7192C18.9103 14.7229 18.9706 14.7207 19.0288 14.7163C19.1685 14.7032 19.2928 14.6661 19.399 14.6072C19.5586 14.5172 19.6779 14.3697 19.7328 14.1949C19.7946 14.0116 19.7823 13.8116 19.6964 13.6014L19.6746 13.4771L19.6732 13.4676C19.6636 13.4239 19.6674 13.3783 19.6841 13.3367C19.7168 13.2582 19.7612 13.1673 19.8157 13.064C19.887 12.9382 19.9335 12.8313 19.9583 12.7411C19.9706 12.7053 19.9786 12.6682 19.9823 12.6305C20.0153 12.4348 20.0021 12.2341 19.9437 12.0444L19.9452 12.0429ZM16.0652 6.07503C16.0892 5.94048 16.1038 5.81394 16.1089 5.6874C16.1176 5.21613 15.89 4.80814 15.4325 4.47506C14.9896 4.16452 14.4551 4.00525 13.8442 4.00016C13.2311 3.99434 12.6987 4.1507 12.2617 4.46051C11.8049 4.78778 11.57 5.18923 11.5635 5.6554V5.65976C11.5649 5.75285 11.5708 5.84594 11.5824 5.94339C11.5412 5.98982 11.5169 6.04873 11.5133 6.11066V6.11794C11.5133 6.27502 11.5366 6.43284 11.5838 6.58556L11.5846 6.58993C11.65 6.78265 11.7628 6.96665 11.9191 7.13537L11.9649 7.18483L12.3773 7.23064C12.73 7.43573 13.2005 7.54555 13.7794 7.55573H13.8544C14.2813 7.55573 14.6543 7.50337 14.9649 7.40082L14.9729 7.39791C15.0892 7.35209 15.2027 7.29755 15.3111 7.23501C15.6398 7.26628 15.8863 7.1041 16.0129 6.77465L16.0441 6.7412L16.0427 6.69393C16.0914 6.54484 16.1772 6.25175 16.0652 6.07503ZM12.4675 4.74923C12.8413 4.48378 13.3031 4.35142 13.8405 4.35506C14.3787 4.35942 14.8442 4.4976 15.2245 4.76378C15.586 5.02632 15.7591 5.32668 15.7532 5.67649C15.7503 5.74122 15.746 5.8074 15.7365 5.87576C15.1178 5.61859 14.4538 5.48826 13.7838 5.49249C13.1904 5.49249 12.5693 5.58704 11.9235 5.77612C11.9212 5.73616 11.9198 5.69615 11.9191 5.65613C11.9235 5.30559 12.1031 5.00887 12.4675 4.74923ZM15.7496 6.41684L15.6296 6.67647C15.6296 6.67647 15.4732 6.90265 15.3023 6.87429L15.2354 6.86338L15.1787 6.89901C15.074 6.96395 14.9635 7.01897 14.8485 7.06337C14.5598 7.15792 14.2013 7.20301 13.7853 7.19719C13.2704 7.18701 12.8573 7.09537 12.5576 6.92083L12.5307 6.90556L12.4958 6.88374L12.1387 6.84447C12.0704 6.76447 11.9744 6.5972 11.9744 6.5972L11.8762 6.31211L11.8704 6.16375C13.3162 5.70849 14.6267 5.74631 15.7649 6.27648C15.7663 6.29757 15.7496 6.41684 15.7496 6.41684ZM15.8565 6.68156V6.67865L15.8587 6.68156H15.8565Z" fill="#858599"/>
</svg>
