<svg width="24" height="24" viewBox="0 0 24 24" fill="none" xmlns="http://www.w3.org/2000/svg">
<mask id="mask0_39_16321" style="mask-type:luminance" maskUnits="userSpaceOnUse" x="4" y="4" width="16" height="15">
<path d="M7.0376 4.74968C9.51484 8.23031 13.5107 10.1423 17.4845 9.40329C17.7656 9.35104 18.0709 9.25751 18.3887 9.13509C18.992 8.9027 19.7819 9.84826 19.3241 10.3047C19.0212 10.6069 18.7317 10.8836 18.4722 11.114C16.6825 12.7026 14.7066 14.1351 12.5532 15.3783C10.3861 16.6295 8.14293 17.6292 5.85732 18.3865C5.53781 18.4924 5.16598 18.6009 4.76631 18.7086C4.14222 18.8768 3.71939 17.721 4.2226 17.3153C4.49001 17.0997 4.72589 16.8804 4.91307 16.6614C7.53994 13.5895 7.77263 9.24135 5.95118 5.37693C5.87235 5.20968 5.78488 5.00643 5.69404 4.78439C5.44129 4.16663 6.17995 3.71072 6.61331 4.21837C6.78487 4.41934 6.93313 4.60289 7.0376 4.74968Z" fill="white"/>
</mask>
<g mask="url(#mask0_39_16321)">
<path d="M5.48436 3.06886L12.534 16.3362L22.6451 9.99316L15.5955 -3.27419L5.48436 3.06886Z" fill="url(#paint0_linear_39_16321)"/>
<path d="M5.48436 3.06886L12.534 16.3362L2.4228 22.6793L-4.62682 9.41191L5.48436 3.06886Z" fill="url(#paint1_linear_39_16321)"/>
<path d="M19.5836 29.6036L12.534 16.3362L22.6451 9.99316L29.6947 23.2605L19.5836 29.6036Z" fill="url(#paint2_linear_39_16321)"/>
<path d="M19.5836 29.6036L12.534 16.3362L2.4228 22.6793L9.47241 35.9466L19.5836 29.6036Z" fill="url(#paint3_linear_39_16321)"/>
</g>
<mask id="mask1_39_16321" style="mask-type:luminance" maskUnits="userSpaceOnUse" x="8" y="13" width="10" height="7">
<path d="M17.1073 13.1368C15.468 15.1569 15.121 17.3307 15.4298 19.1929C15.4354 19.227 15.4414 19.2647 15.4474 19.3054C15.5294 19.8634 14.8711 20.207 14.4254 19.8613C14.4027 19.8437 14.3807 19.8268 14.3597 19.8108C12.864 18.6722 11.0996 17.8156 8.75159 18.085C10.1729 17.6685 11.6262 17.0515 13.046 16.2317C14.6048 15.3317 15.9722 14.2746 17.1073 13.1368Z" fill="white"/>
</mask>
<g mask="url(#mask1_39_16321)">
<path d="M5.40845 3.18684L15.0343 19.8593L25.2215 13.9778L15.5956 -2.6947L5.40845 3.18684Z" fill="url(#paint4_linear_39_16321)"/>
<path d="M5.40845 3.18684L15.0343 19.8593L4.84721 25.7409L-4.77867 9.06838L5.40845 3.18684Z" fill="url(#paint5_linear_39_16321)"/>
<path d="M24.6602 36.5319L15.0343 19.8593L25.2215 13.9778L34.8473 30.6503L24.6602 36.5319Z" fill="url(#paint6_linear_39_16321)"/>
<path d="M24.6602 36.5319L15.0343 19.8593L4.84721 25.7409L14.4731 42.4134L24.6602 36.5319Z" fill="url(#paint7_linear_39_16321)"/>
</g>
<defs>
<linearGradient id="paint0_linear_39_16321" x1="12.534" y1="16.3362" x2="13.9857" y2="5.05406" gradientUnits="userSpaceOnUse">
<stop stop-color="#27B2F0"/>
<stop offset="0.203234" stop-color="#26DFFB"/>
<stop offset="0.406468" stop-color="#30F5FE"/>
<stop offset="0.652506" stop-color="#F0FEFC"/>
<stop offset="0.863327" stop-color="#FBC610"/>
<stop offset="1" stop-color="#FD9C22"/>
</linearGradient>
<linearGradient id="paint1_linear_39_16321" x1="12.534" y1="16.3362" x2="2.66782" y2="12.4358" gradientUnits="userSpaceOnUse">
<stop stop-color="#27B2F0"/>
<stop offset="0.203234" stop-color="#26DFFB"/>
<stop offset="0.406468" stop-color="#30F5FE"/>
<stop offset="0.652506" stop-color="#F0FEFC"/>
<stop offset="0.863327" stop-color="#FBC610"/>
<stop offset="1" stop-color="#FD9C22"/>
</linearGradient>
<linearGradient id="paint2_linear_39_16321" x1="12.534" y1="16.3362" x2="22.4001" y2="20.2366" gradientUnits="userSpaceOnUse">
<stop stop-color="#27B2F0"/>
<stop offset="0.203234" stop-color="#26DFFB"/>
<stop offset="0.406468" stop-color="#30F5FE"/>
<stop offset="0.652506" stop-color="#F0FEFC"/>
<stop offset="0.863327" stop-color="#FBC610"/>
<stop offset="1" stop-color="#FD9C22"/>
</linearGradient>
<linearGradient id="paint3_linear_39_16321" x1="12.534" y1="16.3362" x2="11.0822" y2="27.6184" gradientUnits="userSpaceOnUse">
<stop stop-color="#27B2F0"/>
<stop offset="0.203234" stop-color="#26DFFB"/>
<stop offset="0.406468" stop-color="#30F5FE"/>
<stop offset="0.652506" stop-color="#F0FEFC"/>
<stop offset="0.863327" stop-color="#FBC610"/>
<stop offset="1" stop-color="#FD9C22"/>
</linearGradient>
<linearGradient id="paint4_linear_39_16321" x1="15.0343" y1="19.8593" x2="14.8312" y2="16.3038" gradientUnits="userSpaceOnUse">
<stop stop-color="#1C6FFF"/>
<stop offset="1" stop-color="#24B5EF"/>
</linearGradient>
<linearGradient id="paint5_linear_39_16321" x1="15.0343" y1="19.8593" x2="12.0567" y2="17.9056" gradientUnits="userSpaceOnUse">
<stop stop-color="#1C6FFF"/>
<stop offset="1" stop-color="#24B5EF"/>
</linearGradient>
<linearGradient id="paint6_linear_39_16321" x1="15.0343" y1="19.8593" x2="18.012" y2="21.8131" gradientUnits="userSpaceOnUse">
<stop stop-color="#1C6FFF"/>
<stop offset="1" stop-color="#24B5EF"/>
</linearGradient>
<linearGradient id="paint7_linear_39_16321" x1="15.0343" y1="19.8593" x2="15.2375" y2="23.4149" gradientUnits="userSpaceOnUse">
<stop stop-color="#1C6FFF"/>
<stop offset="1" stop-color="#24B5EF"/>
</linearGradient>
</defs>
</svg>
