<svg width="24" height="24" viewBox="0 0 24 24" fill="none" xmlns="http://www.w3.org/2000/svg">
<path fill-rule="evenodd" clip-rule="evenodd" d="M16.9886 8.40141C17.1047 8.25253 17.2065 8.11652 17.3141 7.98485C17.3639 7.92288 17.3596 7.87575 17.3112 7.81103C16.8447 7.19781 16.8006 6.51697 17.0691 5.82616C17.2706 5.30628 17.7164 5.06262 18.2613 5.01076C18.6009 4.97873 18.9342 5.01352 19.2434 5.17868C19.6493 5.39595 19.8856 5.72718 19.9625 6.1843C20.0239 6.54901 20.0124 6.90505 19.9092 7.25833C19.7261 7.88363 19.2767 8.20764 18.6608 8.28956C18.1494 8.35795 17.631 8.36649 17.1153 8.40141C17.0755 8.4043 17.0348 8.40141 16.9886 8.40141Z" fill="#027AFF"/>
<path fill-rule="evenodd" clip-rule="evenodd" d="M15.7239 5.60089H12.643L10.2038 11.1631H6.75549V5.62518H4V19.9556H6.75615V13.9185H11.6161C12.4529 13.9185 13.217 13.4306 13.5696 12.6722V19.9556H16.3257V13.9185C16.3257 12.4821 15.2033 11.2742 13.7704 11.1695V11.1623H12.257C12.6217 11.0378 12.9568 10.8395 13.2414 10.5798C13.5261 10.32 13.7542 10.0044 13.9114 9.65254L15.7239 5.60089Z" fill="black"/>
</svg>
