<svg width="24" height="24" viewBox="0 0 24 24" fill="none" xmlns="http://www.w3.org/2000/svg">
<path fill-rule="evenodd" clip-rule="evenodd" d="M11.1198 4.01166C12.5896 3.97748 14.2238 4.0073 15.7017 4.25312C17.4813 4.54912 18.9591 5.85966 19.541 7.54984C19.6806 7.95711 19.7868 8.52656 19.861 9.25602C20.0682 11.3251 20.0559 13.512 19.7417 15.6589C19.4333 17.7593 17.6689 19.4502 15.5889 19.768C15.0144 19.8553 14.2151 19.9331 13.1933 20H10.9023C9.8187 19.9455 8.94087 19.8618 8.26887 19.7476C7.42086 19.6036 6.64413 19.2291 5.93794 18.6225C5.00121 17.8182 4.43756 16.8022 4.24847 15.5767C4.17268 15.0574 4.11447 14.5356 4.07393 14.0124C3.98374 12.9178 3.98592 11.6109 4.02811 10.6378C4.06011 9.88656 4.13429 9.1302 4.25138 8.36802C4.51757 6.63493 5.70303 5.18039 7.34959 4.51857C7.82014 4.32948 8.44196 4.19857 9.21287 4.12875C9.84674 4.06787 10.4825 4.02882 11.1191 4.01166H11.1198ZM10.81 5.82766C10.0805 5.62402 9.38087 5.54402 8.74232 5.59493C8.42098 5.618 8.10356 5.67953 7.79686 5.7782C6.7314 6.1273 6.00267 6.92002 5.72339 8.03202C5.56848 8.64656 5.55612 9.34402 5.68485 10.0909C5.81067 10.8197 6.06958 11.584 6.44994 12.3462C7.24413 13.9404 8.5256 15.4444 10.0442 16.5666C10.7205 17.0662 11.4282 17.4785 12.1387 17.7862C12.9562 18.1396 13.7627 18.3491 14.5155 18.4044C15.1322 18.448 15.7046 18.3876 16.2115 18.224C16.9664 17.9804 17.5584 17.5135 17.9395 16.8611C18.2289 16.3666 18.3926 15.7746 18.4217 15.112L18.4246 15.0386C18.4278 14.9297 18.4278 14.8208 18.4246 14.712L18.4195 14.6182C18.3868 13.9789 18.2399 13.2975 17.9838 12.6C17.694 11.8238 17.3103 11.086 16.8413 10.4029C15.8934 9.01455 14.6718 7.83453 13.2514 6.93529C12.4456 6.42984 11.6165 6.05384 10.81 5.82766Z" fill="url(#paint0_radial_15_5429)"/>
<defs>
<radialGradient id="paint0_radial_15_5429" cx="0" cy="0" r="1" gradientTransform="matrix(-8.00003 7.63638 -11.1661 -11.6977 11.9998 12)" gradientUnits="userSpaceOnUse">
<stop offset="0.413" stop-color="#CBFF00"/>
<stop offset="0.678" stop-color="#7EF426"/>
</radialGradient>
</defs>
</svg>
