<svg width="24" height="24" viewBox="0 0 24 24" fill="none" xmlns="http://www.w3.org/2000/svg">
<path d="M12 4.00137C7.58171 4.00137 4 7.58377 4 12.0007C4 14.4123 5.06786 16.5748 6.75543 18.0427L10.7132 9.92742H15.1404L10.3152 19.8223C10.869 19.941 11.4338 20.0007 12 20.0007C16.4183 20.0007 20 16.4183 20 12C20 7.58171 16.4176 4 12 4V4.00137Z" fill="url(#paint0_linear_15_5431)"/>
<path d="M6.75543 18.042L11.1216 9.08879C11.1332 9.06408 11.1456 9.03869 11.1593 9.0133L11.2183 8.88977H11.2218C11.6135 8.15366 12.198 7.53798 12.9129 7.10868C13.6277 6.67939 14.4459 6.45266 15.2797 6.45277C17.1904 6.45277 18.8285 7.61946 19.5237 9.27752C18.4106 6.19954 15.4609 4 12 4C7.58171 4 4 7.58171 4 12C4 14.4116 5.06786 16.5748 6.75543 18.042Z" fill="url(#paint1_linear_15_5431)"/>
<defs>
<linearGradient id="paint0_linear_15_5431" x1="13.1694" y1="7.29073" x2="12.5435" y2="18.6" gradientUnits="userSpaceOnUse">
<stop offset="0.313" stop-color="#9EC0E0"/>
<stop offset="1" stop-color="white"/>
</linearGradient>
<linearGradient id="paint1_linear_15_5431" x1="13.3547" y1="6.88307" x2="7.80132" y2="15.9125" gradientUnits="userSpaceOnUse">
<stop stop-color="white"/>
<stop offset="1" stop-color="#BCD5EC"/>
</linearGradient>
</defs>
</svg>
