<svg width="24" height="24" viewBox="0 0 24 24" fill="none" xmlns="http://www.w3.org/2000/svg">
<path d="M11.2048 4.12052C11.3026 4.16398 11.4001 4.20767 11.5009 4.25248C11.6027 4.29751 11.7046 4.34254 11.8097 4.38891C11.9027 4.43036 11.9957 4.47158 12.0914 4.51415C12.2006 4.5612 12.3097 4.60802 12.4191 4.65417C12.4614 4.6721 12.5035 4.69002 12.5471 4.70861C12.6384 4.74692 12.7299 4.78479 12.8213 4.82265C12.8944 4.85289 12.8944 4.85289 12.969 4.88381C13.0121 4.90173 13.0555 4.91943 13.1001 4.9378C13.2004 4.98463 13.2004 4.98463 13.2508 5.05184C13.2604 5.1177 13.2604 5.1177 13.2508 5.18626C13.1329 5.29133 13.0147 5.34622 12.8682 5.41746C12.2031 5.74456 11.5543 6.09741 10.9321 6.48567C10.8963 6.50785 10.8605 6.53003 10.8237 6.55288C10.6031 6.68999 10.3877 6.83113 10.1759 6.97855C10.1475 6.99826 10.1192 7.01776 10.0897 7.03792C9.79485 7.24157 9.51257 7.45687 9.2386 7.68247C9.17257 7.73646 9.10578 7.78956 9.03873 7.84266C8.8618 7.9838 8.69243 8.13166 8.53818 8.29252C8.49811 8.33419 8.45728 8.37519 8.4162 8.41619C7.12726 9.70843 6.46188 11.4402 6.52136 13.162C6.63049 14.4688 7.25606 15.644 8.35041 16.5241C9.52038 17.4137 10.958 17.7305 12.4695 17.6875C13.5553 17.6003 14.5945 17.1762 15.4184 16.5449C15.4383 16.5297 15.4582 16.5144 15.4789 16.4987C15.5436 16.4479 15.6074 16.3959 15.6704 16.3433C15.6944 16.3236 15.7183 16.3038 15.743 16.2834C16.5941 15.5553 17.0465 14.501 17.0828 13.4626C17.076 12.5441 16.7748 11.712 16.2536 10.9247C16.236 10.894 16.2181 10.8636 16.1997 10.832C16.208 10.8098 16.2163 10.7876 16.2249 10.7648C16.7083 11.179 17.0864 11.6448 17.4347 12.1538C17.2424 11.595 16.9031 11.0746 16.4769 10.6303C16.4417 10.5927 16.4417 10.5927 16.4054 10.5544C16.1788 10.316 15.9469 10.1061 15.6704 9.91342C15.6477 9.89729 15.625 9.88139 15.6016 9.86459C14.4851 9.09435 13.091 8.81968 11.697 8.95567C10.5422 9.1004 9.49241 9.49313 8.6385 10.2047C8.60044 10.2365 8.60044 10.2365 8.56137 10.269C8.22868 10.5544 7.96429 10.8813 7.73115 11.2352C7.71427 11.2612 7.69738 11.287 7.67974 11.3137C7.54137 11.5341 7.43954 11.7655 7.33797 12.001C7.30798 12.0545 7.30798 12.0545 7.27748 12.109C7.23589 12.1164 7.19431 12.1238 7.15146 12.1314C7.10231 12.0702 7.1013 12.04 7.10937 11.9636C7.42291 10.6391 8.2564 9.33944 9.49543 8.5244C9.5287 8.50222 9.56197 8.47982 9.59625 8.45674C11.0137 7.52072 12.748 7.21513 14.4858 7.38181C14.5347 7.39167 14.5347 7.39167 14.5844 7.40175C14.7432 7.43043 14.8137 7.41811 14.9544 7.34104C15.0413 7.28279 15.1268 7.2232 15.2114 7.16226C16.0918 6.53272 17.1821 6.11534 18.2412 5.79116C18.2747 5.78063 18.3083 5.76987 18.3428 5.7589C18.5122 5.70759 18.6939 5.66278 18.8713 5.70154C19.0961 5.85142 19.2864 6.01721 19.4858 6.19308C19.5944 6.28829 19.5944 6.28829 19.7053 6.38553C19.8795 6.55288 19.8795 6.55288 19.9299 6.70971C19.9158 6.77132 19.9158 6.77132 19.8795 6.82172C19.6869 6.92456 19.4818 6.94158 19.262 6.98012C18.2881 7.158 17.324 7.38585 16.4154 7.75058C16.3257 7.78508 16.3257 7.78508 16.2753 7.78508C16.2753 7.79987 16.2753 7.81465 16.2753 7.82989C16.3063 7.83818 16.3376 7.84647 16.3693 7.85498C16.7444 7.97417 17.1143 8.15676 17.4347 8.36757C17.4831 8.39872 17.4831 8.39872 17.5325 8.43053C17.7155 8.54972 17.8901 8.67271 18.0555 8.81094C18.1074 8.85396 18.1601 8.89451 18.2145 8.93483C18.6508 9.27537 19.1566 9.79312 19.325 10.2943C19.3235 10.3463 19.3235 10.3463 19.3109 10.3967C19.3073 10.4132 19.3036 10.4298 19.2998 10.4471C19.2337 10.5759 19.0941 10.6046 18.9563 10.6523C18.8809 10.676 18.8055 10.6998 18.7282 10.7242C18.4938 10.7925 18.4938 10.7925 18.2664 10.8768C18.2803 10.8983 18.2939 10.9198 18.3083 10.942C19.1511 12.3037 19.2096 13.9194 18.7486 15.3967C18.4668 16.2368 18.0421 17.0116 17.4095 17.6875C17.3883 17.7108 17.3669 17.7339 17.345 17.7576C17.0612 18.0592 16.7532 18.3444 16.4013 18.5836C16.3645 18.6101 16.3645 18.6101 16.3267 18.6369C15.1157 19.4887 13.546 19.9655 12.005 19.9783C11.9417 19.9791 11.9417 19.9792 11.8775 19.98C11.7661 19.9729 11.7053 19.959 11.6126 19.9054C11.5067 19.784 11.5425 19.6709 11.5622 19.5246C11.5869 19.3998 11.6126 19.2752 11.6395 19.1509C11.6531 19.0866 11.667 19.0223 11.6814 18.956C11.6973 18.8825 11.6973 18.8825 11.7134 18.8077C11.6617 18.809 11.6617 18.809 11.609 18.8101C11.1271 18.8025 10.6417 18.7129 10.1759 18.606C10.1399 18.598 10.1036 18.5897 10.066 18.5812C9.05008 18.3332 8.06158 17.8387 7.29008 17.2018C7.23438 17.1558 7.17767 17.1113 7.11995 17.0674C6.95739 16.9412 6.81121 16.8039 6.67258 16.6569C6.63957 16.6222 6.63957 16.6222 6.60579 16.5866C5.3093 15.1872 4.85714 13.33 5.04239 11.5514C5.28334 9.64839 6.25193 7.87626 7.63034 6.41846C7.66411 6.38284 7.66411 6.38284 7.69839 6.34654C8.09636 5.92804 8.52382 5.52119 8.99135 5.16386C9.0347 5.1298 9.0347 5.1298 9.07881 5.09508C10.6233 3.88752 10.6233 3.88752 11.2048 4.12052ZM17.4599 12.1986C17.4851 12.2434 17.4851 12.2434 17.4851 12.2434L17.4599 12.1986Z" fill="#0291FF"/>
<path d="M11.2048 4.12052C11.3026 4.16398 11.4001 4.20767 11.5009 4.25248C11.6027 4.29751 11.7046 4.34254 11.8097 4.38891C11.9027 4.43036 11.9957 4.47158 12.0914 4.51415C12.2006 4.5612 12.3097 4.60802 12.4191 4.65417C12.4614 4.6721 12.5035 4.69002 12.5471 4.70861C12.6384 4.74692 12.7299 4.78479 12.8213 4.82265C12.8944 4.85289 12.8944 4.85289 12.969 4.88381C13.0121 4.90173 13.0555 4.91943 13.1001 4.9378C13.2004 4.98463 13.2004 4.98463 13.2508 5.05184C13.2604 5.1177 13.2604 5.1177 13.2508 5.18626C13.1329 5.29133 13.0147 5.34622 12.8682 5.41746C12.2031 5.74456 11.5543 6.09741 10.9321 6.48567C10.8963 6.50785 10.8605 6.53003 10.8237 6.55288C10.6031 6.68999 10.3877 6.83113 10.1759 6.97855C10.1475 6.99826 10.1192 7.01776 10.0897 7.03792C9.79485 7.24157 9.51257 7.45687 9.2386 7.68247C9.17257 7.73646 9.10578 7.78956 9.03873 7.84266C8.8618 7.9838 8.69243 8.13166 8.53818 8.29252C8.49811 8.33419 8.45728 8.37519 8.4162 8.41619C7.12726 9.70843 6.46188 11.4402 6.52136 13.162C6.63049 14.4688 7.25606 15.644 8.35041 16.5241C9.3621 17.2934 10.6616 17.6969 11.9861 17.6917C12.0703 17.6917 12.1547 17.6915 12.2417 17.6913C12.4123 17.6886 12.5774 17.6794 12.7467 17.6651C12.7717 17.6725 12.7966 17.6799 12.8224 17.6875C12.8692 17.7928 12.8755 17.8824 12.8735 17.9946C12.871 18.1864 12.931 18.332 13.0172 18.5086C13.0492 18.5836 13.0492 18.5836 13.0492 18.6732C13.0729 18.667 13.0968 18.6605 13.1213 18.6538C13.1525 18.6455 13.184 18.6372 13.2163 18.6284C13.2473 18.6201 13.2783 18.6119 13.3103 18.6033C13.3955 18.5852 13.4661 18.5798 13.5533 18.5836C13.5576 18.5991 13.5618 18.6145 13.5664 18.6305C13.5966 18.7349 13.6281 18.8345 13.6793 18.9325C13.8048 19.1726 13.8905 19.4612 13.8809 19.7262C13.2634 19.8676 12.6444 19.9731 12.005 19.9783C11.9417 19.9791 11.9417 19.9792 11.8775 19.98C11.7661 19.9729 11.7053 19.959 11.6126 19.9054C11.5067 19.784 11.5425 19.6709 11.5622 19.5246C11.5869 19.3998 11.6126 19.2752 11.6395 19.1509C11.6531 19.0866 11.667 19.0223 11.6814 18.956C11.6973 18.8825 11.6973 18.8825 11.7134 18.8077C11.6617 18.809 11.6617 18.809 11.609 18.8101C11.1271 18.8025 10.6417 18.7129 10.1759 18.606C10.1399 18.598 10.1036 18.5897 10.066 18.5812C9.05008 18.3332 8.06158 17.8387 7.29008 17.2018C7.23438 17.1558 7.17767 17.1113 7.11995 17.0674C6.95739 16.9412 6.81121 16.8039 6.67258 16.6569C6.63957 16.6222 6.63957 16.6222 6.60579 16.5866C5.3093 15.1872 4.85714 13.33 5.04239 11.5514C5.28334 9.64839 6.25193 7.87626 7.63034 6.41846C7.66411 6.38284 7.66411 6.38284 7.69839 6.34654C8.09636 5.92804 8.52382 5.52119 8.99135 5.16386C9.0347 5.1298 9.0347 5.1298 9.07881 5.09508C10.6233 3.88752 10.6233 3.88752 11.2048 4.12052Z" fill="#0F64FF"/>
<path d="M18.8714 5.70163C19.0962 5.85151 19.2863 6.01708 19.4859 6.19317C19.5582 6.25657 19.6306 6.3202 19.7054 6.38561C19.8796 6.55297 19.8796 6.55297 19.93 6.7098C19.9159 6.77141 19.9159 6.77141 19.8796 6.82181C19.687 6.92442 19.4819 6.94145 19.2621 6.97998C18.2882 7.15809 17.3242 7.38571 16.4155 7.75044C16.3258 7.78517 16.3258 7.78517 16.2754 7.78517C16.2754 7.79996 16.2754 7.81474 16.2754 7.82998C16.3067 7.83827 16.3377 7.84633 16.3699 7.85484C16.5237 7.90391 16.662 7.96776 16.8062 8.03587C16.8581 8.06006 16.9098 8.08448 16.9632 8.10957C17.0023 8.12817 17.0416 8.14676 17.0819 8.16603C17.0736 8.18821 17.0653 8.21039 17.0567 8.23324C17.0146 8.24825 16.9726 8.26304 16.9302 8.27738C16.8523 8.31345 16.7997 8.36789 16.7412 8.42524C16.7039 8.45728 16.7039 8.45728 16.6535 8.45728C16.6535 8.47206 16.6535 8.48685 16.6535 8.50209C16.6111 8.53591 16.6111 8.53591 16.5557 8.57198C16.5378 8.58408 16.5196 8.59618 16.501 8.60873C16.4518 8.63651 16.4518 8.63651 16.4014 8.63651C16.3979 8.65667 16.3979 8.65667 16.3941 8.67728C16.3722 8.73688 16.3467 8.75435 16.291 8.79199C16.2152 8.84665 16.1726 8.89639 16.1242 8.97256C16.1058 8.98847 16.0874 9.00437 16.0685 9.02095C15.9851 9.09645 15.9163 9.17733 15.8454 9.26246C15.8066 9.30839 15.8066 9.30839 15.7673 9.35544C15.7237 9.40876 15.6811 9.46275 15.6403 9.51764C15.5904 9.58351 15.5327 9.63436 15.4689 9.68948C15.4606 9.70426 15.4523 9.71905 15.4437 9.73428C15.3371 9.7009 15.2509 9.65296 15.1569 9.59717C13.9503 8.90423 12.4668 8.79423 11.0836 9.05299C10.1579 9.24611 9.33146 9.62742 8.6386 10.2048C8.61315 10.2258 8.58769 10.2471 8.56148 10.2688C8.22879 10.5545 7.96415 10.8814 7.73126 11.2353C7.71437 11.2611 7.69723 11.2869 7.67984 11.3135C7.54122 11.5342 7.43965 11.7654 7.33783 12.0011C7.31792 12.0367 7.298 12.0723 7.27759 12.1091C7.236 12.1165 7.19442 12.1239 7.15157 12.1315C7.10217 12.0701 7.10141 12.0401 7.10948 11.9637C7.42276 10.6389 8.25626 9.33931 9.49554 8.52449C9.52881 8.50209 9.56183 8.47968 9.5961 8.45661C11.0138 7.52081 12.7481 7.215 14.4859 7.3819C14.5184 7.3884 14.551 7.3949 14.5845 7.40162C14.743 7.4303 14.8138 7.41797 14.9545 7.34113C15.0412 7.28288 15.1269 7.22306 15.2116 7.16235C16.0919 6.53258 17.1823 6.11543 18.2413 5.79125C18.2748 5.78049 18.3084 5.76996 18.3429 5.75876C18.512 5.70768 18.694 5.66265 18.8714 5.70163Z" fill="#0489FF"/>
<path d="M11.2048 4.12052C11.3026 4.16398 11.4001 4.20767 11.5009 4.25248C11.6536 4.32013 11.6536 4.32013 11.8097 4.38891C11.9027 4.43036 11.9957 4.47158 12.0914 4.51415C12.2006 4.5612 12.3097 4.60802 12.4191 4.65417C12.4614 4.6721 12.5035 4.69002 12.5471 4.70861C12.6384 4.74692 12.7299 4.78479 12.8213 4.82265C12.8944 4.85289 12.8944 4.85289 12.969 4.88381C13.0121 4.90173 13.0555 4.91943 13.1001 4.9378C13.2004 4.98463 13.2004 4.98463 13.2508 5.05184C13.2604 5.1177 13.2604 5.1177 13.2508 5.18626C13.1329 5.29133 13.0147 5.34622 12.8682 5.41746C12.2031 5.74456 11.5543 6.09741 10.9321 6.48567C10.8963 6.50785 10.8605 6.53003 10.8237 6.55288C10.6031 6.68999 10.3877 6.83113 10.1759 6.97855C10.1475 6.99826 10.1192 7.01776 10.0897 7.03792C9.90348 7.16652 9.72302 7.29959 9.54483 7.43715C9.38176 7.56104 9.38176 7.56104 9.32077 7.56104C9.19374 7.50638 9.102 7.38988 9.01655 7.2922C9.01655 7.27741 9.01655 7.26263 9.01655 7.24739C8.99639 7.24 8.99639 7.24 8.97547 7.23261C8.89507 7.19228 8.83483 7.13986 8.76779 7.08362C8.66824 7.00073 8.56717 6.92142 8.46207 6.84413C8.40385 6.79372 8.34688 6.74219 8.29068 6.68999C8.19238 6.6006 8.09258 6.52286 7.97916 6.44938C7.91287 6.40524 7.85919 6.36357 7.80676 6.30644C7.81558 6.23228 7.84885 6.19241 7.90455 6.13841C7.92068 6.12273 7.93707 6.10682 7.9537 6.09047C7.98067 6.06448 7.98067 6.06448 8.00839 6.0376C8.02679 6.01923 8.04519 6.00086 8.0641 5.98204C8.35445 5.69437 8.66143 5.41567 8.99135 5.16386C9.02033 5.14123 9.04907 5.1186 9.07881 5.09508C10.6233 3.88752 10.6233 3.88752 11.2048 4.12052Z" fill="#125AFF"/>
<path d="M17.2079 8.23323C17.5111 8.40529 17.7907 8.59729 18.0558 8.81259C18.1072 8.85403 18.1596 8.89369 18.2131 8.93334C18.6496 9.275 19.1565 9.79207 19.3251 10.2944C19.3233 10.3463 19.3233 10.3463 19.311 10.3965C19.3054 10.4216 19.3054 10.4216 19.2999 10.4472C19.2338 10.5758 19.0942 10.6044 18.9561 10.6524C18.881 10.6761 18.8056 10.6999 18.728 10.7243C18.4939 10.7924 18.4939 10.7924 18.2665 10.8769C18.2804 10.8984 18.294 10.9199 18.3081 10.9421C18.5972 11.4087 18.8369 11.937 18.9218 12.4675C18.8462 12.5347 18.8462 12.5347 18.7451 12.5412C18.7063 12.5405 18.6673 12.5397 18.6272 12.539C18.5881 12.5383 18.549 12.5376 18.5087 12.5372C18.4787 12.5363 18.4487 12.5356 18.4177 12.5347C18.4177 12.5495 18.4177 12.5643 18.4177 12.5795C18.2481 12.6048 18.0861 12.6273 17.9137 12.6243C17.8408 12.6308 17.7682 12.6382 17.6959 12.6463C17.6762 12.6463 17.6566 12.6465 17.6364 12.6467C17.5724 12.5898 17.5679 12.5482 17.5482 12.4702C17.5273 12.3875 17.5033 12.3188 17.46 12.2435C17.4499 12.2092 17.4403 12.1745 17.4318 12.14C17.2684 11.5929 16.8866 11.0574 16.477 10.6304C16.4415 10.5928 16.4415 10.5928 16.4054 10.5545C16.1146 10.2482 15.8003 10.0002 15.4437 9.75668C15.4583 9.6693 15.5059 9.62113 15.5697 9.55504C15.7164 9.3953 15.8535 9.23109 15.9876 9.06284C16.0486 8.99495 16.0486 8.99495 16.1242 8.97255C16.13 8.95687 16.1355 8.94118 16.1416 8.92505C16.1852 8.83992 16.2502 8.79825 16.3313 8.74067C16.3828 8.70415 16.3828 8.70415 16.4014 8.63649C16.4816 8.58407 16.563 8.53926 16.6535 8.50207C16.6535 8.48729 16.6535 8.4725 16.6535 8.45727C16.694 8.42097 16.694 8.42097 16.748 8.3802C16.7656 8.36698 16.783 8.35354 16.8012 8.33965C17.0441 8.16288 17.0441 8.16288 17.2079 8.23323Z" fill="#115CFF"/>
<path d="M8.13446 16.3658C8.24183 16.4345 8.3434 16.506 8.44145 16.5853C9.40449 17.3322 10.7151 17.6912 11.975 17.6903C12.061 17.6905 12.1469 17.6905 12.2354 17.6905C12.4086 17.6882 12.5749 17.6799 12.7468 17.6652C12.7717 17.6726 12.7967 17.6799 12.8224 17.6876C12.8693 17.7929 12.8753 17.8825 12.8736 17.9945C12.871 18.1865 12.931 18.3319 13.017 18.5084C13.0492 18.5837 13.0492 18.5837 13.0492 18.6733C13.0729 18.6668 13.0966 18.6603 13.1211 18.6536C13.1526 18.6453 13.1838 18.637 13.2161 18.6285C13.2471 18.6202 13.2781 18.6119 13.3101 18.6034C13.3955 18.5851 13.4661 18.5799 13.5533 18.5837C13.5576 18.5992 13.5619 18.6146 13.5664 18.6305C13.5967 18.7349 13.6282 18.8346 13.6793 18.9323C13.8049 19.1727 13.8905 19.4613 13.881 19.7263C13.2632 19.8674 12.6445 19.973 12.0048 19.9783C11.9418 19.9792 11.9418 19.9792 11.8773 19.9801C11.7659 19.973 11.7054 19.9591 11.6126 19.9055C11.5068 19.7841 11.5425 19.6707 11.5622 19.5247C11.5867 19.3999 11.6126 19.2753 11.6393 19.1507C11.66 19.0544 11.66 19.0544 11.6812 18.9558C11.6918 18.907 11.7026 18.8582 11.7134 18.8077C11.6618 18.8089 11.6618 18.8089 11.6091 18.8102C11.1272 18.8024 10.6415 18.713 10.176 18.6061C10.1215 18.5938 10.1215 18.5938 10.0661 18.5812C9.04508 18.3321 8.05431 17.8334 7.27753 17.1947C7.31306 17.0264 7.48874 16.9173 7.63038 16.8138C7.66668 16.7869 7.70297 16.7598 7.73901 16.7327C7.75565 16.7204 7.77203 16.7081 7.78917 16.6953C7.83403 16.6592 7.83403 16.6592 7.85671 16.6126C7.88872 16.5562 7.9288 16.5266 7.98324 16.4863C8.03566 16.4471 8.08607 16.4088 8.13446 16.3658Z" fill="#1259FF"/>
<path d="M5.08485 11.2577C5.30816 11.2763 5.5297 11.3034 5.75175 11.3312C5.84677 11.3422 5.94204 11.3511 6.03756 11.3585C6.13938 11.3673 6.22835 11.3791 6.32615 11.4033C6.43351 11.4289 6.5371 11.4482 6.6475 11.4594C6.67699 11.59 6.65556 11.6744 6.62708 11.8053C6.36143 13.1134 6.58575 14.4583 7.41723 15.5783C7.61079 15.8229 7.82251 16.0476 8.05665 16.262C8.10933 16.3209 8.10933 16.3209 8.10933 16.4106C8.05262 16.4554 8.05262 16.4554 7.98331 16.5002C7.92736 16.5454 7.88703 16.5824 7.85099 16.6415C7.79655 16.7159 7.73001 16.7648 7.65389 16.8217C7.60172 16.86 7.60172 16.86 7.54526 16.9133C7.50443 16.9482 7.50443 16.9482 7.45402 16.9482C7.44823 16.9603 7.44268 16.9722 7.43663 16.9845C7.39278 17.0556 7.33708 17.1111 7.2776 17.1723C7.04017 17.0396 6.85089 16.8479 6.6727 16.657C6.65077 16.6339 6.62885 16.6108 6.60616 16.5871C5.29656 15.1748 4.86709 13.3195 5.04604 11.5279C5.05687 11.4374 5.06922 11.3478 5.08485 11.2577Z" fill="#0197FF"/>
<path d="M15.1917 16.7018C15.2081 16.7558 15.2184 16.8053 15.2247 16.8613C15.2305 16.8826 15.2363 16.9039 15.2421 16.9258C15.2917 16.9516 15.2917 16.9516 15.3429 16.9707C15.3517 17.0005 15.3603 17.0302 15.3681 17.0603C15.4291 17.1282 15.4291 17.1282 15.5171 17.1573C15.5922 17.1788 15.6148 17.218 15.6595 17.2744C15.7016 17.3298 15.7016 17.3298 15.7462 17.3739C15.8858 17.3739 15.9622 17.2966 16.0564 17.2128C16.0877 17.1846 16.1187 17.1562 16.1494 17.1275C16.2739 17.1591 16.3211 17.2196 16.4015 17.3067C16.4584 17.3461 16.5169 17.3838 16.5764 17.4201C16.6908 17.4902 16.7997 17.5623 16.9055 17.6428C16.9217 17.6549 16.9378 17.6667 16.9544 17.6791C17.0432 17.746 17.1271 17.815 17.208 17.8892C16.966 18.1453 16.6994 18.3794 16.4015 18.5837C16.3768 18.6014 16.3521 18.6189 16.3266 18.637C15.7212 19.0627 14.6831 19.7039 13.8811 19.7039C13.8765 19.6793 13.872 19.6546 13.8672 19.6293C13.8004 19.2746 13.8004 19.2746 13.6542 18.9422C13.5534 18.7022 13.5534 18.7022 13.5534 18.5837C13.5212 18.5902 13.4891 18.5967 13.4559 18.6034C13.3934 18.6158 13.3934 18.6158 13.3296 18.6285C13.2883 18.6368 13.2467 18.6451 13.2038 18.6536C13.0997 18.6733 13.0997 18.6733 13.0493 18.6733C13.0387 18.6464 13.0282 18.6193 13.0171 18.5916C13.0032 18.5566 12.9896 18.5217 12.9752 18.4856C12.9616 18.4509 12.9478 18.4161 12.9336 18.3801C12.9026 18.2985 12.9026 18.2985 12.8729 18.2477C12.8676 18.208 12.8636 18.1684 12.8603 18.1287C12.8573 18.0929 12.8573 18.0929 12.854 18.0563C12.852 18.0308 12.85 18.0053 12.8477 17.9788C12.8429 17.9246 12.8384 17.8706 12.8336 17.8164C12.8298 17.7734 12.8263 17.7306 12.8225 17.6876C12.7975 17.6802 12.7726 17.6728 12.7469 17.6652C12.7819 17.6591 12.8172 17.6531 12.8532 17.647C13.6361 17.5054 14.6072 17.2214 15.1917 16.7018Z" fill="#0587FF"/>
<path d="M16.1998 10.7649C17.1006 11.4291 17.6017 12.2939 17.7252 13.3151C17.7675 13.7981 17.7189 14.3107 17.5608 14.7751C17.5515 14.8114 17.5424 14.8479 17.5341 14.8844C17.4938 15.0489 17.4363 15.2039 17.3592 15.3576C17.3443 15.3917 17.3297 15.4257 17.3151 15.4598C17.2599 15.5834 17.1926 15.7011 17.1243 15.8193C17.0958 15.8704 17.0691 15.9224 17.0441 15.9753C16.7719 16.5302 16.2774 17.0018 15.7965 17.4187C15.6884 17.3414 15.6153 17.2765 15.5445 17.1723C15.5112 17.1797 15.478 17.1871 15.4437 17.1947C15.4266 17.1683 15.4266 17.1683 15.4089 17.1414C15.3711 17.0818 15.3711 17.0818 15.3177 17.0379C15.2136 16.9427 15.1917 16.8766 15.1917 16.7466C15.2537 16.6653 15.3247 16.6084 15.4122 16.5493C16.3659 15.8655 16.9002 14.8782 17.0567 13.8118C17.1747 12.7772 16.8299 11.8122 16.2553 10.9246C16.1998 10.8321 16.1998 10.8321 16.1998 10.7649Z" fill="#009CFF"/>
<path d="M11.159 7.69556C11.1673 7.72513 11.1756 7.7547 11.1842 7.78517C11.247 7.8143 11.247 7.8143 11.3102 7.82998C11.3019 7.85216 11.2936 7.87434 11.285 7.89719C11.2911 7.94468 11.2911 7.94468 11.3102 7.9868C11.3352 7.99801 11.3352 7.99801 11.3606 8.00921C11.3523 8.03139 11.344 8.05357 11.3354 8.07642C11.3579 8.13489 11.3579 8.13489 11.3858 8.18844C11.3858 8.19583 11.3858 8.20322 11.3858 8.21084C11.3987 8.38872 11.4453 8.5451 11.5371 8.70372C11.5907 8.80678 11.5907 8.80678 11.5623 8.88295C11.5872 8.90513 11.6122 8.92731 11.6379 8.95016C11.5857 8.95957 11.5338 8.9692 11.4801 8.97906C10.3898 9.18338 9.42446 9.53086 8.6134 10.2272C8.5766 10.2579 8.5766 10.2579 8.53905 10.289C8.21417 10.5661 7.9581 10.8908 7.73126 11.2353C7.71437 11.2611 7.69723 11.2869 7.67984 11.3135C7.54122 11.5342 7.43965 11.7654 7.33783 12.0011C7.31791 12.0367 7.298 12.0723 7.27759 12.1091C7.236 12.1165 7.19442 12.1239 7.15157 12.1315C7.10217 12.0701 7.10141 12.0401 7.10948 11.9637C7.42276 10.6389 8.25626 9.33931 9.49554 8.52449C9.52881 8.50209 9.56183 8.47968 9.5961 8.45661C10.0745 8.14094 10.5972 7.87523 11.159 7.69556Z" fill="#0683FF"/>
<path d="M5.99218 8.6813C6.19104 8.69811 6.34075 8.781 6.50685 8.87174C6.60061 8.92013 6.6984 8.95844 6.79871 8.99496C6.79871 9.00974 6.79871 9.02453 6.79871 9.03976C6.81358 9.0429 6.82845 9.04626 6.84383 9.0494C7.03412 9.09264 7.18257 9.17082 7.3469 9.26514C7.43057 9.3095 7.51501 9.34333 7.60524 9.37582C7.58734 9.40472 7.58734 9.40472 7.5692 9.43429C7.18887 10.0585 6.88138 10.7203 6.71327 11.4166C6.70823 11.4307 6.70319 11.4448 6.69789 11.4594C6.57339 11.5147 6.3836 11.4419 6.25531 11.4145C6.08796 11.3809 5.92942 11.361 5.75854 11.3534C5.28067 11.3222 5.28067 11.3222 5.08484 11.2353C5.49037 9.12736 5.49037 9.12736 5.99218 8.6813Z" fill="#0B73FF"/>
<path d="M14.4607 7.38189C14.4275 7.38928 14.3942 7.39668 14.3599 7.40429C14.3597 7.41751 14.3591 7.43095 14.3589 7.44462C14.3501 7.58128 14.3133 7.68232 14.2455 7.80465C14.1868 7.91644 14.1411 8.03227 14.0935 8.14809C14.069 8.20567 14.0431 8.26235 14.0151 8.31859C13.9826 8.38871 13.9796 8.42814 13.9818 8.50207C13.9652 8.52425 13.9486 8.54643 13.9314 8.56928C13.9481 8.57668 13.9647 8.58407 13.9818 8.59169C13.9692 8.60042 13.9569 8.60916 13.944 8.61835C13.8997 8.65688 13.8997 8.65688 13.9077 8.71222C13.9057 8.79309 13.8626 8.82155 13.8054 8.88293C13.7971 8.9069 13.7888 8.93088 13.7802 8.95574C13.7719 8.97613 13.7636 8.9963 13.755 9.01735C13.6151 9.0485 13.506 9.02049 13.3643 8.99764C12.8207 8.91094 12.2735 8.9069 11.7238 8.95171C11.6318 8.94992 11.6011 8.93984 11.5371 8.88293C11.5449 8.86344 11.5449 8.86344 11.5527 8.84373C11.5648 8.77965 11.5454 8.76061 11.5119 8.7037C11.4511 8.56995 11.4015 8.43777 11.373 8.29551C11.3629 8.25025 11.3629 8.25025 11.3102 8.21082C11.3198 8.16602 11.3198 8.16602 11.3354 8.12121C11.3354 8.10642 11.3354 8.09164 11.3354 8.0764C11.3188 8.06901 11.3022 8.06162 11.285 8.054C11.2933 8.03182 11.3017 8.00964 11.3102 7.98679C11.2938 7.94937 11.277 7.91196 11.2598 7.87477C11.2681 7.85998 11.2764 7.8452 11.285 7.82996C11.2689 7.82727 11.2528 7.82436 11.2361 7.82145C11.2104 7.81473 11.2104 7.81473 11.1842 7.80756C11.1759 7.79277 11.1676 7.77799 11.159 7.76275C11.1673 7.74057 11.1756 7.71839 11.1842 7.69554C12.1878 7.3037 13.3885 7.28063 14.4607 7.38189Z" fill="#0099FF"/>
<path d="M17.2079 8.23323C17.5109 8.40506 17.7902 8.59684 18.055 8.81191C18.111 8.85717 18.168 8.90086 18.2257 8.94454C18.2988 9.001 18.3605 9.05947 18.4177 9.12937C18.3857 9.15514 18.3537 9.1809 18.3217 9.20644C18.3038 9.22078 18.2859 9.23489 18.2675 9.24968C18.2161 9.2862 18.2161 9.2862 18.1405 9.3086C18.1228 9.34557 18.1062 9.38298 18.0901 9.42062C18.0583 9.46386 18.0253 9.50643 17.9908 9.5481C17.9734 9.56938 17.956 9.59066 17.9381 9.61262C17.8885 9.66706 17.8885 9.66706 17.8128 9.71187C17.7811 9.75623 17.7811 9.75623 17.7529 9.80708C17.6982 9.89827 17.6409 9.97287 17.5608 10.0479C17.5442 10.0479 17.5275 10.0479 17.5104 10.0479C17.5104 10.0627 17.5104 10.0775 17.5104 10.0927C17.4938 10.0927 17.4771 10.0927 17.46 10.0927C17.4507 10.1122 17.4507 10.1122 17.4411 10.1319C17.405 10.1897 17.3647 10.2285 17.3088 10.272C17.2921 10.272 17.2755 10.272 17.2584 10.272C17.2515 10.2863 17.2447 10.3006 17.2379 10.3154C17.2079 10.3616 17.2079 10.3616 17.1323 10.384C17.1147 10.4133 17.0981 10.4433 17.0819 10.4736C17.0539 10.5032 17.025 10.5321 16.9952 10.5605C16.9229 10.632 16.8775 10.7005 16.8299 10.7872C16.7795 10.8307 16.7795 10.8307 16.7291 10.8545C16.6426 10.8289 16.6313 10.813 16.5794 10.7494C16.2494 10.3607 15.8759 10.0517 15.4437 9.75668C15.4583 9.6693 15.5059 9.62113 15.5697 9.55504C15.7164 9.3953 15.8535 9.23109 15.9876 9.06284C16.0486 8.99495 16.0486 8.99495 16.1242 8.97255C16.13 8.95687 16.1355 8.94118 16.1416 8.92505C16.1852 8.83992 16.2502 8.79825 16.3313 8.74067C16.3828 8.70415 16.3828 8.70415 16.4014 8.63649C16.4816 8.58407 16.563 8.53926 16.6535 8.50207C16.6535 8.48729 16.6535 8.4725 16.6535 8.45727C16.694 8.42097 16.694 8.42097 16.748 8.3802C16.7656 8.36698 16.783 8.35354 16.8012 8.33965C17.0441 8.16288 17.0441 8.16288 17.2079 8.23323Z" fill="#0978FF"/>
<path d="M10.9574 4.02136C11.1404 4.09462 11.3213 4.17236 11.5008 4.25234C11.6538 4.32 11.6538 4.32 11.8098 4.38901C11.9028 4.43023 11.9958 4.47168 12.0916 4.51424C12.2007 4.56129 12.3098 4.60811 12.4192 4.65426C12.4613 4.67219 12.5036 4.69011 12.547 4.70848C12.6385 4.74679 12.7297 4.78488 12.8215 4.82274C12.8701 4.8429 12.9187 4.86307 12.9689 4.8839C13.0123 4.9016 13.0556 4.91952 13.1002 4.93789C13.2005 4.98472 13.2005 4.98472 13.2509 5.05193C13.2605 5.1178 13.2605 5.1178 13.2509 5.18635C13.133 5.2912 13.0148 5.34631 12.8681 5.41733C12.3834 5.65571 11.9116 5.91021 11.4468 6.17816C11.3354 6.23932 11.3354 6.23932 11.2094 6.28413C11.1159 6.20101 11.0809 6.07869 11.033 5.97048C11.0163 5.97048 10.9997 5.97048 10.9826 5.97048C10.9498 5.92769 10.9191 5.88355 10.8896 5.83874C10.8001 5.70656 10.7053 5.58065 10.6045 5.45519C10.5546 5.39224 10.5047 5.32929 10.4548 5.26611C10.4039 5.20226 10.353 5.13818 10.3021 5.07433C10.2824 5.04946 10.2625 5.0246 10.2421 4.99906C10.175 4.91549 10.1123 4.83797 10.0296 4.76628C9.95904 4.70176 9.93409 4.64306 9.8988 4.55905C10.017 4.42776 10.141 4.35742 10.299 4.26511C10.3792 4.21784 10.3792 4.21784 10.4609 4.16967C10.6491 4.06348 10.7303 4.02136 10.9574 4.02136Z" fill="#1450FF"/>
<path d="M5.08478 11.2577C5.30809 11.2763 5.52963 11.3034 5.75168 11.3312C5.8467 11.3422 5.94197 11.3511 6.03749 11.3585C6.13932 11.3673 6.22829 11.3791 6.32608 11.4033C6.43345 11.4289 6.53703 11.4482 6.64743 11.4594C6.67692 11.59 6.65549 11.6744 6.62701 11.8053C6.52796 12.293 6.51007 12.7789 6.4962 13.274C6.45462 13.274 6.41303 13.274 6.37018 13.274C6.34347 13.281 6.3165 13.2879 6.28878 13.2951C6.17813 13.3229 6.07202 13.3321 5.95734 13.3413C5.8351 13.3511 5.71942 13.3628 5.5997 13.3872C5.48678 13.4087 5.38748 13.4129 5.2723 13.4112C5.23676 13.4109 5.20148 13.4105 5.16493 13.41C5.13847 13.4096 5.112 13.4089 5.08478 13.4085C4.9827 12.6965 4.96128 11.969 5.08478 11.2577Z" fill="#0683FF"/>
<path d="M18.8967 12.4675C19.2273 13.0556 19.1144 14.159 18.8967 14.7751C18.8662 14.7664 18.8357 14.7579 18.8044 14.7489C18.3475 14.6057 18.3475 14.6057 17.8729 14.5347C17.7922 14.5266 17.7144 14.5036 17.6365 14.4839C17.642 14.4301 17.6473 14.3763 17.6531 14.321C17.6599 14.2504 17.667 14.1798 17.6743 14.1073C17.6813 14.0374 17.6884 13.9675 17.6954 13.8953C17.7171 13.6392 17.7096 13.4044 17.6758 13.1495C17.6529 12.9745 17.6304 12.7996 17.6113 12.6244C17.6377 12.6248 17.6642 12.6253 17.6917 12.6257C17.7824 12.627 17.7824 12.627 17.8492 12.6132C17.9188 12.6011 17.984 12.6017 18.0549 12.6026C18.1761 12.6013 18.2971 12.5896 18.4178 12.5795C18.4178 12.5648 18.4178 12.55 18.4178 12.5347C18.4634 12.5332 18.4634 12.5332 18.5098 12.5314C18.5491 12.5298 18.5884 12.528 18.629 12.5262C18.6681 12.5249 18.7071 12.5233 18.7477 12.5215C18.8463 12.5215 18.8463 12.5215 18.8967 12.4675Z" fill="#0D6BFF"/>
<path d="M13.5533 18.5837C13.5576 18.5992 13.5619 18.6146 13.5665 18.6305C13.5967 18.7349 13.6282 18.8346 13.6794 18.9323C13.8049 19.1727 13.8906 19.4613 13.881 19.7263C13.2633 19.8674 12.6445 19.973 12.0048 19.9783C11.9627 19.979 11.9206 19.9795 11.8773 19.9801C11.7659 19.973 11.7054 19.9591 11.6126 19.9055C11.5068 19.7843 11.5431 19.6705 11.5622 19.5247C11.5816 19.4167 11.6021 19.3089 11.6237 19.2012C11.6346 19.1463 11.6454 19.0914 11.6567 19.0347C11.6883 18.8974 11.6883 18.8974 11.7387 18.8077C11.8642 18.7918 11.9904 18.7811 12.1167 18.7728C12.5281 18.7426 12.9175 18.698 13.3152 18.601C13.3978 18.5846 13.4689 18.5803 13.5533 18.5837Z" fill="#1D31FF"/>
<path d="M6.72316 7.51633C6.78617 7.54724 6.78617 7.54724 6.84918 7.58354C6.84918 7.59832 6.84918 7.61311 6.84918 7.62835C6.86758 7.63059 6.88598 7.6326 6.90514 7.63484C6.98478 7.65299 7.02561 7.67875 7.08862 7.7249C7.11811 7.74619 7.11811 7.74619 7.1481 7.7677C7.166 7.78091 7.18364 7.79413 7.20204 7.80757C7.26203 7.85126 7.31823 7.89204 7.38527 7.92699C7.48987 7.98389 7.58514 8.05155 7.68243 8.11764C7.74745 8.16021 7.81298 8.19717 7.88255 8.23324C7.91985 8.25542 7.91985 8.25542 7.95816 8.27805C7.95816 8.29284 7.95816 8.30762 7.95816 8.32286C7.97227 8.32891 7.98639 8.33473 8.00101 8.34078C8.06351 8.36968 8.12047 8.40261 8.17869 8.43756C8.19886 8.44966 8.21902 8.46176 8.23969 8.47431C8.25506 8.48349 8.27018 8.49268 8.28581 8.50209C8.25153 8.5908 8.20692 8.64995 8.13761 8.72052C7.94279 8.92708 7.77241 9.15112 7.6053 9.37583C7.46945 9.34222 7.36209 9.30279 7.24463 9.23289C7.10349 9.14933 6.95681 9.09309 6.79878 9.03977C6.79878 9.02499 6.79878 9.0102 6.79878 8.99497C6.76803 8.98757 6.73753 8.98018 6.70577 8.97256C6.5669 8.93224 6.45323 8.86413 6.3325 8.79199C6.22312 8.73822 6.11247 8.71044 5.99225 8.68132C6.19917 8.27469 6.43382 7.88173 6.72316 7.51633Z" fill="#0D6BFF"/>
<path d="M14.9648 17.9788C15.0598 18.007 15.0646 18.029 15.1097 18.1063C15.1229 18.1285 15.1357 18.1504 15.1493 18.1733C15.1702 18.2103 15.1702 18.2103 15.1917 18.2477C15.207 18.2743 15.2222 18.3008 15.238 18.3283C15.2973 18.4323 15.3557 18.5356 15.4072 18.6426C15.4374 18.7051 15.4694 18.7638 15.5067 18.8232C15.5168 18.8393 15.5269 18.8557 15.5375 18.8725C15.5692 18.9211 15.5692 18.9211 15.6116 18.9677C15.6453 19.0094 15.6453 19.0094 15.6453 19.0542C14.3647 19.7039 14.3647 19.7039 13.8811 19.7039C13.8765 19.6793 13.872 19.6546 13.8672 19.6293C13.8004 19.2746 13.8004 19.2746 13.6542 18.9422C13.5534 18.7022 13.5534 18.7022 13.5534 18.5837C13.5368 18.5763 13.5201 18.5689 13.503 18.5613C13.53 18.5539 13.5567 18.5465 13.5844 18.5389C14.0421 18.4092 14.5043 18.2414 14.9074 18.0059C14.9263 17.997 14.9454 17.988 14.9648 17.9788Z" fill="#0D6BFF"/>
<path d="M9.52074 8.50208C9.5457 8.51328 9.5457 8.51328 9.57115 8.52448C9.54721 8.5424 9.52326 8.5601 9.49856 8.57847C9.46807 8.60222 9.43732 8.62597 9.40581 8.65039C9.37506 8.67391 9.34432 8.69721 9.31281 8.72141C9.23367 8.78727 9.23367 8.78727 9.24602 8.86949C9.25711 8.8984 9.25711 8.8984 9.2687 8.92774C9.30626 8.93895 9.30626 8.93895 9.34432 8.95015C9.34432 8.97233 9.34432 8.99451 9.34432 9.01736C9.36095 9.02475 9.37758 9.03215 9.39472 9.03976C9.47311 9.11907 9.53309 9.20465 9.59257 9.29584C9.60215 9.30749 9.61173 9.31891 9.62156 9.33101C9.63819 9.33101 9.65483 9.33101 9.67197 9.33101C9.67499 9.34848 9.67827 9.36618 9.68154 9.38433C9.69188 9.44616 9.69188 9.44616 9.74758 9.48783C9.72137 9.50083 9.69516 9.51405 9.66793 9.52749C9.2803 9.72464 8.93475 9.95137 8.6134 10.2272C8.5766 10.2578 8.5766 10.2578 8.53905 10.289C8.21417 10.5661 7.9581 10.8908 7.73126 11.2353C7.71437 11.2611 7.69723 11.2868 7.67984 11.3135C7.54122 11.5342 7.43965 11.7654 7.33783 12.0011C7.31791 12.0367 7.298 12.0723 7.27759 12.1091C7.236 12.1165 7.19442 12.1238 7.15157 12.1315C7.10217 12.0701 7.10141 12.0401 7.10948 11.9637C7.42579 10.6268 8.26029 9.35565 9.49554 8.52448C9.50386 8.51709 9.51217 8.50969 9.52074 8.50208Z" fill="#0E66FF"/>
<path d="M17.7372 8.61411C17.8405 8.64502 17.9053 8.68669 17.9844 8.75278C18.0636 8.81798 18.1432 8.88228 18.2256 8.94456C18.2987 9.00102 18.3605 9.05949 18.4177 9.12939C18.3857 9.15515 18.3537 9.18092 18.3217 9.20646C18.3038 9.2208 18.2859 9.23491 18.2675 9.2497C18.2161 9.28621 18.2161 9.28621 18.1405 9.30862C18.1228 9.34558 18.1062 9.383 18.09 9.42064C18.0583 9.46387 18.0253 9.50644 17.9907 9.54811C17.9734 9.5694 17.956 9.59068 17.9381 9.61263C17.8884 9.66708 17.8884 9.66708 17.8128 9.71188C17.781 9.75624 17.781 9.75624 17.7528 9.8071C17.6981 9.89828 17.6409 9.97289 17.5608 10.0479C17.5441 10.0479 17.5275 10.0479 17.5104 10.0479C17.5104 10.0627 17.5104 10.0775 17.5104 10.0927C17.4937 10.0927 17.4771 10.0927 17.4599 10.0927C17.4536 10.1057 17.4473 10.1185 17.441 10.132C17.405 10.1898 17.3647 10.2285 17.3087 10.272C17.2921 10.272 17.2755 10.272 17.2583 10.272C17.2515 10.2863 17.2447 10.3007 17.2379 10.3154C17.2079 10.3616 17.2079 10.3616 17.1323 10.384C17.1147 10.4133 17.098 10.4434 17.0819 10.4736C17.0539 10.5032 17.0249 10.5321 16.9952 10.5605C16.9229 10.632 16.8775 10.7006 16.8299 10.7873C16.7794 10.8307 16.7794 10.8307 16.729 10.8545C16.6426 10.8289 16.6312 10.813 16.5793 10.7494C16.474 10.6246 16.3593 10.5072 16.2444 10.3891C16.1859 10.3287 16.1292 10.2675 16.0737 10.2048C16.1146 10.1665 16.1567 10.1293 16.1998 10.0927C16.2164 10.0927 16.233 10.0927 16.2502 10.0927C16.2502 10.078 16.2502 10.0632 16.2502 10.0479C16.2658 10.0461 16.2814 10.0441 16.2975 10.0423C16.3548 10.0305 16.3548 10.0305 16.3752 9.98453C16.384 9.9684 16.3926 9.9525 16.4014 9.93592C16.4694 9.85235 16.5425 9.78178 16.6393 9.72443C16.7265 9.67223 16.789 9.61084 16.8563 9.53937C16.9128 9.48023 16.972 9.424 17.0315 9.36732C17.1323 9.26986 17.2182 9.16882 17.2991 9.0577C17.3107 9.04448 17.3221 9.03104 17.3339 9.01737C17.3506 9.01737 17.3672 9.01737 17.3843 9.01737C17.3911 9.00482 17.3979 8.9925 17.4048 8.97951C17.4375 8.92305 17.4705 8.86861 17.5104 8.81574C17.527 8.81574 17.5436 8.81574 17.5608 8.81574C17.5618 8.80319 17.5628 8.79087 17.5638 8.77788C17.5978 8.69834 17.6618 8.66541 17.7372 8.61411Z" fill="#0F64FF"/>
<path d="M17.0567 15.9401C17.1202 15.9905 17.1585 16.0315 17.1968 16.0996C17.3324 16.3214 17.6286 16.5002 17.8884 16.5898C17.8884 16.6046 17.8884 16.6194 17.8884 16.6346C17.9071 16.6411 17.926 16.6476 17.9452 16.6543C18.0036 16.6754 18.0593 16.6985 18.1153 16.7242C17.9837 17.1533 17.5474 17.5718 17.2079 17.8892C17.1885 17.8753 17.1694 17.8617 17.1495 17.8473C17.1038 17.8151 17.0575 17.7832 17.0111 17.7521C16.9929 17.7382 16.9746 17.7243 16.9559 17.71C16.9559 17.6952 16.9559 17.6804 16.9559 17.6652C16.9393 17.6609 16.9226 17.6569 16.9055 17.6526C16.8148 17.6139 16.7523 17.5623 16.6782 17.5023C16.6154 17.4535 16.5471 17.4145 16.477 17.3739C16.378 17.304 16.2877 17.2303 16.1998 17.1499C16.1128 17.183 16.0574 17.227 15.9918 17.287C15.974 17.3034 15.9563 17.3195 15.9379 17.3363C15.9177 17.3549 15.9177 17.3549 15.8973 17.3739C15.8807 17.3665 15.8641 17.3591 15.8469 17.3515C15.8862 17.3177 15.8862 17.3177 15.9263 17.2834C16.1373 17.0995 16.3313 16.916 16.5022 16.7018C16.5209 16.6787 16.5398 16.6554 16.5589 16.6317C16.7369 16.4079 16.8989 16.1753 17.0567 15.9401Z" fill="#038EFF"/>
<path d="M8.13446 16.3658C8.24158 16.4343 8.34265 16.5056 8.44044 16.5846C8.56318 16.6796 8.6887 16.7594 8.82455 16.8389C8.89033 16.8779 8.89033 16.8779 8.95737 16.9176C9.09196 16.9928 9.22907 17.0612 9.36946 17.1275C9.36946 17.1423 9.36946 17.157 9.36946 17.1723C9.35182 17.1871 9.33417 17.2019 9.31603 17.2171C9.19984 17.3159 9.12473 17.4478 9.05592 17.5755C9.01887 17.639 8.97728 17.6916 8.9299 17.7492C8.84295 17.8569 8.7875 17.9658 8.73936 18.0908C8.20856 17.8574 7.7123 17.5522 7.27753 17.1947C7.31306 17.0264 7.48874 16.9173 7.63038 16.8138C7.66668 16.7869 7.70297 16.7598 7.73901 16.7327C7.75565 16.7204 7.77203 16.7081 7.78917 16.6953C7.83403 16.6592 7.83403 16.6592 7.85671 16.6126C7.88872 16.5562 7.9288 16.5266 7.98324 16.4863C8.03566 16.4471 8.08607 16.4088 8.13446 16.3658Z" fill="#0978FF"/>
<path d="M5.46951 10.1508C5.60108 10.1676 5.70567 10.1958 5.82489 10.2473C5.90756 10.278 5.99023 10.2955 6.07718 10.3141C6.38669 10.3797 6.69291 10.4532 6.9752 10.5856C6.93891 10.6972 6.90261 10.8088 6.86657 10.9203C6.83633 11.0135 6.83633 11.0135 6.80532 11.1085C6.76374 11.234 6.72064 11.3581 6.67275 11.4818C6.50741 11.4614 6.34485 11.4381 6.18279 11.402C6.04215 11.372 5.90705 11.3612 5.76289 11.3543C5.27544 11.32 5.27544 11.32 5.0849 11.2353C5.29687 10.1785 5.29687 10.1785 5.46951 10.1508Z" fill="#087BFF"/>
<path d="M9.36954 17.1499C9.4943 17.1765 9.60797 17.2294 9.72391 17.2773C9.94293 17.3649 10.1652 17.4335 10.3941 17.4982C10.5037 17.5307 10.5037 17.5307 10.6045 17.5755C10.5879 17.5755 10.5713 17.5755 10.5541 17.5755C10.5498 17.5888 10.5456 17.6022 10.541 17.6159C10.4624 17.8556 10.3616 18.0852 10.2517 18.3149C10.235 18.3149 10.2184 18.3149 10.2013 18.3149C10.194 18.331 10.1867 18.3471 10.1791 18.3639C10.1698 18.3848 10.1604 18.4054 10.1509 18.4269C10.14 18.4573 10.14 18.4573 10.1287 18.4885C10.1005 18.5389 10.1005 18.5389 10.0604 18.5564C9.66418 18.5884 9.06734 18.2665 8.73944 18.0908C8.78834 17.895 8.90201 17.7308 9.04189 17.5755C9.08146 17.5139 9.11901 17.4514 9.15657 17.3887C9.26494 17.2119 9.26494 17.2119 9.36954 17.1499Z" fill="#0D6AFF"/>
<path d="M7.35319 15.5144C7.42628 15.5951 7.4971 15.6768 7.56742 15.7595C7.7436 15.9634 7.92733 16.1634 8.13451 16.3433C8.08385 16.4538 7.99236 16.5246 7.88247 16.5898C7.87264 16.6059 7.86281 16.622 7.85248 16.6388C7.79753 16.7148 7.7315 16.7639 7.65387 16.8217C7.6017 16.86 7.6017 16.86 7.54524 16.9133C7.50441 16.9482 7.50441 16.9482 7.454 16.9482C7.44821 16.9603 7.44266 16.9722 7.43661 16.9845C7.39276 17.0555 7.33706 17.1111 7.27758 17.1723C7.04015 17.0396 6.85037 16.8481 6.67268 16.657C6.64748 16.6299 6.62227 16.603 6.59656 16.5752C6.35713 16.3142 6.35713 16.3142 6.31982 16.2089C6.43274 16.1182 6.54464 16.036 6.67268 15.9625C6.70696 15.9392 6.74098 15.9159 6.77501 15.8926C6.84734 15.8437 6.91287 15.8074 7.00033 15.7832C7.00033 15.7685 7.00033 15.7537 7.00033 15.7384C7.01697 15.7384 7.0336 15.7384 7.05074 15.7384C7.05906 15.7163 7.06737 15.6941 7.07594 15.6712C7.1198 15.6475 7.1198 15.6475 7.17374 15.6264C7.24809 15.5971 7.29824 15.5684 7.35319 15.5144Z" fill="#048CFF"/>
<path d="M16.2502 7.85239C16.4312 7.85239 16.5202 7.89809 16.6802 7.97135C16.7289 7.99353 16.7775 8.01548 16.8277 8.03834C16.9136 8.07889 16.9985 8.12145 17.082 8.16604C17.0736 8.18822 17.0653 8.2104 17.0568 8.23325C17.0147 8.24826 16.9726 8.26304 16.9302 8.27738C16.8524 8.31345 16.7997 8.36789 16.7412 8.42525C16.7039 8.45728 16.7039 8.45728 16.6535 8.45728C16.6535 8.47207 16.6535 8.48686 16.6535 8.50209C16.6112 8.53592 16.6112 8.53592 16.5557 8.57199C16.5378 8.58409 16.5197 8.59619 16.501 8.60873C16.4519 8.63651 16.4519 8.63651 16.4015 8.63651C16.3989 8.64996 16.3967 8.6634 16.3941 8.67729C16.3722 8.73688 16.3468 8.75436 16.2911 8.79199C16.2152 8.84666 16.1726 8.8964 16.1242 8.97257C16.1058 8.98847 16.0874 9.00438 16.0685 9.02096C15.9851 9.09646 15.9163 9.17734 15.8455 9.26247C15.8066 9.3084 15.8066 9.3084 15.7673 9.35545C15.7237 9.40877 15.6811 9.46276 15.6403 9.51765C15.5904 9.58351 15.5327 9.63437 15.4689 9.68948C15.4606 9.70427 15.4523 9.71906 15.4437 9.73429C15.332 9.69957 15.2401 9.64759 15.1413 9.59001C15.0414 9.53199 14.9416 9.47441 14.8388 9.42064C14.8638 9.40944 14.8638 9.40944 14.8892 9.39824C14.9426 9.4193 14.9426 9.4193 14.99 9.44304C15.0001 9.41325 15.0001 9.41325 15.0104 9.38278C15.0389 9.31265 15.0724 9.26001 15.1161 9.1966C15.1458 9.14866 15.175 9.10049 15.2043 9.05232C15.2191 9.0279 15.234 9.00348 15.2491 8.97817C15.2779 8.92978 15.3058 8.88116 15.3326 8.83187C15.3699 8.7678 15.4112 8.73106 15.4689 8.68132C15.4825 8.66093 15.4959 8.64077 15.5097 8.61971C15.5213 8.60313 15.5327 8.58633 15.5445 8.5693C15.5612 8.5693 15.5778 8.5693 15.5949 8.5693C15.6015 8.55676 15.608 8.54421 15.6148 8.53144C15.6486 8.47409 15.6872 8.42233 15.7288 8.36901C15.7504 8.34101 15.7504 8.34101 15.7726 8.31256C15.8263 8.2505 15.8845 8.19785 15.9478 8.14363C15.9914 8.10532 16.035 8.06701 16.0786 8.02893C16.1003 8.00988 16.1219 7.99084 16.1441 7.97113C16.2028 7.91982 16.2028 7.91982 16.2502 7.85239Z" fill="#0780FF"/>
<path d="M16.1998 10.7649C17.1006 11.4291 17.6016 12.2939 17.7251 13.3151C17.7559 13.6666 17.7559 13.6666 17.6868 13.7894C17.6029 13.8135 17.5225 13.814 17.4348 13.8118C17.4348 13.797 17.4348 13.7822 17.4348 13.7669C17.4098 13.7743 17.3849 13.7817 17.3592 13.7894C17.339 13.7858 17.3186 13.782 17.2977 13.7781C17.2306 13.7665 17.1968 13.7734 17.1323 13.7894C17.1157 13.782 17.099 13.7746 17.0819 13.7669C17.0824 13.7428 17.0832 13.7186 17.0837 13.6935C17.097 12.6813 16.8216 11.7995 16.2552 10.9246C16.1998 10.8321 16.1998 10.8321 16.1998 10.7649Z" fill="#009BFF"/>
<path d="M14.0071 17.3291C14.032 17.3365 14.057 17.3439 14.0827 17.3515C14.0661 17.3737 14.0494 17.3959 14.0323 17.4187C14.0625 17.4935 14.0625 17.4935 14.1079 17.5755C14.1318 17.6333 14.1553 17.6911 14.1787 17.7492C14.2354 17.8852 14.3 18.0099 14.3826 18.1347C14.4104 18.1804 14.4104 18.1804 14.4104 18.2252C14.427 18.2326 14.4436 18.24 14.4608 18.2477C14.0207 18.439 13.5431 18.6348 13.0493 18.6733C13.0387 18.6464 13.0282 18.6193 13.0171 18.5915C13.0032 18.5566 12.9896 18.5216 12.9752 18.4856C12.9616 18.4509 12.9478 18.4161 12.9336 18.3801C12.9026 18.2985 12.9026 18.2985 12.8729 18.2477C12.8676 18.208 12.8636 18.1683 12.8603 18.1287C12.8573 18.0928 12.8573 18.0928 12.854 18.0563C12.852 18.0308 12.85 18.0052 12.8477 17.9788C12.8429 17.9246 12.8384 17.8706 12.8336 17.8164C12.8298 17.7734 12.8263 17.7306 12.8225 17.6876C12.7975 17.6802 12.7726 17.6728 12.7469 17.6652C12.7819 17.6591 12.8172 17.6531 12.8532 17.647C13.2472 17.5758 13.6454 17.4897 14.0071 17.3291Z" fill="#0978FF"/>
<path d="M18.8714 9.59985C19.3082 10.1021 19.3082 10.1021 19.3307 10.3587C19.3067 10.4826 19.2682 10.5007 19.1487 10.5856C19.0093 10.634 18.8689 10.6799 18.728 10.7243C18.4939 10.7924 18.4939 10.7924 18.2666 10.8769C18.2582 10.899 18.2499 10.9212 18.2413 10.9441C18.227 10.9391 18.2126 10.9344 18.1977 10.9293C18.1211 10.919 18.0954 10.94 18.0319 10.9777C17.9523 11.02 17.9041 11.0424 17.8114 11.0294C17.7869 11.0234 17.7625 11.0176 17.7373 11.0113C17.73 10.9866 17.73 10.9866 17.7224 10.9613C17.7158 10.9394 17.7093 10.9176 17.7025 10.895C17.6962 10.8735 17.6896 10.852 17.6831 10.8296C17.6629 10.7689 17.6377 10.7117 17.6112 10.6528C17.6017 10.5955 17.6017 10.5955 17.6112 10.5408C17.6538 10.496 17.6538 10.496 17.7121 10.4512C17.7448 10.4207 17.7448 10.4207 17.7781 10.3896C17.8381 10.3392 17.8381 10.3392 17.8885 10.3392C17.8885 10.3244 17.8885 10.3096 17.8885 10.2944C17.9245 10.2659 17.9621 10.239 18.0004 10.2133C18.1539 10.1066 18.3006 9.99528 18.4382 9.87295C18.4878 9.82882 18.5355 9.79096 18.5942 9.75668C18.6108 9.75668 18.6275 9.75668 18.6446 9.75668C18.6529 9.7345 18.6612 9.71232 18.6698 9.68947C18.8052 9.59985 18.8052 9.59985 18.8714 9.59985Z" fill="#1450FF"/>
<path d="M12.142 7.49391C12.145 7.51743 12.1483 7.54096 12.1515 7.56538C12.1651 7.64021 12.1853 7.69353 12.2176 7.76275C12.2264 7.79434 12.2347 7.82616 12.2428 7.85797C12.2554 7.89964 12.2554 7.89964 12.268 7.94198C12.2846 7.94938 12.3012 7.95677 12.3184 7.96439C12.3184 8.054 12.3184 8.054 12.2932 8.12121C12.3338 8.21688 12.3338 8.21688 12.4192 8.27804C12.4121 8.29887 12.4121 8.29887 12.4051 8.32016C12.3872 8.43352 12.3799 8.56615 12.4583 8.66159C12.4704 8.67548 12.4825 8.68937 12.4948 8.70371C12.4948 8.72589 12.4948 8.74807 12.4948 8.77092C12.5114 8.77092 12.5281 8.77092 12.5452 8.77092C12.5311 8.81326 12.5311 8.81326 12.4948 8.86053C12.2322 8.9376 11.9131 8.9618 11.6379 8.95015C11.5744 8.91676 11.5744 8.91676 11.5371 8.88294C11.5449 8.86344 11.5449 8.86344 11.5527 8.84373C11.5648 8.77965 11.5454 8.76061 11.5119 8.70371C11.4511 8.56996 11.4015 8.43777 11.373 8.29551C11.3629 8.25026 11.3629 8.25026 11.3102 8.21083C11.3198 8.16602 11.3198 8.16602 11.3354 8.12121C11.3354 8.10643 11.3354 8.09164 11.3354 8.0764C11.3188 8.06901 11.3022 8.06162 11.285 8.054C11.2933 8.03182 11.3017 8.00964 11.3102 7.98679C11.2938 7.94938 11.277 7.91196 11.2598 7.87477C11.2681 7.85999 11.2764 7.8452 11.285 7.82996C11.2689 7.82728 11.2528 7.82436 11.2361 7.82145C11.219 7.81697 11.2018 7.81227 11.1842 7.80756C11.1759 7.79277 11.1676 7.77799 11.159 7.76275C11.1673 7.74057 11.1756 7.71839 11.1842 7.69554C11.9244 7.42849 11.9244 7.42849 12.142 7.49391Z" fill="#0291FF"/>
<path d="M15.7218 17.5087C15.7909 17.5394 15.8166 17.5795 15.8579 17.6371C15.9217 17.7249 15.989 17.7946 16.0736 17.8667C16.1268 17.9129 16.18 17.9592 16.2329 18.0054C16.2733 18.0406 16.2733 18.0406 16.3146 18.0764C16.3761 18.1356 16.3761 18.1356 16.3761 18.1804C16.3927 18.1804 16.4094 18.1804 16.4265 18.1804C16.4701 18.2294 16.4701 18.2294 16.518 18.2924C16.5339 18.3132 16.5497 18.3341 16.5661 18.3556C16.5785 18.3717 16.5906 18.3878 16.6029 18.4044C16.3781 18.673 16.0031 18.8478 15.6956 19.0317C15.592 18.9858 15.5726 18.9618 15.5209 18.8744C15.4937 18.8294 15.4629 18.7875 15.4309 18.7447C15.3858 18.6811 15.352 18.6192 15.3223 18.5487C15.2653 18.414 15.1867 18.2908 15.1086 18.1651C15.0756 18.108 15.0524 18.0639 15.0403 18.0011C15.0236 18.0011 15.007 18.0011 14.9899 18.0011C14.9899 17.9863 14.9899 17.9716 14.9899 17.9563C15.038 17.9241 15.0879 17.8936 15.1381 17.864C15.2691 17.7854 15.3939 17.7034 15.5161 17.6142C15.5338 17.6015 15.5514 17.5887 15.5696 17.5755C15.5864 17.5622 15.6033 17.549 15.6207 17.5356C15.6704 17.5083 15.6704 17.5083 15.7218 17.5087Z" fill="#0978FF"/>
<path d="M6.49625 12.4675C6.50457 12.4675 6.51289 12.4675 6.52146 12.4675C6.51314 12.7337 6.50482 12.9998 6.49625 13.2741C6.45467 13.2741 6.41308 13.2741 6.37023 13.2741C6.34352 13.281 6.31655 13.288 6.28882 13.2951C6.17818 13.3229 6.07207 13.3321 5.95739 13.3413C5.83515 13.3511 5.71946 13.3628 5.59975 13.3872C5.48683 13.4087 5.38753 13.413 5.27235 13.4112C5.23681 13.4109 5.20152 13.4105 5.16498 13.41C5.13851 13.4096 5.11205 13.4089 5.08483 13.4085C5.03669 13.1029 5.02031 12.7982 5.00922 12.4899C5.01753 12.5195 5.02585 12.5491 5.03442 12.5795C5.05105 12.5722 5.06769 12.5648 5.08483 12.5571C5.55488 12.5323 6.02569 12.5318 6.49625 12.5347C6.49625 12.5126 6.49625 12.4904 6.49625 12.4675Z" fill="#048BFF"/>
<path d="M15.116 7.22507C15.1669 7.31535 15.0873 7.43656 15.0543 7.52774C14.9968 7.6756 14.9318 7.82011 14.864 7.96439C14.8473 7.96439 14.8307 7.96439 14.8136 7.96439C14.8111 7.98343 14.8085 8.0027 14.806 8.02241C14.7864 8.10732 14.7523 8.16938 14.7065 8.24578C14.62 8.39543 14.5509 8.54599 14.4859 8.70371C14.4726 8.7344 14.4592 8.76532 14.4453 8.79691C14.4317 8.82849 14.4181 8.86008 14.404 8.89279C14.3914 8.92192 14.3788 8.95082 14.3657 8.98084C14.338 9.05365 14.3206 9.12064 14.3095 9.19659C14.1247 9.15178 13.9398 9.10697 13.755 9.06216C13.755 8.93267 13.8072 8.83454 13.881 8.72611C13.8909 8.68914 13.8992 8.65173 13.9062 8.61409C13.9188 8.57601 13.9188 8.57601 13.9314 8.53702C13.9576 8.46085 13.9576 8.46085 13.9665 8.39431C13.9836 8.31456 14.0138 8.24981 14.0512 8.17588C14.1157 8.04571 14.1754 7.91465 14.2319 7.78157C14.2493 7.74102 14.2671 7.70047 14.2861 7.66037C14.3092 7.60638 14.3246 7.55462 14.3377 7.49817C14.342 7.48047 14.3463 7.46277 14.3506 7.4444C14.3536 7.43118 14.3569 7.41796 14.3599 7.4043C14.4653 7.3792 14.5459 7.38817 14.6528 7.40295C14.8037 7.41505 14.8776 7.39623 14.9996 7.31603C15.0391 7.28645 15.0782 7.25643 15.116 7.22507Z" fill="#0290FF"/>
<path d="M12.4444 18.7854C12.4479 18.81 12.4514 18.8346 12.4552 18.8602C12.4651 18.9399 12.4651 18.9399 12.4978 18.9995C12.52 19.0542 12.52 19.0542 12.5074 19.1187C12.4774 19.2858 12.5959 19.4666 12.6627 19.6201C12.6894 19.6866 12.7088 19.7467 12.7216 19.8159C12.7297 19.8459 12.7383 19.8757 12.7468 19.9055C12.4527 20.0003 11.965 20.0426 11.6762 19.9423C11.5895 19.8921 11.5673 19.8594 11.537 19.7711C11.5497 19.5784 11.5857 19.3909 11.6238 19.2012C11.6346 19.1463 11.6454 19.0914 11.6568 19.0347C11.6883 18.8974 11.6883 18.8974 11.7387 18.8078C11.8019 18.7941 11.8019 18.7941 11.8821 18.791C11.9257 18.7892 11.9257 18.7892 11.9701 18.7871C12.1281 18.7842 12.2861 18.7836 12.4444 18.7854Z" fill="#1F2AFF"/>
<path d="M6.49621 13.162C6.50453 13.162 6.51285 13.162 6.52142 13.162C6.53351 13.2543 6.54561 13.3468 6.55771 13.4394C6.56426 13.4907 6.57107 13.5422 6.57813 13.5953C6.59375 13.7196 6.60862 13.844 6.62223 13.9685C6.53326 14.0039 6.45941 14.0196 6.36238 14.0246C6.26383 14.0313 6.1736 14.044 6.07783 14.0669C5.79882 14.1301 5.54804 14.1585 5.26122 14.1254C5.16494 13.8969 5.10243 13.6531 5.10999 13.4085C5.13469 13.4073 5.15939 13.4062 5.1846 13.4051C5.21787 13.4035 5.25088 13.4017 5.28491 13.3999C5.31742 13.3986 5.34968 13.397 5.3832 13.3952C5.49687 13.3854 5.60349 13.3634 5.71489 13.3412C5.83486 13.3285 5.95458 13.3188 6.0748 13.309C6.19528 13.2982 6.19528 13.2982 6.31752 13.2713C6.4206 13.2516 6.4206 13.2516 6.49621 13.274C6.49621 13.2371 6.49621 13.2001 6.49621 13.162Z" fill="#0291FF"/>
<path d="M14.3599 18.3149C14.4595 18.6615 14.4595 18.6615 14.4875 18.791C14.5318 18.9933 14.5842 19.177 14.6904 19.3616C14.7128 19.4127 14.7128 19.4127 14.6876 19.4799C14.1475 19.7039 14.1475 19.7039 13.8811 19.7039C13.8765 19.6793 13.872 19.6546 13.8672 19.6293C13.8004 19.2747 13.8004 19.2747 13.6542 18.9422C13.5534 18.7022 13.5534 18.7022 13.5534 18.5837C13.5368 18.5763 13.5201 18.5689 13.503 18.5613C13.5322 18.5528 13.5615 18.5445 13.5917 18.5358C13.7981 18.4757 14.001 18.4144 14.1991 18.3346C14.2591 18.3149 14.2591 18.3149 14.3599 18.3149Z" fill="#115CFF"/>
<path d="M17.712 13.8117C17.9184 13.8066 18.116 13.8099 18.3169 13.8565C18.3252 13.8639 18.3335 13.8713 18.3421 13.8789C18.3723 13.878 18.4023 13.8772 18.4333 13.8763C18.6135 13.8738 18.8353 13.8964 18.9974 13.9686C19.0332 14.0956 19.0074 14.2045 18.9896 14.334C18.9827 14.3835 18.9762 14.4328 18.9694 14.4836C18.9523 14.5858 18.9328 14.6776 18.8966 14.7751C18.8661 14.7664 18.8356 14.7578 18.8043 14.7489C18.3474 14.6057 18.3474 14.6057 17.8728 14.5347C17.7909 14.5264 17.715 14.5051 17.6364 14.4838C17.6442 14.4012 17.652 14.3185 17.66 14.2361C17.6643 14.1899 17.6689 14.144 17.6732 14.0965C17.6832 14.0008 17.6951 13.9067 17.712 13.8117Z" fill="#087BFF"/>
<path d="M17.7372 8.61411C17.8733 8.64816 17.9635 8.73217 18.0648 8.81574C18.0482 8.84531 18.0316 8.87488 18.0144 8.90535C17.9978 8.90535 17.9812 8.90535 17.964 8.90535C17.9572 8.91879 17.9504 8.93224 17.9436 8.9459C17.9136 8.99497 17.8859 9.02656 17.838 9.06218C17.8214 9.06218 17.8047 9.06218 17.7876 9.06218C17.7823 9.07741 17.7773 9.09265 17.772 9.10833C17.7412 9.1668 17.7168 9.19772 17.6694 9.2441C17.5494 9.36351 17.4572 9.50174 17.3697 9.64109C17.3579 9.65699 17.346 9.6729 17.3339 9.68948C17.3173 9.68948 17.3007 9.68948 17.2835 9.68948C17.2777 9.70561 17.2722 9.72174 17.2661 9.73854C17.2029 9.85885 17.1164 9.9115 16.9811 9.95832C16.9728 9.9805 16.9644 10.0027 16.9559 10.0255C16.8183 10.1593 16.658 10.2758 16.5022 10.3925C16.4271 10.4434 16.4271 10.4434 16.4014 10.496C16.3167 10.464 16.2683 10.4252 16.2093 10.3629C16.1942 10.3475 16.1793 10.332 16.1642 10.3161C16.1241 10.272 16.1241 10.272 16.0737 10.2048C16.1146 10.1665 16.1567 10.1293 16.1998 10.0927C16.2164 10.0927 16.233 10.0927 16.2502 10.0927C16.2502 10.078 16.2502 10.0632 16.2502 10.0479C16.2658 10.0461 16.2814 10.0441 16.2975 10.0423C16.3548 10.0305 16.3548 10.0305 16.3752 9.98454C16.384 9.9684 16.3926 9.9525 16.4014 9.93592C16.4694 9.85235 16.5425 9.78178 16.6393 9.72443C16.7265 9.67223 16.789 9.61084 16.8563 9.53938C16.9128 9.48023 16.972 9.424 17.0315 9.36732C17.1323 9.26986 17.2182 9.16882 17.2991 9.0577C17.3107 9.04448 17.3221 9.03104 17.3339 9.01737C17.3506 9.01737 17.3672 9.01737 17.3843 9.01737C17.3911 9.00482 17.3979 8.9925 17.4048 8.97951C17.4375 8.92305 17.4705 8.86861 17.5104 8.81574C17.527 8.81574 17.5436 8.81574 17.5608 8.81574C17.5618 8.80319 17.5628 8.79087 17.5638 8.77788C17.5978 8.69834 17.6618 8.66541 17.7372 8.61411Z" fill="#0D6BFF"/>
<path d="M18.6712 9.39989C18.7352 9.427 18.7544 9.45724 18.7894 9.51168C18.8003 9.52804 18.8111 9.54462 18.8222 9.56142C18.83 9.57419 18.8381 9.58674 18.8461 9.59995C18.8197 9.61608 18.7932 9.63221 18.7657 9.64879C18.7052 9.6871 18.6566 9.72362 18.6037 9.77067C18.5437 9.82399 18.5437 9.82399 18.484 9.85334C18.4202 9.88963 18.3879 9.91988 18.3405 9.97096C18.2236 10.0944 18.0847 10.1984 17.9388 10.2945C17.9222 10.2945 17.9055 10.2945 17.8884 10.2945C17.8884 10.3093 17.8884 10.324 17.8884 10.3393C17.8697 10.3485 17.8511 10.3576 17.8317 10.3673C17.7488 10.4141 17.7142 10.4681 17.6615 10.5409C17.6449 10.5409 17.6283 10.5409 17.6111 10.5409C17.6227 10.5754 17.6343 10.6099 17.6459 10.6444C17.6527 10.6648 17.6595 10.6854 17.6666 10.7065C17.682 10.7511 17.6991 10.7952 17.7167 10.8391C17.7374 10.8998 17.7414 10.9482 17.7372 11.0114C17.8846 11.0253 17.96 10.9953 18.0822 10.9215C18.1656 10.8895 18.2065 10.8938 18.2916 10.9218C18.3506 10.9935 18.3506 10.9935 18.402 11.0842C18.4192 11.1138 18.4366 11.1436 18.4545 11.174C18.4892 11.2489 18.5034 11.2908 18.4933 11.3698C18.4708 11.371 18.4708 11.371 18.4479 11.3723C18.3272 11.3808 18.2183 11.3965 18.1026 11.4285C17.8342 11.4971 17.5844 11.414 17.3339 11.325C17.2905 10.7027 17.2905 10.7027 17.441 10.5353C17.4889 10.4918 17.5373 10.4491 17.5859 10.4065C17.6389 10.3444 17.6908 10.2819 17.7419 10.2187C17.8612 10.074 17.9874 9.94631 18.1452 9.83362C18.2029 9.78926 18.2334 9.76014 18.2727 9.7048C18.2947 9.67501 18.2947 9.67501 18.3168 9.64476C18.3335 9.64476 18.3501 9.64476 18.3673 9.64476C18.3673 9.62997 18.3673 9.61519 18.3673 9.59995C18.3839 9.59995 18.4005 9.59995 18.4177 9.59995C18.426 9.57777 18.4343 9.55559 18.4429 9.53274C18.4804 9.496 18.4804 9.496 18.5263 9.45993C18.5414 9.44761 18.5563 9.43551 18.5717 9.42319C18.6193 9.39832 18.6193 9.39832 18.6712 9.39989Z" fill="#1257FF"/>
<path d="M18.476 15.4206C18.5164 15.4244 18.557 15.4282 18.5985 15.4323C18.6305 15.4372 18.6623 15.4421 18.6951 15.4473C18.7203 15.4921 18.7203 15.4921 18.6827 15.605C18.3089 16.571 18.3089 16.571 18.1658 16.6347C18.1653 16.6179 18.1645 16.6011 18.164 16.584C18.1459 16.5157 18.1459 16.5157 18.0642 16.4787C18.0317 16.4651 17.9992 16.4514 17.9657 16.4373C17.5478 16.2489 17.5478 16.2489 17.4903 16.1187C17.4835 16.0759 17.4835 16.0759 17.4853 16.0074C17.477 16 17.4686 15.9926 17.4601 15.985C17.4513 15.9328 17.4427 15.8803 17.4349 15.8281C17.4268 15.7981 17.4185 15.7683 17.4097 15.7385C17.7459 15.5447 18.0693 15.3798 18.476 15.4206Z" fill="#0097FF"/>
<path d="M10.0752 8.16602C10.0918 8.17341 10.1085 8.1808 10.1256 8.18842C10.1158 8.20097 10.1059 8.21329 10.0956 8.22628C10.0888 8.24331 10.0823 8.26033 10.0752 8.27803C10.1057 8.33135 10.1057 8.33135 10.1508 8.39005C10.1642 8.42007 10.1768 8.45054 10.1886 8.48101C10.2166 8.55091 10.2511 8.59975 10.302 8.6589C10.3194 8.70348 10.3363 8.74829 10.3524 8.79332C10.3774 8.84462 10.4034 8.89525 10.4296 8.94611C10.4533 8.99495 10.4533 8.99495 10.48 9.07202C10.4994 9.13632 10.4994 9.13632 10.5793 9.17418C10.5354 9.18964 10.4918 9.20487 10.4467 9.22078C10.3897 9.24094 10.3325 9.2611 10.2738 9.28194C10.2168 9.3021 10.1601 9.32204 10.1017 9.34265C9.94767 9.39687 9.94767 9.39687 9.79795 9.46543C9.72562 9.45848 9.72562 9.45848 9.67193 9.44302C9.66362 9.42084 9.6553 9.39866 9.64673 9.37581C9.63009 9.36103 9.61346 9.34624 9.59632 9.331C9.5628 9.2862 9.52903 9.24139 9.49551 9.19658C9.47887 9.1818 9.46224 9.16701 9.4451 9.15178C9.34756 9.05208 9.34756 9.05208 9.33168 8.99361C9.3221 8.94477 9.3221 8.94477 9.26565 8.90534C9.25002 8.89055 9.23439 8.87576 9.21826 8.86053C9.22658 8.78279 9.26338 8.74537 9.32538 8.6925C9.34126 8.67883 9.35714 8.66539 9.37352 8.65128C9.42897 8.60669 9.48719 8.5657 9.54591 8.52447C9.56431 8.50745 9.58246 8.49064 9.60136 8.47317C9.68025 8.40529 9.76342 8.35085 9.85315 8.29484C9.88415 8.27535 9.91515 8.25585 9.94716 8.23569C10.0248 8.18842 10.0248 8.18842 10.0752 8.16602Z" fill="#087BFF"/>
<path d="M17.4348 8.39005C17.5704 8.45524 17.6913 8.52984 17.8128 8.61408C17.8045 8.62887 17.7962 8.64365 17.7876 8.65889C17.7627 8.65889 17.7377 8.65889 17.712 8.65889C17.612 8.72027 17.612 8.72027 17.5608 8.81571C17.5442 8.81571 17.5275 8.81571 17.5104 8.81571C17.5036 8.83229 17.4968 8.8491 17.49 8.86612C17.4612 8.92527 17.4325 8.9694 17.3844 9.01735C17.3677 9.01735 17.3511 9.01735 17.334 9.01735C17.3272 9.03012 17.3206 9.04311 17.3135 9.05633C17.2188 9.21607 17.0675 9.35026 16.9312 9.482C16.8798 9.53129 16.8798 9.53129 16.8389 9.58393C16.8276 9.5967 16.8163 9.60925 16.8047 9.62224C16.788 9.62224 16.7714 9.62224 16.7543 9.62224C16.7459 9.64442 16.7376 9.6666 16.7291 9.68946C16.6167 9.77907 16.6167 9.77907 16.5526 9.77907C16.536 9.80864 16.5194 9.83822 16.5022 9.86868C16.4856 9.86868 16.469 9.86868 16.4518 9.86868C16.4455 9.88168 16.4392 9.89445 16.4329 9.90789C16.3969 9.96569 16.3565 10.0045 16.3006 10.0479C16.284 10.0479 16.2673 10.0479 16.2502 10.0479C16.2502 10.0627 16.2502 10.0775 16.2502 10.0927C16.2335 10.0927 16.2169 10.0927 16.1998 10.0927C16.1905 10.1142 16.1905 10.1142 16.1809 10.1362C16.1494 10.1823 16.1494 10.1823 16.1035 10.2009C16.0486 10.2047 16.0486 10.2047 15.9954 10.1758C15.9782 10.1617 15.9608 10.1478 15.9429 10.1333C15.9256 10.1196 15.9079 10.1059 15.89 10.0918C15.8449 10.0459 15.8315 10.0177 15.8217 9.9583C15.8384 9.9583 15.855 9.9583 15.8721 9.9583C15.8739 9.94575 15.8757 9.93321 15.8774 9.92021C15.9051 9.84875 15.9525 9.81402 16.0138 9.76227C16.1242 9.66728 16.2267 9.5696 16.3258 9.46542C16.351 9.43921 16.3762 9.41322 16.4014 9.38701C16.4135 9.37424 16.4259 9.36169 16.4385 9.34847C16.4949 9.29 16.5524 9.23197 16.6096 9.17417C16.6391 9.14415 16.6678 9.11391 16.6965 9.08321C16.7099 9.06888 16.7233 9.05454 16.7369 9.03975C16.7487 9.02676 16.7606 9.01376 16.7729 9.00054C16.8047 8.97254 16.8047 8.97254 16.8551 8.97254C16.8677 8.93916 16.8677 8.93916 16.8803 8.90533C16.8969 8.90533 16.9136 8.90533 16.9307 8.90533C16.9473 8.87576 16.964 8.84618 16.9811 8.81571C17.0519 8.7503 17.124 8.686 17.1968 8.62259C17.3307 8.51685 17.3307 8.51685 17.4348 8.39005Z" fill="#0B72FF"/>
<path d="M16.1494 17.1275C16.2739 17.1591 16.3211 17.2196 16.4015 17.3067C16.4584 17.3462 16.5169 17.3838 16.5764 17.4201C16.6908 17.4902 16.7997 17.5624 16.9055 17.6428C16.9217 17.6549 16.9378 17.6668 16.9544 17.6791C17.0431 17.7461 17.1271 17.8151 17.208 17.8892C17.0986 18.0053 16.9842 18.1148 16.8647 18.2226C16.8319 18.2519 16.7994 18.2815 16.7659 18.312C16.6787 18.3821 16.6787 18.3821 16.5779 18.4045C16.5524 18.3756 16.5275 18.3467 16.5023 18.3176C16.4882 18.3017 16.4743 18.2855 16.4597 18.269C16.4267 18.2253 16.4267 18.2253 16.4267 18.1805C16.41 18.1805 16.3934 18.1805 16.3762 18.1805C16.3397 18.1475 16.3397 18.1475 16.2976 18.1021C16.2154 18.0158 16.128 17.9372 16.036 17.8592C15.9982 17.822 15.9982 17.822 15.9982 17.7772C15.9763 17.7703 15.9763 17.7703 15.9541 17.7633C15.8553 17.7095 15.8071 17.6264 15.7714 17.5308C15.7464 17.5234 15.7214 17.516 15.6957 17.5084C15.8061 17.3822 15.8061 17.3822 15.88 17.343C15.9853 17.2866 16.0647 17.2061 16.1494 17.1275Z" fill="#0780FF"/>
<path d="M16.477 16.7242C16.6008 16.7518 16.658 16.8002 16.7558 16.8725C16.8896 16.9698 17.0229 17.0571 17.1701 17.1367C17.2546 17.1844 17.3312 17.2397 17.4091 17.2953C17.4736 17.3383 17.5376 17.3679 17.6112 17.3963C17.5593 17.5191 17.4935 17.6067 17.397 17.7057C17.3607 17.7434 17.3607 17.7434 17.3236 17.7819C17.2583 17.8444 17.2583 17.8444 17.1827 17.8892C17.1686 17.8762 17.1548 17.8634 17.1401 17.85C17.0822 17.7978 17.0822 17.7978 17.0126 17.7521C16.994 17.7382 16.9751 17.7243 16.9559 17.71C16.9559 17.6952 16.9559 17.6804 16.9559 17.6652C16.9393 17.6609 16.9226 17.6569 16.9055 17.6526C16.8148 17.6139 16.7523 17.5623 16.6782 17.5023C16.6154 17.4535 16.5471 17.4145 16.477 17.3739C16.378 17.304 16.2877 17.2303 16.1998 17.1499C16.1128 17.183 16.0574 17.227 15.9918 17.287C15.974 17.3033 15.9563 17.3195 15.9379 17.3363C15.9246 17.3486 15.9112 17.3611 15.8973 17.3739C15.8807 17.3665 15.8641 17.3591 15.8469 17.3515C15.8734 17.3287 15.8999 17.306 15.9271 17.2825C16.1292 17.1064 16.3172 16.9323 16.477 16.7242Z" fill="#0587FF"/>
<path d="M17.6112 14.4614C17.6341 14.4659 17.6568 14.4706 17.6805 14.4753C17.711 14.4814 17.7417 14.4874 17.7735 14.4937C17.8186 14.5026 17.8186 14.5026 17.8647 14.5118C17.9656 14.5304 17.9656 14.5304 18.0752 14.538C18.1974 14.5517 18.3015 14.5795 18.4177 14.6156C18.4553 14.627 18.4926 14.6384 18.5311 14.6503C18.5687 14.6619 18.606 14.6736 18.6445 14.6855C18.7202 14.7079 18.7958 14.7305 18.8714 14.7527C18.9099 14.8622 18.8807 14.9498 18.851 15.0594C18.8419 15.0932 18.8328 15.127 18.8237 15.1618C18.7958 15.2456 18.7958 15.2456 18.7454 15.2904C18.7454 15.2756 18.7454 15.2608 18.7454 15.2456C18.5389 15.2041 18.3318 15.1676 18.1241 15.1313C18.0144 15.1111 18.0144 15.1111 17.9388 15.0887C17.8715 15.0912 17.8042 15.0952 17.7372 15.0999C17.5439 15.1136 17.5439 15.1136 17.46 15.0887C17.4748 14.9801 17.501 14.8799 17.5356 14.7751C17.5635 14.6709 17.5877 14.5663 17.6112 14.4614Z" fill="#0589FF"/>
<path d="M9.52073 8.50208C9.53736 8.50947 9.554 8.51686 9.57114 8.52448C9.54719 8.5424 9.52325 8.5601 9.49855 8.57847C9.46805 8.60222 9.4373 8.62597 9.4058 8.65039C9.35968 8.68556 9.35968 8.68556 9.3128 8.72141C9.23366 8.78727 9.23366 8.78727 9.24601 8.86949C9.25357 8.88876 9.26088 8.90803 9.26869 8.92774C9.29364 8.93514 9.31859 8.94253 9.3443 8.95015C9.3443 8.97233 9.3443 8.99451 9.3443 9.01736C9.36094 9.02475 9.37757 9.03215 9.39471 9.03976C9.47309 9.11907 9.53308 9.20465 9.59256 9.29584C9.60214 9.30749 9.61172 9.31891 9.62155 9.33101C9.63818 9.33101 9.65481 9.33101 9.67195 9.33101C9.67498 9.34848 9.67825 9.36618 9.68153 9.38433C9.69186 9.44616 9.69186 9.44616 9.74757 9.48783C9.71984 9.50195 9.69212 9.51606 9.66364 9.53063C9.44764 9.64175 9.23945 9.75533 9.04185 9.8911C8.96977 9.86063 8.91936 9.83173 8.86543 9.77908C8.85711 9.79387 8.84879 9.80865 8.84022 9.82389C8.82636 9.77729 8.81502 9.73786 8.81502 9.68947C8.79007 9.68947 8.76511 9.68947 8.73941 9.68947C8.72252 9.64466 8.70588 9.59985 8.689 9.55505C8.67236 9.54765 8.65573 9.54026 8.63859 9.53264C8.62599 9.49926 8.62599 9.49926 8.61339 9.46543C8.59675 9.46543 8.58012 9.46543 8.56298 9.46543C8.56298 9.45064 8.56298 9.43586 8.56298 9.42062C8.53803 9.41323 8.51307 9.40584 8.48737 9.39822C9.13082 8.77697 9.13082 8.77697 9.49553 8.52448C9.50384 8.51709 9.51216 8.50969 9.52073 8.50208Z" fill="#0B70FF"/>
<path d="M7.73125 15.9849C7.83988 16.0602 7.92936 16.1408 8.01833 16.2342C8.05538 16.2726 8.09394 16.3082 8.13452 16.3434C8.08386 16.4538 7.99237 16.5246 7.88248 16.5898C7.87265 16.6059 7.86282 16.6221 7.85248 16.6389C7.79754 16.7148 7.73151 16.7639 7.65388 16.8217C7.60171 16.86 7.60171 16.86 7.54525 16.9133C7.50442 16.9482 7.50442 16.9482 7.45401 16.9482C7.44821 16.9603 7.44267 16.9722 7.43662 16.9845C7.39276 17.0556 7.33706 17.1111 7.27758 17.1723C7.16668 17.1102 7.07419 17.043 6.98143 16.9608C6.94565 16.9297 6.94565 16.9297 6.90935 16.8978C6.85264 16.84 6.82416 16.7968 6.79871 16.7242C6.84937 16.6774 6.90028 16.6308 6.95144 16.5842C6.99404 16.5452 6.99404 16.5452 7.03739 16.5053C7.12207 16.4363 7.20197 16.3913 7.30279 16.3434C7.36958 16.2896 7.36958 16.2896 7.42881 16.2313C7.5087 16.157 7.58179 16.1045 7.68085 16.0521C7.69748 16.0299 7.71411 16.0077 7.73125 15.9849Z" fill="#0684FF"/>
<path d="M11.159 7.69556C11.1674 7.72513 11.1757 7.7547 11.1843 7.78517C11.247 7.8143 11.247 7.8143 11.3103 7.82998C11.302 7.85216 11.2936 7.87434 11.2851 7.89719C11.2911 7.94468 11.2911 7.94468 11.3103 7.9868C11.3269 7.9942 11.3435 8.00159 11.3607 8.00921C11.3524 8.03139 11.344 8.05357 11.3355 8.07642C11.3579 8.13489 11.3579 8.13489 11.3859 8.18844C11.3859 8.19583 11.3859 8.20322 11.3859 8.21084C11.3987 8.38872 11.4454 8.5451 11.5371 8.70372C11.5908 8.80678 11.5908 8.80678 11.5623 8.88295C11.5873 8.90513 11.6122 8.92731 11.6379 8.95016C11.5608 8.96584 11.4837 8.98108 11.4063 8.99631C11.3635 9.00505 11.3204 9.01356 11.276 9.0223C11.179 9.03686 11.1243 9.04403 11.033 9.01737C11.0345 8.98914 11.0361 8.96091 11.0378 8.93201C11.0398 8.85786 11.0398 8.85786 10.9952 8.79759C10.9766 8.78437 10.9766 8.78437 10.9574 8.77093C10.9574 8.74875 10.9574 8.72657 10.9574 8.70372C10.9534 8.67773 10.9491 8.65197 10.9448 8.62531C10.9322 8.54689 10.9322 8.54689 10.9322 8.47968C10.8992 8.44944 10.8654 8.41942 10.8314 8.39007C10.8314 8.37528 10.8314 8.3605 10.8314 8.34526C10.8105 8.29665 10.8105 8.29665 10.7558 8.27805C10.7475 8.25587 10.7391 8.23369 10.7306 8.21084C10.7223 8.21084 10.7139 8.21084 10.7054 8.21084C10.7064 8.1918 10.7074 8.17298 10.7084 8.15349C10.7049 8.06701 10.6845 8.00159 10.655 7.91959C10.7465 7.83827 10.8296 7.81228 10.9496 7.76971C10.9887 7.75582 11.0277 7.74193 11.0681 7.72759C11.0981 7.71706 11.128 7.70631 11.159 7.69556Z" fill="#0489FF"/>
<path d="M12.8225 17.6876C12.8562 17.7756 12.8762 17.8493 12.8744 17.9425C12.8709 18.1565 12.9203 18.3097 13.017 18.5084C13.0493 18.5837 13.0493 18.5837 13.0493 18.6733C12.9409 18.7083 12.8373 18.7291 12.7232 18.7432C12.6793 18.7491 12.6793 18.7491 12.6344 18.7547C12.5452 18.763 12.4585 18.7643 12.3688 18.763C12.3007 18.642 12.3033 18.5351 12.2932 18.4002C12.2806 18.232 12.2589 18.0758 12.2176 17.9116C12.2176 17.8525 12.2176 17.7933 12.2176 17.7324C12.0263 17.7324 11.835 17.7324 11.6379 17.7324C11.6379 17.725 11.6379 17.7176 11.6379 17.71C11.7241 17.708 11.7241 17.708 11.8118 17.7059C11.9244 17.703 11.9244 17.703 12.0396 17.7001C12.1142 17.6983 12.1886 17.6965 12.2655 17.6947C12.7806 17.6768 12.7806 17.6768 12.8225 17.6876Z" fill="#115CFF"/>
<path d="M15.7965 16.2313C15.8132 16.2387 15.8298 16.2461 15.847 16.2537C15.8303 16.2685 15.8137 16.2833 15.7965 16.2985C15.8051 16.3747 15.8462 16.4184 15.8974 16.4778C15.8974 16.4925 15.8974 16.5073 15.8974 16.5226C15.914 16.5226 15.9306 16.5226 15.9478 16.5226C15.9541 16.5405 15.9604 16.5586 15.9667 16.5772C15.977 16.5961 15.9873 16.6151 15.9982 16.6346C16.0473 16.6478 16.0473 16.6478 16.099 16.657C16.1746 16.7314 16.1746 16.7314 16.1746 16.7914C16.1996 16.7988 16.2245 16.8062 16.2502 16.8138C16.2502 16.8286 16.2502 16.8434 16.2502 16.8586C16.2669 16.8586 16.2835 16.8586 16.3006 16.8586C16.3132 16.892 16.3132 16.892 16.3258 16.9258C16.157 17.0972 15.979 17.259 15.7965 17.4187C15.6884 17.3414 15.6153 17.2765 15.5445 17.1723C15.4946 17.1835 15.4946 17.1835 15.4437 17.1947C15.4323 17.1772 15.4208 17.1595 15.4089 17.1414C15.3711 17.0818 15.3711 17.0818 15.3177 17.0379C15.2136 16.9426 15.1917 16.8765 15.1917 16.7466C15.2562 16.6617 15.3328 16.6021 15.4233 16.5394C15.5571 16.4442 15.6781 16.3413 15.7965 16.2313Z" fill="#0194FF"/>
<path d="M18.7218 11.9732C18.7583 11.9739 18.7583 11.9739 18.7959 11.9746C18.8188 12.0552 18.8415 12.1361 18.8634 12.217C18.876 12.2618 18.8886 12.3068 18.9017 12.3532C18.9116 12.4097 18.9116 12.4097 18.9219 12.4675C18.8463 12.5347 18.8463 12.5347 18.7452 12.5414C18.7061 12.5405 18.6673 12.5398 18.6273 12.5389C18.5882 12.5383 18.5491 12.5378 18.5088 12.5371C18.4788 12.5362 18.4488 12.5356 18.4178 12.5347C18.4178 12.5495 18.4178 12.5642 18.4178 12.5795C18.2482 12.605 18.0859 12.6272 17.9137 12.6243C17.8409 12.631 17.7683 12.6382 17.6957 12.6462C17.6763 12.6465 17.6566 12.6465 17.6365 12.6467C17.5725 12.59 17.5679 12.5481 17.5483 12.4704C17.5246 12.3745 17.5246 12.3745 17.4812 12.2853C17.4601 12.2434 17.4601 12.2434 17.4853 12.1538C17.519 12.1511 17.5528 12.1484 17.5876 12.1457C17.6322 12.1419 17.6771 12.1381 17.7232 12.1343C17.7673 12.1307 17.8114 12.1269 17.8568 12.1233C17.9798 12.1101 18.0957 12.0893 18.2162 12.0642C18.3228 12.0465 18.4297 12.0292 18.5368 12.0124C18.6255 11.9959 18.6328 11.9748 18.7218 11.9732Z" fill="#0F63FF"/>
<path d="M13.5535 18.5837C13.5577 18.5992 13.562 18.6146 13.5666 18.6305C13.5968 18.7349 13.6283 18.8346 13.6795 18.9323C13.805 19.1727 13.8907 19.4613 13.8811 19.7263C13.7992 19.7458 13.7173 19.7648 13.6354 19.7837C13.5897 19.7944 13.5441 19.8049 13.4972 19.8159C13.377 19.8383 13.377 19.8383 13.2762 19.8159C13.3138 19.8047 13.3138 19.8047 13.3518 19.7935C13.313 19.6147 13.2631 19.4391 13.1963 19.267C13.0746 18.9404 13.0746 18.9404 13.0746 18.8302C13.0579 18.8228 13.0413 18.8154 13.0242 18.8078C13.0085 18.7392 13.0085 18.7392 12.999 18.6733C13.063 18.6581 13.127 18.6433 13.191 18.6285C13.2268 18.6202 13.2626 18.6119 13.2991 18.6034C13.3884 18.5864 13.463 18.5797 13.5535 18.5837Z" fill="#193FFF"/>
<path d="M13.4022 17.5755C13.4297 17.6667 13.4531 17.759 13.4748 17.8513C13.5305 18.0897 13.5882 18.3187 13.755 18.5165C13.6754 18.5387 13.5955 18.5604 13.5156 18.5824C13.4712 18.5945 13.4266 18.6068 13.381 18.6193C13.2689 18.6467 13.1648 18.6639 13.0493 18.6733C13.0387 18.6464 13.0282 18.6193 13.0171 18.5916C13.0032 18.5566 12.9896 18.5217 12.9752 18.4856C12.9616 18.4509 12.9478 18.4161 12.9336 18.3801C12.9026 18.2985 12.9026 18.2985 12.8729 18.2477C12.8676 18.208 12.8636 18.1683 12.8603 18.1287C12.8573 18.0928 12.8573 18.0928 12.854 18.0563C12.852 18.0308 12.85 18.0053 12.8477 17.9788C12.8429 17.9246 12.8384 17.8706 12.8336 17.8164C12.8298 17.7734 12.8263 17.7306 12.8225 17.6876C12.7975 17.6802 12.7726 17.6728 12.7469 17.6652C12.8419 17.6459 12.9369 17.6266 13.0319 17.6078C13.0849 17.5971 13.1378 17.5865 13.1925 17.5755C13.3266 17.5531 13.3266 17.5531 13.4022 17.5755Z" fill="#0D6BFF"/>
<path d="M8.86544 16.881C9.0338 16.9626 9.20217 17.0444 9.36952 17.1275C9.36952 17.1423 9.36952 17.1571 9.36952 17.1723C9.34306 17.1945 9.34306 17.1945 9.31609 17.2171C9.1999 17.3159 9.12479 17.4479 9.05598 17.5756C9.01893 17.639 8.97735 17.6916 8.92996 17.7492C8.84301 17.8569 8.78756 17.9658 8.73942 18.0908C8.34271 17.9058 8.34271 17.9058 8.15973 17.7996C8.16805 17.7848 8.17636 17.77 8.18493 17.7548C8.20157 17.7548 8.2182 17.7548 8.23534 17.7548C8.24467 17.7319 8.24467 17.7319 8.25424 17.7086C8.2918 17.63 8.33792 17.5594 8.38656 17.4859C8.4032 17.4859 8.41983 17.4859 8.43697 17.4859C8.43697 17.4712 8.43697 17.4564 8.43697 17.4411C8.45361 17.4411 8.47024 17.4411 8.48738 17.4411C8.4894 17.4252 8.49167 17.4093 8.49368 17.393C8.51687 17.3146 8.55669 17.2675 8.61189 17.2032C8.62978 17.1819 8.64768 17.1609 8.66608 17.1391C8.68196 17.1205 8.69783 17.1019 8.71422 17.0827C8.73085 17.0605 8.74749 17.0383 8.76462 17.0155C8.78126 17.0155 8.79789 17.0155 8.81503 17.0155C8.83167 16.9711 8.8483 16.9267 8.86544 16.881Z" fill="#0B72FF"/>
<path d="M10.0248 17.4187C10.2209 17.4548 10.4122 17.5032 10.6045 17.5531C10.5879 17.5605 10.5713 17.5679 10.5541 17.5755C10.5347 17.6197 10.5347 17.6197 10.5193 17.6737C10.449 17.8939 10.3525 18.1043 10.2517 18.3148C10.235 18.3148 10.2184 18.3148 10.2013 18.3148C10.194 18.331 10.1866 18.3471 10.1791 18.3639C10.1698 18.3847 10.1604 18.4054 10.1509 18.4269C10.14 18.4573 10.14 18.4573 10.1287 18.4885C10.1193 18.5051 10.11 18.5219 10.1004 18.5389C9.96762 18.5685 9.8968 18.5373 9.768 18.4983C9.70676 18.48 9.70676 18.48 9.644 18.4614C9.54596 18.4269 9.54596 18.4269 9.52075 18.3821C9.52907 18.3599 9.53739 18.3377 9.54596 18.3148C9.56259 18.3148 9.57923 18.3148 9.59636 18.3148C9.59863 18.3001 9.6009 18.2855 9.60317 18.2703C9.62762 18.1806 9.67097 18.1038 9.71608 18.0209C9.73423 17.9871 9.75238 17.9533 9.77103 17.9185C9.78842 17.8867 9.80556 17.8549 9.8232 17.822C9.89276 17.6884 9.96031 17.5542 10.0248 17.4187Z" fill="#0F63FF"/>
<path d="M18.9974 13.274C19.0058 13.274 19.0141 13.274 19.0226 13.274C19.0226 13.5254 19.0226 13.7768 19.0226 14.0358C19.0143 14.0136 19.006 13.9914 18.9974 13.9686C18.9261 13.9571 18.8545 13.9459 18.7832 13.935C18.7434 13.9287 18.7036 13.9224 18.6627 13.9161C18.5538 13.9027 18.4518 13.9005 18.3421 13.9013C18.2917 13.8863 18.2413 13.8716 18.1909 13.8565C18.0687 13.8418 17.9472 13.8341 17.8239 13.8341C17.7624 13.8341 17.7624 13.8341 17.712 13.8117C17.712 13.6417 17.712 13.4716 17.712 13.2965C17.7204 13.2965 17.7287 13.2965 17.7372 13.2965C17.7456 13.3334 17.7539 13.3704 17.7624 13.4085C17.7904 13.4047 17.8186 13.4011 17.8476 13.3973C18.1234 13.3702 18.4034 13.3805 18.6789 13.4049C18.7794 13.4103 18.8729 13.3993 18.9722 13.3861C18.9806 13.3491 18.9889 13.3121 18.9974 13.274Z" fill="#0A74FF"/>
<path d="M15.3102 17.8017C15.4014 17.8337 15.4269 17.905 15.469 17.9789C15.5146 18.0434 15.5557 18.1012 15.6177 18.1541C15.6762 18.2081 15.7165 18.2634 15.7603 18.3275C15.8176 18.4124 15.8176 18.4124 15.8901 18.4864C15.9227 18.5166 15.9227 18.5166 15.9227 18.5838C15.9393 18.5838 15.9559 18.5838 15.9731 18.5838C16.0063 18.643 16.0396 18.7021 16.0739 18.763C15.9627 18.8717 15.8324 18.9499 15.6958 19.0319C15.6008 18.9956 15.5693 18.9562 15.5209 18.8746C15.4937 18.8294 15.4629 18.7875 15.4312 18.7447C15.3858 18.681 15.3523 18.6192 15.3223 18.5486C15.2653 18.4142 15.187 18.2908 15.1086 18.1653C15.0756 18.108 15.0524 18.0638 15.0405 18.0013C15.0239 18.0013 15.0073 18.0013 14.9901 18.0013C14.9901 17.9865 14.9901 17.9717 14.9901 17.9565C15.0408 17.9169 15.0408 17.9169 15.1081 17.8738C15.13 17.8595 15.1519 17.8449 15.1746 17.8302C15.2422 17.7997 15.2422 17.7997 15.3102 17.8017Z" fill="#0B72FF"/>
<path d="M12.0411 17.9116C12.1898 18.1479 12.1959 18.5246 12.1419 18.7853C12.0558 18.8109 11.9885 18.81 11.8977 18.8091C11.8531 18.8089 11.8531 18.8089 11.8077 18.8086C11.7848 18.8082 11.7621 18.808 11.7387 18.8077C11.7304 18.8225 11.7221 18.8373 11.7135 18.8525C11.7135 18.8378 11.7135 18.823 11.7135 18.8077C11.6991 18.8082 11.6847 18.8089 11.6699 18.8093C11.4871 18.8129 11.3135 18.7909 11.1338 18.7629C11.1338 18.6726 11.1744 18.6321 11.2346 18.5613C11.2512 18.5613 11.2679 18.5613 11.285 18.5613C11.3016 18.5317 11.3183 18.5022 11.3354 18.4717C11.3521 18.4717 11.3687 18.4717 11.3858 18.4717C11.3967 18.4468 11.3967 18.4468 11.408 18.4213C11.4173 18.4009 11.4267 18.3805 11.4362 18.3597C11.443 18.344 11.4498 18.3283 11.4567 18.3122C11.4975 18.2546 11.5464 18.2376 11.6127 18.2028C11.6822 18.1616 11.7515 18.1202 11.8206 18.0783C11.8566 18.0565 11.8927 18.0348 11.9297 18.0124C12.0157 17.9656 12.0157 17.9656 12.0411 17.9116Z" fill="#1451FF"/>
<path d="M14.486 17.1723C14.5313 17.237 14.5313 17.237 14.5805 17.3221C14.5981 17.3524 14.6158 17.3829 14.6342 17.414C14.6982 17.5269 14.7619 17.64 14.8252 17.7536C14.8688 17.8305 14.9152 17.9049 14.9648 17.9788C14.8728 18.0478 14.7791 18.1013 14.6735 18.1524C14.6452 18.1661 14.6173 18.18 14.5883 18.1941C14.5112 18.2252 14.5112 18.2252 14.4103 18.2252C14.1896 17.841 14.1896 17.841 14.1079 17.6427C14.0986 17.6201 14.0892 17.5977 14.0797 17.5744C14.0552 17.515 14.031 17.4557 14.0071 17.3963C14.1142 17.2847 14.3171 17.1223 14.486 17.1723Z" fill="#0780FF"/>
<path d="M14.6876 18.1581C14.7544 18.2788 14.8005 18.3942 14.8373 18.525C14.8746 18.6561 14.923 18.7728 14.9913 18.8936C15.0152 18.9422 15.0152 18.9422 15.0152 19.0094C15.0319 19.0168 15.0485 19.0242 15.0656 19.0318C15.0835 19.0688 15.1002 19.1062 15.116 19.1438C15.1309 19.1673 15.1309 19.1673 15.146 19.1913C15.1664 19.2334 15.1664 19.2334 15.1412 19.3006C15.0578 19.3414 15.0578 19.3414 14.9537 19.3833C14.9194 19.3972 14.8852 19.4111 14.8499 19.4254C14.7632 19.4575 14.7632 19.4575 14.7128 19.4575C14.5928 19.2357 14.5162 19.0291 14.4743 18.7862C14.4484 18.6561 14.4068 18.5297 14.3599 18.4045C14.3599 18.3749 14.3599 18.3453 14.3599 18.3149C14.3433 18.3075 14.3266 18.3001 14.3095 18.2925C14.3582 18.2698 14.407 18.2474 14.4559 18.2253C14.4832 18.2127 14.5104 18.2004 14.5384 18.1874C14.612 18.1581 14.612 18.1581 14.6876 18.1581Z" fill="#0F64FF"/>
<path d="M16.1998 10.7649C16.6832 11.1213 17.2601 11.6879 17.46 12.2211C17.4375 12.2159 17.4154 12.211 17.3922 12.2056C17.2924 12.1973 17.2614 12.213 17.1827 12.2659C17.157 12.2879 17.1318 12.3103 17.1071 12.3331C17.0653 12.3634 17.0234 12.3932 16.9811 12.4227C16.9267 12.3262 16.8974 12.2341 16.8646 12.1301C16.7212 11.7022 16.5052 11.3108 16.2552 10.9246C16.1998 10.8321 16.1998 10.8321 16.1998 10.7649Z" fill="#0197FF"/>
<path d="M8.13446 16.3658C8.25141 16.4392 8.35349 16.5069 8.43691 16.6122C8.42431 16.6214 8.41196 16.6308 8.3991 16.6402C8.24284 16.758 8.10976 16.8848 7.98954 17.0323C7.91972 17.1163 7.84386 17.1949 7.76598 17.2731C7.74254 17.2964 7.71935 17.3197 7.69566 17.3439C7.63038 17.3963 7.63038 17.3963 7.52957 17.3963C7.46454 17.3522 7.46454 17.3522 7.39725 17.2955C7.37481 17.2767 7.35238 17.2581 7.3292 17.2388C7.31206 17.2243 7.29517 17.2097 7.27753 17.1947C7.31306 17.0264 7.48874 16.9173 7.63038 16.8138C7.66668 16.7869 7.70297 16.7598 7.73901 16.7327C7.75565 16.7204 7.77203 16.7081 7.78917 16.6953C7.83403 16.6592 7.83403 16.6592 7.85671 16.6126C7.88872 16.5562 7.9288 16.5266 7.98324 16.4863C8.03566 16.4471 8.08607 16.4088 8.13446 16.3658Z" fill="#087EFF"/>
<path d="M15.1917 16.7018C15.208 16.7558 15.2184 16.8053 15.2247 16.8613C15.2332 16.8934 15.2332 16.8934 15.2421 16.9258C15.2917 16.9516 15.2917 16.9516 15.3429 16.9707C15.3517 17.0005 15.3603 17.0302 15.3681 17.0603C15.4291 17.1279 15.4291 17.1279 15.5168 17.1575C15.5911 17.1781 15.6174 17.2146 15.6642 17.2688C15.6796 17.2863 15.6952 17.3038 15.7111 17.3219C15.7461 17.3739 15.7461 17.3739 15.7461 17.4635C15.6945 17.5139 15.6945 17.5139 15.6264 17.5657C15.6043 17.5829 15.5821 17.6 15.5591 17.6177C15.4021 17.7324 15.4021 17.7324 15.3429 17.7324C15.3053 17.6817 15.27 17.6295 15.2358 17.5769C15.171 17.4785 15.1065 17.3811 15.0341 17.287C14.9842 17.2214 14.9361 17.155 14.8907 17.0869C14.8748 17.0632 14.8748 17.0632 14.8587 17.0388C14.8388 16.9931 14.8388 16.9931 14.8388 16.9483C14.8784 16.8781 14.9414 16.8508 15.0152 16.8096C15.0427 16.7941 15.0704 16.7784 15.0987 16.7625C15.1211 16.7498 15.1435 16.7372 15.1665 16.7242C15.1748 16.7168 15.1831 16.7094 15.1917 16.7018Z" fill="#038CFF"/>
<path d="M13.9063 18.4941C13.9851 18.6727 14.0439 18.8407 14.0708 19.0309C14.0824 19.0968 14.1003 19.1561 14.1235 19.2195C14.1563 19.3094 14.1623 19.3846 14.1583 19.4799C14.1659 19.5323 14.1739 19.5845 14.1835 19.6367C14.152 19.6481 14.1205 19.6593 14.089 19.6703C14.0713 19.6766 14.0539 19.6828 14.0358 19.6891C13.9819 19.7039 13.9819 19.7039 13.8811 19.7039C13.8765 19.6793 13.872 19.6546 13.8672 19.6293C13.8004 19.2746 13.8004 19.2746 13.6542 18.9422C13.5534 18.7022 13.5534 18.7022 13.5534 18.5837C13.5368 18.5763 13.5201 18.5689 13.503 18.5613C13.5418 18.5499 13.5806 18.5387 13.6194 18.5277C13.6411 18.5214 13.6628 18.5152 13.6852 18.5089C13.7611 18.4928 13.8286 18.4916 13.9063 18.4941Z" fill="#154EFF"/>
<path d="M17.6616 14.1702C17.8854 14.2123 17.8854 14.2123 17.9136 14.2374C17.969 14.2459 18.0247 14.2531 18.0804 14.2598C18.1109 14.2636 18.1414 14.2672 18.1729 14.271C18.2317 14.278 18.2901 14.2847 18.3491 14.2905C18.4754 14.3095 18.5956 14.3414 18.7186 14.3732C18.766 14.3855 18.8136 14.3978 18.8625 14.4104C18.8988 14.4198 18.9349 14.4294 18.9722 14.439C18.9555 14.5425 18.9389 14.646 18.9218 14.7527C18.7231 14.7527 18.5124 14.6806 18.3295 14.6156C18.1901 14.5679 18.051 14.5533 17.903 14.5396C17.8105 14.5284 17.7253 14.5085 17.6364 14.4838C17.6447 14.3803 17.653 14.2768 17.6616 14.1702Z" fill="#0781FF"/>
<path d="M13.0241 18.6958C13.0902 18.8658 13.1456 19.0379 13.2006 19.211C13.2179 19.2648 13.2351 19.3183 13.2525 19.3721C13.2648 19.4104 13.2648 19.4104 13.2774 19.4496C13.2931 19.4991 13.3092 19.5484 13.3253 19.5975C13.3326 19.6197 13.3397 19.6419 13.347 19.6647C13.3535 19.6842 13.3598 19.7037 13.3664 19.7239C13.377 19.7711 13.377 19.7711 13.3518 19.8159C13.2752 19.8585 13.2079 19.8686 13.1186 19.8746C13.0962 19.8764 13.0738 19.878 13.0506 19.8798C13.0335 19.8809 13.0166 19.882 12.9989 19.8831C13.0239 19.8719 13.0239 19.8719 13.0493 19.8607C13.0367 19.8274 13.0367 19.8274 13.0241 19.7935C13.0324 19.7713 13.0408 19.7492 13.0493 19.7263C13.0327 19.7189 13.0161 19.7115 12.9989 19.7039C12.9669 19.5431 12.9669 19.5431 12.9989 19.4575C12.9823 19.4575 12.9657 19.4575 12.9485 19.4575C12.9452 19.444 12.9417 19.4304 12.9384 19.4165C12.9316 19.3896 12.9316 19.3896 12.9248 19.3623C12.9205 19.3446 12.916 19.3269 12.9117 19.3087C12.8885 19.2184 12.8603 19.1393 12.8182 19.0542C12.7658 18.942 12.7217 18.8405 12.7217 18.7182C12.8235 18.704 12.921 18.6931 13.0241 18.6958Z" fill="#1B37FF"/>
<path d="M12.8225 17.6876C12.8562 17.7756 12.8762 17.8493 12.8744 17.9425C12.8709 18.1565 12.9203 18.3097 13.017 18.5084C13.0493 18.5837 13.0493 18.5837 13.0493 18.6733C12.9439 18.7089 12.8595 18.7228 12.7469 18.7181C12.7123 18.6364 12.6791 18.5541 12.646 18.4717C12.6385 18.4535 12.6312 18.4352 12.6234 18.4166C12.5349 18.1822 12.5402 17.9322 12.5452 17.6876C12.6465 17.6687 12.7222 17.664 12.8225 17.6876Z" fill="#0F63FF"/>
<path d="M13.5534 18.5837C13.5599 18.6068 13.5599 18.6068 13.5665 18.6305C13.5967 18.7349 13.6282 18.8346 13.6794 18.9323C13.8049 19.1727 13.8906 19.4613 13.881 19.7263C13.8062 19.7411 13.7313 19.7559 13.6542 19.7711C13.6542 19.7563 13.6542 19.7415 13.6542 19.7263C13.6376 19.7189 13.6209 19.7115 13.6038 19.7039C13.6121 19.6521 13.6204 19.6004 13.629 19.5471C13.6123 19.5397 13.5957 19.5323 13.5786 19.5247C13.57 19.4805 13.57 19.4805 13.566 19.4238C13.5559 19.3123 13.5332 19.2074 13.503 19.099C13.4994 19.0829 13.4957 19.0665 13.4919 19.0497C13.4848 19.0298 13.4848 19.0298 13.4778 19.0094C13.4611 19.002 13.4445 18.9946 13.4274 18.987C13.4357 18.9648 13.444 18.9426 13.4526 18.9198C13.4359 18.9198 13.4193 18.9198 13.4021 18.9198C13.3971 18.9041 13.3918 18.8884 13.3865 18.8723C13.3797 18.8519 13.3729 18.8315 13.3659 18.8104C13.3593 18.7903 13.3525 18.7701 13.3454 18.7491C13.3283 18.6962 13.3283 18.6962 13.3013 18.6509C13.3515 18.562 13.4546 18.5817 13.5534 18.5837Z" fill="#1746FF"/>
<path d="M13.6038 17.4859C13.6139 17.5177 13.6239 17.5498 13.6343 17.5825C13.6476 17.6246 13.661 17.6667 13.6746 17.71C13.6877 17.7516 13.7011 17.7931 13.7144 17.8359C13.7721 18.0075 13.845 18.1668 13.9317 18.3279C13.9566 18.3821 13.9566 18.3821 13.9566 18.4493C13.8833 18.4751 13.8183 18.4932 13.7394 18.4984C13.636 18.4524 13.6159 18.3628 13.5786 18.2701C13.57 18.2501 13.5614 18.2302 13.5526 18.2096C13.4717 18.0104 13.4022 17.7884 13.4022 17.5755C13.3855 17.5682 13.3689 17.5608 13.3517 17.5531C13.3843 17.5419 13.4168 17.5307 13.4495 17.5195C13.4765 17.5101 13.4765 17.5101 13.5042 17.5007C13.5534 17.4859 13.5534 17.4859 13.6038 17.4859Z" fill="#0B73FF"/>
<path d="M14.0827 18.4045C14.184 18.6359 14.2339 18.8604 14.2672 19.1068C14.2856 19.2184 14.3077 19.3076 14.3755 19.4028C14.4146 19.4642 14.4169 19.5002 14.4103 19.5695C14.3355 19.5916 14.2606 19.6138 14.1835 19.6367C14.153 19.5536 14.1328 19.4935 14.1343 19.4053C14.1331 19.3194 14.1152 19.256 14.0857 19.1747C14.0494 19.0676 14.0224 18.9648 14.0055 18.8539C13.9889 18.7443 13.9597 18.6606 13.9062 18.5613C13.9062 18.5391 13.9062 18.5169 13.9062 18.4941C13.8813 18.5015 13.8563 18.5089 13.8306 18.5165C13.8223 18.5017 13.814 18.4869 13.8054 18.4717C13.8374 18.4603 13.8694 18.4493 13.9014 18.4381C13.9193 18.4318 13.9372 18.4255 13.9556 18.4193C14.0071 18.4045 14.0071 18.4045 14.0827 18.4045Z" fill="#1256FF"/>
<path d="M7.3784 11.1233C7.38672 11.1233 7.39503 11.1233 7.4036 11.1233C7.41192 11.1603 7.42024 11.1972 7.42881 11.2353C7.44847 11.234 7.46838 11.2326 7.48879 11.2311C7.5213 11.2333 7.5213 11.2333 7.55483 11.2353C7.57978 11.2687 7.57978 11.2687 7.60523 11.3025C7.63019 11.2951 7.65514 11.2877 7.68085 11.2801C7.60775 11.4425 7.52382 11.6003 7.44166 11.7593C7.37689 11.8839 7.37689 11.8839 7.32774 12.0114C7.3111 12.0436 7.29472 12.0759 7.27758 12.1091C7.21533 12.1203 7.21533 12.1203 7.15156 12.1315C7.09863 12.0678 7.10166 12.0376 7.11199 11.9574C7.18181 11.6733 7.27431 11.3989 7.3784 11.1233Z" fill="#0B76FF"/>
<path d="M16.1998 10.7649C16.4533 10.9519 16.6587 11.1565 16.8551 11.3922C16.8218 11.4217 16.788 11.4513 16.7543 11.4804C16.7001 11.5273 16.7001 11.5273 16.6534 11.5938C16.6376 11.5649 16.6217 11.5358 16.6053 11.506C16.4919 11.301 16.3775 11.1016 16.2351 10.9112C16.1998 10.8545 16.1998 10.8545 16.1998 10.7649Z" fill="#0B76FF"/>
<path d="M16.8388 11.4166C16.9316 11.445 16.9598 11.4903 17.0143 11.5615C17.0316 11.5842 17.0493 11.607 17.0674 11.6303C17.0871 11.6565 17.0871 11.6565 17.107 11.6834C17.0987 11.6982 17.0904 11.713 17.0818 11.7282C17.0601 11.7199 17.0601 11.7199 17.0377 11.7114C17.019 11.7096 17.0004 11.7078 16.981 11.7058C16.9265 11.7468 16.9265 11.7468 16.8802 11.7954C16.8635 11.8028 16.8469 11.8102 16.8298 11.8178C16.8131 11.84 16.7965 11.8622 16.7794 11.885C16.6427 11.6108 16.6427 11.6108 16.7007 11.4748C16.7413 11.4204 16.766 11.4141 16.8388 11.4166Z" fill="#0293FF"/>
<path d="M16.906 11.437C16.8742 11.4934 16.8428 11.5015 16.7796 11.5269C16.7629 11.4973 16.7463 11.4676 16.7291 11.437C16.7966 11.4071 16.8345 11.422 16.906 11.437Z" fill="#0687FF"/>
<path d="M17.1325 13.4085C17.1492 13.4307 17.1658 13.453 17.183 13.4759C17.1747 13.4907 17.1663 13.5056 17.1578 13.5208C17.1411 13.5208 17.1244 13.5208 17.1072 13.5208C17.0945 13.5653 17.0945 13.5653 17.0819 13.6107C17.0819 13.5514 17.0819 13.4921 17.0819 13.4309C17.0986 13.4235 17.1153 13.4161 17.1325 13.4085Z" fill="#048DFF"/>
</svg>
