<svg width="24" height="24" viewBox="0 0 24 24" fill="none" xmlns="http://www.w3.org/2000/svg">
<path d="M13.7323 11.9397C13.7323 11.9397 13.691 10.4171 14.5573 9.51038C15.4228 8.60437 16.5358 7.91503 17.2363 7.48036C17.9376 7.04569 18.9268 6.50101 18.8031 5.72234C18.6793 4.94233 17.9871 4.42566 14.978 4.42566C11.969 4.42566 9.90049 4.67166 7.98272 5.559C6.0657 6.44701 6.87871 7.59503 7.69471 7.78903C8.41472 7.96036 9.33198 8.02903 10.0587 8.71104C11.3773 9.94638 11.2385 11.8491 11.2385 11.8491L13.7323 11.9397Z" fill="url(#paint0_radial_15_5515)"/>
<path d="M8.78519 12.5557C8.78519 12.5557 6.43616 15.4204 5.81665 16.1278C5.19715 16.8344 3.92063 17.9944 4.00388 18.1391C4.08638 18.2838 5.05539 18.6285 5.05539 18.6285C5.05539 18.6285 9.96045 19.2445 10.3512 19.2445C10.7427 19.2445 18.7805 17.2331 18.7805 17.2331C18.7805 17.2331 15.9575 11.921 15.0493 12.2291C14.1417 12.5377 8.78519 12.5557 8.78519 12.5557Z" fill="#717578"/>
<path d="M12.6185 14.2597C12.6185 14.2597 11.918 14.8031 11.5887 15.0937C11.2587 15.3851 10.3362 16.0371 10.4562 16.1451C10.5537 16.2338 11.9465 15.6771 12.0912 15.6131C12.2157 15.5591 13.7533 15.0564 13.856 15.1844C13.9588 15.3117 13.511 15.6131 13.3617 15.8004C13.223 15.9744 10.7682 18.1498 10.1885 18.2838C9.77146 18.3811 7.24093 18.5018 7.15843 18.3198C7.07518 18.1398 8.06444 16.9064 7.81844 16.7244C7.57093 16.5431 6.55992 17.1264 5.96292 17.4351C5.36666 17.7431 4.4389 18.1378 4.29415 18.1564C4.1494 18.1751 4.00539 18.1378 4.00539 18.1378C4.00539 18.1378 3.96189 18.3644 5.24291 18.8805C6.25167 19.2871 7.07668 19.6605 9.83971 19.8958C12.602 20.1311 14.5798 19.9145 15.7333 19.7685C16.8883 19.6231 19.0101 19.0425 19.5673 18.8258C20.1231 18.6084 20.5536 18.3838 20.4951 18.2284C20.4741 18.1738 17.2595 14.4217 17.2595 14.4217L15.5248 12.1577L12.6185 14.2591V14.2597Z" fill="#474B4E"/>
<path d="M10.5927 10.5524C9.95148 10.6364 9.72273 11.2764 9.05522 12.023C8.67047 12.4537 8.34122 12.7457 8.15821 12.9431C7.95271 13.1644 7.68046 13.6217 7.95271 13.7504C8.22421 13.8791 8.64422 13.4944 8.75897 13.2817C8.87297 13.0704 9.04172 12.8537 9.20073 13.0024C9.35898 13.1511 9.36948 13.4104 8.96297 13.7091C8.55572 14.0084 8.07946 14.3564 8.12521 14.6657C8.17021 14.9757 8.40722 15.0644 8.67947 14.9944C8.95097 14.9251 9.60798 14.2571 9.85698 13.9284C10.1067 13.6004 10.502 13.0317 10.7742 13.0317C11.0465 13.0317 11.042 13.5297 10.5027 14.0877C9.88023 14.7324 9.57648 14.9557 8.83772 15.5431C8.07046 16.1518 8.17021 16.3698 8.30597 16.4891C8.44247 16.6091 8.82722 16.6378 9.38148 16.2204C9.93648 15.8018 10.7187 15.0157 11.0585 14.6657C11.3982 14.3177 11.7035 13.9391 12.056 13.9591C12.407 13.9791 12.3155 14.2871 12.3605 14.4377C12.4055 14.5864 12.4055 14.8651 12.824 14.8651C13.2425 14.8651 13.469 14.4864 13.6055 14.1877C13.7405 13.8884 13.7293 13.4904 14.0008 13.4504C14.273 13.4104 14.306 13.6497 14.522 14.0284C14.7365 14.4071 15.5645 15.9798 15.7685 16.2591C15.9725 16.5384 16.1991 17.0658 16.8666 16.8858C17.5341 16.7071 16.6746 15.6211 16.4706 15.3517C16.2666 15.0831 15.6778 14.1757 15.4505 13.5684C15.2248 12.9617 15.2248 12.7711 15.3725 12.6717C15.5188 12.5717 15.7685 12.8511 16.0978 13.3891C16.4256 13.9271 16.7098 14.4257 16.9693 14.6251C17.2288 14.8244 17.4553 14.8044 17.5693 14.7137C17.6818 14.6251 17.7276 14.2857 17.4328 14.0271C17.0842 13.7113 16.7681 13.3684 16.4886 13.0024C16.0969 12.481 15.7247 11.9483 15.3725 11.405C15.101 10.987 14.945 10.6997 14.5753 10.649C14.096 10.5844 13.7518 10.899 13.4803 11.0677C13.208 11.2364 12.8353 11.327 12.4603 11.307C12.0868 11.287 11.5888 10.9284 11.3847 10.769C11.1822 10.6124 10.9782 10.503 10.5935 10.5524H10.5927Z" fill="url(#paint1_radial_15_5515)"/>
<path d="M10.9272 11.0917C10.9272 11.0917 11.1837 11.1397 11.3713 11.263C11.5588 11.387 12.0193 11.7177 12.6185 11.7097C13.2185 11.703 13.5523 11.4497 13.7938 11.3257C14.036 11.2024 14.261 11.223 14.261 11.223C14.261 11.223 13.8545 12.6171 12.6478 12.6584C11.069 12.7131 10.9272 11.0917 10.9272 11.0917Z" fill="#EC5F32"/>
<path d="M18.4318 11.2804C18.2113 11.3084 18.326 11.5864 18.3568 12.2424C18.389 12.8991 18.3815 13.1757 18.7363 13.1764C19.181 13.1777 19.0415 12.3531 18.9568 12.103C18.8743 11.853 18.6973 11.247 18.4318 11.2804Z" fill="url(#paint2_radial_15_5515)"/>
<path d="M18.3785 8.07969C18.2818 8.2497 18.5885 8.44103 18.8728 8.73637C19.064 8.93637 19.3453 9.42971 19.7353 9.46704C20.1253 9.50371 20.1703 9.09237 19.9768 8.8557C19.7878 8.62437 19.4615 8.39303 19.0933 8.22703C18.7258 8.06103 18.4528 7.94969 18.3785 8.07969Z" fill="url(#paint3_radial_15_5515)"/>
<path d="M13.4045 6.43233C13.5207 6.479 13.6355 6.41367 13.6775 6.275C13.7052 6.18366 14.1702 5.51899 14.8557 5.11032C15.413 4.77698 15.6762 4.77698 15.9605 4.67565C16.133 4.61298 16.2868 4.37898 16.202 4.20364C16.1218 4.03697 15.9493 3.97297 15.6657 4.01031C15.4857 4.03364 14.8302 4.18098 14.1822 4.79698C13.3835 5.55499 13.3407 6.08233 13.3197 6.17433C13.2987 6.26633 13.2927 6.387 13.4045 6.43233Z" fill="url(#paint4_radial_15_5515)"/>
<path d="M11.8677 6.51566C11.6517 6.56633 11.4679 6.29366 11.0802 5.94232C10.6902 5.58965 10.3437 5.54432 10.1532 5.33031C9.96343 5.11698 9.99643 4.87698 10.1644 4.74764C10.3317 4.61831 10.6264 4.59964 10.8889 4.77497C11.1514 4.95031 11.4889 5.28431 11.7304 5.74632C11.8617 5.99632 12.0687 6.46899 11.8677 6.51566Z" fill="url(#paint5_radial_15_5515)"/>
<path d="M6.76018 7.92634C6.60793 7.80034 6.00117 8.02367 5.53542 8.36768C5.31341 8.53168 5.08991 8.72568 4.99766 8.92902C4.92116 9.10168 4.92416 9.32035 5.10491 9.42702C5.26841 9.52236 5.46791 9.47769 5.60742 9.38302C5.79867 9.25169 5.93142 8.98702 6.04317 8.84102C6.23967 8.58568 6.56593 8.34301 6.67318 8.26168C6.77068 8.18568 6.87568 8.02167 6.76093 7.92701L6.76018 7.92634Z" fill="url(#paint6_radial_15_5515)"/>
<path d="M7.26414 11.4197C7.08864 11.3724 6.82539 11.5411 6.60488 12.2824C6.40988 12.9384 6.34988 13.5297 6.84114 13.5404C7.35714 13.5524 7.14264 12.8911 7.20339 12.2937C7.26339 11.6977 7.43889 11.4671 7.26339 11.4204L7.26414 11.4197Z" fill="url(#paint7_radial_15_5515)"/>
<path d="M7.21767 10.5591C7.50568 10.6097 7.65643 10.417 7.71568 10.2404C7.76218 10.099 7.96018 9.36571 8.99069 9.2837C9.98745 9.2037 10.7007 10.0857 10.8035 10.183C10.907 10.2797 11.0435 10.297 11.12 10.2284C11.1882 10.1684 11.1747 10.0584 11.1065 9.90904C11.036 9.74971 10.2125 8.50503 8.74994 8.66836C7.36467 8.82237 6.88617 9.76171 6.89817 10.1204C6.90867 10.3717 6.99117 10.5191 7.21767 10.5591Z" fill="url(#paint8_radial_15_5515)"/>
<path d="M13.7847 10.3984C13.9722 10.453 14.06 10.269 14.1275 10.183C14.1958 10.0964 14.5565 9.48835 15.1985 9.19701C15.842 8.90634 16.3258 8.87434 16.931 9.11634C17.2535 9.24501 17.48 9.59302 17.6173 9.80568C17.8018 10.091 18.0583 10.167 18.3028 10.0477C18.548 9.92902 18.5841 9.57302 18.2233 9.14768C17.9308 8.80367 17.2783 8.21633 16.1218 8.319C14.279 8.481 13.7817 9.90102 13.7337 10.037C13.6812 10.1937 13.6565 10.361 13.7847 10.3984Z" fill="url(#paint9_radial_15_5515)"/>
<path d="M12.8968 10.705C13.0888 10.7224 13.1383 10.6477 13.1915 10.3557C13.3115 9.6977 13.4983 8.45569 14.489 7.45101C15.2713 6.65767 16.1518 6.75367 16.5403 6.96634C16.8801 7.15234 16.9633 7.33034 17.1006 7.45968C17.2378 7.58834 17.5146 7.74234 17.7621 7.58834C17.9691 7.46034 18.0208 7.13501 17.6608 6.779C17.3016 6.423 16.9348 6.13233 16.0333 6.06699C15.1311 6.00166 14.24 6.51167 13.7608 7.127C13.2823 7.74234 12.9328 8.61502 12.8233 9.20703C12.7123 9.7977 12.7033 10.3224 12.7033 10.445C12.7033 10.565 12.74 10.6904 12.8968 10.705Z" fill="url(#paint10_radial_15_5515)"/>
<path d="M12.128 10.7064C12.329 10.6797 12.3575 10.5444 12.3305 10.3344C12.3027 10.1244 12.1235 8.96969 11.7635 8.07168C11.4057 7.17367 10.8635 6.33633 9.80445 6.16233C8.74694 5.98833 7.90618 6.64234 7.78768 6.74967C7.60392 6.91834 7.41192 7.20034 7.64142 7.42701C7.87093 7.65435 8.24293 7.47768 8.48143 7.25034C8.71994 7.02367 9.12194 6.71367 9.77595 6.89167C10.4285 7.06967 10.7382 7.60768 11.024 8.11835C11.309 8.62836 11.5355 9.36303 11.6547 9.7517C11.7747 10.139 11.8497 10.4464 11.897 10.5604C11.9435 10.667 12.0357 10.7177 12.128 10.7064Z" fill="url(#paint11_radial_15_5515)"/>
<defs>
<radialGradient id="paint0_radial_15_5515" cx="0" cy="0" r="1" gradientUnits="userSpaceOnUse" gradientTransform="translate(9.94203 12.1094) scale(7.99227 7.10441)">
<stop offset="0.1743" stop-color="#E79F68"/>
<stop offset="0.2776" stop-color="#E6A272"/>
<stop offset="0.4528" stop-color="#E3AB8D"/>
<stop offset="0.5312" stop-color="#E2AF9B"/>
<stop offset="0.7833" stop-color="#E1D1CC"/>
<stop offset="0.8828" stop-color="#E0E0E0"/>
</radialGradient>
<radialGradient id="paint1_radial_15_5515" cx="0" cy="0" r="1" gradientUnits="userSpaceOnUse" gradientTransform="translate(-0.981571 11.7182) rotate(90) scale(9.1132 5.48309)">
<stop offset="0.3896" stop-color="#CB2D30"/>
<stop offset="0.4916" stop-color="#D23730"/>
<stop offset="0.6646" stop-color="#E45231"/>
<stop offset="0.7153" stop-color="#EA5B31"/>
<stop offset="0.7921" stop-color="#EA6032"/>
<stop offset="0.887" stop-color="#EC6F36"/>
<stop offset="0.9672" stop-color="#ED823A"/>
</radialGradient>
<radialGradient id="paint2_radial_15_5515" cx="0" cy="0" r="1" gradientUnits="userSpaceOnUse" gradientTransform="translate(18.0941 6.31424) scale(1.84929 1.64442)">
<stop offset="0.0448" stop-color="#CB2D30"/>
<stop offset="0.3439" stop-color="#D23730"/>
<stop offset="0.8512" stop-color="#E45231"/>
<stop offset="1" stop-color="#EA5B31"/>
</radialGradient>
<radialGradient id="paint3_radial_15_5515" cx="0" cy="0" r="1" gradientUnits="userSpaceOnUse" gradientTransform="translate(16.9888 7.81736) scale(2.37594 2.1117)">
<stop offset="0.2939" stop-color="#CB2D30"/>
<stop offset="0.5149" stop-color="#D23730"/>
<stop offset="0.89" stop-color="#E45231"/>
<stop offset="1" stop-color="#EA5B31"/>
</radialGradient>
<radialGradient id="paint4_radial_15_5515" cx="0" cy="0" r="1" gradientUnits="userSpaceOnUse" gradientTransform="translate(12.7082 7.22738) scale(3.57989 3.18201)">
<stop offset="0.0448" stop-color="#CB2D30"/>
<stop offset="0.3439" stop-color="#D23730"/>
<stop offset="0.8512" stop-color="#E45231"/>
<stop offset="1" stop-color="#EA5B31"/>
</radialGradient>
<radialGradient id="paint5_radial_15_5515" cx="0" cy="0" r="1" gradientUnits="userSpaceOnUse" gradientTransform="translate(12.4823 6.92674) scale(2.87842 2.559)">
<stop offset="0.4232" stop-color="#CB2D30"/>
<stop offset="0.6038" stop-color="#D23730"/>
<stop offset="0.9102" stop-color="#E45231"/>
<stop offset="1" stop-color="#EA5B31"/>
</radialGradient>
<radialGradient id="paint6_radial_15_5515" cx="0" cy="0" r="1" gradientUnits="userSpaceOnUse" gradientTransform="translate(7.23514 7.49487) scale(2.50119 2.22402)">
<stop offset="0.3406" stop-color="#CB2D30"/>
<stop offset="0.547" stop-color="#D23730"/>
<stop offset="0.8973" stop-color="#E45231"/>
<stop offset="1" stop-color="#EA5B31"/>
</radialGradient>
<radialGradient id="paint7_radial_15_5515" cx="0" cy="0" r="1" gradientUnits="userSpaceOnUse" gradientTransform="translate(7.29802 6.23216) scale(2.88266 2.56217)">
<stop offset="0.4833" stop-color="#CB2D30"/>
<stop offset="0.6451" stop-color="#D23730"/>
<stop offset="0.9195" stop-color="#E45231"/>
<stop offset="1" stop-color="#EA5B31"/>
</radialGradient>
<radialGradient id="paint8_radial_15_5515" cx="0" cy="0" r="1" gradientUnits="userSpaceOnUse" gradientTransform="translate(6.35351 9.61086) scale(1.69302 1.50503)">
<stop offset="0.0448" stop-color="#CB2D30"/>
<stop offset="0.3439" stop-color="#D23730"/>
<stop offset="0.8512" stop-color="#E45231"/>
<stop offset="1" stop-color="#EA5B31"/>
</radialGradient>
<radialGradient id="paint9_radial_15_5515" cx="0" cy="0" r="1" gradientUnits="userSpaceOnUse" gradientTransform="translate(9.76525 9.35788) scale(1.89594 1.68535)">
<stop offset="0.0448" stop-color="#CB2D30"/>
<stop offset="0.3439" stop-color="#D23730"/>
<stop offset="0.8512" stop-color="#E45231"/>
<stop offset="1" stop-color="#EA5B31"/>
</radialGradient>
<radialGradient id="paint10_radial_15_5515" cx="0" cy="0" r="1" gradientUnits="userSpaceOnUse" gradientTransform="translate(10.2868 8.13427) scale(6.35767 5.65053)">
<stop offset="0.3943" stop-color="#CB2D30"/>
<stop offset="0.5839" stop-color="#D23730"/>
<stop offset="0.9057" stop-color="#E45231"/>
<stop offset="1" stop-color="#EA5B31"/>
</radialGradient>
<radialGradient id="paint11_radial_15_5515" cx="0" cy="0" r="1" gradientUnits="userSpaceOnUse" gradientTransform="translate(14.1296 9.39962) scale(6.08774 5.41188)">
<stop offset="0.4205" stop-color="#CB2D30"/>
<stop offset="0.6019" stop-color="#D23730"/>
<stop offset="0.9097" stop-color="#E45231"/>
<stop offset="1" stop-color="#EA5B31"/>
</radialGradient>
</defs>
</svg>
