<svg width="24" height="24" viewBox="0 0 24 24" fill="none" xmlns="http://www.w3.org/2000/svg">
<path d="M8.59807 7H8.58207L8.5614 8.74333H8.57607C9.7194 8.74333 10.6067 9.64799 12.536 12.9073L12.6527 13.1053L12.6607 13.1186L13.7407 11.4933L13.7327 11.4806C13.4967 11.0943 13.2527 10.7128 13.0007 10.3367C12.7527 9.96541 12.4914 9.60317 12.2174 9.25066C10.9421 7.62133 9.8754 7 8.59807 7Z" fill="url(#paint0_linear_15_5536)"/>
<path d="M8.58207 7C7.30008 7.00667 6.16475 7.83866 5.34675 9.11332C5.34452 9.1171 5.3423 9.12087 5.34009 9.12466L6.84275 9.94532L6.85008 9.93399C7.32875 9.21199 7.92341 8.75133 8.56207 8.74399H8.57607L8.59741 7H8.58207Z" fill="url(#paint1_linear_15_5536)"/>
<path d="M5.34604 9.11334L5.33871 9.12468C4.80005 9.96467 4.39871 10.9967 4.18272 12.1093L4.17938 12.124L5.86871 12.524L5.87137 12.5093C6.05137 11.5313 6.39537 10.624 6.84204 9.94601L6.84937 9.93467L5.34604 9.11334Z" fill="url(#paint2_linear_15_5536)"/>
<path d="M5.87139 12.5093L4.18273 12.1093L4.17939 12.124C4.06139 12.736 4.00139 13.358 4.00006 13.9813V13.9966L5.73205 14.152V14.1366C5.72575 13.5912 5.77264 13.0464 5.87205 12.51L5.87139 12.5093Z" fill="url(#paint3_linear_15_5536)"/>
<path d="M5.78474 14.6913C5.75368 14.5122 5.73608 14.331 5.73207 14.1493V14.1346L4.00008 13.9786V13.9946C3.99814 14.364 4.03072 14.7327 4.09741 15.096L5.78741 14.706C5.78651 14.7011 5.78562 14.6962 5.78474 14.6913Z" fill="url(#paint4_linear_15_5536)"/>
<path d="M6.18005 15.5933C5.99072 15.3866 5.85739 15.0893 5.78739 14.708L5.78472 14.694L4.09473 15.084L4.09739 15.098C4.22539 15.7713 4.47606 16.3313 4.83472 16.756L4.84406 16.7673L6.18938 15.604C6.18603 15.6004 6.18337 15.5969 6.18005 15.5933Z" fill="url(#paint5_linear_15_5536)"/>
<path d="M11.1867 10.7693C10.168 12.3359 9.5507 13.3193 9.5507 13.3193C8.19404 15.4526 7.7247 15.9306 6.97004 15.9306C6.82163 15.9345 6.67414 15.9062 6.53766 15.8478C6.40119 15.7893 6.27897 15.702 6.17938 15.5919L4.83472 16.7546L4.84405 16.7659C5.34005 17.3453 6.03871 17.6666 6.90404 17.6666C8.2127 17.6666 9.15336 17.0479 10.8267 14.1133L12.004 12.0266C11.7428 11.6002 11.4707 11.1809 11.1867 10.7693Z" fill="#0082FB"/>
<path d="M13.0014 8.29733L12.9907 8.30799C12.724 8.59466 12.4667 8.91333 12.2174 9.25199C12.4694 9.57399 12.7294 9.93465 13.0007 10.3387C13.3207 9.84332 13.6194 9.44199 13.912 9.13399L13.9227 9.12332L13.0014 8.29733Z" fill="url(#paint6_linear_15_5536)"/>
<path d="M17.9453 8.142C17.2353 7.422 16.3886 7 15.4833 7C14.5287 7 13.7253 7.52466 13.0013 8.29599L12.9907 8.30666L13.912 9.13332L13.9227 9.12199C14.3993 8.62399 14.8613 8.37533 15.3733 8.37533C15.924 8.37533 16.44 8.63533 16.8866 9.09199L16.8966 9.10266L17.956 8.15266L17.9453 8.142Z" fill="#0082FB"/>
<path d="M19.9986 13.75C19.9586 11.4387 19.152 9.37266 17.956 8.15267L17.9453 8.142L16.8867 9.09133L16.8967 9.10199C17.7967 10.03 18.4147 11.7553 18.4707 13.7493V13.7646H19.9986V13.75Z" fill="url(#paint7_linear_15_5536)"/>
<path d="M19.9987 13.7666V13.7513H18.4707V13.766C18.4733 13.8593 18.4747 13.954 18.4747 14.0486C18.4747 14.592 18.394 15.0313 18.2293 15.3486L18.222 15.3633L19.3607 16.5513L19.3693 16.538C19.7827 15.898 20 15.0093 20 13.9313C20 13.876 20 13.8213 19.9987 13.7666Z" fill="url(#paint8_linear_15_5536)"/>
<path d="M18.2294 15.3466L18.222 15.36C18.0794 15.628 17.876 15.8066 17.6107 15.8846L18.1294 17.5259C18.2293 17.4922 18.3269 17.4516 18.4213 17.4046C18.7905 17.218 19.1045 16.9381 19.332 16.5926L19.3613 16.5493L19.3693 16.5359L18.2294 15.3466Z" fill="url(#paint9_linear_15_5536)"/>
<path d="M17.28 15.9286C17.1053 15.9286 16.952 15.9026 16.8013 15.8353L16.2693 17.5166C16.5686 17.6186 16.8873 17.6646 17.2426 17.6646C17.5706 17.6646 17.8713 17.616 18.144 17.5213L17.624 15.88C17.5126 15.9133 17.3973 15.93 17.28 15.9286Z" fill="url(#paint10_linear_15_5536)"/>
<path d="M16.2154 15.356L16.206 15.3446L14.982 16.6206L14.9927 16.632C15.4174 17.0866 15.8234 17.3686 16.284 17.5233L16.8154 15.8433C16.6214 15.76 16.4334 15.608 16.2154 15.356Z" fill="url(#paint11_linear_15_5536)"/>
<path d="M16.206 15.3433C15.8393 14.9153 15.3847 14.202 14.6707 13.05L13.74 11.4926L13.7327 11.4793L12.6527 13.1046L12.6607 13.118L13.32 14.23C13.9593 15.3033 14.48 16.0793 14.982 16.62L14.9927 16.6306L16.2153 15.3546C16.2122 15.3509 16.2091 15.3471 16.206 15.3433Z" fill="url(#paint12_linear_15_5536)"/>
<defs>
<linearGradient id="paint0_linear_15_5536" x1="12.4923" y1="12.4578" x2="9.2806" y2="8.23568" gradientUnits="userSpaceOnUse">
<stop offset="0.0006" stop-color="#0867DF"/>
<stop offset="0.4539" stop-color="#0668E1"/>
<stop offset="0.8591" stop-color="#0064E0"/>
</linearGradient>
<linearGradient id="paint1_linear_15_5536" x1="6.04595" y1="9.23473" x2="8.3376" y2="7.49056" gradientUnits="userSpaceOnUse">
<stop offset="0.1323" stop-color="#0064DF"/>
<stop offset="0.9988" stop-color="#0064E0"/>
</linearGradient>
<linearGradient id="paint2_linear_15_5536" x1="5.201" y1="12.1532" x2="6.13526" y2="9.79421" gradientUnits="userSpaceOnUse">
<stop offset="0.0147" stop-color="#0072EC"/>
<stop offset="0.6881" stop-color="#0064DF"/>
</linearGradient>
<linearGradient id="paint3_linear_15_5536" x1="4.8805" y1="13.9516" x2="4.99447" y2="12.4323" gradientUnits="userSpaceOnUse">
<stop offset="0.0731" stop-color="#007CF6"/>
<stop offset="0.9943" stop-color="#0072EC"/>
</linearGradient>
<linearGradient id="paint4_linear_15_5536" x1="4.93222" y1="14.6301" x2="4.89947" y2="14.3856" gradientUnits="userSpaceOnUse">
<stop offset="0.0731" stop-color="#007FF9"/>
<stop offset="1" stop-color="#007CF6"/>
</linearGradient>
<linearGradient id="paint5_linear_15_5536" x1="4.88418" y1="14.9532" x2="5.38416" y2="16.0171" gradientUnits="userSpaceOnUse">
<stop offset="0.0731" stop-color="#007FF9"/>
<stop offset="1" stop-color="#0082FB"/>
</linearGradient>
<linearGradient id="paint6_linear_15_5536" x1="12.811" y1="9.70276" x2="13.4139" y2="8.8664" gradientUnits="userSpaceOnUse">
<stop offset="0.2799" stop-color="#007FF8"/>
<stop offset="0.9141" stop-color="#0082FB"/>
</linearGradient>
<linearGradient id="paint7_linear_15_5536" x1="18.2485" y1="8.49257" x2="19.5878" y2="13.4349" gradientUnits="userSpaceOnUse">
<stop stop-color="#0082FB"/>
<stop offset="0.9995" stop-color="#0081FA"/>
</linearGradient>
<linearGradient id="paint8_linear_15_5536" x1="19.2898" y1="13.8818" x2="18.5041" y2="15.4748" gradientUnits="userSpaceOnUse">
<stop offset="0.0619" stop-color="#0081FA"/>
<stop offset="1" stop-color="#0080F9"/>
</linearGradient>
<linearGradient id="paint9_linear_15_5536" x1="18.1432" y1="16.6394" x2="18.7772" y2="16.2062" gradientUnits="userSpaceOnUse">
<stop stop-color="#027AF3"/>
<stop offset="1" stop-color="#0080F9"/>
</linearGradient>
<linearGradient id="paint10_linear_15_5536" x1="16.6524" y1="16.75" x2="17.8086" y2="16.75" gradientUnits="userSpaceOnUse">
<stop stop-color="#0377EF"/>
<stop offset="0.9994" stop-color="#0279F1"/>
</linearGradient>
<linearGradient id="paint11_linear_15_5536" x1="15.7209" y1="16.1137" x2="16.3719" y2="16.498" gradientUnits="userSpaceOnUse">
<stop offset="0.0019" stop-color="#0471E9"/>
<stop offset="1" stop-color="#0377EF"/>
</linearGradient>
<linearGradient id="paint12_linear_15_5536" x1="13.8018" y1="12.4951" x2="15.9283" y2="15.1769" gradientUnits="userSpaceOnUse">
<stop offset="0.2765" stop-color="#0867DF"/>
<stop offset="1" stop-color="#0471E9"/>
</linearGradient>
</defs>
</svg>
