<svg width="24" height="24" viewBox="0 0 24 24" fill="none" xmlns="http://www.w3.org/2000/svg">
<path fill-rule="evenodd" clip-rule="evenodd" d="M4.63866 15.2599C4.71767 15.2598 4.79364 15.2943 4.85068 15.3563C4.90771 15.4182 4.94139 15.5028 4.94466 15.5922V17.6533C4.93953 17.7413 4.90506 17.8238 4.84824 17.8841C4.79142 17.9443 4.7165 17.9779 4.63866 17.9779C4.56083 17.9779 4.48591 17.9443 4.42909 17.8841C4.37226 17.8238 4.33779 17.7413 4.33266 17.6533V15.5922C4.33594 15.5028 4.36961 15.4182 4.42665 15.3563C4.48368 15.2943 4.55965 15.2598 4.63866 15.2599ZM7.84798 13.7229C7.89254 13.7125 7.93859 13.7134 7.9828 13.7257C8.027 13.7379 8.06824 13.7611 8.10354 13.7937C8.13883 13.8262 8.16729 13.8672 8.18686 13.9138C8.20642 13.9603 8.21659 14.0112 8.21664 14.0628V17.6533C8.21664 17.7453 8.1844 17.8335 8.12702 17.8985C8.06963 17.9635 7.9918 18 7.91064 18C7.82949 18 7.75166 17.9635 7.69427 17.8985C7.63689 17.8335 7.60465 17.7453 7.60465 17.6533V14.9155L6.49332 16.216C6.46541 16.2494 6.43195 16.2763 6.39486 16.2949C6.35777 16.3136 6.31779 16.3238 6.27721 16.325C6.23663 16.3261 6.19625 16.3181 6.1584 16.3015C6.12055 16.2849 6.08597 16.2599 6.05666 16.2281C6.04019 16.2094 6.02565 16.1886 6.01332 16.1662L4.41866 14.3037C4.36871 14.2366 4.34311 14.1504 4.34704 14.0627C4.35096 13.975 4.38412 13.8923 4.43981 13.8312C4.4955 13.7701 4.56957 13.7353 4.64707 13.7337C4.72457 13.7321 4.79971 13.7639 4.85733 13.8226L6.27332 15.4744L7.69131 13.8218C7.73375 13.7722 7.7883 13.738 7.84798 13.7237V13.7229ZM9.22664 13.7259C9.30604 13.7263 9.38222 13.7615 9.43917 13.8242C9.49611 13.8868 9.52938 13.9721 9.53197 14.062V17.6533C9.53162 17.745 9.49934 17.8327 9.44215 17.8975C9.38497 17.9623 9.30751 17.9988 9.22664 17.9992C9.14571 17.999 9.06815 17.9625 9.01093 17.8977C8.95371 17.8329 8.92148 17.745 8.92131 17.6533V14.062C8.92373 13.972 8.95694 13.8867 9.01393 13.8239C9.07091 13.7612 9.14719 13.7261 9.22664 13.7259ZM10.542 15.247C10.623 15.247 10.7007 15.2833 10.7581 15.348C10.8156 15.4127 10.8481 15.5004 10.8486 15.5922V17.6533C10.8483 17.7218 10.8301 17.7886 10.7964 17.8454C10.7627 17.9021 10.7149 17.9464 10.6591 17.9725C10.6033 17.9986 10.5419 18.0055 10.4826 17.9923C10.4233 17.979 10.3688 17.9462 10.326 17.898C10.2688 17.833 10.2367 17.7451 10.2366 17.6533V15.5922C10.237 15.5006 10.2693 15.4128 10.3264 15.348C10.3836 15.2832 10.4611 15.2474 10.542 15.247ZM10.5433 13.7025C10.585 13.7043 10.6259 13.7158 10.6635 13.7362C10.7011 13.7565 10.7346 13.7854 10.762 13.8211L12.18 15.4751L13.5966 13.8211C13.6391 13.7728 13.6933 13.7397 13.7523 13.7261C13.8113 13.7125 13.8725 13.719 13.9283 13.7446C13.9841 13.7702 14.032 13.814 14.066 13.8703C14.0999 13.9266 14.1185 13.993 14.1193 14.0613V17.6533C14.1189 17.7446 14.0869 17.832 14.0302 17.8967C13.9734 17.9614 13.8965 17.9983 13.8159 17.9992C13.7351 17.9988 13.6576 17.9623 13.6004 17.8975C13.5432 17.8327 13.511 17.745 13.5106 17.6533V14.9155L12.3993 16.2168C12.3425 16.2826 12.265 16.3203 12.1837 16.3214C12.1025 16.3225 12.0242 16.2871 11.966 16.2228L11.9626 16.2191C11.9626 16.2176 11.9613 16.2176 11.96 16.2168L10.3233 14.3029C10.2928 14.2709 10.2684 14.2322 10.2515 14.1891C10.2346 14.146 10.2257 14.0995 10.2252 14.0524C10.2247 14.0052 10.2326 13.9585 10.2486 13.915C10.2645 13.8714 10.2881 13.832 10.318 13.7992C10.3478 13.7667 10.3832 13.7414 10.4219 13.7248C10.4606 13.7082 10.5019 13.7006 10.5433 13.7025ZM15.0746 14.6134C15.1317 14.596 15.1921 14.5978 15.2484 14.6184C15.3046 14.639 15.3544 14.6776 15.3918 14.7296C15.4291 14.7816 15.4524 14.8447 15.4588 14.9113C15.4652 14.9779 15.4545 15.0452 15.4279 15.105C15.2918 15.3867 15.2399 15.7107 15.2801 16.0285C15.3202 16.3464 15.4502 16.6409 15.6506 16.868C15.8509 17.095 16.1109 17.2424 16.3914 17.288C16.6719 17.3336 16.958 17.275 17.2066 17.1209C17.2777 17.0772 17.3611 17.067 17.4388 17.0924C17.5166 17.1179 17.5823 17.1769 17.6219 17.2568C17.661 17.3375 17.6702 17.4324 17.6476 17.5207C17.625 17.6091 17.5723 17.6837 17.5013 17.7281C17.2193 17.9034 16.9029 17.9951 16.5813 17.9947L16.4866 17.9917C16.1608 17.9748 15.8442 17.8642 15.5667 17.6703C15.2891 17.4765 15.0597 17.2057 14.9001 16.8835C14.7404 16.5614 14.6559 16.1985 14.6543 15.829C14.6528 15.4596 14.7343 15.0958 14.8913 14.772C14.9317 14.6943 14.9979 14.6374 15.0746 14.6134ZM15.6506 13.9102C16.0153 13.684 16.4348 13.5978 16.8463 13.6646C17.2579 13.7313 17.6392 13.9474 17.9332 14.2804C18.2272 14.6134 18.4181 15.0454 18.4771 15.5116C18.5361 15.9778 18.4601 16.4532 18.2606 16.8663C18.2343 16.921 18.1956 16.9666 18.1485 16.9985C18.1013 17.0304 18.0475 17.0473 17.9926 17.0476L17.9546 17.0446C17.9161 17.0387 17.879 17.0246 17.8453 17.003C17.7744 16.9587 17.7219 16.8845 17.6992 16.7965C17.6764 16.7085 17.6853 16.6139 17.7239 16.5333C17.8599 16.2515 17.9117 15.9275 17.8715 15.6096C17.8313 15.2917 17.7013 14.9971 17.5009 14.77C17.3005 14.5429 17.0405 14.3955 16.76 14.3498C16.4794 14.3041 16.1933 14.3627 15.9446 14.5167C15.9093 14.5421 15.8698 14.559 15.8285 14.5665C15.7871 14.5739 15.7449 14.5717 15.7044 14.5599C15.6639 14.5481 15.6259 14.527 15.5929 14.498C15.5598 14.4689 15.5324 14.4325 15.5123 14.391C15.4921 14.3494 15.4797 14.3037 15.4758 14.2565C15.4719 14.2093 15.4766 14.1617 15.4895 14.1167C15.5025 14.0716 15.5235 14.03 15.5512 13.9945C15.5789 13.959 15.6127 13.9303 15.6506 13.9102ZM10.3933 8.03343C11.3806 8.03343 11.524 8.94127 11.524 9.28265V11.2826H10.9126V10.9563C10.7393 11.2177 10.3846 11.3604 10.006 11.3604C9.9173 11.3604 9.14664 11.3377 9.0833 10.5024C9.02864 9.7985 9.5333 9.28643 10.452 9.28643H10.9126C10.9126 8.86121 10.668 8.61726 10.2573 8.61726C9.96397 8.62707 9.6813 8.74867 9.4573 8.96317L9.2173 8.46167C9.53997 8.17542 9.89197 8.03343 10.3933 8.03343ZM13.3446 8.10896C14.1866 8.10896 14.7326 8.84157 14.7333 9.73279C14.7333 10.6248 14.1839 11.3596 13.3446 11.3596C12.5046 11.3596 11.9553 10.6255 11.9553 9.7343C11.9553 8.84308 12.502 8.10896 13.3446 8.10896ZM17.8786 8.12029C18.3319 8.12029 18.6799 8.47149 18.6766 9.28945V11.2849H18.0666V9.48506C18.0666 9.24942 18.0653 8.7449 17.6466 8.7449C17.2279 8.7449 17.2279 9.24866 17.2279 9.37781V11.2841H16.6346V9.37781C16.6346 9.24942 16.6339 8.7449 16.2146 8.7449C15.7959 8.7449 15.7959 9.24942 15.7959 9.48506V11.2849H15.1846V8.24113H15.7959V8.51076C15.8678 8.39533 15.9621 8.30015 16.0715 8.23258C16.181 8.16501 16.3027 8.12684 16.4273 8.12104C16.6926 8.12104 16.9339 8.26681 17.0819 8.63916C17.1598 8.47811 17.2753 8.34452 17.4159 8.2531C17.5565 8.16169 17.7166 8.11599 17.8786 8.12104V8.12029ZM5.81666 8.77888L6.78798 7.44054H7.54665L6.20732 9.3189L7.63398 11.2841H6.82665L5.81666 9.86723L4.80666 11.2841H4L5.42533 9.3189L4.08667 7.44054H4.84533L5.81732 8.77888H5.81666ZM8.58264 11.2841H7.97198V8.24189H8.58264V11.2841ZM19.9092 11.2841H19.2986V8.24189H19.9092V11.2841ZM10.6166 9.80228C9.9133 9.80228 9.71063 10.1134 9.73263 10.3627C9.75397 10.6112 9.94863 10.7683 10.2373 10.7683C10.4114 10.7687 10.579 10.6928 10.705 10.5566C10.8309 10.4204 10.9056 10.2343 10.9133 10.0372L10.9146 9.80303H10.6166V9.80228ZM13.3453 8.73734C12.9033 8.73734 12.556 9.10516 12.556 9.7343C12.556 10.3627 12.9026 10.7313 13.3453 10.7313C13.7866 10.7313 14.1333 10.3612 14.1333 9.7343C14.1333 9.10592 13.7866 8.73734 13.3453 8.73734ZM8.27798 7.00097C8.32955 6.999 8.38094 7.00899 8.42899 7.03033C8.47704 7.05168 8.52072 7.08392 8.55737 7.12508C8.59402 7.16625 8.62285 7.21547 8.6421 7.26971C8.66135 7.32396 8.67061 7.38209 8.66931 7.44054C8.66514 7.55506 8.62205 7.66331 8.54905 7.74267C8.47606 7.82202 8.37881 7.86633 8.27764 7.86633C8.17648 7.86633 8.07923 7.82202 8.00623 7.74267C7.93324 7.66331 7.89015 7.55506 7.88598 7.44054C7.88477 7.38202 7.89411 7.32384 7.91343 7.26955C7.93275 7.21526 7.96163 7.16601 7.99832 7.1248C8.03501 7.08358 8.07874 7.05128 8.12682 7.02986C8.1749 7.00844 8.22634 6.99911 8.27798 7.00097ZM19.6052 7.00097C19.657 6.99869 19.7087 7.00844 19.7571 7.02963C19.8054 7.05081 19.8494 7.08298 19.8864 7.12416C19.9234 7.16533 19.9525 7.21464 19.972 7.26905C19.9916 7.32346 20.001 7.38182 19.9999 7.44054C19.9941 7.55365 19.9503 7.65996 19.8776 7.7377C19.8048 7.81545 19.7086 7.85875 19.6086 7.85875C19.5086 7.85875 19.4123 7.81545 19.3396 7.7377C19.2668 7.65996 19.2231 7.55365 19.2172 7.44054C19.2155 7.35298 19.2373 7.26688 19.2798 7.19374C19.3223 7.1206 19.3835 7.06389 19.4552 7.03118C19.5029 7.00979 19.554 6.99951 19.6052 7.00097Z" fill="black"/>
</svg>
