<svg width="24" height="24" viewBox="0 0 24 24" fill="none" xmlns="http://www.w3.org/2000/svg">
<path d="M6.28534 6H8.57134V8.28534H6.28534V6ZM15.428 6H17.7147V8.28534H15.428V6Z" fill="#FFD700"/>
<path d="M6.28534 8.28534H10.8567V10.5713H6.28601L6.28534 8.28534ZM13.1427 8.28534H17.714V10.5713H13.1427V8.28534Z" fill="#FFAF00"/>
<path d="M6.28534 10.572H17.7147V12.8573H6.28534V10.572Z" fill="#FF8205"/>
<path d="M6.28534 12.8573H8.57134V15.1427H6.28534V12.8573ZM10.8573 12.8573H13.1433V15.1427H10.8573V12.8573ZM15.428 12.8573H17.7147V15.1427H15.428V12.8573Z" fill="#FA500F"/>
<path d="M4 15.1427H10.8573V17.4287H4V15.1427ZM13.1427 15.1427H20V17.4287H13.1427V15.1427Z" fill="#E10500"/>
</svg>
