<svg width="24" height="24" viewBox="0 0 24 24" fill="none" xmlns="http://www.w3.org/2000/svg">
<path d="M4.00076 17.9604C4.00076 17.5429 4.33902 17.2046 4.75575 17.2046H5.32257C5.52291 17.2046 5.71504 17.2842 5.8567 17.4259C5.99836 17.5675 6.07794 17.7597 6.07794 17.96C6.07794 18.1603 5.99836 18.3525 5.8567 18.4941C5.71504 18.6358 5.52291 18.7154 5.32257 18.7154H4.75499C4.55476 18.7154 4.36272 18.6358 4.22113 18.4942C4.07954 18.3526 4 18.1606 4 17.9604H4.00076Z" fill="#F3AD61"/>
<path d="M14.1615 13.1425H19.5524C19.95 13.1425 20.1497 12.6419 19.867 12.3471L18.6221 11.0489C18.3954 10.808 18.1218 10.616 17.8181 10.4848C17.5144 10.3535 17.187 10.2858 16.8562 10.2858C16.5253 10.2858 16.198 10.3535 15.8943 10.4848C15.5906 10.616 15.317 10.808 15.0902 11.0489L13.8461 12.3471C13.5642 12.6404 13.7646 13.1425 14.1615 13.1425ZM5.59073 13.1425H10.9816C11.3785 13.1425 11.5789 12.6404 11.297 12.3471L10.0514 11.0489C9.82462 10.808 9.55098 10.616 9.24728 10.4848C8.94358 10.3535 8.61623 10.2858 8.28539 10.2858C7.95455 10.2858 7.6272 10.3535 7.3235 10.4848C7.0198 10.616 6.74616 10.808 6.51943 11.0489L5.27533 12.3471C4.99344 12.6404 5.19381 13.1425 5.59073 13.1425Z" fill="#F9C23C"/>
<path d="M12.4001 4.01631C15.2114 3.61253 16.9484 10.8143 15.6829 13.7253C14.4168 16.6355 11.6848 17.2732 8.78594 18.4122C8.47567 18.5347 8.14512 18.5978 7.81153 18.5981C6.71219 18.5981 6.1149 19.5024 5.69817 18.3832C5.15954 16.9357 5.86577 15.3122 7.27443 14.7591C8.80879 14.1573 9.62397 13.0008 10.238 11.4344C10.8627 9.83758 10.9062 9.18239 10.9031 7.44157C10.9008 6.04968 10.8094 4.24562 12.4001 4.01631Z" fill="#FEEFC2"/>
<path d="M15.683 13.7245L10.2777 11.2432C9.65676 12.6701 8.53303 13.7634 7.11142 14.3233C5.46583 14.9694 4.36496 16.7391 5.26623 18.5439C7.06724 22.1452 15.683 18.5059 15.683 13.7253V13.7245Z" fill="#FCD53F"/>
<path fill-rule="evenodd" clip-rule="evenodd" d="M13.28 12.2755C13.5055 12.3471 13.6305 12.5878 13.5581 12.8141C12.426 16.3567 9.12567 17.9931 6.17656 18.1447C6.12033 18.1476 6.06409 18.1393 6.01105 18.1205C5.95802 18.1016 5.90922 18.0724 5.86744 18.0347C5.78308 17.9585 5.73244 17.8519 5.72669 17.7383C5.72383 17.6821 5.73209 17.6258 5.75097 17.5728C5.76985 17.5198 5.79899 17.471 5.83674 17.4292C5.91296 17.3448 6.01958 17.2942 6.13313 17.2884C8.83998 17.1498 11.7495 15.6596 12.7414 12.5528C12.7585 12.4992 12.7861 12.4495 12.8224 12.4066C12.8588 12.3636 12.9032 12.3282 12.9532 12.3025C13.0033 12.2767 13.0579 12.2611 13.1139 12.2565C13.17 12.2518 13.2265 12.2583 13.28 12.2755Z" fill="#F9C23C"/>
<path d="M16.137 17.9802L10.3104 11.2493H15.4551C16.6703 11.3102 17.6233 12.341 17.6233 13.5904V17.9055C17.6233 18.6651 16.9384 18.8975 16.137 17.9802Z" fill="#FFF478"/>
</svg>
