<svg width="24" height="24" viewBox="0 0 24 24" fill="none" xmlns="http://www.w3.org/2000/svg">
<path fill-rule="evenodd" clip-rule="evenodd" d="M7.29358 12.5566C7.37825 12.5306 7.48358 12.5699 7.54225 12.6519C7.56092 12.6772 7.56625 12.7132 7.57292 12.7452C7.57492 12.7546 7.55958 12.7672 7.54625 12.7786C7.46358 12.7132 7.38625 12.6492 7.31025 12.5846C7.30291 12.5779 7.29958 12.5666 7.29358 12.5566ZM8.93227 10.2745C9.06227 10.2532 9.19228 10.2345 9.32428 10.2412C9.35781 10.2424 9.39102 10.2482 9.42295 10.2585C9.55761 10.3059 9.69095 10.3565 9.82362 10.4079C9.84228 10.4145 9.85695 10.4319 9.87362 10.4445L9.86495 10.4625C9.80688 10.4436 9.7491 10.4239 9.69162 10.4032C9.61495 10.3779 9.54961 10.3519 9.48161 10.3379C9.31494 10.3045 9.31494 10.3072 9.28694 10.3285L9.66962 10.4245C9.85295 10.5172 10.0363 10.6085 10.2183 10.7026C10.2463 10.7172 10.2783 10.7406 10.2896 10.7679C10.307 10.8079 10.3316 10.8186 10.3676 10.8159C10.4116 10.8119 10.4556 10.8046 10.5096 10.7979L10.483 10.8552C10.517 10.9086 10.5776 10.8686 10.627 10.8979C10.5776 10.9846 10.4623 10.9579 10.4043 11.0306L10.445 11.0799L10.365 11.1379C10.365 11.2086 10.3396 11.2499 10.161 11.2999L10.1783 11.3566L10.0476 11.3846L10.0943 11.4672H9.92762L9.92295 11.5586C9.86895 11.5519 9.81562 11.5466 9.76028 11.5406L9.72495 11.6226C9.70695 11.6172 9.69028 11.6152 9.67628 11.6072C9.63162 11.5819 9.59095 11.5699 9.54628 11.6112C9.53361 11.6226 9.50428 11.6206 9.48428 11.6166C9.46695 11.6126 9.45095 11.5972 9.43761 11.5886C9.36428 11.6519 9.36428 11.6519 9.29894 11.5906C9.26094 11.6212 9.21894 11.6399 9.17494 11.5979C9.13294 11.6159 9.09294 11.5846 9.05627 11.5886C9.00961 11.5932 8.99161 11.5652 8.9676 11.5419L8.88094 11.5639C8.87227 11.4066 8.7516 11.4372 8.65427 11.4286C8.6576 11.3806 8.6876 11.3672 8.7176 11.3659C8.75351 11.3647 8.78936 11.3697 8.8236 11.3806C8.93294 11.4139 9.03694 11.4606 9.15427 11.4726C9.28961 11.4866 9.42428 11.4919 9.55495 11.4626C9.73162 11.4232 9.90162 11.3632 10.0263 11.2192C10.059 11.1819 10.0816 11.1346 10.1043 11.0892C10.117 11.0639 10.1176 11.0332 10.091 11.0119C10.0142 10.9505 9.92827 10.9017 9.83628 10.8672C9.85228 10.9472 9.81562 10.9886 9.75962 11.0146C9.75962 11.0239 9.75695 11.0312 9.75962 11.0346C9.81295 11.1112 9.81562 11.1412 9.75495 11.2126C9.71178 11.2646 9.66305 11.3118 9.60961 11.3532C9.54705 11.402 9.46854 11.4255 9.38948 11.4194C9.31043 11.4132 9.23652 11.3777 9.18227 11.3199C9.15025 11.2884 9.12061 11.2545 9.09361 11.2186C9.04161 11.1472 9.04294 11.1466 9.07161 11.0612C8.9616 11.0079 8.98627 10.9106 9.00227 10.8186C9.00761 10.7852 9.02094 10.7546 9.03494 10.7099C9.00827 10.7192 8.99027 10.7212 8.97694 10.7312C8.88653 10.7901 8.81374 10.8723 8.76627 10.9692C8.7616 10.9799 8.7596 10.9919 8.75293 11.0006C8.74493 11.0106 8.73027 11.0259 8.72293 11.0239C8.7096 11.0199 8.69827 11.0059 8.6896 10.9939C8.68427 10.9859 8.68493 10.9726 8.6816 10.9559H8.5976L8.63293 10.8412C8.62429 10.8303 8.61562 10.8194 8.60693 10.8086L8.68027 10.6192C8.64027 10.6365 8.6196 10.6485 8.5976 10.6532C8.5776 10.6579 8.55493 10.6532 8.53426 10.6532C8.53426 10.6325 8.5276 10.6065 8.53693 10.5919C8.63627 10.4452 8.74027 10.3065 8.93227 10.2745Z" fill="black"/>
<path fill-rule="evenodd" clip-rule="evenodd" d="M8.70824 11.1919C8.70624 11.1665 8.70557 11.1419 8.73291 11.1505C8.74358 11.1545 8.75558 11.1825 8.75158 11.1952C8.74491 11.2219 8.72558 11.2165 8.70824 11.1919Z" fill="black"/>
<path fill-rule="evenodd" clip-rule="evenodd" d="M11.3223 4.00575C11.473 3.99775 11.6243 3.99842 11.775 4.00575C11.9396 4.01242 12.105 4.02175 12.2683 4.04709C12.5356 4.08975 12.8003 4.15176 13.0617 4.22909C13.3703 4.32109 13.675 4.42843 13.9657 4.56976C14.7703 4.96494 15.4504 5.57441 15.931 6.33112C16.1257 6.64379 16.2884 6.97313 16.4237 7.31714C16.5697 7.68781 16.721 8.05715 16.839 8.43915C16.9751 8.87516 17.0584 9.32317 17.1444 9.77051C17.2091 10.1065 17.2657 10.4439 17.3377 10.7779C17.4417 11.2592 17.5571 11.7379 17.6671 12.2179C17.7911 12.7592 17.9337 13.2946 18.0871 13.8279C18.1551 14.0646 18.2157 14.3032 18.2751 14.5426C18.3484 14.8333 18.4097 15.1266 18.4444 15.4246C18.4651 15.6099 18.4884 15.7959 18.4931 15.9826C18.5007 16.1782 18.4969 16.3741 18.4817 16.5693C18.4571 16.8446 18.4151 17.1146 18.3311 17.3773C18.1991 17.779 17.9921 18.152 17.7211 18.4766L17.6344 18.5806L17.6464 18.596C17.6751 18.5806 17.7051 18.5686 17.7311 18.5506C17.8644 18.4586 17.9797 18.346 18.0851 18.224C18.3517 17.9173 18.5657 17.5753 18.7351 17.2046C18.9008 16.8461 18.9752 16.4522 18.9517 16.0579C18.9357 15.7753 18.8871 15.5019 18.7517 15.2493C18.7431 15.2313 18.7417 15.2093 18.7317 15.1686C18.7651 15.1919 18.7864 15.2006 18.7991 15.2166C18.8704 15.3033 18.9457 15.3886 19.0091 15.4819C19.2291 15.8113 19.3158 16.1833 19.3331 16.5753C19.3511 17.0335 19.2427 17.4879 19.0197 17.8886C18.7797 18.3253 18.4284 18.6486 18.0024 18.8926C17.8737 18.9667 17.7397 19.0327 17.6057 19.098C17.5011 19.15 17.4404 19.2387 17.3937 19.3413C17.3721 19.3827 17.359 19.4279 17.3552 19.4744C17.3515 19.5209 17.3571 19.5677 17.3717 19.612C17.3806 19.642 17.3836 19.6735 17.3804 19.7047C17.3771 19.756 17.3291 19.808 17.2871 19.8127C17.2511 19.8167 17.2037 19.784 17.1871 19.7353C17.1686 19.685 17.1552 19.633 17.1471 19.58C17.1204 19.3707 17.0437 19.18 16.9417 19C16.8108 18.7745 16.6467 18.57 16.455 18.3933C16.2876 18.2293 16.0822 18.1093 15.857 18.044C15.706 18.0017 15.5517 17.9724 15.3957 17.9566C15.3457 17.9513 15.2957 17.93 15.249 17.9633C15.369 18.0033 15.491 18.0366 15.6077 18.0833C15.897 18.1986 16.1544 18.37 16.3944 18.5686C16.5997 18.7386 16.781 18.9306 16.9237 19.158C16.9891 19.2613 17.0477 19.368 17.0751 19.4887C17.0931 19.5707 17.1031 19.6553 17.1197 19.7387C17.1284 19.78 17.1184 19.8113 17.0844 19.8347C17.0531 19.8567 17.0031 19.8573 16.9757 19.828C16.9525 19.8003 16.9345 19.7687 16.9224 19.7347C16.9024 19.686 16.897 19.6287 16.8704 19.5847C16.6116 19.1694 16.2918 18.7954 15.9217 18.4753C15.815 18.384 15.7024 18.302 15.5637 18.26C15.313 18.184 15.0617 18.1246 14.797 18.1573C14.655 18.174 14.5123 18.1786 14.3703 18.1926C14.1939 18.2126 14.0253 18.2763 13.8797 18.378C13.6777 18.5176 13.4913 18.6785 13.3237 18.858C13.1043 19.086 12.8957 19.324 12.687 19.5613C12.5963 19.6647 12.511 19.774 12.4776 19.9153C12.4749 19.9267 12.4723 19.938 12.4696 19.9493C12.4667 19.9632 12.4592 19.9758 12.4483 19.985C12.4375 19.9941 12.4239 19.9994 12.4096 20H12.203C12.1723 20 12.1483 19.968 12.155 19.9373C12.1703 19.8653 12.185 19.7933 12.2016 19.7213C12.2516 19.5047 12.3283 19.298 12.447 19.11C12.463 19.084 12.4736 19.0513 12.5163 19.0567L12.523 19.0893L12.541 19.1407C12.7277 18.8506 12.9217 18.5846 13.205 18.384C13.3937 18.248 13.5943 18.132 13.7983 18.0173C13.777 18.0113 13.7545 18.0109 13.733 18.016C13.625 18.0446 13.5163 18.072 13.4097 18.1053C13.1417 18.188 12.9003 18.3253 12.6697 18.4826C12.5716 18.5493 12.471 18.6113 12.3936 18.7046C12.1013 19.0616 11.8612 19.4582 11.6803 19.8827C11.6694 19.9086 11.6605 19.9354 11.6536 19.9627C11.6509 19.9733 11.6446 19.9827 11.636 19.9895C11.6273 19.9962 11.6166 19.9999 11.6056 20H11.2763C11.2496 20 11.235 19.966 11.2523 19.9453C11.3343 19.852 11.4163 19.7573 11.5036 19.6687C11.687 19.4813 11.8903 19.314 12.0216 19.0793C12.0396 19.0473 12.0636 19.0193 12.085 18.9893C12.2436 18.7673 12.445 18.5846 12.6303 18.388C12.685 18.3306 12.747 18.2813 12.8037 18.228C12.823 18.21 12.839 18.19 12.8563 18.1713L12.8443 18.1546L12.7543 18.182C12.7317 18.1933 12.7077 18.2026 12.6863 18.2153C12.521 18.3113 12.357 18.41 12.191 18.504C11.919 18.6573 11.641 18.7966 11.385 18.978C11.1976 19.1113 10.991 19.2167 10.7923 19.3333C10.779 19.3413 10.763 19.3433 10.739 19.352C10.729 19.262 10.8343 19.218 10.811 19.128C10.789 19.1373 10.7683 19.1413 10.7543 19.1533C10.6803 19.2173 10.603 19.28 10.5356 19.3507C10.4369 19.4553 10.3463 19.5673 10.2523 19.676C10.1689 19.7713 10.0856 19.8667 10.0036 19.9633C9.99437 19.9744 9.98287 19.9834 9.96988 19.9898C9.95689 19.9961 9.94271 19.9996 9.92828 20H9.17626C9.18048 19.9909 9.18404 19.9816 9.18693 19.972C9.2056 19.912 9.2436 19.8573 9.24227 19.7853C9.1816 19.7733 9.13426 19.786 9.10093 19.8367C9.06935 19.8836 9.03911 19.9314 9.01026 19.98C9.00359 19.9907 8.99426 20 8.98226 20H8.92026C8.90759 20 8.90093 19.9853 8.90893 19.9753C8.95626 19.9167 9.00226 19.8567 9.04826 19.7967C9.04893 19.7953 9.04426 19.7887 9.04026 19.7807C9.03093 19.7833 9.02026 19.7847 9.01026 19.7893C8.89293 19.8493 8.77559 19.91 8.65892 19.972C8.62439 19.9902 8.58597 19.9998 8.54692 20H6.80289C6.78556 20 6.77689 19.976 6.79023 19.9647C6.93023 19.846 7.05823 19.7153 7.16223 19.5613C7.38557 19.2307 7.52091 18.8633 7.60691 18.4753C7.60957 18.462 7.60491 18.4466 7.60291 18.4146C7.57824 18.4466 7.56357 18.4626 7.55224 18.4813C7.49107 18.5833 7.41614 18.6764 7.32957 18.758C7.1429 18.93 6.93623 19.0567 6.67423 19.0673C6.47622 19.0753 6.28222 19.0673 6.09755 18.9827C5.79088 18.8426 5.61621 18.6026 5.56821 18.268C5.55154 18.1546 5.55688 18.154 5.44687 18.122C5.15829 18.0445 4.88719 17.9126 4.64819 17.7333C4.39484 17.5441 4.20658 17.2809 4.10952 16.98C4.02521 16.7118 3.98909 16.4307 4.00285 16.1499C4.00418 16.1273 4.01352 16.1053 4.01885 16.0833C4.04019 16.0986 4.04952 16.1119 4.05219 16.1273C4.07419 16.2293 4.09152 16.3326 4.11619 16.4339C4.17352 16.6706 4.28752 16.8766 4.46019 17.0473C4.63219 17.218 4.84086 17.3266 5.06687 17.402C5.30554 17.4806 5.54487 17.494 5.78021 17.3913C5.93738 17.3202 6.0783 17.2177 6.19422 17.09C6.41289 16.858 6.54956 16.5833 6.62622 16.2746C6.63222 16.2519 6.62956 16.2273 6.63089 16.2013C6.62089 16.2053 6.61356 16.2053 6.61089 16.2086C6.59022 16.2419 6.56822 16.2753 6.54889 16.3099C6.35955 16.6446 6.09622 16.9013 5.75154 17.0666C5.51754 17.18 5.27287 17.2366 5.01153 17.1726C4.75005 17.1162 4.51914 16.964 4.36419 16.7459C4.232 16.5645 4.14762 16.3526 4.11885 16.1299C4.09304 15.9335 4.09754 15.7343 4.13219 15.5393C4.16552 15.2466 4.44286 14.7593 4.62686 14.6919C4.61353 14.7339 4.60353 14.7666 4.59153 14.7986C4.56286 14.8759 4.52686 14.9499 4.50486 15.0286C4.45404 15.2062 4.44266 15.3928 4.47153 15.5753C4.49353 15.7166 4.53153 15.8526 4.60753 15.9753C4.70553 16.1326 4.8382 16.2466 5.02087 16.2853C5.0942 16.3006 5.17087 16.2946 5.2462 16.2973C5.33976 16.3005 5.43127 16.2694 5.50354 16.2099C5.61288 16.1246 5.69154 16.0153 5.74754 15.8893C5.85955 15.6393 5.90755 15.3713 5.95355 15.1033C5.98688 14.9059 6.01555 14.7073 6.04222 14.5079C6.06822 14.3206 6.08955 14.1326 6.11155 13.9446C6.12888 13.7899 6.14355 13.6352 6.16088 13.4806C6.17688 13.3286 6.19555 13.1772 6.21155 13.0252C6.22755 12.8739 6.24289 12.7219 6.25755 12.5699C6.26622 12.4765 6.27222 12.3832 6.28022 12.2899L6.30489 12.0119C6.31955 11.8452 6.33222 11.6785 6.34822 11.5132C6.35355 11.4585 6.33489 11.4252 6.28822 11.3952C6.16712 11.3171 6.05683 11.2234 5.96021 11.1165C5.89355 11.0439 5.83488 10.9645 5.77221 10.8885C5.74888 10.8605 5.73488 10.8239 5.69488 10.8099C5.73455 10.9514 5.79643 11.0857 5.87821 11.2079C5.91821 11.2692 5.96555 11.3252 6.00888 11.3845C6.05088 11.4419 6.13022 11.4612 6.16488 11.5352C6.14622 11.5372 6.13422 11.5419 6.12488 11.5392C6.0757 11.5277 6.02679 11.515 5.97821 11.5012C5.64583 11.4051 5.34802 11.2156 5.1202 10.9552C4.8302 10.6305 4.68286 10.2378 4.64686 9.80651C4.62592 9.57125 4.62905 9.33446 4.65619 9.09983C4.7042 8.69849 4.80286 8.30915 4.9562 7.93648C5.05953 7.68581 5.18154 7.44247 5.30687 7.2018C5.44354 6.9398 5.61754 6.70179 5.81688 6.48446C6.15822 6.11179 6.55289 5.80178 6.96756 5.51911C7.44557 5.19244 7.95291 4.92043 8.48559 4.6971C8.83093 4.55176 9.1796 4.42109 9.5416 4.32909C9.97828 4.21842 10.4149 4.10909 10.863 4.05242C11.0156 4.03242 11.1683 4.01375 11.3216 4.00575H11.3223ZM10.0909 19.2193C10.0443 19.2593 9.99294 19.2933 9.95294 19.3393C9.79427 19.5193 9.6436 19.7053 9.5076 19.9187L9.47827 19.9907C9.50242 19.9848 9.52412 19.9715 9.54027 19.9527C9.65627 19.826 9.77427 19.7007 9.88627 19.57C9.95561 19.4887 10.0163 19.4 10.0783 19.3127C10.0943 19.29 10.0983 19.2593 10.1089 19.2327L10.0909 19.2193ZM11.191 16.756C11.0355 16.8759 10.8899 17.0081 10.7556 17.1513L10.509 17.4086C10.4396 17.4834 10.3534 17.5405 10.2576 17.5753C10.1581 17.6133 10.0528 17.6336 9.94628 17.6353C9.91694 17.6353 9.88827 17.6393 9.84561 17.6433C9.86427 17.682 9.87427 17.708 9.88827 17.7306C9.98828 17.892 10.0889 18.052 10.1883 18.2133C10.2789 18.36 10.3723 18.5053 10.4543 18.6573C10.4996 18.7406 10.5243 18.8353 10.5583 18.9266C10.6096 18.9446 10.6516 18.9146 10.693 18.8946C10.8863 18.8046 11.079 18.712 11.271 18.62C11.413 18.5526 11.5623 18.496 11.695 18.4133C11.9263 18.27 12.1483 18.11 12.3736 17.9566C12.3836 17.95 12.391 17.938 12.4016 17.926C12.3863 17.9133 12.3763 17.9013 12.3643 17.8966C12.173 17.8226 12.013 17.6966 11.851 17.5753C11.7329 17.489 11.6202 17.3955 11.5136 17.2953C11.3914 17.1722 11.2981 17.0235 11.2403 16.86C11.2276 16.8273 11.2103 16.7966 11.1903 16.756H11.191ZM7.2929 16.932C7.2529 16.996 7.22823 17.0613 7.2049 17.1273C7.12102 17.3713 6.99587 17.599 6.83489 17.8006C6.70156 17.9673 6.53156 18.0753 6.32689 18.1293C6.17355 18.1693 6.01755 18.18 5.86021 18.176C5.82821 18.1746 5.79555 18.1773 5.75488 18.1793C5.76555 18.206 5.76888 18.2233 5.77821 18.236C5.84488 18.3326 5.93155 18.4 6.04488 18.4326C6.14955 18.4633 6.25555 18.4553 6.37689 18.448C6.49756 18.4233 6.60556 18.3713 6.70023 18.292C6.85889 18.1593 6.96823 17.9893 7.05756 17.804C7.17423 17.562 7.23357 17.3033 7.28557 17.0413C7.29224 17.006 7.2909 16.968 7.2929 16.932ZM17.2564 13.8746C17.2617 13.8939 17.2671 13.9126 17.2744 13.9459C17.2904 14.0492 17.3084 14.1526 17.3224 14.2552C17.3424 14.4012 17.3671 14.5466 17.3744 14.6933C17.3857 14.9226 17.3924 15.1526 17.3651 15.3819C17.3404 15.5919 17.3231 15.8039 17.2877 16.0126C17.2296 16.3618 17.1265 16.7019 16.9811 17.0246C16.9757 17.0366 16.9744 17.0506 16.9677 17.0793C16.9991 17.0593 17.0191 17.0513 17.0331 17.0366C17.0897 16.9813 17.1464 16.9253 17.1984 16.8666C17.3791 16.6633 17.5037 16.4266 17.5957 16.1713C17.7157 15.8393 17.7477 15.4973 17.6924 15.1506C17.6237 14.7173 17.4724 14.3086 17.2944 13.8966C17.2891 13.8843 17.2838 13.8721 17.2784 13.8599L17.2564 13.8746ZM7.19957 9.5265C7.19317 9.56094 7.19735 9.5965 7.21157 9.62851C7.29424 9.79584 7.37824 9.96251 7.46424 10.1285C7.4809 10.1612 7.50824 10.1885 7.48424 10.2372C7.2949 10.2772 7.0989 10.3165 6.89756 10.4072C6.9369 10.4325 6.96223 10.4472 6.98556 10.4652C7.01356 10.4865 7.06023 10.5039 7.04556 10.5452C7.0389 10.5672 6.99556 10.5772 6.96756 10.5932C6.9789 10.5999 6.99623 10.6072 7.01223 10.6172C7.1229 10.6852 7.23223 10.7552 7.31024 10.8625C7.40224 10.9905 7.4629 11.1319 7.43557 11.2919C7.3829 11.6045 7.23157 11.8585 6.97556 12.0465C6.93956 12.0732 6.9049 12.1019 6.86823 12.1279C6.84216 12.1455 6.82178 12.1703 6.80959 12.1993C6.79739 12.2283 6.79391 12.2603 6.79956 12.2912C6.806 12.336 6.81833 12.3797 6.83623 12.4212C6.89156 12.5519 6.9829 12.6546 7.08623 12.7492C7.14157 12.7999 7.19223 12.8586 7.23423 12.9206C7.25934 12.9571 7.27413 12.9997 7.27707 13.0439C7.28 13.0882 7.27096 13.1324 7.2509 13.1719C7.23557 13.2052 7.21757 13.2379 7.20023 13.2706C7.18023 13.3106 7.18157 13.3446 7.2149 13.3786C7.24223 13.4066 7.26823 13.4379 7.28957 13.4706C7.3149 13.5092 7.34157 13.5232 7.38757 13.5039C7.45879 13.4765 7.53741 13.475 7.60957 13.4999C7.71624 13.5306 7.81091 13.5839 7.90558 13.6399C7.99225 13.6912 8.08158 13.7392 8.17225 13.7859C8.21692 13.8092 8.26558 13.8192 8.31825 13.8032C8.36558 13.7886 8.40092 13.8099 8.41492 13.8539C8.42825 13.8966 8.41292 13.9259 8.36558 13.9466C8.31892 13.9666 8.27425 13.9886 8.22625 14.0052C8.15958 14.0286 8.09225 14.0539 8.01691 14.0566C8.00825 13.9852 8.09025 13.9979 8.10158 13.9506C7.96425 13.8666 7.67291 13.8539 7.56757 13.9279C7.60957 14.0026 7.59091 14.0679 7.50357 14.1366C7.4169 14.0699 7.4869 14.0019 7.50491 13.9366C7.48653 13.9327 7.46757 13.9326 7.44916 13.9363C7.43074 13.9399 7.41326 13.9473 7.39776 13.9579C7.38225 13.9685 7.36905 13.9821 7.35893 13.9979C7.34882 14.0137 7.34201 14.0314 7.3389 14.0499C7.3289 14.1172 7.38357 14.1939 7.45757 14.1992C7.52957 14.2039 7.60291 14.1959 7.67491 14.1912C7.71491 14.1879 7.75491 14.1732 7.80758 14.1912C7.73891 14.2732 7.64224 14.2759 7.56957 14.3179C7.57091 14.3512 7.61624 14.3752 7.58224 14.4052C7.54691 14.4372 7.51891 14.4046 7.49424 14.3852C7.4409 14.3432 7.38757 14.3012 7.34024 14.2539C7.28029 14.2006 7.24287 14.1265 7.23557 14.0466C7.23265 14.007 7.22295 13.9682 7.2069 13.9319C7.18557 13.8826 7.18557 13.8406 7.2289 13.8052C7.2169 13.7852 7.21023 13.7699 7.1989 13.7572C7.14154 13.6833 7.09734 13.6001 7.06823 13.5112C7.0329 13.4199 7.03756 13.3352 7.10023 13.2572C7.11623 13.2372 7.13357 13.2172 7.1429 13.1939C7.15822 13.1581 7.16876 13.1204 7.17423 13.0819C7.18557 12.9719 7.13157 12.8906 7.0529 12.8239C6.9289 12.7199 6.81289 12.6092 6.74623 12.4565C6.74289 12.4492 6.73023 12.4452 6.72156 12.4392C6.71423 12.4505 6.70556 12.4572 6.70489 12.4645C6.69223 12.5879 6.67489 12.7112 6.67023 12.8359C6.66089 13.0872 6.70889 13.3312 6.77823 13.5719C6.85689 13.8452 6.9709 14.1039 7.10357 14.3539C7.28157 14.6886 7.46157 15.0219 7.64491 15.3539C7.68157 15.4193 7.73158 15.4799 7.78358 15.5339C7.91558 15.6686 8.08491 15.7153 8.26625 15.7159C8.40092 15.7159 8.53559 15.7119 8.66959 15.6986C8.86626 15.6786 9.06293 15.6499 9.25893 15.6233C9.38093 15.6066 9.50227 15.5853 9.62427 15.5699C9.76427 15.5526 9.87761 15.6186 9.97228 15.7099C10.0789 15.8139 10.1756 15.9279 10.2703 16.0433C10.4169 16.2199 10.535 16.4166 10.6396 16.6213C10.673 16.6866 10.6863 16.6879 10.7376 16.6413C10.8243 16.5606 10.911 16.4799 11.0003 16.4013C11.045 16.3619 11.059 16.3213 11.045 16.2593C11.006 16.0851 10.987 15.9071 10.9883 15.7286C10.9896 15.6239 10.9923 15.5193 11.0003 15.4146C11.0103 15.2653 11.0203 15.1146 11.0403 14.9666C11.1107 14.4544 11.1911 13.9436 11.2816 13.4346C11.3396 13.1059 11.403 12.7786 11.4603 12.4499C11.5003 12.2185 11.539 11.9872 11.5683 11.7545C11.591 11.5725 11.605 11.3879 11.6103 11.2045C11.6176 10.9832 11.6123 10.7612 11.6116 10.5392C11.6116 10.4879 11.6143 10.4359 11.605 10.3859C11.5863 10.2912 11.5983 10.2825 11.497 10.2592C11.3634 10.2283 11.2283 10.2045 11.0923 10.1878C10.995 10.1758 10.9543 10.1525 10.945 10.0612C10.941 10.0285 10.9283 9.99585 10.9176 9.96384C10.9116 9.94718 10.9016 9.93184 10.887 9.90384L10.8703 10.0798C10.8643 10.1438 10.851 10.1572 10.7856 10.1565C10.749 10.1565 10.7123 10.1512 10.6763 10.1512C10.3589 10.1512 10.0416 10.1458 9.72561 10.1725C9.66227 10.1778 9.61027 10.1625 9.57494 10.1038C9.54827 10.0598 9.51627 10.0198 9.4856 9.97984C9.4436 9.92384 9.42827 9.91784 9.36427 9.93984C9.23426 9.98518 9.1056 10.0318 8.97626 10.0798C8.81435 10.1452 8.66278 10.2337 8.52625 10.3425C8.46205 10.3929 8.38903 10.4309 8.31092 10.4545C8.28892 10.4612 8.26425 10.4599 8.22625 10.4632C8.23958 10.4192 8.24225 10.3872 8.25758 10.3632C8.30025 10.2932 8.34758 10.2265 8.39425 10.1592C8.40959 10.1372 8.42692 10.1172 8.44292 10.0958L8.43292 10.0805L8.29892 10.1052C8.20158 10.1318 8.10158 10.1518 8.00758 10.1865C7.90891 10.2218 7.83024 10.2018 7.75024 10.1385C7.56221 9.98911 7.3975 9.8125 7.26157 9.61451L7.19957 9.5265ZM12.9277 15.5019L12.8297 15.5619C12.683 15.6513 12.5363 15.7393 12.3903 15.8299C12.3283 15.8686 12.2676 15.9099 12.2103 15.9553C12.1536 16.0019 12.1276 16.0626 12.1623 16.1366C12.1936 16.2033 12.2243 16.2699 12.2603 16.3326C12.2916 16.3859 12.343 16.4246 12.4023 16.4306C12.4756 16.4373 12.5543 16.4386 12.6263 16.4226C12.771 16.3893 12.8743 16.2859 12.9783 16.1846C13.007 16.1598 13.0278 16.1271 13.0381 16.0906C13.0484 16.0541 13.0478 16.0154 13.0363 15.9793C13.0057 15.8593 12.9837 15.7359 12.9577 15.6146C12.9503 15.5799 12.9397 15.5459 12.9277 15.5019ZM12.7563 13.8959C12.6763 14.0899 12.6197 14.2939 12.5396 14.5026C12.439 14.7913 12.3436 15.0826 12.2496 15.3846C12.2736 15.3779 12.2856 15.3779 12.2943 15.3726C12.4683 15.2659 12.6423 15.1566 12.8177 15.0499C12.8537 15.0279 12.865 14.9979 12.861 14.9579C12.853 14.8713 12.845 14.7833 12.8383 14.6959L12.793 14.1052C12.7877 14.0366 12.7797 13.9679 12.7737 13.8986C12.7677 13.8986 12.7623 13.8972 12.7563 13.8959ZM14.8104 8.47582L14.8764 8.66582C14.9297 8.81983 14.9824 8.9745 15.0364 9.14183L15.423 10.4432C15.5477 10.8632 15.671 11.2845 15.795 11.7052C15.871 11.9599 15.9517 12.2132 16.0237 12.4692C16.0717 12.6406 16.1077 12.8152 16.1477 13.0019C16.177 13.1392 16.2057 13.2772 16.2324 13.4286C16.255 13.4992 16.2477 13.5792 16.2837 13.6452L16.3004 13.6412L16.255 13.3999C16.2297 13.2626 16.2037 13.1252 16.1797 12.9746C16.1697 12.9279 16.1604 12.8806 16.149 12.8339C16.0857 12.5699 16.031 12.3032 15.9557 12.0425C15.825 11.5859 15.6804 11.1332 15.5437 10.6785C15.4337 10.3125 15.329 9.94518 15.2184 9.57984C15.1724 9.4285 15.1184 9.27983 15.0677 9.1165L14.9897 8.89249C14.965 8.82116 14.9397 8.74849 14.913 8.67782C14.8864 8.60716 14.857 8.53782 14.8284 8.46849C14.8224 8.47072 14.8164 8.47294 14.8104 8.47515V8.47582ZM7.4849 13.5359C7.4429 13.5352 7.40824 13.5452 7.39557 13.5912C7.4345 13.6212 7.48187 13.638 7.53094 13.6395C7.58002 13.6409 7.6283 13.6268 7.66891 13.5992C7.60827 13.5762 7.5469 13.555 7.4849 13.5359ZM6.82156 11.9865C6.80423 11.9685 6.78356 11.9545 6.77156 11.9879C6.76356 12.0092 6.76689 12.0345 6.76489 12.0632C6.81956 12.0385 6.81956 12.0385 6.82156 11.9865ZM6.86289 11.1939C6.85113 11.1959 6.83988 11.2002 6.82981 11.2066C6.81974 11.213 6.81104 11.2214 6.80423 11.2312C6.79164 11.2535 6.78585 11.279 6.78756 11.3045C6.79089 11.4059 6.79423 11.5085 6.80489 11.6092C6.81209 11.6596 6.82692 11.7086 6.84889 11.7545C6.88956 11.8452 6.95356 11.8659 7.0409 11.8219C7.07757 11.8039 7.0809 11.7859 7.05756 11.7485C7.02762 11.7024 6.99894 11.6555 6.97156 11.6079C6.96156 11.5625 6.92756 11.5205 6.94956 11.4699C6.97623 11.4099 6.8989 11.3925 6.90023 11.3432V11.2492C6.89823 11.2239 6.89623 11.1912 6.86289 11.1939ZM6.85156 10.5485C6.74185 10.5466 6.63386 10.576 6.54022 10.6332C6.48956 10.6632 6.48422 10.6799 6.50689 10.7385C6.52956 10.7965 6.55356 10.8539 6.58356 10.9079C6.62623 10.9859 6.64356 10.9912 6.72356 10.9592C6.79383 10.928 6.87109 10.9158 6.94756 10.9239C7.08223 10.9385 7.18557 11.0145 7.28357 11.0999L7.3449 11.1512C7.34957 11.1472 7.35424 11.1425 7.35957 11.1392C7.3469 11.0692 7.33624 10.9885 7.26023 10.9632C7.15557 10.9279 7.04423 10.9132 6.92156 10.8852L6.76156 10.8819C6.92156 10.7692 7.0629 10.8525 7.21957 10.8879C7.17757 10.8112 7.11757 10.7899 7.06623 10.7592C7.01156 10.7259 6.9529 10.6979 6.89956 10.6632C6.85956 10.6385 6.81956 10.6099 6.85156 10.5485ZM13.6737 10.7652C13.5203 10.7585 13.389 10.8185 13.2683 10.9059C13.2457 10.9232 13.2283 10.9492 13.1983 10.9839C13.2563 11.0012 13.2983 11.0145 13.353 11.0272C13.3823 11.0172 13.4117 11.0072 13.4397 10.9965C13.6437 10.9205 13.8463 10.9199 14.0423 11.0172C14.1263 11.0592 14.2003 11.0439 14.2863 11.0139C14.273 10.9932 14.2663 10.9779 14.2563 10.9665C14.175 10.88 14.0718 10.8171 13.9577 10.7845C13.8643 10.7552 13.7683 10.7692 13.6737 10.7652ZM8.66159 8.32182C8.65557 8.35112 8.65603 8.38138 8.66292 8.41049C8.71626 8.62449 8.76692 8.83916 8.82426 9.05183C8.89359 9.30983 9.00426 9.55184 9.12826 9.78718C9.1416 9.81184 9.16893 9.84051 9.1936 9.84518C9.25203 9.85259 9.31127 9.84065 9.36227 9.81118L9.0476 9.25117C8.89426 8.9525 8.77759 8.63782 8.66159 8.32182ZM10.2663 4.33109C10.1329 4.32576 9.99628 4.33376 9.86427 4.35376C9.70694 4.37709 9.55094 4.41176 9.3976 4.45509C9.20626 4.50843 9.01826 4.57509 8.82959 4.6371C8.80292 4.64576 8.78026 4.66243 8.75626 4.67576C8.77492 4.6851 8.78959 4.68776 8.80292 4.6851C8.99426 4.63976 9.1896 4.62843 9.38493 4.6251C9.47427 4.62376 9.56427 4.6311 9.65294 4.64176C9.77961 4.65776 9.90761 4.67376 10.0329 4.70176C10.3369 4.7711 10.6156 4.90177 10.8763 5.07244C11.1856 5.27644 11.4683 5.51244 11.7143 5.79111C11.851 5.94578 11.9776 6.10779 12.0876 6.28379C12.201 6.46646 12.2976 6.65779 12.387 6.85446C12.569 7.25514 12.691 7.67581 12.787 8.10515C12.8137 8.22048 12.8337 8.33715 12.8537 8.45449C12.865 8.52382 12.897 8.56582 12.967 8.58116C13.0483 8.59982 13.1003 8.65116 13.1137 8.74849C13.1117 8.81649 13.0737 8.86449 13.0277 8.90849C12.9519 8.97451 12.891 9.05586 12.849 9.14717C12.8695 9.14394 12.8887 9.13492 12.9043 9.12117C12.9577 9.06383 13.0123 9.0065 13.061 8.9445C13.1134 8.88195 13.1438 8.80397 13.1477 8.72249C13.1537 8.68916 13.1623 8.65582 13.1637 8.62249C13.1683 8.53982 13.1523 8.52249 13.0683 8.51049C13.0517 8.50782 13.0357 8.50116 13.0197 8.50049C12.965 8.49582 12.9363 8.45849 12.9283 8.41315C12.9063 8.28115 12.9257 8.17648 13.093 8.14115C13.1503 8.12915 13.209 8.12115 13.2663 8.11315C13.3717 8.09782 13.4763 8.07782 13.5817 8.06848C13.675 8.06048 13.7083 8.09048 13.7323 8.17982C13.7377 8.19915 13.7443 8.21782 13.7463 8.23782C13.759 8.35715 13.741 8.38782 13.6523 8.42982C13.6343 8.43849 13.6157 8.44582 13.6003 8.45782C13.5849 8.4691 13.5731 8.48462 13.5663 8.50249C13.5403 8.59849 13.615 8.75716 13.7037 8.79916L14.1523 9.0125C14.1677 9.01983 14.1857 9.0225 14.2023 9.02783L14.2143 9.0105C14.2043 9.00516 14.193 9.00183 14.185 8.9945C14.0746 8.90684 13.9526 8.83504 13.8223 8.78116C13.7842 8.76375 13.7458 8.74708 13.707 8.73116C13.6818 8.72084 13.6603 8.70317 13.6453 8.68045C13.6304 8.65774 13.6226 8.63103 13.623 8.60382C13.621 8.54716 13.653 8.50116 13.7083 8.47915L13.7477 8.46249C13.8137 8.43315 13.8263 8.41182 13.8223 8.33782C13.8217 8.3237 13.8199 8.30965 13.817 8.29582C13.7723 8.09982 13.735 7.90248 13.6803 7.70914C13.55 7.23687 13.3652 6.78136 13.1297 6.35179C12.8842 5.90562 12.5716 5.49978 12.203 5.14844C11.9723 4.9248 11.7074 4.73936 11.4183 4.5991C11.2044 4.49345 10.9762 4.41978 10.741 4.38043C10.5838 4.35479 10.4253 4.33831 10.2663 4.33109ZM14.7457 8.30115C14.7524 8.31049 14.7577 8.31982 14.771 8.32382L14.7564 8.29449L14.7457 8.30115ZM6.07022 6.61113C6.06437 6.61551 6.05747 6.61827 6.05022 6.61913C6.04187 6.62833 6.03296 6.63701 6.02355 6.64513C6.01688 6.65179 6.01022 6.65846 5.99355 6.67179L5.75154 6.9078C5.69288 6.96447 5.63821 7.02647 5.57421 7.07647C5.38487 7.22314 5.29087 7.42981 5.21154 7.64648C5.20567 7.66153 5.20405 7.6779 5.20687 7.69381C5.21554 7.73048 5.22887 7.76581 5.24154 7.80581L5.29087 7.82315C5.27954 7.86048 5.27087 7.89315 5.25954 7.92448C5.22087 8.03381 5.18087 8.14248 5.14287 8.25182C5.13954 8.26182 5.1482 8.27582 5.15554 8.30315C5.20887 8.18648 5.26087 8.08315 5.30554 7.97715C5.45754 7.61448 5.62821 7.26114 5.85155 6.93646C5.91155 6.8478 5.97288 6.75913 6.04022 6.66913C6.04288 6.66513 6.04488 6.66046 6.05488 6.64913C6.05555 6.63846 6.05688 6.62779 6.06488 6.62246L6.07022 6.61113ZM14.721 8.21648C14.723 8.21797 14.7245 8.21989 14.7255 8.22209C14.7266 8.2243 14.7271 8.22671 14.727 8.22915C14.7255 8.23126 14.7242 8.23349 14.723 8.23582C14.7243 8.24035 14.7259 8.2448 14.7277 8.24915L14.7397 8.26382C14.741 8.25915 14.7444 8.25315 14.743 8.24982C14.741 8.24315 14.735 8.23782 14.7297 8.22448C14.7268 8.22184 14.7239 8.21917 14.721 8.21648ZM6.13422 6.98647C6.13222 6.98913 6.12888 6.9918 6.11622 6.9958C6.11288 7.00447 6.10888 7.01247 6.09555 7.02713C6.06986 7.0656 6.04227 7.10275 6.01288 7.13847C5.98088 7.18514 5.93555 7.17513 5.89221 7.1658C5.80288 7.14713 5.74021 7.17647 5.70088 7.26114C5.64154 7.3858 5.57621 7.50781 5.51887 7.63448C5.48621 7.70648 5.44554 7.77848 5.44021 7.87448C5.49421 7.87648 5.54287 7.87915 5.59221 7.87981H5.74421C5.72982 7.93938 5.71224 7.99813 5.69154 8.05582C5.68488 8.09048 5.67688 8.12448 5.66954 8.15915L5.68288 8.16182C5.69488 8.13115 5.70754 8.10048 5.72754 8.05982C5.77155 7.96515 5.81421 7.86981 5.86088 7.77581C5.87421 7.74914 5.88355 7.70914 5.93821 7.71448C5.93821 7.74314 5.94088 7.77048 5.93821 7.79714C5.93488 7.82715 5.92688 7.85715 5.91955 7.89248C6.01355 7.92115 5.97688 8.00848 5.99622 8.07182C6.06422 8.05715 6.06555 7.94181 6.16155 7.97581V8.11248L6.17288 8.11382L6.46556 7.40781C6.37889 7.40781 6.30155 7.39447 6.22689 7.42981C6.21089 7.43714 6.18822 7.42914 6.15488 7.42714C6.20489 7.32714 6.24755 7.2418 6.29555 7.14913C6.29969 7.14024 6.30533 7.13212 6.31222 7.12513C6.31222 7.11513 6.31155 7.10513 6.31755 7.0998L6.32155 7.08647C6.31822 7.09047 6.31489 7.0938 6.30289 7.0978C6.30022 7.1058 6.29689 7.1138 6.28555 7.1278C6.2806 7.13695 6.27322 7.14457 6.26422 7.1498C6.18222 7.25447 6.20422 7.25914 6.09222 7.22047C6.03955 7.20247 6.04022 7.2018 6.06088 7.12447C6.07955 7.0938 6.09822 7.06247 6.12622 7.02447C6.12622 7.0138 6.12555 7.00313 6.13088 6.99647L6.13422 6.98647ZM7.51624 6.53979C7.51424 6.54379 7.51157 6.54713 7.49824 6.55046C7.43557 6.63379 7.3689 6.71446 7.31157 6.8018C7.20823 6.96047 7.1109 7.12247 7.0109 7.2838C6.91756 7.43314 6.78089 7.52914 6.62756 7.60447C6.61622 7.60981 6.60089 7.60848 6.57489 7.61181C6.58289 7.57247 6.58556 7.53914 6.59689 7.50981C6.64239 7.39238 6.69333 7.27715 6.74956 7.16447L6.74489 7.15113C6.73803 7.15788 6.73016 7.1635 6.72156 7.1678C6.70289 7.20114 6.68489 7.23447 6.65956 7.27714C6.48622 7.55981 6.36422 7.82181 6.36489 7.91048C6.38089 7.91315 6.39689 7.91781 6.41355 7.91915C6.53156 7.92781 6.53889 7.92381 6.58689 7.80914C6.60689 7.76248 6.63822 7.72914 6.68489 7.70914L6.80156 7.66248C6.83089 7.65048 6.85823 7.62448 6.8989 7.64114C6.9009 7.67448 6.89223 7.71448 6.90823 7.73781C6.93623 7.77914 6.93756 7.82115 6.93956 7.86648C6.9409 7.89915 6.9509 7.93181 6.9569 7.96448C6.97623 7.94181 6.9829 7.92115 6.99023 7.89981C7.0849 7.63981 7.1749 7.37847 7.27557 7.1198C7.34224 6.94913 7.42224 6.7838 7.49557 6.61579C7.50424 6.59579 7.50424 6.57113 7.51557 6.55446L7.51624 6.53979ZM10.1743 6.31312C10.1743 6.34312 10.1809 6.36912 10.1883 6.39512C10.2163 6.50179 10.2509 6.60713 10.2709 6.71513C10.2869 6.8038 10.2863 6.89513 10.2896 6.9858C10.2896 7.0078 10.2769 7.03047 10.2683 7.05913C10.2056 7.02047 10.2369 6.9538 10.1976 6.9158H10.1143C10.1043 6.9638 10.1076 7.01713 10.0836 7.04913C10.0396 7.1058 9.98028 7.1518 9.92628 7.20047C9.89761 7.2258 9.87428 7.21247 9.85761 7.1838L9.82694 7.1258C9.78361 7.14913 9.74894 7.1718 9.71227 7.1878C9.63494 7.2218 9.5556 7.25114 9.47894 7.2858C9.42227 7.31114 9.41893 7.32114 9.43227 7.3838C9.4416 7.43381 9.45493 7.48247 9.4636 7.53247C9.47227 7.58047 9.49694 7.60514 9.5456 7.61514C9.70094 7.64848 9.85361 7.69181 9.98361 7.79181C10.0223 7.72381 10.0223 7.72381 10.0956 7.69114C10.1156 7.68181 10.1356 7.67114 10.1569 7.66314C10.2103 7.64314 10.2336 7.65181 10.2569 7.70314C10.2723 7.73514 10.2843 7.76848 10.3009 7.80848C10.3409 7.71514 10.2729 7.63048 10.3123 7.53114C10.4169 7.65114 10.4723 7.79114 10.5623 7.90915C10.5718 7.88868 10.5768 7.86639 10.577 7.84381C10.5783 7.76114 10.577 7.67914 10.5783 7.59647C10.5783 7.57381 10.587 7.55181 10.5916 7.52981L10.613 7.52781C10.6863 7.63114 10.6996 7.76381 10.7636 7.87448C10.767 7.78731 10.7648 7.70002 10.757 7.61314C10.7543 7.58314 10.757 7.56381 10.7903 7.55447C10.8436 7.57847 10.8676 7.64781 10.9336 7.65981C10.9136 7.47647 10.6516 6.9018 10.4016 6.56979C10.3256 6.48512 10.2683 6.38312 10.1749 6.31246L10.1743 6.31312ZM8.39625 6.77713C8.38359 6.7998 8.37625 6.81046 8.37158 6.8218C8.33092 6.94513 8.28825 7.06847 8.25158 7.19247C8.23092 7.26247 8.19358 7.30514 8.12158 7.31914C8.06158 7.3318 8.00291 7.3538 7.94291 7.3678C7.91758 7.3738 7.88358 7.3778 7.86424 7.3658C7.84824 7.35514 7.84758 7.3198 7.84024 7.29514C7.79758 7.3458 7.78558 7.35314 7.72691 7.32647C7.63824 7.28514 7.55224 7.23647 7.4649 7.19247C7.4329 7.1758 7.4029 7.15047 7.35157 7.17247C7.3229 7.25247 7.2909 7.33914 7.26023 7.42714C7.19423 7.61381 7.20223 7.58847 7.32357 7.72914C7.35424 7.76114 7.39157 7.74914 7.42624 7.74448C7.46224 7.73848 7.4969 7.72448 7.53291 7.72048C7.61957 7.71181 7.70624 7.66714 7.77758 7.71048C7.91358 7.66781 8.03558 7.62914 8.15825 7.59181C8.19158 7.58181 8.21758 7.59514 8.23425 7.62781C8.24892 7.65581 8.25692 7.68981 8.28892 7.70848C8.31425 7.67114 8.28025 7.62314 8.33092 7.58981L8.42425 7.75048L8.39625 6.77713ZM8.58159 7.0158C8.51759 7.00913 8.51025 7.02247 8.50825 7.0878C8.50692 7.11313 8.50625 7.1398 8.50959 7.16447C8.52959 7.2978 8.57559 7.42181 8.62559 7.54447C8.62692 7.54847 8.63359 7.55114 8.64026 7.55447L8.69226 7.52114C8.72692 7.54514 8.74626 7.57981 8.79426 7.57981C8.93093 7.57847 9.0676 7.58914 9.20493 7.58781C9.27093 7.58714 9.31027 7.61581 9.3416 7.66781C9.3536 7.68781 9.3576 7.71914 9.40027 7.71181L9.34693 7.44914C9.3136 7.31914 9.29027 7.1858 9.23226 7.05647C9.19426 7.09447 9.15626 7.1018 9.11226 7.08713C9.08293 7.07805 9.05279 7.0718 9.02226 7.06847C8.87559 7.0498 8.72892 7.02913 8.58225 7.01513L8.58159 7.0158ZM15.4177 5.86445C15.477 5.97312 15.521 6.07512 15.5104 6.19179C15.4997 6.30379 15.5277 6.41979 15.481 6.53579C15.4497 6.51379 15.4224 6.48112 15.4064 6.48579C15.3284 6.50912 15.297 6.44779 15.255 6.40912C15.1887 6.34742 15.1251 6.28292 15.0644 6.21579L14.995 6.14045C14.9899 6.14469 14.9848 6.14891 14.9797 6.15312C15.003 6.18379 15.0264 6.21512 15.053 6.25712C15.0797 6.29979 15.109 6.34179 15.1344 6.38579C15.157 6.42446 15.1777 6.46446 15.155 6.52246C15.1004 6.51579 15.0457 6.50979 14.991 6.50112C14.951 6.49446 14.9237 6.50112 14.9084 6.54779C14.8877 6.61313 14.8837 6.61179 14.8084 6.60779C14.8217 6.63579 14.8324 6.66113 14.8464 6.68513C14.8737 6.73446 14.8664 6.77713 14.8264 6.8158C14.7864 6.8558 14.7477 6.89713 14.7077 6.93646C14.6923 6.95295 14.6724 6.96462 14.6506 6.97007C14.6287 6.97551 14.6057 6.97449 14.5843 6.96713C14.4363 6.92646 14.2863 6.8918 14.1377 6.85113C14.1163 6.84513 14.0957 6.82446 14.0803 6.8058C14.0603 6.77913 14.0457 6.7478 14.027 6.71913C13.9977 6.67246 13.967 6.62713 13.9363 6.58113C13.9263 6.603 13.923 6.62739 13.927 6.65113C13.935 6.73579 13.947 6.8198 13.9503 6.90446C13.9537 6.97113 13.9343 6.98447 13.8697 6.9738C13.8003 6.96246 13.7323 6.94713 13.663 6.93513C13.6203 6.92713 13.5757 6.91646 13.5283 6.95513L13.5823 7.0938C13.6423 7.0938 13.693 7.08713 13.7403 7.09513C13.8576 7.1161 13.9649 7.17486 14.0457 7.26247C14.0977 7.3178 14.1483 7.37447 14.2063 7.43581L14.2183 7.43247C14.2157 7.42847 14.213 7.42381 14.2117 7.40581C14.221 7.36847 14.1703 7.32714 14.2237 7.28714C14.2443 7.30714 14.2663 7.32514 14.2823 7.34714C14.321 7.39914 14.3563 7.45314 14.395 7.51847L14.4543 7.61248L14.4703 7.60381C14.3754 7.39627 14.2805 7.18871 14.1857 6.98113C14.2223 6.9858 14.241 6.9858 14.2577 6.9918C14.3863 7.03847 14.5143 7.08647 14.6423 7.1358C14.6917 7.15447 14.7404 7.1758 14.7884 7.19847C14.8297 7.21714 14.863 7.21047 14.893 7.17647C14.9264 7.13913 14.961 7.1018 14.9957 7.06513C15.029 7.03113 15.059 7.03447 15.0837 7.07447C15.0944 7.09113 15.101 7.1098 15.1104 7.1278C15.1577 7.2198 15.2057 7.31247 15.255 7.41647L15.361 7.62181L15.3777 7.61447C15.3484 7.54381 15.331 7.46914 15.2857 7.3918C15.2477 7.27047 15.1737 7.16113 15.1484 7.02847C15.239 7.05113 15.3897 7.2458 15.5264 7.51647L15.5644 7.56581L15.5764 7.55847C15.5636 7.53077 15.552 7.50252 15.5417 7.47381C15.511 7.37714 15.477 7.28047 15.451 7.18314C15.4364 7.1278 15.427 7.0678 15.4657 7.0098L15.5384 7.04847L15.521 6.91046L15.539 6.8998C15.5537 6.91313 15.5724 6.9238 15.5824 6.9398C15.631 7.0118 15.6777 7.08647 15.7257 7.1598C15.7324 7.17047 15.745 7.17913 15.7544 7.18847C15.7304 7.0438 15.621 6.93513 15.6017 6.77113L15.705 6.8458C15.7144 6.73513 15.713 6.63313 15.733 6.53579C15.7544 6.43046 15.7177 6.33779 15.691 6.23912C15.707 6.24179 15.715 6.24312 15.7277 6.25579C15.789 6.33846 15.8497 6.42179 15.9124 6.50312C15.9257 6.52112 15.9457 6.53446 15.9584 6.56113L15.985 6.60313L15.9977 6.59313C15.983 6.57701 15.971 6.55853 15.9624 6.53846C15.8874 6.43035 15.8137 6.32146 15.741 6.21179C15.5937 6.00445 15.499 5.90045 15.4177 5.86445ZM11.0376 6.08245C11.0356 6.18979 11.099 6.26579 11.0836 6.35912L10.8383 6.41712C10.8983 6.50979 10.8596 6.57513 10.8036 6.63779C10.7703 6.67579 10.7423 6.71913 10.7083 6.75646C10.6836 6.78313 10.6776 6.80846 10.6963 6.84046L10.803 7.0238C10.8223 7.0558 10.851 7.0678 10.8883 7.06647C10.939 7.06447 10.9896 7.06647 11.0403 7.0658C11.1176 7.0638 11.1843 7.08047 11.2236 7.15713C11.2276 7.16647 11.237 7.17313 11.253 7.1918C11.2556 7.15247 11.251 7.12647 11.2596 7.10513C11.2703 7.07847 11.2863 7.03913 11.3076 7.03313C11.3636 7.0178 11.423 7.01713 11.481 7.01313C11.4896 7.01247 11.499 7.02513 11.5076 7.03247L11.555 7.0758C11.5676 7.00247 11.5003 6.9438 11.539 6.86913L11.623 6.8958C11.6056 6.8138 11.5763 6.73246 11.5756 6.65179C11.5756 6.56979 11.6096 6.48979 11.6523 6.41179C11.7236 6.45312 11.759 6.51579 11.8083 6.58046C11.9303 6.75713 12.0483 6.9358 12.1376 7.13647C12.2476 7.08447 12.3176 7.1818 12.409 7.19514C12.407 7.12447 12.3203 6.90113 12.2776 6.86713C12.2582 6.85238 12.2339 6.8457 12.2096 6.84846C12.1696 6.8558 12.1303 6.87446 12.0823 6.89046C12.0656 6.86446 12.045 6.83846 12.031 6.80913C11.9465 6.62346 11.8407 6.44828 11.7156 6.28712C11.665 6.22445 11.609 6.16579 11.5636 6.11379L11.303 6.30379C11.2703 6.32712 11.2403 6.32379 11.215 6.29245L11.1023 6.15445C11.0856 6.13445 11.067 6.11512 11.0376 6.08245Z" fill="black"/>
</svg>
