<svg width="24" height="24" viewBox="0 0 24 24" fill="none" xmlns="http://www.w3.org/2000/svg">
<mask id="mask0_15_5582" style="mask-type:alpha" maskUnits="userSpaceOnUse" x="4" y="4" width="16" height="16">
<path d="M12.6656 4.45635C12.5577 4.18108 12.2922 4 11.9965 4C11.7008 4 11.4353 4.18108 11.3274 4.45635L10.069 7.66497C10.0541 7.70297 10.0632 7.74619 10.092 7.77506L11.0427 8.72576C11.0951 8.7781 11.1839 8.75955 11.2109 8.69065L11.9009 6.93124C11.935 6.84432 12.058 6.84432 12.0921 6.93124L13.3738 10.1997C13.4618 10.424 13.6563 10.5893 13.8919 10.64C14.1274 10.6906 14.3727 10.6198 14.5451 10.4516L18.3999 6.6883C18.4405 6.64868 18.4413 6.58367 18.4016 6.5431L17.5409 5.66142C17.5013 5.62083 17.4363 5.62006 17.3957 5.65967L14.4272 8.55765C14.3746 8.60899 14.2868 8.59008 14.26 8.52167L12.6656 4.45635Z" fill="white" fill-opacity="0.85"/>
<path d="M11.3343 19.5437C11.4422 19.8189 11.7077 20 12.0034 20C12.2991 20 12.5646 19.8189 12.6725 19.5437L13.9309 16.3351C13.9458 16.297 13.9367 16.2538 13.9079 16.225L12.9572 15.2743C12.9048 15.2219 12.816 15.2405 12.789 15.3094L12.099 17.0687C12.0649 17.1557 11.9419 17.1557 11.9078 17.0687L10.6261 13.8003C10.5381 13.576 10.3436 13.4107 10.108 13.36C9.87247 13.3094 9.62717 13.3801 9.45477 13.5485L5.59998 17.3117C5.55941 17.3514 5.55862 17.4163 5.59824 17.4569L6.45898 18.3386C6.4986 18.3792 6.56361 18.38 6.60419 18.3404L9.57267 15.4423C9.62522 15.391 9.71312 15.4099 9.73997 15.4783L11.3343 19.5437Z" fill="white" fill-opacity="0.85"/>
<path d="M19.5436 12.6657C19.8189 12.5578 20 12.2923 20 11.9966C20 11.7009 19.8189 11.4354 19.5436 11.3275L16.335 10.0691C16.297 10.0542 16.2538 10.0632 16.2249 10.0921L15.2742 11.0428C15.2219 11.0952 15.2404 11.184 15.3094 11.211L17.0687 11.901C17.1557 11.9351 17.1557 12.0581 17.0687 12.0922L13.8003 13.3739C13.576 13.4619 13.4107 13.6564 13.36 13.892C13.3094 14.1275 13.38 14.3728 13.5484 14.5452L17.3117 18.4C17.3513 18.4405 17.4163 18.4413 17.4568 18.4017L18.3386 17.541C18.3792 17.5013 18.3799 17.4363 18.3403 17.3958L15.4423 14.4273C15.391 14.3747 15.4099 14.2869 15.4783 14.26L19.5436 12.6657Z" fill="white" fill-opacity="0.85"/>
<path d="M4.45635 11.3343C4.18108 11.4422 4 11.7078 4 12.0034C4 12.2991 4.18108 12.5646 4.45635 12.6726L7.66497 13.9309C7.70297 13.9458 7.74619 13.9368 7.77506 13.9079L8.72576 12.9572C8.7781 12.9049 8.75955 12.8161 8.69065 12.789L6.93124 12.099C6.84432 12.0649 6.84432 11.9419 6.93124 11.9078L10.1997 10.6261C10.424 10.5381 10.5893 10.3436 10.64 10.108C10.6906 9.8725 10.6199 9.62725 10.4516 9.45485L6.6883 5.60004C6.64868 5.55947 6.58367 5.55868 6.5431 5.5983L5.66142 6.45904C5.62083 6.49867 5.62006 6.56367 5.65967 6.60425L8.55765 9.5727C8.60899 9.6253 8.59008 9.7132 8.52167 9.74005L4.45635 11.3343Z" fill="white" fill-opacity="0.85"/>
</mask>
<g mask="url(#mask0_15_5582)">
<path d="M2.54546 20.7273L21.4546 20.7273L21.4546 2.54545L2.54546 2.54545L2.54546 20.7273Z" fill="url(#paint0_linear_15_5582)"/>
</g>
<defs>
<linearGradient id="paint0_linear_15_5582" x1="23.5247" y1="20.7273" x2="7.52411" y2="5.6666" gradientUnits="userSpaceOnUse">
<stop offset="0.076587" stop-color="#FF6200"/>
<stop offset="0.537477" stop-color="#EA00FF" stop-opacity="0.9"/>
<stop offset="1" stop-color="#7C42FA"/>
</linearGradient>
</defs>
</svg>
