<svg width="24" height="24" viewBox="0 0 24 24" fill="none" xmlns="http://www.w3.org/2000/svg">
<path d="M5.77966 9.83174L5.84633 9.3684C6.00899 8.26639 6.46033 7.29304 7.17501 6.43303C7.78649 5.68486 8.55692 5.08226 9.43036 4.66901C10.2084 4.30234 11.027 4.06768 11.9004 4.01434C12.6577 3.96767 13.3944 4.03367 14.1224 4.23034C14.5065 4.33386 14.8786 4.47778 15.2324 4.65968C15.6958 4.89835 15.7611 5.26702 15.3851 5.61836C14.5151 6.43807 13.5507 7.15152 12.5124 7.74371C11.6656 8.22248 10.776 8.6211 9.85504 8.93439C9.0614 9.20136 8.25066 9.41452 7.42834 9.5724C7.12901 9.63107 6.579 9.71773 5.77899 9.8324L5.77966 9.83174Z" fill="url(#paint0_linear_15_5595)"/>
<path d="M7.09897 10.1204C8.27165 10.3938 9.46166 10.5604 10.661 10.6464C11.709 10.7218 12.761 10.7198 13.8124 10.6704C14.8597 10.6218 15.8911 10.4798 16.9177 10.2911C17.2751 10.2257 17.6211 10.1164 17.9931 10.1264C18.7564 10.1457 19.2824 10.5498 19.4651 11.2698C19.7284 12.3038 19.7418 13.3398 19.4604 14.3671C19.1846 15.3925 18.6563 16.3325 17.9238 17.1012C17.1419 17.9291 16.179 18.5648 15.1104 18.9585C13.967 19.3852 12.7817 19.5225 11.5637 19.4118C11.249 19.3877 10.9368 19.3378 10.6303 19.2625C10.5972 19.2542 10.5628 19.2531 10.5292 19.2592C10.4956 19.2653 10.4637 19.2785 10.4357 19.2978C9.62033 19.7792 8.73365 20.0065 7.78431 19.9999C7.5165 19.9955 7.24945 19.9701 6.98563 19.9239C6.47229 19.8399 6.28963 19.3752 6.60696 18.9705C6.7803 18.7505 6.93763 18.5238 7.03497 18.2612C7.07963 18.1412 7.12164 18.0205 7.15764 17.8972C7.18763 17.8102 7.19117 17.7162 7.16779 17.6272C7.14441 17.5382 7.09518 17.4582 7.0263 17.3972C6.43563 16.8232 5.94096 16.1771 5.59762 15.4331C4.87894 13.8771 4.80428 12.2884 5.39628 10.6758C5.50565 10.3835 5.63576 10.0994 5.78562 9.82574L5.83362 9.83308C6.44763 9.97108 6.86963 10.0671 7.09897 10.1204Z" fill="url(#paint1_linear_15_5595)"/>
<defs>
<linearGradient id="paint0_linear_15_5595" x1="9.16566" y1="6.18219" x2="10.3921" y2="8.12414" gradientUnits="userSpaceOnUse">
<stop stop-color="#6595F1"/>
<stop offset="1" stop-color="#336BD7"/>
</linearGradient>
<linearGradient id="paint1_linear_15_5595" x1="12.3335" y1="9.82574" x2="12.3335" y2="20" gradientUnits="userSpaceOnUse">
<stop stop-color="#6595F1"/>
<stop offset="1" stop-color="#336BD7"/>
</linearGradient>
</defs>
</svg>
