<svg width="24" height="24" viewBox="0 0 24 24" fill="none" xmlns="http://www.w3.org/2000/svg">
<path d="M16.4361 6.00065C17.3355 6.00065 18.1982 6.3483 18.8342 6.96712C19.4703 7.58594 19.8276 8.42524 19.8276 9.30039C19.8276 10.1755 19.4703 11.0148 18.8342 11.6337C18.1982 12.2525 17.3355 12.6001 16.4361 12.6001L19.8003 15.8733C20.2269 16.2891 19.9249 17 19.3202 17H9.653C8.15373 17 6.71587 16.4205 5.65572 15.3891C4.59558 14.3576 4 12.9587 4 11.5C4 10.0413 4.59558 8.64236 5.65572 7.61091C6.71587 6.57946 8.15373 6 9.653 6H16.4367L16.4361 6.00065ZM9.65233 8.19961C8.75266 8.19961 7.88984 8.54733 7.25368 9.16627C6.61752 9.78522 6.26013 10.6247 6.26013 11.5C6.26013 12.3753 6.61752 13.2148 7.25368 13.8337C7.88984 14.4527 8.75266 14.8004 9.65233 14.8004C10.5519 14.8004 11.4146 14.4527 12.0507 13.8338C12.6868 13.2149 13.0442 12.3756 13.0442 11.5003C13.0442 10.6251 12.6868 9.78571 12.0507 9.16683C11.4146 8.54794 10.5519 8.19961 9.65233 8.19961Z" fill="#C8FF00"/>
</svg>
