<svg width="24" height="24" viewBox="0 0 24 24" fill="none" xmlns="http://www.w3.org/2000/svg">
<path d="M10.4442 5.6965C11.3731 6.36763 12.1898 7.27988 12.4165 8.4388C12.5287 9.49549 12.441 10.3477 12.1109 11.3633C12.3476 11.3544 12.5854 11.3455 12.8287 11.3355C13.1399 11.3289 13.451 11.3222 13.771 11.3144C14.0788 11.3055 14.3866 11.2966 14.7043 11.2878C15.6166 11.3689 15.9222 11.5011 16.5555 12.1411C17.4244 13.2667 17.6878 14.2689 17.5555 15.6968C17.4422 16.0212 17.4422 16.0212 17.3333 16.2523C16.3311 16.0523 15.7299 15.1279 15.0344 14.419C14.1566 13.4123 14.1566 13.4123 13.111 12.5856C13.1143 13.0122 13.1187 13.4389 13.1232 13.8789C13.1254 14.4301 13.1287 14.9823 13.1321 15.5512C13.1354 16.1012 13.1399 16.6523 13.1432 17.219C13.111 18.5857 13.111 18.5857 12.7776 19.1413C12.3676 19.4146 12.0309 19.4402 11.5554 19.3635C11.1731 19.128 11.0309 19.0135 10.8887 18.5857C10.8542 17.5813 10.8331 16.5768 10.8198 15.5723C10.8087 15.019 10.7976 14.4667 10.7876 13.8967C10.8887 12.4745 10.8887 12.4745 11.8887 11.4744C11.6554 10.3533 10.9365 9.64772 9.99977 9.02992C9.85088 8.95548 9.70088 8.88214 9.54754 8.80547C8.83419 8.37435 8.30306 7.841 7.71527 7.2521C7.49748 7.03654 7.2797 6.82098 7.05525 6.59875C6.55524 6.02985 6.55524 6.02985 6.55524 5.47428C7.44526 4.58425 9.49976 5.11538 10.4442 5.6965Z" fill="#F8AB02"/>
<path d="M10.5402 9.2821C11.1446 9.771 11.818 10.471 12.0002 11.2522C11.4713 12.3088 10.3379 13.18 9.52015 14.0022C8.89902 14.63 8.89902 14.63 8.26456 15.2711C7.22231 16.2523 7.22231 16.2523 6.66674 16.2523C6.27117 15.4256 6.28784 14.3878 6.5734 13.53C7.02342 12.6066 7.47121 12.0488 8.33345 11.4744C8.039 11.4688 7.74455 11.4633 7.4412 11.4577C7.06231 11.4499 6.68229 11.441 6.29117 11.4333C5.91227 11.4255 5.53338 11.4177 5.14336 11.4088C4.22223 11.3633 4.22223 11.3633 4 11.141C4 10.551 4.3989 10.1121 4.7778 9.69655C6.44007 8.20318 8.68235 7.96873 10.5402 9.2821Z" fill="#4385F3"/>
<path d="M10.4442 5.6965C11.3731 6.36763 12.1898 7.27988 12.4165 8.4388C12.5298 9.50549 12.4587 10.46 12.1109 11.4744C11.8709 11.2344 11.7987 11.0555 11.6665 10.7455C11.222 9.8455 10.5409 9.30215 9.65421 8.85547C8.88308 8.40657 8.32973 7.87767 7.70082 7.24543C7.48526 7.03098 7.2697 6.81653 7.04747 6.59542C6.55524 6.02985 6.55524 6.02985 6.55524 5.47428C7.44526 4.58425 9.49976 5.11538 10.4442 5.6965Z" fill="#F97C1A"/>
<path d="M17.7699 8.61669C18.6266 9.06004 19.6322 9.76339 20 10.6967C19.9633 10.9168 19.9267 11.1368 19.8889 11.3634C17.3222 11.3634 14.7554 11.3634 12.1109 11.3634C12.1109 11.2901 12.1109 11.2168 12.1109 11.1412C12.4054 10.879 12.702 10.6201 12.9998 10.3634C13.4665 9.89895 13.9276 9.42894 14.3876 8.95781C15.2177 8.16557 16.7266 8.27668 17.7699 8.61669Z" fill="#AF5CF7"/>
<path d="M17.3333 5.36315C17.4444 5.47426 17.4444 5.47426 17.4444 6.02983C16.6122 6.90763 15.7621 7.76877 14.9021 8.6199C14.431 9.08991 13.9588 9.55881 13.4732 10.0422C12.3332 11.1411 12.3332 11.1411 12.1109 11.1411C12.1476 11.0266 12.1843 10.9122 12.222 10.7944C12.4865 9.72993 12.4043 8.61212 12.0309 7.58876C11.9998 7.3632 11.9998 7.3632 12.1032 7.1532C13.391 5.51093 15.2288 4.52091 17.3333 5.36315Z" fill="#FE8BCB"/>
<path d="M11.8887 11.2522C11.8887 12.0611 10.0731 13.4556 9.58977 13.94C9.1631 14.3701 8.73642 14.8001 8.29752 15.2434C7.22193 16.2523 7.22193 16.2523 6.66636 16.2523C6.27191 15.4256 6.28746 14.3878 6.57414 13.53C6.73525 13.1989 6.90859 12.8934 7.11082 12.5856C7.15638 12.5156 7.20082 12.4467 7.24749 12.3756C7.60194 11.8978 8.02862 11.6255 8.5553 11.3633C9.37088 11.2844 9.37088 11.2844 10.2776 11.2733C10.5787 11.2678 10.8798 11.2622 11.1909 11.2566C11.4209 11.2555 11.6509 11.2533 11.8887 11.2522Z" fill="#159EAF"/>
<path d="M12.1109 11.3633C12.6643 11.3422 13.2176 11.3278 13.771 11.3144C14.0788 11.3055 14.3865 11.2966 14.7043 11.2878C15.6166 11.3689 15.9221 11.5011 16.5555 12.1411C17.4244 13.2667 17.6877 14.2689 17.5555 15.6968C17.4422 16.0212 17.4422 16.0212 17.3333 16.2523C16.331 16.0523 15.7299 15.1278 15.0343 14.4189C14.1565 13.4122 14.1565 13.4122 13.111 12.5856C13.111 12.5122 13.111 12.4389 13.111 12.3633C13.0487 12.3378 12.9876 12.3133 12.9232 12.2867C12.5932 12.0989 12.3643 11.8667 12.1109 11.5855C12.1109 11.5122 12.1109 11.4389 12.1109 11.3633Z" fill="#5CB875"/>
<path d="M6.55524 5.47427C6.77747 5.6965 6.77747 5.6965 6.77747 6.02984C6.92414 6.10318 7.07081 6.17651 7.22192 6.25207C7.49526 6.51097 7.76416 6.77542 8.0275 7.0432C8.2375 7.25765 8.2375 7.25765 8.45307 7.47544C8.55974 7.58544 8.66752 7.69433 8.77752 7.80767C8.70418 7.881 8.63085 7.95434 8.55529 8.0299C8.22084 7.70989 7.8875 7.38766 7.55526 7.06431C7.3697 6.88542 7.18414 6.70653 6.99303 6.52208C6.55524 6.02984 6.55524 6.02984 6.55524 5.47427Z" fill="#FA882F"/>
<path d="M8.22198 11.5856C8.29532 11.6222 8.36865 11.6589 8.44421 11.6967C8.0042 12.1367 7.56418 12.5767 7.11084 13.0301C7.07417 12.9201 7.0375 12.81 6.99973 12.6967C7.28862 12.22 7.71197 11.8122 8.22198 11.5856Z" fill="#1BA2B2"/>
<path d="M13.111 6.02988C13.221 6.06654 13.331 6.10321 13.4443 6.14099C13.1143 6.471 12.7843 6.80101 12.4443 7.14102C12.3709 7.10435 12.2976 7.06768 12.222 7.0299C12.3498 6.88434 12.4765 6.73767 12.6043 6.59211C12.6754 6.511 12.7454 6.42989 12.8187 6.34655C12.9143 6.23877 13.0098 6.13099 13.111 6.02988Z" fill="#FF90CD"/>
<path d="M12.1109 11.4744C12.4865 11.6066 12.7387 11.7277 12.9998 12.03C12.9632 12.14 12.9265 12.25 12.8887 12.3633C12.7587 12.2366 12.6287 12.1089 12.4998 11.9811C12.4276 11.91 12.3554 11.84 12.2809 11.7666C12.1109 11.5855 12.1109 11.5855 12.1109 11.4744Z" fill="#72B762"/>
<path d="M4.99963 9.47437C5.10963 9.51103 5.21964 9.5477 5.33297 9.58548C5.00297 9.85993 5.00297 9.85993 4.66629 10.141C4.59295 10.1044 4.51962 10.0677 4.44406 10.0299C4.6274 9.8466 4.81074 9.66326 4.99963 9.47437Z" fill="#4F8DF4"/>
</svg>
