<svg width="24" height="24" viewBox="0 0 24 24" fill="none" xmlns="http://www.w3.org/2000/svg">
<mask id="mask0_15_5618" style="mask-type:alpha" maskUnits="userSpaceOnUse" x="4" y="4" width="16" height="16">
<path d="M20 4H4V20H20V4Z" fill="url(#paint0_linear_15_5618)"/>
<path d="M20 4H4V20H20V4Z" fill="url(#paint1_linear_15_5618)"/>
<path d="M20 4H4V20H20V4Z" fill="url(#paint2_linear_15_5618)"/>
</mask>
<g mask="url(#mask0_15_5618)">
<path d="M8.49473 19.1905C7.01858 18.4738 5.80024 17.3181 5.00673 15.8818C4.22921 14.4838 3.88943 12.8845 4.0314 11.2912C4.04669 11.1194 4.1296 10.9607 4.26187 10.8501C4.39415 10.7394 4.56496 10.6859 4.73673 10.7012C4.9085 10.7164 5.06716 10.7993 5.17781 10.9316C5.28846 11.0639 5.34202 11.2347 5.32673 11.4065C5.20806 12.7432 5.49073 14.0732 6.14406 15.2525C6.70132 16.2614 7.51139 17.108 8.49473 17.7092L11.5521 11.4392C10.3554 11.0405 9.35873 11.2138 9.26873 11.2312L9.23006 11.2392C9.08685 11.2631 8.93974 11.2383 8.81232 11.1687C8.6849 11.099 8.58456 10.9886 8.5274 10.8552C8.3674 10.5565 7.8874 9.82582 7.30473 9.54182C6.72273 9.25782 5.82606 9.34915 5.5374 9.41182C5.41807 9.43774 5.29386 9.4296 5.17894 9.38832C5.06402 9.34704 4.96301 9.27429 4.88746 9.17836C4.8119 9.08244 4.76483 8.9672 4.75161 8.84581C4.7384 8.72442 4.75958 8.60175 4.81273 8.49182C6.74473 4.52782 11.5434 2.87582 15.5081 4.80982C19.4721 6.74315 21.1227 11.5385 19.1941 15.5018L19.1874 15.5152C17.2521 19.4752 12.4574 21.1245 8.49473 19.1912V19.1905ZM12.7201 12.0085L9.66273 18.2785C12.7487 19.4318 16.2601 18.1505 17.8654 15.2398C17.6401 14.8905 17.2441 14.3898 16.7854 14.1665C16.1934 13.8772 15.3254 13.9718 15.0274 14.0345C14.8901 14.0665 14.7462 14.0536 14.6167 13.9978C14.4738 13.9349 14.3579 13.8231 14.2901 13.6825C14.2714 13.6438 13.7974 12.7238 12.7201 12.0092V12.0085ZM7.8734 8.37315C8.3714 8.61648 8.7774 9.00248 9.08006 9.36648C10.0174 7.93315 11.2894 6.85048 12.2714 6.15315C12.6288 5.89867 12.9981 5.6613 13.3781 5.44182C12.1152 5.17907 10.8034 5.2854 9.59939 5.7481C8.39535 6.2108 7.34995 7.01032 6.58806 8.05115C6.9994 8.07915 7.45273 8.16715 7.87406 8.37248L7.8734 8.37315ZM16.3207 6.87782C16.3807 7.29382 16.4221 7.74048 16.4421 8.18782C16.4974 9.38848 16.4281 11.0518 15.8794 12.6692C16.3367 12.6812 16.8687 12.7625 17.3554 12.9992C17.7901 13.2112 18.1541 13.5325 18.4407 13.8525C18.7957 12.6092 18.7844 11.2899 18.4084 10.0528C18.0324 8.81569 17.3075 7.71331 16.3207 6.87782ZM12.7247 10.5178C13.4826 10.8888 14.1589 11.4071 14.7141 12.0425C15.4307 9.71382 15.1181 7.10782 14.8574 6.14248C13.9367 6.53182 11.6907 7.88915 10.2974 9.88782C11.1401 9.93407 11.9651 10.148 12.7241 10.5172L12.7247 10.5178Z" fill="#4137FF"/>
</g>
<defs>
<linearGradient id="paint0_linear_15_5618" x1="8.5" y1="17.7" x2="7.75" y2="17.7" gradientUnits="userSpaceOnUse">
<stop/>
<stop offset="1" stop-opacity="0"/>
</linearGradient>
<linearGradient id="paint1_linear_15_5618" x1="8.55" y1="11.9" x2="8.8" y2="11.4247" gradientUnits="userSpaceOnUse">
<stop stop-opacity="0"/>
<stop offset="1"/>
</linearGradient>
<linearGradient id="paint2_linear_15_5618" x1="4.65" y1="17.6747" x2="4.65" y2="11.2747" gradientUnits="userSpaceOnUse">
<stop/>
<stop offset="0.105" stop-opacity="0.9"/>
<stop offset="0.904" stop-opacity="0.04"/>
<stop offset="1" stop-opacity="0"/>
</linearGradient>
</defs>
</svg>
