<svg width="24" height="24" viewBox="0 0 24 24" fill="none" xmlns="http://www.w3.org/2000/svg">
<path d="M20 6.0334C19.8952 5.99817 19.7836 5.99067 19.6752 6.01158C19.5669 6.03249 19.4654 6.08114 19.38 6.15308C18.1478 7.65606 16.5129 8.7497 14.6806 9.29669C12.8484 9.84368 10.9004 9.81963 9.08132 9.22756L8.67306 7.69181C8.61136 7.5123 8.48964 7.36142 8.32979 7.26631C8.16995 7.17119 7.98247 7.13809 7.80109 7.17295L7.9955 8.79345C6.68791 8.1787 6.33005 8.09024 5.41272 6.97225C5.28455 6.87264 4.26857 5.93825 4 6.0334C4.76734 8.14192 6.28454 9.86907 8.24247 10.8629L8.77386 15.3007C8.77386 15.3007 9.01148 17 10.5545 17H13.8566C15.4004 17 15.638 15.3007 15.638 15.3007L16.011 12.1192C15.008 12.0374 14.3779 12.7562 14.1778 13.4676C13.8429 14.6674 13.8429 14.7432 13.7767 14.9528C13.6413 15.3802 13.1963 15.4315 13.1963 15.4315H11.2141C11.2141 15.4315 10.7698 15.3795 10.6337 14.9528C10.5473 14.677 10.1103 13.0647 9.67247 11.4294C11.7357 12.0297 13.9421 11.8081 15.8546 10.8087C17.7671 9.80918 19.2471 8.1054 20 6.0334Z" fill="#06AEEF"/>
</svg>
