<svg width="24" height="24" viewBox="0 0 24 24" fill="none" xmlns="http://www.w3.org/2000/svg">
<path d="M12.4395 4.24739C12.7253 4.7492 13.0097 5.25247 13.2933 5.75647C13.3048 5.77662 13.3214 5.79337 13.3415 5.805C13.3615 5.81663 13.3843 5.82272 13.4075 5.82265H17.4453C17.5718 5.82265 17.6795 5.90265 17.7696 6.06046L18.8271 7.92954C18.9653 8.17463 19.0016 8.27717 18.8445 8.53826C18.6554 8.85098 18.4714 9.16662 18.2918 9.48371L18.0249 9.96225C17.9478 10.1048 17.8627 10.1659 17.9958 10.3346L19.9245 13.7069C20.0496 13.9258 20.0052 14.0662 19.8932 14.2669C19.5754 14.8378 19.2518 15.4044 18.9223 15.9687C18.8067 16.1666 18.6663 16.2415 18.4278 16.2378C17.8627 16.2262 17.2991 16.2306 16.7355 16.2495C16.7234 16.2501 16.7116 16.2537 16.7014 16.2601C16.6911 16.2665 16.6825 16.2753 16.6766 16.2858C16.0263 17.438 15.3705 18.5871 14.7093 19.7331C14.5864 19.9462 14.4329 19.9971 14.182 19.9978C13.457 20 12.7261 20.0007 11.9879 19.9992C11.9192 19.9991 11.8517 19.9807 11.7923 19.9461C11.7329 19.9115 11.6838 19.8619 11.6497 19.8022L10.6788 18.1127C10.6732 18.1017 10.6645 18.0924 10.6538 18.0861C10.6431 18.0798 10.6309 18.0767 10.6185 18.0771H6.89632C6.68905 18.0989 6.49414 18.0764 6.31087 18.0102L5.14507 15.9956C5.11059 15.936 5.09232 15.8684 5.09206 15.7995C5.09181 15.7306 5.10958 15.6628 5.14361 15.6029L6.02142 14.0611C6.03392 14.0393 6.0405 14.0146 6.0405 13.9895C6.0405 13.9643 6.03392 13.9396 6.02142 13.9178C5.56417 13.1262 5.10962 12.333 4.6578 11.5382L4.08326 10.5237C3.9669 10.2982 3.95745 10.163 4.15235 9.82188C4.49053 9.23062 4.82653 8.64008 5.16107 8.05026C5.25707 7.88008 5.38216 7.80736 5.58579 7.80663C6.21341 7.80399 6.84105 7.80374 7.46867 7.8059C7.48453 7.80578 7.50007 7.80148 7.51373 7.79344C7.52739 7.78539 7.53869 7.77389 7.54649 7.76009L9.58719 4.20012C9.61812 4.14596 9.66277 4.10091 9.71665 4.0695C9.77053 4.03809 9.83173 4.02144 9.8941 4.02121C10.2752 4.02048 10.6599 4.02121 11.0454 4.01685L11.785 4.00012C12.033 3.99794 12.3115 4.02339 12.4395 4.24739ZM9.94355 4.54048C9.93589 4.54047 9.92836 4.54249 9.92172 4.54632C9.91508 4.55015 9.90957 4.55566 9.90573 4.5623L7.8214 8.20954C7.81139 8.22672 7.79707 8.241 7.77985 8.25095C7.76263 8.2609 7.7431 8.26618 7.72322 8.26626H5.63888C5.59815 8.26626 5.58797 8.28444 5.60906 8.32008L9.83446 15.7062C9.85264 15.7367 9.84392 15.7513 9.80974 15.752L7.77703 15.7629C7.74732 15.7619 7.71792 15.7693 7.6922 15.7842C7.66648 15.7991 7.64548 15.821 7.63158 15.8473L6.67159 17.5273C6.63959 17.584 6.65632 17.6131 6.72105 17.6131L10.8781 17.6189C10.9115 17.6189 10.9363 17.6334 10.9537 17.6633L11.9741 19.448C12.0075 19.5069 12.041 19.5076 12.0752 19.448L15.7158 13.0771L16.2853 12.072C16.2888 12.0658 16.2938 12.0607 16.3 12.0571C16.3061 12.0535 16.3131 12.0516 16.3202 12.0516C16.3273 12.0516 16.3343 12.0535 16.3404 12.0571C16.3466 12.0607 16.3516 12.0658 16.3551 12.072L17.3907 13.912C17.3985 13.9258 17.4098 13.9372 17.4235 13.9452C17.4372 13.9531 17.4527 13.9572 17.4685 13.9571L19.478 13.9426C19.4831 13.9426 19.4882 13.9413 19.4927 13.9387C19.4971 13.9362 19.5009 13.9325 19.5034 13.928C19.5059 13.9236 19.5072 13.9186 19.5072 13.9135C19.5072 13.9084 19.5059 13.9034 19.5034 13.8989L17.3944 10.2001C17.3868 10.1877 17.3828 10.1735 17.3828 10.159C17.3828 10.1445 17.3868 10.1302 17.3944 10.1179L17.6075 9.74916L18.422 8.31135C18.4394 8.28153 18.4307 8.26626 18.3965 8.26626H9.96392C9.92101 8.26626 9.91082 8.24735 9.93264 8.21026L10.9755 6.38846C10.9834 6.37605 10.9875 6.36168 10.9875 6.34701C10.9875 6.33234 10.9834 6.31797 10.9755 6.30555L9.9821 4.56302C9.9783 4.55614 9.97271 4.55042 9.96593 4.54645C9.95914 4.54248 9.95141 4.54042 9.94355 4.54048ZM14.518 10.3732C14.5515 10.3732 14.5602 10.3877 14.5428 10.4168L13.9377 11.4822L12.0373 14.8167C12.0338 14.8232 12.0285 14.8286 12.0221 14.8323C12.0157 14.8361 12.0084 14.838 12.001 14.8378C11.9936 14.8378 11.9864 14.8358 11.98 14.8321C11.9736 14.8284 11.9683 14.8231 11.9646 14.8167L9.45338 10.4299C9.43883 10.4052 9.4461 10.3921 9.47374 10.3906L9.63083 10.3819L14.5195 10.3732H14.518Z" fill="url(#paint0_linear_15_5629)"/>
<defs>
<linearGradient id="paint0_linear_15_5629" x1="4" y1="4" x2="20" y2="4" gradientUnits="userSpaceOnUse">
<stop stop-color="#6336E7" stop-opacity="0.84"/>
<stop offset="1" stop-color="#6F69F7" stop-opacity="0.84"/>
</linearGradient>
</defs>
</svg>
