<svg width="24" height="24" viewBox="0 0 24 24" fill="none" xmlns="http://www.w3.org/2000/svg">
<path d="M14.0847 18.1984C14.1467 18.4023 14.3107 18.5755 14.3147 18.8093C14.3294 18.8823 14.2807 19.0936 14.2027 18.9525C14.0367 18.3852 13.9827 18.9286 13.4927 18.1452C13.3874 17.9318 13.2067 18.1077 13.0507 18.118C12.5881 17.9625 12.7241 17.9182 12.4474 18.3225C12.2374 18.3825 12.4147 17.8841 12.5147 17.8289C12.7081 17.6598 13.0141 17.7702 13.1261 17.5861C13.3141 16.8068 12.6994 15.8359 12.354 15.1657C12.2414 14.9857 12.3627 14.7723 12.3374 14.5779C12.2374 14.2998 12.212 14.372 12.3047 14.0775C12.1534 13.755 11.7294 14.2588 11.4914 14.2513C11.3014 14.2541 11.1427 13.9445 10.896 13.9241C10.006 13.9268 9.17536 14.475 8.27869 14.3816C8.1165 14.3834 7.95848 14.4344 7.82469 14.5282C7.54868 14.6795 7.21868 14.6666 6.96601 14.8841C6.88668 14.9488 6.78601 14.955 6.69001 14.9509C6.51001 14.9782 6.37201 15.2032 6.16734 15.1827C5.95934 15.1084 5.79001 15.2366 5.59401 15.2216C5.36734 15.0273 5.07333 15.1827 4.81133 15.227C4.77756 15.2423 4.74017 15.2472 4.70372 15.2411C4.66727 15.2351 4.63332 15.2183 4.606 15.1929C4.546 15.1438 4.43 15.137 4.39 15.0723C4.37 15.032 4.40866 14.9734 4.45666 14.9332C4.808 14.657 5.21467 14.4791 5.60334 14.2691C6.36734 13.8641 7.01535 13.2716 7.71002 12.7568C7.75402 12.7227 7.76669 12.675 7.68669 12.6757C6.61201 12.7677 5.58934 13.3902 4.52666 13.3657C4.40933 13.3813 4.30066 13.4522 4.17866 13.4679C3.59466 13.3418 4.612 12.677 4.81467 12.6082C5.95067 12.1234 7.21335 12.0334 8.27069 11.3563C8.39602 11.2663 8.15736 11.1736 8.26802 10.995C8.52802 10.1154 9.3187 9.76427 10.0914 9.50586C10.4874 9.34836 10.8494 9.04768 11.2894 9.04291C11.506 9.05381 11.712 8.96586 11.8574 8.79745C12.6327 8.06722 13.4854 7.42562 14.3067 6.75267C15.2487 5.53698 15.8281 3.22424 17.7841 4.25992C18.3974 4.52924 19.1001 4.50879 19.6554 4.92538C19.8534 5.05425 20.2268 5.44698 19.8128 5.50493C18.6781 5.70334 18.1114 5.34811 18.0594 6.4963C18.0394 6.76221 18.1021 7.00767 17.9541 7.23676C17.9448 7.70994 18.1888 8.26495 17.8981 8.68836C17.6554 9.11791 17.8461 9.65177 17.6448 10.084C17.4981 10.4481 17.2114 10.7181 16.9454 10.9861C16.0761 12.0975 15.4347 13.3561 15.2194 14.7852C15.1381 15.2127 14.9007 15.8489 15.2841 16.187C15.6887 16.6043 16.1174 17.1811 16.7374 16.877C16.9414 16.7816 17.3267 16.7482 17.2974 17.0639C17.2641 17.1205 17.1254 16.997 17.0501 17.0257C16.9434 17.0952 17.0981 17.2411 17.0694 17.3427C17.0547 17.4382 16.9801 17.4245 16.9161 17.3795C16.7287 17.3032 16.4594 17.3809 16.2461 17.3727C16.0741 17.4034 15.9047 17.4832 15.7381 17.4068C15.6607 17.3734 15.5854 17.3386 15.5007 17.3366C15.2407 17.3216 14.9114 17.4607 14.7654 17.2364C14.6041 16.9268 14.5701 17.1655 14.4107 17.2691C14.2541 17.2589 14.3661 17.0304 14.4201 16.9554C14.5861 16.5668 15.6507 17.308 15.2087 16.6609C13.6821 15.2904 14.6907 14.8295 14.1114 14.8268C13.9981 14.7661 14.0427 14.5507 13.8674 14.7088C13.6441 14.9475 13.5607 14.642 13.5607 14.4361C13.5341 14.3168 13.4427 14.2316 13.4774 14.1095C13.4921 13.8436 13.1467 14.1675 13.2241 14.3891C13.2621 14.8091 13.1361 15.2243 13.1561 15.6389C13.3161 16.5089 13.4294 17.6141 14.3987 17.8725C14.5167 17.9243 14.7074 18.167 14.5674 18.2577C14.5054 18.2509 14.4607 18.1827 14.4054 18.1534C14.3281 18.1002 14.2341 18.1595 14.1534 18.1657C14.1307 18.1711 14.0947 18.1705 14.0867 18.197L14.0847 18.1984Z" fill="url(#paint0_linear_15_5633)"/>
<defs>
<linearGradient id="paint0_linear_15_5633" x1="20" y1="12.084" x2="4" y2="12.084" gradientUnits="userSpaceOnUse">
<stop stop-color="#1D1A5C"/>
<stop offset="0.49586" stop-color="#3431C3"/>
<stop offset="1" stop-color="#7361F7"/>
</linearGradient>
</defs>
</svg>
