<svg width="24" height="24" viewBox="0 0 24 24" fill="none" xmlns="http://www.w3.org/2000/svg">
<path d="M4 14.6665H6.63956V6.6665H14.5587V4H4V14.6665Z" fill="#5B29DA"/>
<path d="M19.838 9.3335H14.5588V14.667H19.838V9.3335Z" fill="#01FFB9"/>
<path d="M9.27972 20H14.5589V14.6665H9.27972V20Z" fill="#01FFB9"/>
<path d="M14.5587 6.66647H6.64099V14.665H9.28105V9.33148H14.5587V6.66647ZM14.5587 19.9995H19.8383V14.6665H14.5587V19.9995Z" fill="#5B29DA"/>
<path d="M6.63965 6.66647V6.84494L9.27921 9.51145V9.33348H9.45586L6.81631 6.66647H6.63965Z" fill="#01FFB9"/>
<path d="M7.48822 6.66647L10.1278 9.33348H10.4811L7.84105 6.66647H7.48822Z" fill="#01FFB9"/>
<path d="M8.51318 6.66647L11.1532 9.33348H11.5061L8.86651 6.66647H8.51318Z" fill="#01FFB9"/>
<path d="M9.53842 6.66647L12.178 9.33348H12.5308L9.89125 6.66647H9.53842Z" fill="#01FFB9"/>
<path d="M10.5638 6.66647L13.2033 9.33348H13.5562L10.9166 6.66647H10.5638Z" fill="#01FFB9"/>
<path d="M11.5885 6.66647L14.228 9.33348H14.5586V9.31048L11.9413 6.66647H11.5885Z" fill="#01FFB9"/>
<path d="M12.6135 6.66647L14.5587 8.63161V8.27517L12.9663 6.66647H12.6135Z" fill="#01FFB9"/>
<path d="M14.5587 7.23937L13.9916 6.66647H13.6388L14.5587 7.5963V7.23937Z" fill="#01FFB9"/>
<path d="M6.63965 14.0936L7.20675 14.6665H7.55958L6.63965 13.7372V14.0936Z" fill="#01FFB9"/>
<path d="M6.63965 13.0584L8.2316 14.6666H8.58493L6.63965 12.7014V13.0584Z" fill="#01FFB9"/>
<path d="M6.63965 12.0225L9.25694 14.6665H9.27921V14.3326L6.63965 11.6661V12.0225Z" fill="#01FFB9"/>
<path d="M6.63965 10.9873L9.27921 13.6538V13.2968L6.63965 10.6303V10.9873Z" fill="#01FFB9"/>
<path d="M6.63965 9.9514L9.27921 12.6179V12.2615L6.63965 9.59497V9.9514Z" fill="#01FFB9"/>
<path d="M6.63965 8.91603L9.27921 11.5825V11.2261L6.63965 8.5596V8.91603Z" fill="#01FFB9"/>
<path d="M6.63965 7.88027L9.27921 10.5473V10.1903L6.63965 7.52383V7.88027Z" fill="#01FFB9"/>
</svg>
