<svg width="24" height="24" viewBox="0 0 24 24" fill="none" xmlns="http://www.w3.org/2000/svg">
<path d="M14.1476 4.01391C14.2963 3.9993 14.4563 4.0153 14.6064 4.0167L15.4554 4.01739C16.6341 4.01809 17.822 4.0473 19 4L18.9993 10.2122V12.057C18.9993 12.5746 19.0084 13.0908 18.9537 13.6063C18.8928 14.1904 18.7548 14.7642 18.5432 15.3127C18.1002 16.4755 17.3141 17.4791 16.2875 18.1927C16.0848 18.3325 15.8651 18.4863 15.6385 18.585C15.0692 18.8932 14.4595 19.1217 13.8269 19.264C13.5736 19.3217 13.3162 19.3551 13.0636 19.4143C12.7962 19.1979 12.5549 18.9315 12.3114 18.6887L10.9833 17.3718C10.4767 16.8737 9.96239 16.3861 9.46003 15.8831C9.24744 15.6717 9.01169 15.463 8.82366 15.2306C8.89803 15.7134 8.85663 16.448 8.85663 16.96C8.86155 17.9736 8.85874 18.9864 8.84751 20C8.8365 19.9922 8.82573 19.9841 8.81524 19.9757C8.64966 19.847 8.50161 19.6779 8.35217 19.529C8.0645 19.2403 7.77473 18.9537 7.48286 18.6685L5.3843 16.5962C5.00543 16.2205 4.61392 15.8518 4.24487 15.4671C4.19575 15.4157 4.09402 15.321 4.0849 15.2508C4.11485 15.2454 4.14554 15.2457 4.17541 15.2515L4.1719 15.2431C4.78161 15.2083 5.40675 15.2341 6.01717 15.2341C6.95173 15.2341 7.88699 15.2216 8.82085 15.2348C7.20856 13.6692 5.60904 12.0907 4.02245 10.4995C3.98948 10.2511 4.00842 9.9847 4.00842 9.73357L4.00912 8.40139L4 4.12383C4 4.096 4.00702 4.07165 4.01965 4.04591C4.06104 4.01809 4.09261 4.01948 4.14243 4.0167C4.50727 3.99583 4.88615 4.0167 5.2524 4.01739C6.31325 4.01739 7.38252 4.04661 8.44198 4.01322C8.5802 4.00348 8.72052 4.00557 8.85874 4.00278L8.85663 11.3635C8.86295 12.6567 8.85874 13.9492 8.84401 15.2417C9.1429 15.2111 9.46845 15.2348 9.77015 15.2348H11.715C12.3914 15.2299 13.018 15.1026 13.5098 14.6059C13.8873 14.2247 14.0458 13.7322 14.1272 13.2146C14.1834 12.8598 14.1567 12.4633 14.156 12.1037L14.1546 10.2637C14.1539 8.18087 14.1728 6.0967 14.1476 4.01391Z" fill="#E30A5D"/>
</svg>
