<svg width="24" height="24" viewBox="0 0 24 24" fill="none" xmlns="http://www.w3.org/2000/svg">
<path d="M11.9727 17.4768C11.6381 17.4768 11.3172 17.6097 11.0806 17.8463C10.844 18.0829 10.7111 18.4038 10.7111 18.7384C10.7111 19.073 10.844 19.3939 11.0806 19.6305C11.3172 19.8671 11.6381 20 11.9727 20C12.3073 20 12.6282 19.8671 12.8648 19.6305C13.1014 19.3939 13.2343 19.073 13.2343 18.7384C13.2343 18.4038 13.1014 18.0829 12.8648 17.8463C12.6282 17.6097 12.3073 17.4768 11.9727 17.4768ZM11.9727 19.3474C11.8501 19.3474 11.7303 19.3109 11.6285 19.2426C11.5267 19.1743 11.4475 19.0773 11.401 18.9638C11.3545 18.8504 11.3428 18.7257 11.3673 18.6056C11.3919 18.4855 11.4516 18.3754 11.5389 18.2894C11.6262 18.2033 11.7371 18.1451 11.8575 18.1223C11.978 18.0994 12.1025 18.1129 12.2153 18.161C12.328 18.2091 12.4239 18.2897 12.4908 18.3924C12.5576 18.4952 12.5924 18.6155 12.5907 18.7381C12.5907 18.8188 12.5746 18.8988 12.5435 18.9733C12.5123 19.0478 12.4667 19.1153 12.4092 19.172C12.3517 19.2287 12.2835 19.2734 12.2085 19.3035C12.1336 19.3336 12.0534 19.3485 11.9727 19.3474Z" fill="#4285F4"/>
<path fill-rule="evenodd" clip-rule="evenodd" d="M18.4336 13.4291C18.5916 13.4544 18.7349 13.5357 18.8369 13.6584C18.9279 13.792 18.9661 13.9547 18.9439 14.1148C18.9217 14.2749 18.8408 14.4211 18.7169 14.525L13.224 18.5794C13.1961 18.3594 13.1108 18.1507 12.9766 17.9742C12.8423 17.7977 12.6639 17.6597 12.4594 17.5741L17.979 13.5211C18.1144 13.4365 18.2759 13.4038 18.4336 13.4291Z" fill="#669DF6"/>
<path fill-rule="evenodd" clip-rule="evenodd" d="M10.7241 18.5607L5.24648 14.517C5.11878 14.4183 5.03349 14.2746 5.00798 14.1152C4.98247 13.9558 5.01865 13.7927 5.10916 13.6591C5.21028 13.5347 5.35366 13.452 5.51192 13.4267C5.67018 13.4013 5.83222 13.4352 5.9671 13.5217L11.4867 17.5748C11.2852 17.6591 11.1089 17.7942 10.9752 17.967C10.8415 18.1399 10.755 18.3444 10.7241 18.5607Z" fill="#AECBFA"/>
<path d="M6.82505 6.98352C6.65514 6.98127 6.49281 6.91278 6.37266 6.79262C6.2525 6.67246 6.184 6.51014 6.18176 6.34023V4.727C6.17118 4.63566 6.18003 4.54312 6.20775 4.45544C6.23546 4.36777 6.28141 4.28695 6.34257 4.2183C6.40373 4.14964 6.47873 4.09469 6.56263 4.05707C6.64653 4.01945 6.73744 4 6.82938 4C6.92133 4 7.01224 4.01945 7.09614 4.05707C7.18004 4.09469 7.25503 4.14964 7.3162 4.2183C7.37736 4.28695 7.42331 4.36777 7.45102 4.45544C7.47874 4.54312 7.48759 4.63566 7.47701 4.727V6.34023C7.47473 6.51163 7.40504 6.67524 7.28302 6.79564C7.161 6.91604 6.99647 6.98353 6.82505 6.98352ZM6.80772 12.6891C6.98063 12.6891 7.14646 12.6205 7.26872 12.4982C7.39099 12.3759 7.45968 12.2101 7.45968 12.0372C7.45968 11.8643 7.39099 11.6985 7.26872 11.5762C7.14646 11.4539 6.98063 11.3852 6.80772 11.3852C6.63481 11.3852 6.46898 11.4539 6.34672 11.5762C6.22445 11.6985 6.15576 11.8643 6.15576 12.0372C6.15576 12.2101 6.22445 12.3759 6.34672 12.4982C6.46898 12.6205 6.63481 12.6891 6.80772 12.6891ZM6.80772 10.7933C6.89334 10.7933 6.97811 10.7764 7.05721 10.7436C7.13631 10.7109 7.20818 10.6629 7.26872 10.6023C7.32926 10.5418 7.37729 10.4699 7.41005 10.3908C7.44281 10.3117 7.45968 10.2269 7.45968 10.1413C7.45968 10.0557 7.44281 9.97092 7.41005 9.89182C7.37729 9.81272 7.32926 9.74085 7.26872 9.68031C7.20818 9.61977 7.13631 9.57175 7.05721 9.53898C6.97811 9.50622 6.89334 9.48936 6.80772 9.48936C6.63481 9.48936 6.46898 9.55804 6.34672 9.68031C6.22445 9.80257 6.15576 9.9684 6.15576 10.1413C6.15576 10.3142 6.22445 10.4801 6.34672 10.6023C6.46898 10.7246 6.63481 10.7933 6.80772 10.7933ZM6.80772 8.88806C6.98063 8.88806 7.14646 8.81937 7.26872 8.69711C7.39099 8.57484 7.45968 8.40901 7.45968 8.2361C7.45968 8.06319 7.39099 7.89737 7.26872 7.7751C7.14646 7.65283 6.98063 7.58415 6.80772 7.58415C6.63481 7.58415 6.46898 7.65283 6.34672 7.7751C6.22445 7.89737 6.15576 8.06319 6.15576 8.2361C6.15576 8.40901 6.22445 8.57484 6.34672 8.69711C6.46898 8.81937 6.63481 8.88806 6.80772 8.88806Z" fill="#AECBFA"/>
<path d="M17.1211 8.87138C16.9496 8.8691 16.7858 8.79932 16.6654 8.67715C16.545 8.55499 16.4776 8.39029 16.4778 8.21876V6.60553C16.4778 6.43492 16.5456 6.27129 16.6662 6.15065C16.7868 6.03001 16.9505 5.96224 17.1211 5.96224C17.2917 5.96224 17.4553 6.03001 17.576 6.15065C17.6966 6.27129 17.7644 6.43492 17.7644 6.60553V8.21876C17.7657 8.30404 17.75 8.38874 17.7183 8.46791C17.6865 8.54707 17.6394 8.61913 17.5795 8.67988C17.5196 8.74062 17.4482 8.78884 17.3695 8.82172C17.2908 8.8546 17.2064 8.87148 17.1211 8.87138ZM17.1377 12.6978C17.2234 12.6978 17.3081 12.6809 17.3872 12.6482C17.4663 12.6154 17.5382 12.5674 17.5987 12.5068C17.6593 12.4463 17.7073 12.3744 17.7401 12.2953C17.7728 12.2162 17.7897 12.1315 17.7897 12.0458C17.7897 11.9602 17.7728 11.8754 17.7401 11.7963C17.7073 11.7172 17.6593 11.6454 17.5987 11.5848C17.5382 11.5243 17.4663 11.4763 17.3872 11.4435C17.3081 11.4107 17.2234 11.3939 17.1377 11.3939C16.9648 11.3939 16.799 11.4626 16.6767 11.5848C16.5545 11.7071 16.4858 11.8729 16.4858 12.0458C16.4858 12.2188 16.5545 12.3846 16.6767 12.5068C16.799 12.6291 16.9648 12.6978 17.1377 12.6978ZM17.1377 10.7673C17.3107 10.7673 17.4765 10.6986 17.5987 10.5763C17.721 10.454 17.7897 10.2882 17.7897 10.1153C17.7897 9.94239 17.721 9.77656 17.5987 9.6543C17.4765 9.53203 17.3107 9.46334 17.1377 9.46334C16.9648 9.46334 16.799 9.53203 16.6767 9.6543C16.5545 9.77656 16.4858 9.94239 16.4858 10.1153C16.4858 10.2882 16.5545 10.454 16.6767 10.5763C16.799 10.6986 16.9648 10.7673 17.1377 10.7673ZM17.1377 5.37894C17.2234 5.37894 17.3081 5.36208 17.3872 5.32932C17.4663 5.29655 17.5382 5.24853 17.5987 5.18799C17.6593 5.12745 17.7073 5.05558 17.7401 4.97648C17.7728 4.89738 17.7897 4.8126 17.7897 4.72699C17.7897 4.64137 17.7728 4.55659 17.7401 4.47749C17.7073 4.39839 17.6593 4.32652 17.5987 4.26598C17.5382 4.20544 17.4663 4.15742 17.3872 4.12465C17.3081 4.09189 17.2234 4.07503 17.1377 4.07503C16.9648 4.07503 16.799 4.14372 16.6767 4.26598C16.5545 4.38825 16.4858 4.55408 16.4858 4.72699C16.4858 4.89989 16.5545 5.06572 16.6767 5.18799C16.799 5.31025 16.9648 5.37894 17.1377 5.37894Z" fill="#4285F4"/>
<path d="M11.9727 14.611C11.8028 14.6088 11.6405 14.5403 11.5203 14.4201C11.4001 14.3 11.3316 14.1376 11.3294 13.9677V12.3285C11.3478 12.1697 11.424 12.0231 11.5434 11.9167C11.6628 11.8104 11.8171 11.7516 11.977 11.7516C12.1369 11.7516 12.2913 11.8104 12.4107 11.9167C12.5301 12.0231 12.6062 12.1697 12.6247 12.3285V13.9504C12.626 14.0368 12.6101 14.1226 12.5779 14.2028C12.5457 14.2829 12.4979 14.3559 12.4372 14.4174C12.3765 14.4789 12.3042 14.5277 12.2244 14.5609C12.1447 14.5942 12.0591 14.6112 11.9727 14.611ZM11.9727 16.5076C12.1456 16.5076 12.3114 16.4389 12.4337 16.3166C12.556 16.1943 12.6247 16.0285 12.6247 15.8556C12.6247 15.6827 12.556 15.5169 12.4337 15.3946C12.3114 15.2723 12.1456 15.2037 11.9727 15.2037C11.7998 15.2037 11.634 15.2723 11.5117 15.3946C11.3894 15.5169 11.3207 15.6827 11.3207 15.8556C11.3207 16.0285 11.3894 16.1943 11.5117 16.3166C11.634 16.4389 11.7998 16.5076 11.9727 16.5076ZM11.9727 11.0933C12.1456 11.0933 12.3114 11.0246 12.4337 10.9023C12.556 10.78 12.6247 10.6142 12.6247 10.4413C12.6247 10.2684 12.556 10.1026 12.4337 9.98029C12.3114 9.85803 12.1456 9.78934 11.9727 9.78934C11.7998 9.78934 11.634 9.85803 11.5117 9.98029C11.3894 10.1026 11.3207 10.2684 11.3207 10.4413C11.3207 10.6142 11.3894 10.78 11.5117 10.9023C11.634 11.0246 11.7998 11.0933 11.9727 11.0933ZM11.9727 9.18871C12.1456 9.18871 12.3114 9.12002 12.4337 8.99776C12.556 8.87549 12.6247 8.70966 12.6247 8.53675C12.6247 8.36384 12.556 8.19802 12.4337 8.07575C12.3114 7.95348 12.1456 7.8848 11.9727 7.8848C11.7998 7.8848 11.634 7.95348 11.5117 8.07575C11.3894 8.19802 11.3207 8.36384 11.3207 8.53675C11.3207 8.70966 11.3894 8.87549 11.5117 8.99776C11.634 9.12002 11.7998 9.18871 11.9727 9.18871Z" fill="#669DF6"/>
<path d="M14.5465 10.7846C14.3766 10.7823 14.2143 10.7138 14.0941 10.5937C13.974 10.4735 13.9055 10.3112 13.9032 10.1413V8.52806C13.8868 8.39021 13.9148 8.25072 13.9832 8.12992C14.0516 8.00913 14.1568 7.91335 14.2835 7.85656C14.4102 7.79977 14.5517 7.78495 14.6874 7.81424C14.8231 7.84354 14.9459 7.91543 15.0378 8.01942C15.0989 8.08811 15.1448 8.16893 15.1725 8.25658C15.2002 8.34423 15.209 8.43674 15.1985 8.52806V10.1413C15.1962 10.3127 15.1265 10.4763 15.0045 10.5967C14.8825 10.7171 14.718 10.7846 14.5465 10.7846ZM14.5552 7.27547C14.6408 7.27547 14.7256 7.25861 14.8047 7.22585C14.8838 7.19308 14.9557 7.14506 15.0162 7.08452C15.0767 7.02398 15.1248 6.95211 15.1575 6.87301C15.1903 6.79391 15.2072 6.70913 15.2072 6.62352C15.2072 6.5379 15.1903 6.45312 15.1575 6.37402C15.1248 6.29492 15.0767 6.22305 15.0162 6.16251C14.9557 6.10197 14.8838 6.05395 14.8047 6.02118C14.7256 5.98842 14.6408 5.97156 14.5552 5.97156C14.3823 5.97156 14.2165 6.04025 14.0942 6.16251C13.9719 6.28478 13.9032 6.45061 13.9032 6.62352C13.9032 6.79642 13.9719 6.96225 14.0942 7.08452C14.2165 7.20678 14.3823 7.27547 14.5552 7.27547ZM14.5552 14.5683C14.7281 14.5683 14.8939 14.4996 15.0162 14.3774C15.1385 14.2551 15.2072 14.0893 15.2072 13.9164C15.2072 13.7435 15.1385 13.5776 15.0162 13.4554C14.8939 13.3331 14.7281 13.2644 14.5552 13.2644C14.3823 13.2644 14.2165 13.3331 14.0942 13.4554C13.9719 13.5776 13.9032 13.7435 13.9032 13.9164C13.9032 14.0893 13.9719 14.2551 14.0942 14.3774C14.2165 14.4996 14.3823 14.5683 14.5552 14.5683ZM14.5552 12.6638C14.7281 12.6638 14.8939 12.5951 15.0162 12.4728C15.1385 12.3506 15.2072 12.1847 15.2072 12.0118C15.2072 11.8389 15.1385 11.6731 15.0162 11.5508C14.8939 11.4286 14.7281 11.3599 14.5552 11.3599C14.3823 11.3599 14.2165 11.4286 14.0942 11.5508C13.9719 11.6731 13.9032 11.8389 13.9032 12.0118C13.9032 12.1847 13.9719 12.3506 14.0942 12.4728C14.2165 12.5951 14.3823 12.6638 14.5552 12.6638Z" fill="#4285F4"/>
<path d="M9.39021 14.5683C9.56312 14.5683 9.72894 14.4996 9.85121 14.3774C9.97348 14.2551 10.0422 14.0893 10.0422 13.9164C10.0422 13.7435 9.97348 13.5776 9.85121 13.4554C9.72894 13.3331 9.56312 13.2644 9.39021 13.2644C9.2173 13.2644 9.05147 13.3331 8.9292 13.4554C8.80694 13.5776 8.73825 13.7435 8.73825 13.9164C8.73825 14.0893 8.80694 14.2551 8.9292 14.3774C9.05147 14.4996 9.2173 14.5683 9.39021 14.5683ZM9.39021 9.18868C9.56312 9.18868 9.72894 9.11999 9.85121 8.99772C9.97348 8.87546 10.0422 8.70963 10.0422 8.53672C10.0422 8.36381 9.97348 8.19798 9.85121 8.07572C9.72894 7.95345 9.56312 7.88476 9.39021 7.88476C9.2173 7.88476 9.05147 7.95345 8.9292 8.07572C8.80694 8.19798 8.73825 8.36381 8.73825 8.53672C8.73825 8.70963 8.80694 8.87546 8.9292 8.99772C9.05147 9.11999 9.2173 9.18868 9.39021 9.18868ZM9.39021 7.27547C9.5632 7.27547 9.72912 7.20674 9.85145 7.08442C9.97377 6.96209 10.0425 6.79618 10.0425 6.62318C10.0425 6.45018 9.97377 6.28427 9.85145 6.16194C9.72912 6.03961 9.5632 5.97089 9.39021 5.97089C9.21721 5.97089 9.0513 6.03961 8.92897 6.16194C8.80664 6.28427 8.73792 6.45018 8.73792 6.62318C8.73792 6.79618 8.80664 6.96209 8.92897 7.08442C9.0513 7.20674 9.21721 7.27547 9.39021 7.27547ZM9.39887 12.6638C9.23026 12.6639 9.06816 12.5987 8.9466 12.4819C8.82504 12.365 8.75347 12.2056 8.74691 12.0372V10.4073C8.74691 10.2367 8.81469 10.073 8.93533 9.95239C9.05597 9.83175 9.21959 9.76397 9.39021 9.76397C9.56082 9.76397 9.72444 9.83175 9.84508 9.95239C9.96572 10.073 10.0335 10.2367 10.0335 10.4073V12.0372C10.029 12.2033 9.9605 12.3613 9.84222 12.4781C9.72394 12.5949 9.56508 12.6614 9.39887 12.6638Z" fill="#AECBFA"/>
</svg>
